<svg width="61" height="61" viewBox="0 0 61 61" fill="none" xmlns="http://www.w3.org/2000/svg">
<circle cx="30.4635" cy="30.5198" r="30.4635" fill="#101A24" fill-opacity="0.58"/>
<path d="M24.5091 29.2073C24.5747 29.14 24.8223 28.8522 25.0529 28.6154C26.4051 27.1265 29.9324 24.6894 31.7786 23.9455C32.0589 23.826 32.7678 23.573 33.1465 23.5568C33.5094 23.5568 33.8554 23.6403 34.1855 23.8098C34.597 24.0465 34.9272 24.419 35.108 24.8589C35.2245 25.1641 35.4054 26.0774 35.4054 26.0937C35.5863 27.0929 35.6858 28.7164 35.6858 30.5106C35.6858 32.22 35.5863 33.7774 35.4382 34.7917C35.4212 34.8079 35.2403 35.9429 35.0425 36.3317C34.6796 37.0419 33.9707 37.4829 33.2121 37.4829H33.1465C32.6525 37.4655 31.6135 37.0245 31.6135 37.0083C29.8668 36.2632 26.4209 33.9457 25.036 32.4057C25.036 32.4057 24.6459 32.0099 24.4763 31.7628C24.2118 31.4076 24.0806 30.9678 24.0806 30.528C24.0806 30.0371 24.2287 29.5798 24.5091 29.2073Z" fill="white"/>
</svg>
