<svg width="61" height="62" viewBox="0 0 61 62" fill="none" xmlns="http://www.w3.org/2000/svg">
<circle cx="30.5367" cy="30.9456" r="30.4635" fill="#101A24" fill-opacity="0.58"/>
<path d="M35.9107 32.2582C35.8451 32.3255 35.5976 32.6133 35.3669 32.8501C34.0148 34.339 30.4875 36.7761 28.6413 37.52C28.3609 37.6395 27.652 37.8925 27.2733 37.9088C26.9104 37.9088 26.5644 37.8252 26.2343 37.6558C25.8228 37.419 25.4927 37.0465 25.3118 36.6067C25.1953 36.3014 25.0144 35.3881 25.0144 35.3719C24.8336 34.3727 24.7341 32.7491 24.7341 30.955C24.7341 29.2455 24.8336 27.6881 24.9817 26.6738C24.9986 26.6576 25.1795 25.5226 25.3774 25.1338C25.7403 24.4236 26.4491 23.9826 27.2077 23.9826H27.2733C27.7673 24 28.8063 24.441 28.8063 24.4573C30.553 25.2023 33.9989 27.5198 35.3839 29.0598C35.3839 29.0598 35.7739 29.4556 35.9435 29.7028C36.208 30.0579 36.3392 30.4977 36.3392 30.9376C36.3392 31.4285 36.1911 31.8857 35.9107 32.2582Z" fill="white"/>
</svg>
