<svg width="24" height="24" viewBox="0 0 24 24" fill="none" xmlns="http://www.w3.org/2000/svg">
<path d="M12 2.25C10.0716 2.25 8.18657 2.82183 6.58319 3.89317C4.97982 4.96451 3.73013 6.48726 2.99218 8.26884C2.25422 10.0504 2.06114 12.0108 2.43735 13.9021C2.81355 15.7934 3.74215 17.5307 5.10571 18.8943C6.46928 20.2579 8.20656 21.1865 10.0979 21.5627C11.9892 21.9389 13.9496 21.7458 15.7312 21.0078C17.5127 20.2699 19.0355 19.0202 20.1068 17.4168C21.1782 15.8134 21.75 13.9284 21.75 12C21.745 9.41566 20.7162 6.93859 18.8888 5.11118C17.0614 3.28378 14.5843 2.25496 12 2.25ZM12 20.25C10.3683 20.25 8.77326 19.7661 7.41655 18.8596C6.05984 17.9531 5.00242 16.6646 4.378 15.1571C3.75358 13.6496 3.5902 11.9908 3.90853 10.3905C4.22685 8.79016 5.01259 7.32015 6.16637 6.16637C7.32016 5.01259 8.79017 4.22685 10.3905 3.90852C11.9909 3.59019 13.6497 3.75357 15.1571 4.37799C16.6646 5.00242 17.9531 6.05984 18.8596 7.41655C19.7661 8.77325 20.25 10.3683 20.25 12C20.2475 14.1873 19.3775 16.2843 17.8309 17.8309C16.2843 19.3775 14.1873 20.2475 12 20.25ZM9 12C9 12.6296 9.19812 13.2433 9.56628 13.7541C9.93444 14.2649 10.454 14.6469 11.0513 14.8461C11.6487 15.0452 12.2935 15.0513 12.8945 14.8635C13.4955 14.6758 14.0222 14.3037 14.4 13.8C14.5208 13.6429 14.6983 13.5393 14.8945 13.5113C15.0907 13.4833 15.29 13.5331 15.45 13.65C15.6091 13.7693 15.7143 13.947 15.7425 14.1439C15.7706 14.3408 15.7194 14.5409 15.6 14.7C15.0333 15.4556 14.2433 16.0137 13.3418 16.2953C12.4402 16.5769 11.473 16.5677 10.577 16.2691C9.68098 15.9704 8.90166 15.3974 8.34941 14.6312C7.79717 13.865 7.5 12.9445 7.5 12C7.5 11.0555 7.79717 10.135 8.34941 9.3688C8.90166 8.60261 9.68098 8.02959 10.577 7.73093C11.473 7.43226 12.4402 7.42308 13.3418 7.70469C14.2433 7.9863 15.0333 8.54442 15.6 9.3C15.7194 9.45913 15.7706 9.65915 15.7425 9.85607C15.7143 10.053 15.6091 10.2307 15.45 10.35C15.29 10.4669 15.0907 10.5167 14.8945 10.4887C14.6983 10.4607 14.5208 10.3571 14.4 10.2C14.0222 9.69628 13.4955 9.3242 12.8945 9.13646C12.2935 8.94872 11.6487 8.95484 11.0513 9.15395C10.454 9.35306 9.93444 9.73507 9.56628 10.2459C9.19812 10.7567 9 11.3704 9 12Z" fill="white"/>
</svg>
