<svg width="14" height="11" viewBox="0 0 14 11" fill="none" xmlns="http://www.w3.org/2000/svg">
<path d="M3.99368 11.0006C3.95246 11 3.91235 10.9871 3.87842 10.9637C3.8445 10.9403 3.81828 10.9073 3.80309 10.8689C3.78856 10.8398 2.52957 7.58792 0.582534 6.35743C0.201764 6.12314 -0.0909767 5.8743 0.0261194 5.31763C0.143216 4.77592 0.509037 4.46809 1.16801 4.32186C2.33898 4.07261 3.59838 5.88884 4.06635 6.63577C5.70653 4.24875 8.98563 0.499139 13.7583 0.0596212C13.9884 0.0326187 14.0739 0.374096 13.8609 0.469644C13.7878 0.498723 6.96552 3.61855 4.1984 10.8835C4.17771 10.9194 4.14786 10.9492 4.11189 10.9698C4.07592 10.9903 4.03512 11.001 3.99368 11.0006Z" fill="#00B42C"/>
</svg>
