<svg width="108" height="108" viewBox="0 0 108 108" fill="none" xmlns="http://www.w3.org/2000/svg">
<g opacity="0.1">
<path d="M57.7695 43.1111C57.2818 30.4472 44.9489 16.895 33.7831 12.0002C29.1321 9.33499 21.4676 10.3976 16.9037 13.0105C11.4863 16.1111 10.5805 22.7653 10.4586 28.4789C10.1799 42.0311 18.2973 57.6911 32.6683 60.5131C44.3218 62.795 58.2573 56.1408 57.7695 43.1111ZM32.5463 14.1079C40.8554 17.7485 48.0844 25.5176 52.3173 33.426C55.0695 38.5821 56.7592 45.0795 53.8153 50.584C51.9515 54.1027 48.5373 55.9143 44.8966 56.9595C36.7966 57.7085 27.6341 48.8421 23.8366 42.275C19.6908 35.1331 13.4895 25.2214 16.5031 16.8602C20.5444 13.0105 27.8953 11.4253 32.5463 14.1079ZM14.256 38.7911C12.8973 33.9485 12.3573 28.3918 13.3328 23.3227C14.0121 31.0221 18.8373 39.3137 22.6521 45.0272C25.805 49.7653 31.6231 55.6182 37.8418 58.1614C26.5018 58.5447 17.287 49.5737 14.256 38.7911Z" fill="#101A24"/>
<path d="M23.6276 14.9964C23.5057 15.2403 23.4708 15.5015 23.6102 15.8325C24.2373 21.1977 26.0489 25.8138 29.4108 30.1164C34.9676 37.1886 41.5695 42.3796 42.4231 52.0299C42.5624 53.6151 44.6702 53.5803 44.8618 52.0299C45.6805 45.5151 45.3495 39.2267 40.8379 34.1054C35.2115 27.6951 29.3412 23.4448 25.9618 15.188C25.927 15.1183 25.8921 15.0835 25.8573 15.0138C25.8399 14.9964 25.8224 14.9964 25.8224 14.979C25.7549 14.8596 25.6664 14.7534 25.5612 14.6654C25.5089 14.6306 25.4566 14.6132 25.4218 14.5783C25.3521 14.5435 25.2824 14.4912 25.1953 14.4564C24.6553 14.2474 24.0108 14.3693 23.7147 14.8396C23.6799 14.8919 23.645 14.9267 23.6276 14.9964ZM33.5566 30.4474C35.9953 32.7119 38.9915 35.0112 40.7682 37.8854C41.9528 39.8015 42.5102 41.979 42.7192 44.2086C39.9147 38.2164 35.0199 33.4609 31.2399 28.0783C31.9715 28.8796 32.7379 29.6809 33.5566 30.4474ZM50.7495 43.9125C50.5928 45.4803 53.0315 45.4628 53.1883 43.9125C53.467 41.0557 52.8747 38.2861 51.5508 35.7428C50.8192 34.3493 48.7115 35.5861 49.4431 36.9796C50.5928 39.157 50.9934 41.4738 50.7495 43.9125ZM50.6624 46.8912H50.5928C49.025 46.8912 49.025 49.3299 50.5928 49.3299H50.6624C52.2302 49.3299 52.2302 46.8912 50.6624 46.8912ZM92.2773 50.1661C87.7134 47.5706 80.0315 46.4906 75.3979 49.1557C64.2321 54.0506 51.8992 67.6028 51.4115 80.2667C50.9237 93.279 64.8592 99.9506 76.4953 97.6686C90.9012 94.8467 98.9663 79.2041 98.705 65.6345C98.6005 59.9383 97.6773 53.2493 92.2773 50.1661ZM55.3483 87.7396C52.4392 82.2699 54.0766 75.7028 56.8463 70.5815C61.1141 62.6732 68.256 54.9215 76.6173 51.2635C81.2857 48.5809 88.6192 50.1138 92.6605 53.9809C95.6915 62.3422 89.4902 72.2886 85.3444 79.4306C81.5295 85.9977 72.3844 94.8815 64.267 94.1151C60.6263 93.0699 57.2295 91.2757 55.3483 87.7396ZM71.3566 95.3344C77.5579 92.7912 83.376 86.9383 86.5463 82.2002C90.3612 76.5041 95.1863 68.1777 95.8483 60.4783C96.8063 65.5299 96.3012 71.1912 94.9076 75.9641C91.7895 86.7119 82.7315 95.7177 71.3566 95.3344Z" fill="#101A24"/>
<path d="M64.5283 88.316C66.9844 73.5618 83.3586 68.1618 86.1108 53.3379V53.216C86.1283 53.1115 86.1283 52.9895 86.1108 52.885C86.1108 52.8502 86.1108 52.7979 86.0934 52.7631C86.0608 52.6252 86.0017 52.4951 85.9192 52.3799C85.9192 52.3799 85.9192 52.3624 85.9018 52.3624C85.5883 51.9095 84.996 51.6831 84.4908 51.8573C84.2295 51.927 84.0031 52.1186 83.8637 52.4147C80.1883 59.3825 73.4818 64.3644 68.0644 69.9386C63.0128 75.147 61.7237 80.8605 62.1244 87.985C62.2115 89.2915 64.3018 89.7444 64.5283 88.316ZM68.2212 73.3354C69.8237 71.4018 71.8095 69.7818 73.5166 67.9354C75.7463 65.5141 78.1154 63.3889 80.3276 61.1244C76.025 67.8657 69.1444 72.8476 65.1031 79.7979C65.6257 77.516 66.5663 75.3386 68.2212 73.3354ZM76.2515 82.9665C74.3354 85.8407 71.3741 87.6001 68.3605 89.133C66.967 89.8472 68.2037 91.9549 69.5973 91.2407C73.0115 89.4988 76.1992 87.4259 78.3592 84.1859C79.2302 82.8968 77.1224 81.6775 76.2515 82.9665ZM79.3347 79.2388C77.767 79.2388 77.767 81.6775 79.3347 81.6775C80.9025 81.6775 80.9025 79.2388 79.3347 79.2388ZM28.2786 83.071C26.7108 83.071 26.7108 85.5097 28.2786 85.5097C29.8463 85.5097 29.8463 83.071 28.2786 83.071ZM27.9302 73.1089V72.8825C27.9302 71.3147 25.4915 71.3147 25.4915 72.8825V73.1089C25.4915 74.6766 27.9302 74.6766 27.9302 73.1089ZM40.5766 68.7523C39.0089 68.7523 39.0089 71.191 40.5766 71.191C42.1444 71.191 42.1444 68.7523 40.5766 68.7523ZM37.1276 80.7194V80.9459C37.1276 82.5136 39.5663 82.5136 39.5663 80.9459V80.7194C39.5663 79.1517 37.1276 79.1343 37.1276 80.7194ZM32.7554 75.2497C31.1876 75.2497 31.1876 77.6884 32.7554 77.6884C34.3231 77.6884 34.3231 75.2497 32.7554 75.2497ZM34.985 64.7302H34.7586C33.1908 64.7302 33.1908 67.1689 34.7586 67.1689H34.985C36.5528 67.1689 36.5528 64.7302 34.985 64.7302ZM45.2799 72.1143C43.7121 72.1143 43.7121 74.553 45.2799 74.553C46.8476 74.553 46.8476 72.1143 45.2799 72.1143ZM44.827 84.8652C43.2592 84.8652 43.2592 87.3039 44.827 87.3039C46.3947 87.3039 46.3947 84.8652 44.827 84.8652ZM71.3218 39.3485C72.8895 39.3485 72.8895 36.9097 71.3218 36.9097C69.7541 36.9097 69.7366 39.3485 71.3218 39.3485ZM66.845 28.376C68.4128 28.376 68.4128 25.9373 66.845 25.9373C65.2773 25.9373 65.2773 28.376 66.845 28.376ZM75.3805 25.5349C76.9483 25.5349 76.9483 23.0962 75.3805 23.0962C73.8128 23.0962 73.8128 25.5349 75.3805 25.5349ZM88.3754 33.2517C89.9431 33.2517 89.9431 30.813 88.3754 30.813C86.8076 30.813 86.8076 33.2517 88.3754 33.2517ZM78.2199 41.3865C79.7876 41.3865 79.7876 38.9478 78.2199 38.9478C76.6521 38.9478 76.6521 41.3865 78.2199 41.3865ZM79.0908 34.1244L79.4915 33.7237C80.6063 32.6089 78.8818 30.8844 77.767 31.9992L77.3663 32.3999C76.2515 33.4973 77.976 35.2218 79.0908 34.1244ZM83.4979 27.573C85.0657 27.573 85.0657 25.1343 83.4979 25.1343C81.9302 25.1343 81.9302 27.573 83.4979 27.573ZM93.2528 40.5695C94.8205 40.5695 94.8205 38.1308 93.2528 38.1308C91.685 38.1308 91.685 40.5695 93.2528 40.5695ZM85.1354 45.4452C86.7031 45.4452 86.7031 43.0065 85.1354 43.0065C83.5502 43.0065 83.5502 45.4452 85.1354 45.4452Z" fill="#101A24"/>
</g>
</svg>
