<svg width="207" height="102" viewBox="0 0 207 102" fill="none" xmlns="http://www.w3.org/2000/svg">
<g opacity="0.1">
<path d="M167.413 81.9611C167.92 81.5209 167.803 80.9624 167.79 80.3917C167.808 79.6452 167.891 78.9015 168.037 78.1673C169.017 78.328 170.007 78.4387 171.001 78.5002C172.092 78.5002 172.872 78.0129 172.872 77.3115C172.892 76.5979 172.732 75.8897 172.405 75.2417C171.244 73.3592 169.453 71.867 167.296 70.9845C164.074 69.4595 160.678 68.2633 157.171 67.4167C157.479 67.3098 157.797 67.2263 158.12 67.1669C159.238 67.1669 160.368 67.1669 161.473 67.0599C162.421 66.9519 163.347 66.7279 164.229 66.394C165.88 65.7636 166.205 64.9311 165.528 63.4565C165.256 62.8975 164.892 62.3624 164.385 61.4824C166.4 62.1126 168.037 62.6002 169.649 63.1472C170.858 63.5516 172.001 64.0987 173.224 64.4554C175.086 64.984 176.843 65.7874 178.423 66.834C179.668 67.6989 180.97 68.4932 182.322 69.2127C182.67 69.4567 183.079 69.6187 183.512 69.685C183.944 69.7507 184.389 69.7185 184.805 69.59C185.22 69.4622 185.596 69.2428 185.897 68.9509C186.198 68.659 186.417 68.3034 186.533 67.9162C186.702 67.595 186.819 67.2621 186.988 66.8578C187.651 67.0599 188.288 67.2978 188.912 67.4286C191.082 67.8805 192.174 66.7745 191.511 64.8479C191.261 64.0833 190.806 63.3885 190.186 62.8274C189.566 62.2663 188.801 61.8569 187.963 61.6369L185.753 60.7926L185.87 60.4833C188.015 60.9472 190.16 61.3753 192.369 61.8629C195.397 62.5765 198.413 63.3732 201.468 64.0273C202.183 64.1926 202.939 64.1267 203.606 63.8405C204.274 63.5544 204.814 63.0658 205.133 62.4575C205.783 61.4586 205.549 60.4952 204.431 59.2585C204.054 58.8422 203.729 58.3903 203.314 57.867C204.197 57.4627 204.912 57.1772 205.575 56.8086C205.89 56.6881 206.158 56.4846 206.345 56.224C206.533 55.9635 206.631 55.6577 206.628 55.3458C206.563 54.6798 205.991 54.4539 205.328 54.2517C201.801 53.1671 198.017 52.9821 194.384 53.7166C191.817 54.3119 189.164 54.5366 186.52 54.3825C187.989 53.5382 189.471 52.7056 190.939 51.8494C191.354 51.6864 191.691 51.3927 191.889 51.0217C192.087 50.6507 192.133 50.227 192.018 49.8277C191.784 48.7455 191.394 48.3173 190.133 48.2103C189.195 48.187 188.256 48.2347 187.326 48.353C186.966 48.4087 186.61 48.4842 186.26 48.579C186.119 48.2249 185.897 47.9022 185.61 47.6319C185.323 47.3616 184.976 47.15 184.594 47.0108C184.21 46.8715 183.8 46.8079 183.389 46.824C182.977 46.8401 182.573 46.9356 182.205 47.1043C178.969 48.0676 176.486 50.0893 173.899 51.9446C171.626 53.8038 169.111 55.4013 166.412 56.7015C165.555 56.1783 164.658 55.5123 163.683 55.0842C162.886 54.6343 162.004 54.3238 161.083 54.1685C159.368 54.0138 157.626 54.1685 155.884 54.0495C155.467 54.1081 155.04 54.0831 154.634 53.9764C154.228 53.8696 153.851 53.6836 153.532 53.4311C154.516 53.1059 155.585 53.0603 156.599 53.3003C159.121 53.6214 160.421 52.4559 159.797 50.5055C159.774 50.3915 159.774 50.2748 159.797 50.1607C160.057 50.0179 160.342 49.8753 160.616 49.6969C161.916 48.9238 161.331 47.8297 160.329 47.4254C159.977 47.2715 159.589 47.1981 159.198 47.2113C157.704 47.2946 156.209 47.4254 154.714 47.5681C154.025 47.6276 153.324 47.9249 152.7 47.354C153.219 46.8725 153.857 46.5129 154.562 46.3059C155.266 46.0987 156.013 46.0504 156.742 46.1648C159.473 46.3661 162.176 46.8081 164.814 47.4849C166.441 47.8761 168.09 48.1857 169.753 48.4125C172.249 48.6741 173.652 47.0211 172.937 44.8448L172.69 44.0836C173.088 43.9753 173.478 43.8483 173.86 43.7031C175.056 43.156 175.082 42.7517 174.329 41.6814C173.953 41.1333 173.396 40.7101 172.739 40.4745C172.081 40.2389 171.357 40.2034 170.676 40.3732C170.335 40.4475 169.98 40.4428 169.641 40.3598C169.304 40.2767 168.994 40.1179 168.74 39.8975C169.476 39.5289 170.257 39.2377 171.066 39.0293C173.079 38.5896 175.144 38.3859 177.214 38.4228C178.608 38.3768 179.995 38.2217 181.36 37.959C182.172 37.8182 182.906 37.4231 183.435 36.8416C183.964 36.2601 184.255 35.5283 184.259 34.7718C184.272 34.0994 184.051 33.4408 183.625 32.8926C183.199 32.3445 182.591 31.936 181.893 31.7273C181.438 31.5484 181.002 31.3293 180.593 31.0732C180.294 28.552 179.891 28.2071 177.279 28.1477C177.123 28.1477 176.954 28.1477 176.785 28.1477C174.769 28.1883 172.812 28.7716 171.157 29.8245C169.859 30.698 168.389 31.3358 166.828 31.7036C167.505 30.5143 167.608 29.5985 166.763 28.8137C165.463 27.6244 164.242 28.338 163.072 29.0515L162.669 28.6234C161.759 27.6363 161.174 27.5768 160.213 28.4925C159.594 29.0099 159.091 29.6318 158.731 30.324C157.197 33.8918 155.195 37.4595 154.389 41.2889C154.356 41.6272 154.214 41.9491 153.984 42.2152C153.753 42.4813 153.442 42.6801 153.089 42.7874L149.463 43.9766C148.723 42.6684 147.565 42.383 145.824 42.6565C146.291 42.0738 146.474 41.5862 146.773 41.4673C147.825 41.2175 147.93 40.4207 148.073 39.6953C148.176 39.1736 148.224 38.6438 148.215 38.1136L146.37 36.7222C146.927 35.7661 147.781 34.9836 148.826 34.4745C150.923 33.4195 152.708 31.9133 154.025 30.0862C154.444 29.268 155.103 28.5729 155.931 28.0792C156.757 27.5854 157.718 27.3126 158.704 27.2914C159.316 27.2914 159.927 27.1368 160.537 27.1011L170.403 26.5541C172.089 26.4536 173.736 26.0495 175.251 25.3648C175.705 25.1707 176.095 24.8689 176.378 24.4907C176.662 24.1125 176.829 23.6718 176.863 23.2142C176.899 22.7566 176.798 22.299 176.574 21.8888C176.35 21.4785 176.01 21.1307 175.589 20.8814C175.368 20.7506 175.186 20.5722 174.848 20.3224C176.356 19.4662 176.239 18.3007 175.992 17.0163C175.836 16.1601 175.355 15.827 174.562 15.827C173.623 15.9252 172.693 16.0882 171.781 16.3147C171.209 16.4217 170.65 16.5763 169.714 16.8023C169.933 16.3843 170.194 15.9862 170.494 15.613C172.352 13.9124 174.237 12.2355 176.122 10.5587C176.847 10.0388 177.436 9.37694 177.845 8.62175C178.255 7.86655 178.474 7.03705 178.488 6.19415C178.48 5.79182 178.372 5.39641 178.172 5.03839C177.971 4.68037 177.682 4.3693 177.33 4.12916C176.977 3.88901 176.568 3.72622 176.136 3.6533C175.703 3.58039 175.259 3.59931 174.835 3.70861C174.329 3.85133 173.809 3.95836 173.197 4.11296C173.197 3.60158 173.197 3.30427 173.094 3.00696C173.032 2.25934 172.677 1.55726 172.095 1.03042C171.511 0.503585 170.739 0.187607 169.922 0.140869C168.102 0.212224 166.711 0.806849 166.426 2.60261C166.27 3.7719 166 4.9261 165.62 6.05144C164.957 7.83531 164.151 9.6192 163.358 11.3198C163.139 11.689 162.877 12.0357 162.578 12.3545L162.214 12.2593C162.083 11.7959 162 11.322 161.967 10.8441C161.967 9.417 162.084 7.97804 162.097 6.55092C162.175 5.57042 162.131 4.58504 161.967 3.61348C161.896 3.27097 161.733 2.9501 161.492 2.68001C161.251 2.40991 160.941 2.19913 160.588 2.06682C160.235 1.93451 159.852 1.88484 159.473 1.92233C159.094 1.95983 158.732 2.08329 158.419 2.28152C157.688 2.55636 157.036 2.97977 156.512 3.51965C155.987 4.05953 155.603 4.70167 155.39 5.39735C155.374 5.57915 155.308 5.75427 155.198 5.9068C155.089 6.05934 154.94 6.18443 154.764 6.27071C154.589 6.35698 154.392 6.4017 154.193 6.40079C153.993 6.39988 153.798 6.35338 153.623 6.2655C153.296 6.17793 152.947 6.18972 152.628 6.29909C152.309 6.40845 152.038 6.6095 151.855 6.87202C151.446 7.33528 151.241 7.92226 151.282 8.51689C151.323 9.11145 151.606 9.67033 152.076 10.083C152.362 10.3684 152.79 10.6776 152.83 11.0225C153.256 13.2402 153.352 15.5004 153.115 17.7418C152.895 19.0024 152.7 20.2748 152.595 21.5473C152.487 22.923 151.791 24.2044 150.659 25.1151C150.072 24.7055 149.508 24.2689 148.969 23.8069C148.735 23.569 148.514 23.0815 148.631 22.8674C149.45 21.357 149.086 19.4067 150.711 18.2055C150.855 18.0474 150.941 17.8519 150.958 17.6466C151.075 16.1125 151.27 14.5784 151.257 13.0561C151.244 11.5339 150.854 11.2604 149.113 11.2604C148.932 11.225 148.761 11.1606 148.605 11.0701C148.595 10.7705 148.625 10.4708 148.696 10.1781C148.82 9.83732 148.867 9.47702 148.833 9.11917C148.8 8.76133 148.687 8.41347 148.501 8.09698C148.408 7.78261 148.214 7.50125 147.943 7.28983C147.672 7.0784 147.337 6.94675 146.983 6.91206C146.63 6.87735 146.273 6.94125 145.959 7.09535C145.645 7.2495 145.39 7.48669 145.226 7.77584C144.844 8.53199 144.578 9.33224 144.433 10.1544C143.924 9.15041 143.541 8.09725 143.29 7.01476C143.039 5.48898 142.372 4.04541 141.352 2.81668C141.113 2.40766 140.76 2.06367 140.328 1.81939C139.897 1.57511 139.403 1.43916 138.896 1.42526C138.361 1.39214 137.829 1.52738 137.39 1.80857C136.95 2.08976 136.629 2.5 136.478 2.97128C136.351 3.17269 136.194 3.35682 136.011 3.51834C135.867 3.51834 135.802 3.51834 135.751 3.51834C135.113 3.22102 134.451 2.89993 133.84 2.60261C133.574 2.42786 133.263 2.31699 132.938 2.28012C132.612 2.24325 132.282 2.28156 131.977 2.39155C131.672 2.50154 131.402 2.6797 131.191 2.90978C130.981 3.13984 130.837 3.41449 130.772 3.70861C130.571 4.19227 130.508 4.71502 130.59 5.22711C130.672 5.7392 130.896 6.22358 131.24 6.63417C132.293 7.89478 133.424 9.09593 134.503 10.3446C134.746 10.6771 134.959 11.0271 135.14 11.3912L134.853 11.5814C134.295 11.2841 133.463 11.0938 133.229 10.6419C132.54 9.29806 131.137 8.97699 129.914 8.42994C129.571 8.27327 129.196 8.18782 128.812 8.17969C128.429 8.17162 128.05 8.24107 127.699 8.38312C127.349 8.52516 127.037 8.73631 126.786 9.0014C126.536 9.26648 126.352 9.57894 126.249 9.91648C125.961 10.3625 125.846 10.8842 125.921 11.3977C125.997 11.9111 126.258 12.3863 126.665 12.7469C126.808 12.8539 126.821 13.1037 126.925 13.3653C126.665 13.5199 126.431 13.6507 126.223 13.7934C124.287 15.1611 124.079 16.4811 125.833 18.039C126.812 18.8642 127.949 19.5173 129.187 19.9657C131.149 20.6911 133.242 21.1549 135.231 21.7852C137.081 22.3313 138.744 23.3111 140.052 24.6275C140.01 24.7552 139.953 24.8787 139.884 24.9962C138.818 26.5422 137.284 27.8266 136.635 29.6223C136.135 30.6757 135.267 31.5463 134.165 32.096C134.308 31.323 134.425 30.8235 134.49 30.3359C134.655 29.6364 134.738 28.9228 134.737 28.2071C134.741 27.7715 134.623 27.3421 134.396 26.9593C134.168 26.5765 133.839 26.2529 133.437 26.0189C132.839 25.7454 131.656 26.4708 131.007 27.3747C130.617 27.9218 130.187 28.4331 129.784 28.9683C129.274 28.6764 128.685 28.5206 128.083 28.5182C127.481 28.5159 126.891 28.6672 126.378 28.955C125.864 29.2428 125.449 29.6559 125.179 30.1477C124.908 30.6395 124.792 31.1907 124.845 31.7392C124.918 32.9683 124.655 34.1946 124.079 35.307C123.474 35.1499 122.846 35.0896 122.22 35.1285C121.613 35.2465 121.046 35.4917 120.561 35.8445C120.076 36.1974 119.687 36.6484 119.425 37.1622C119.061 37.955 118.71 38.7479 118.372 39.5407C118.301 39.8586 118.159 40.1598 117.956 40.4256C117.752 40.6915 117.492 40.9165 117.19 41.0867C117.245 40.651 117.345 40.2209 117.489 39.8023C118.489 37.6974 119.594 35.6162 120.53 33.4755C121.093 32.1983 121.528 30.8767 121.83 29.5272C121.903 29.1136 121.824 28.6895 121.605 28.3214C121.386 27.9533 121.04 27.6621 120.621 27.4936C120.245 27.2618 119.794 27.1544 119.343 27.189C118.892 27.2236 118.467 27.3982 118.139 27.6839C117.982 27.8147 117.775 27.9099 117.605 28.0525C116.969 28.5758 116.475 28.3261 116.059 27.8028C115.894 27.5377 115.746 27.2637 115.617 26.9822C114.876 25.7929 113.511 25.7098 112.25 25.6384C110.99 25.567 110.482 26.3638 110.015 27.232C109.654 27.8064 109.422 28.4406 109.33 29.0979C109.238 29.7551 109.29 30.4224 109.482 31.0614C110.02 32.5958 110.188 34.2187 109.976 35.8183C109.784 35.2711 109.457 34.7717 109.019 34.3592C108.582 33.9466 108.046 33.632 107.454 33.4398C106.297 32.9998 105.504 33.0593 105.336 34.0701C104.985 36.1276 103.646 36.6508 101.709 36.6627C101.618 36.6627 101.514 36.5795 101.475 36.5676C100.565 33.7372 99.6943 30.9424 98.759 28.1596C97.8228 25.3767 97.0817 25.1151 94.378 26.1854C93.5853 25.6503 92.7149 25.1745 91.6877 25.8643C90.9159 26.3625 90.3683 27.1 90.1457 27.9399C89.923 28.7798 90.0418 29.665 90.4789 30.431C89.4912 29.658 88.8674 29.1585 88.2301 28.6828C87.5996 28.178 86.9354 27.7092 86.2413 27.2796C85.7266 26.9231 85.108 26.7145 84.4632 26.6802C83.8185 26.6458 83.1775 26.7872 82.6209 27.0864C82.0643 27.3856 81.6168 27.8293 81.3359 28.3612C81.055 28.893 80.9526 29.4892 81.0423 30.0743C81.0804 30.4552 81.1499 30.8329 81.2507 31.2041C80.7823 31.5608 80.3019 31.9057 79.8469 32.2744C77.897 33.7847 78.0143 35.8183 80.0808 37.0076C81.1192 37.7246 82.393 38.0978 83.6937 38.066C84.2003 38.0508 84.7031 38.1445 85.1625 38.3396C87.5801 39.2434 89.985 40.1829 92.3899 41.1343C92.4803 41.1343 92.4803 41.384 92.5065 41.4673C90.8166 41.3008 89.1535 41.0867 87.4897 40.9797C86.9548 40.9114 86.4109 41.0152 85.9515 41.2734C85.4913 41.5316 85.1439 41.928 84.9675 42.3949C84.7344 42.8961 84.6963 43.4553 84.8592 43.9791C85.0228 44.503 85.3777 44.9597 85.8648 45.2729C86.3459 45.6296 86.8786 45.9151 87.3597 46.2718C87.5674 46.4264 87.8924 46.6761 87.8663 46.8427C87.6713 47.8892 88.0351 49.0547 87.1513 49.9585C87.8977 51.2077 89.1259 52.1575 90.5962 52.6225C91.2663 52.8709 91.8759 53.2388 92.3899 53.7047C93.1961 54.3184 93.716 55.1902 93.8438 56.1426C93.9723 57.095 93.6981 58.0561 93.0788 58.8303C92.4938 59.7104 91.61 59.9482 90.2189 60.1504C90.6089 59.5439 90.8166 59.2347 91.0116 58.9611C91.1811 58.7545 91.2895 58.5115 91.3253 58.2555C91.3619 57.9995 91.3253 57.7392 91.2192 57.4999C91.1132 57.2606 90.9421 57.0505 90.7209 56.8897C90.4998 56.729 90.2376 56.6233 89.9589 56.5826C89.4262 56.4164 88.8547 56.3837 88.3041 56.4883C87.7527 56.5929 87.2424 56.8309 86.8263 57.1772C86.0142 57.7758 85.1446 58.3052 84.2272 58.7589C85.9993 56.1254 87.0265 53.1295 87.2163 50.0417C86.9175 47.6633 84.7598 47.6633 82.8361 47.4968C82.8361 47.247 82.8361 47.0449 82.7711 46.8546C82.6874 46.2506 82.3863 45.6892 81.9156 45.2587C81.445 44.8282 80.8316 44.5529 80.1719 44.476C79.5937 44.3443 78.9855 44.3787 78.4297 44.5744C77.8739 44.7702 77.3972 45.1179 77.0655 45.5702C76.7555 45.9724 76.5642 46.4415 76.5119 46.9314C76.4596 47.4213 76.547 47.9152 76.7659 48.3649C77.1432 49.5542 77.5982 50.7434 78.0659 51.8732C78.3625 52.6297 78.491 53.4327 78.4446 54.2352C78.3976 55.0377 78.1757 55.8237 77.7932 56.547C77.5332 55.3577 77.3897 54.3112 77.052 53.3003C76.9489 53.0216 76.7801 52.7672 76.556 52.5557C76.3326 52.3441 76.0607 52.1807 75.7596 52.0771C75.4587 51.9735 75.1363 51.9325 74.8158 51.9569C74.4954 51.9812 74.1848 52.0705 73.9067 52.2181C73.5367 52.4326 73.1807 52.667 72.8408 52.9197C72.1192 52.5518 71.2886 52.4031 70.4686 52.495C69.6486 52.5869 68.8818 52.9147 68.2786 53.4311C67.8568 53.7349 67.5158 54.1224 67.2814 54.5642C67.047 55.0061 66.9252 55.4909 66.9252 55.9821C66.9252 56.4732 67.047 56.958 67.2814 57.3999C67.5158 57.8417 67.8568 58.2292 68.2786 58.533C68.8226 58.9388 69.2228 59.4829 69.4288 60.0969C69.6347 60.7108 69.637 61.3667 69.4354 61.9818C69.211 62.7221 69.0887 63.4852 69.0715 64.2532C69.0834 64.8205 68.9339 65.3807 68.6377 65.879C68.3414 66.3773 67.9086 66.7966 67.3817 67.0956C66.6097 67.6103 65.7545 68.0115 64.8472 68.2848C62.7415 68.8319 60.5969 69.2359 58.4782 69.7356C54.4965 70.8191 50.59 72.1219 46.7801 73.6367C43.4916 74.8254 40.2811 76.1461 37.0057 77.371C33.6611 78.4134 30.4141 79.7026 27.2963 81.2235C25.1906 82.4129 23.02 83.4718 21.0183 84.7917C17.7819 86.8725 14.8054 89.2868 11.114 90.9875C11.2202 91.3204 11.3872 91.6335 11.6079 91.9151C12.4062 92.5905 13.4249 93.0081 14.5073 93.1025C15.5898 93.1968 16.6763 92.9637 17.5999 92.4387C19.0297 91.6301 20.3814 90.7025 21.8112 89.9171C24.2678 88.5855 26.7504 87.2772 29.259 86.0283C31.7676 84.7794 34.1202 83.6502 36.5508 82.5442C37.2181 82.2256 37.8648 81.8722 38.4874 81.4854C42.2915 79.2084 46.3584 77.3218 50.6145 75.8603C54.1371 74.6593 57.7461 73.6818 61.4157 72.9347C64.3955 72.3003 67.4627 72.0795 70.5142 72.2805C71.9638 72.3215 73.4114 72.1534 74.8035 71.7815C77.5593 71.1273 80.2496 70.223 83.0184 69.629C84.9623 69.32 86.9593 69.4424 88.8412 69.9858C88.9585 69.9858 89.0235 70.1998 89.2439 70.4609C88.5162 70.5682 87.9447 70.6632 87.3336 70.7227C85.7864 70.9011 84.2137 70.9729 82.6799 71.2224C79.0408 71.8171 75.3884 72.4118 71.801 73.1486C66.3029 74.338 60.7268 75.2417 55.3587 76.9185C51.1816 78.2043 47.104 79.7457 43.1537 81.5332C40.4111 82.7937 37.7466 84.1854 35.108 85.6243C33.8951 86.3571 32.7278 87.1507 31.6116 88.0024C31.2685 88.2601 30.8933 88.4796 30.4938 88.6566C28.6481 89.3942 26.7894 90.131 24.9047 90.7852C23.228 91.3683 21.5253 91.8796 19.8095 92.3793C18.0938 92.8783 16.5861 93.1995 14.9873 93.6514C11.4649 94.6507 7.99446 95.8162 4.23808 95.9112C3.929 95.9092 3.62544 95.9857 3.36142 96.1327C3.0974 96.2804 2.88337 96.4916 2.74332 96.7438C2.2104 97.802 1.54751 98.8485 0.79364 100.038C1.30033 100.364 1.8253 100.665 2.36638 100.942C3.72084 101.456 5.22092 101.557 6.64268 101.227C11.2788 100.355 15.7888 98.9941 20.0825 97.1717C20.1782 97.3399 20.2913 97.4991 20.4204 97.6475C22.3311 99.3359 23.8909 100.287 26.1655 99.2532C26.4176 99.1609 26.6474 99.0242 26.8415 98.8512C27.0356 98.6776 27.1901 98.4705 27.2963 98.2422C27.6273 97.7192 28.0692 97.2626 28.5961 96.8983C28.96 96.577 29.4019 96.3514 29.7789 96.0418C31.6506 94.5913 33.4833 93.069 35.394 91.6656C36.363 90.9745 37.3984 90.3655 38.4874 89.846C39.2334 89.5097 40.0125 89.239 40.8141 89.0373C41.5549 88.7995 42.3348 88.6566 43.0627 88.3948C46.8182 87.0311 50.6754 85.9141 54.6049 85.0535C58.9531 84.251 63.4546 84.4971 67.6677 85.7665C69.653 86.3017 71.5805 87.0024 73.4257 87.8596C75.2298 88.673 76.7711 89.9027 77.897 91.4278C78.8361 92.7593 79.8783 94.0273 81.0161 95.2215C82.5245 96.7315 84.2533 96.5292 85.6175 94.8408L86.5663 93.6514L88.0613 94.27C89.8939 94.9836 90.8427 94.4956 90.9989 92.6882C91.0153 92.179 90.8853 91.6745 90.6216 91.2254C89.8468 89.9663 88.6604 88.9601 87.2297 88.3476C86.5275 88.0024 85.8514 87.5861 85.1625 87.1582C85.826 86.999 86.5267 87.0366 87.1648 87.2655C89.8939 88.4543 92.6365 89.6437 95.3014 90.833C97.3806 91.8557 99.4216 91.4872 100.188 89.6437C100.418 88.9136 100.471 88.1467 100.344 87.3961C100.236 86.8821 100.057 86.3824 99.8116 85.9094C99.9864 85.8519 100.171 85.8198 100.357 85.8143C101.8 86.0878 102.307 85.1007 102.112 83.9236C102.051 83.3816 101.831 82.8648 101.474 82.4287C101.117 81.9932 100.636 81.6549 100.084 81.4498C98.1702 80.5639 96.0178 80.2009 93.8841 80.4033C93.4523 80.4429 93.0168 80.4429 92.5849 80.4033C91.1938 80.4033 89.7901 80.4033 88.399 80.296C87.5615 80.2549 86.727 80.1592 85.9037 80.0109C85.6437 80.0109 85.4225 79.6302 85.0325 79.2973C85.7348 79.0314 86.4558 78.8085 87.1902 78.6315C87.6205 78.598 88.0359 78.4729 88.4042 78.2665C88.7718 78.06 89.0818 77.7777 89.3089 77.4421C89.669 76.9861 90.1942 76.6615 90.7912 76.5261C92.3249 76.0866 93.8976 75.6703 95.3268 76.8952C95.7302 77.116 96.1688 77.2767 96.6267 77.371C98.6155 78.1079 100.483 79.0922 102.177 80.296C102.509 80.4737 102.766 80.7492 102.905 81.0779C103.044 81.4061 103.058 81.7677 102.944 82.104C102.827 82.5442 102.944 83.2934 103.204 83.495C103.603 83.7568 103.894 84.1342 104.028 84.5662C104.163 84.9982 104.134 85.4589 103.945 85.8738C103.865 86.2258 103.829 86.5847 103.841 86.9443C103.831 87.1384 103.868 87.3325 103.95 87.5123C104.031 87.6928 104.156 87.8534 104.314 87.984C104.471 88.1152 104.659 88.2123 104.863 88.269C105.066 88.3251 105.281 88.3401 105.492 88.3121C106.085 88.2007 106.65 87.9867 107.156 87.6812C107.766 87.3606 108.325 86.9443 109.105 86.433C109.071 86.6729 109.006 86.9087 108.91 87.1343C108 88.4187 106.973 89.656 106.206 90.9992C105.843 91.7456 105.695 92.5645 105.777 93.378C105.738 93.7184 105.79 94.0629 105.93 94.3801C106.069 94.6979 106.291 94.9795 106.577 95.2003C106.863 95.4211 107.205 95.5742 107.57 95.646C107.936 95.7185 108.316 95.7068 108.676 95.6139C109.224 95.5236 109.76 95.3801 110.275 95.186C110.593 95.0862 110.905 94.9706 111.211 94.8408C111.301 95.162 111.341 95.3521 111.406 95.5421C111.505 95.8853 111.681 96.2052 111.924 96.4827C112.166 96.7595 112.467 96.9878 112.811 97.1519C113.155 97.3166 113.532 97.4137 113.918 97.4376C114.305 97.4615 114.694 97.4116 115.058 97.2907C115.867 96.9332 116.548 96.3726 117.02 95.6734C117.995 94.0916 119.139 92.4387 119.074 90.5241C119.074 90.3573 119.244 90.2028 119.451 89.8337C119.75 90.6191 119.997 91.1899 120.192 91.7723C120.342 92.1592 120.588 92.5085 120.91 92.7928C121.233 93.0779 121.623 93.2905 122.05 93.4135C122.87 93.7348 123.259 93.2112 123.819 92.8783C124.272 92.7128 124.736 92.5741 125.209 92.462C125.742 92.2364 126.509 92.0464 126.717 91.6417C127.045 91.2254 127.255 90.7415 127.327 90.2329C127.4 89.7243 127.333 89.2069 127.133 88.7277C126.939 88.1918 126.787 87.6429 126.678 87.0871C126.333 85.2634 125.576 83.5258 124.455 81.985C123.312 80.689 122.259 79.3328 120.959 77.7634C122.259 77.7634 123.143 77.7634 124.065 77.8939C125.469 77.9999 126.88 77.7873 128.173 77.2753C128.549 77.1331 129.148 76.7401 129.108 76.5384C128.914 75.4563 129.486 74.2909 128.744 73.2676C128.498 72.947 128.303 72.6018 127.952 72.0789C129.086 72.1759 130.228 71.9982 131.264 71.5641C132.3 71.1301 133.193 70.454 133.853 69.6051C133.406 72.1513 132.575 74.6285 131.383 76.9663C131.019 77.5453 130.781 78.1837 130.682 78.8454C130.512 80.7485 131.37 81.89 133.281 81.7588C133.575 81.7424 133.87 81.7424 134.165 81.7588C134.333 82.104 134.516 82.4129 134.672 82.7458C134.806 83.1881 135.101 83.5764 135.506 83.8457C135.912 84.1157 136.406 84.2524 136.907 84.2326C137.355 84.208 137.786 84.0672 138.149 83.8272C138.513 83.5873 138.794 83.2578 138.961 82.8771C139.585 81.3548 140.352 79.8803 141.066 78.3697C142.64 78.7149 142.64 78.7149 143.9 77.5849C144.069 77.8584 144.212 78.1202 144.394 78.3697C146.161 80.7485 147.656 81.2475 150.672 80.3438C151.972 79.9398 151.972 79.9631 152.96 80.9624C153.317 81.3514 153.76 81.6672 154.259 81.89C155.195 82.2824 155.858 82.0561 156.079 81.1525C156.443 79.6541 156.781 78.0839 155.624 76.7284C154.805 75.7653 153.883 74.8733 153.025 73.9457C152.557 73.4583 151.842 73.1254 151.881 72.2334C152.113 72.2703 152.324 72.3796 152.479 72.5423C154.09 74.0291 155.742 75.4796 157.314 76.9903C158.081 77.7394 158.614 78.6192 159.393 79.3684C160.277 80.3554 161.136 81.3664 162.111 82.2701C162.496 82.7513 163.038 83.1088 163.658 83.2927C164.279 83.4759 164.947 83.4766 165.567 83.2934C166.264 82.953 166.89 82.5018 167.413 81.9611ZM111.197 57.5935C111.197 55.7264 111.197 55.7264 109.897 54.109C111.031 53.4782 112.363 53.2143 113.68 53.3597C114.762 53.4252 115.847 53.4252 116.93 53.3597H117.605C116.8 55.0247 113.875 56.9632 111.197 57.5935ZM70.4492 77.4421C67.0308 78.2268 63.6254 79.0949 60.1679 79.7375C55.3406 80.648 50.6024 81.9167 46.0002 83.5313C45.3113 83.7691 44.6094 83.9352 43.9075 84.1259C43.7566 84.1437 43.6036 84.1437 43.4526 84.1259C53.942 78.5836 65.3671 75.8009 77.0782 73.9341L77.2343 74.2191C76.9691 74.4454 76.6822 74.6484 76.3759 74.8254C74.8815 75.5985 73.4777 76.2527 72.022 76.9424C71.5178 77.1577 70.9908 77.3252 70.4492 77.4421ZM91.3761 72.6852C89.6728 73.3393 87.9186 73.8746 86.2548 74.3503L83.9799 72.7802L96.6267 71.0556C96.6267 71.1868 96.6267 71.3058 96.7179 71.4363C95.0541 72.221 93.0788 72.031 91.3761 72.6852Z" fill="white"/>
<path d="M117.371 81.6993L118.671 80.5106C119.516 80.9269 118.854 81.5687 118.984 81.8777C120.101 82.9482 121.141 83.8518 122.05 84.8628C122.727 85.6359 122.61 85.8854 121.843 86.5164L118.684 83.3884C117.8 85.113 117.138 86.6585 116.254 88.1453C115.37 89.632 114.304 90.8091 113.29 92.1646C112.458 91.7723 112.445 91.4278 112.822 90.8809C113.628 89.6915 114.343 88.5021 115.24 87.1104C114.74 87.2341 114.232 87.3291 113.719 87.3961C113.472 87.3961 113.03 87.3011 113.005 87.1698C112.964 87.0345 112.959 86.8916 112.988 86.7542C113.018 86.6162 113.081 86.4856 113.173 86.3735C113.785 86.016 114.419 85.6899 115.071 85.3981C115.799 85.0412 116.969 85.2552 117.099 84.102C117.176 83.3884 117.268 82.6037 117.371 81.6993ZM115.864 92.6527C115.136 92.8311 114.85 93.3663 114.564 93.9371C115.175 93.6398 115.799 93.3779 115.864 92.6527ZM106.908 66.0015C105.998 67.1907 106.219 68.0113 107.597 68.7964C107.699 68.3121 107.691 67.8138 107.572 67.3328C107.454 66.8518 107.228 66.3985 106.908 66.0015ZM165.646 83.3884C165.025 83.5716 164.357 83.5716 163.736 83.3877C163.116 83.2038 162.574 82.8463 162.188 82.3658C161.213 81.4614 160.356 80.4511 159.472 79.4641C158.757 78.6786 158.172 77.7989 157.392 77.0853C155.819 75.5746 154.169 74.1241 152.557 72.6373C152.402 72.4746 152.191 72.3653 151.959 72.3284C151.959 73.2204 152.635 73.5178 153.103 74.0407C153.987 74.9683 154.909 75.8603 155.702 76.8235C156.859 78.1796 156.521 79.7491 156.157 81.2475C155.936 82.1511 155.273 82.4369 154.338 81.985C153.838 81.7622 153.395 81.4464 153.038 81.0574C152.05 80.0581 152.063 80.0348 150.75 80.4388C147.735 81.3425 146.24 80.8907 144.472 78.4647C144.29 78.2152 144.147 77.9534 143.978 77.68C142.679 78.8694 142.679 78.8694 141.145 78.4647C140.43 79.9754 139.663 81.4498 139.039 82.9721C138.872 83.3528 138.59 83.6823 138.227 83.9222C137.863 84.1629 137.433 84.303 136.986 84.3276C136.484 84.3474 135.991 84.2107 135.584 83.9414C135.178 83.6714 134.884 83.2838 134.75 82.8415C134.593 82.508 134.412 82.199 134.243 81.8545C133.949 81.8374 133.654 81.8374 133.359 81.8545C131.409 81.985 130.552 80.8435 130.759 78.9405C130.859 78.2788 131.097 77.6403 131.461 77.0613C132.652 74.7242 133.484 72.2463 133.931 69.7001C133.27 70.5497 132.378 71.2251 131.342 71.6592C130.307 72.0932 129.164 72.2709 128.029 72.1739C128.381 72.7207 128.576 73.0659 128.823 73.3633C129.563 74.3859 128.992 75.5514 129.187 76.6334C129.187 76.8358 128.628 77.2281 128.251 77.371C126.95 77.8686 125.534 78.0648 124.13 77.9418C123.208 77.8584 122.272 77.8584 121.024 77.8105C122.324 79.3807 123.377 80.7362 124.52 82.0329C125.641 83.5729 126.398 85.3112 126.743 87.1343C126.852 87.6907 127.004 88.2389 127.198 88.7755C127.398 89.2547 127.465 89.7722 127.392 90.2807C127.32 90.7893 127.11 91.2733 126.782 91.6896C126.548 92.0935 125.807 92.2836 125.274 92.5098C124.801 92.6219 124.337 92.7607 123.884 92.9261C123.324 93.259 122.934 93.7826 122.115 93.4613C121.671 93.3301 121.267 93.1032 120.939 92.799C120.611 92.4941 120.368 92.1216 120.231 91.7128C120.036 91.1304 119.789 90.5241 119.49 89.7749C119.282 90.1433 119.114 90.2978 119.114 90.4646C119.114 92.4264 117.995 94.0321 117.046 95.661C116.574 96.3603 115.893 96.9215 115.084 97.279C114.719 97.3993 114.331 97.4492 113.944 97.426C113.557 97.4021 113.181 97.3043 112.837 97.1403C112.494 96.9755 112.191 96.7479 111.949 96.4704C111.708 96.1935 111.531 95.8736 111.431 95.5305C111.366 95.3405 111.327 95.1497 111.236 94.8292C110.931 94.959 110.619 95.0746 110.301 95.1737C109.786 95.3685 109.25 95.512 108.702 95.6016C108.347 95.6891 107.974 95.6966 107.616 95.6241C107.256 95.5517 106.922 95.4013 106.64 95.1853C106.358 94.9693 106.138 94.6945 105.997 94.3842C105.856 94.0738 105.798 93.7368 105.829 93.4019C105.747 92.5884 105.894 91.7695 106.258 91.0231C107.026 89.6792 108.052 88.4426 108.962 87.1582C109.058 86.9327 109.123 86.6968 109.157 86.4569C108.377 86.9682 107.857 87.3845 107.207 87.7051C106.701 88.0106 106.137 88.2246 105.543 88.3353C105.332 88.364 105.116 88.349 104.911 88.2916C104.707 88.2348 104.518 88.1364 104.36 88.0045C104.202 87.8725 104.078 87.7099 103.998 87.528C103.917 87.3469 103.881 87.1514 103.893 86.9559C103.882 86.597 103.916 86.2375 103.997 85.8854C104.185 85.4712 104.215 85.0098 104.081 84.5778C103.946 84.1458 103.655 83.7684 103.256 83.5073C102.957 83.3166 102.879 82.5558 102.996 82.1156C103.109 81.7724 103.089 81.404 102.94 81.0725C102.791 80.7416 102.521 80.4668 102.177 80.296C100.458 79.1127 98.5684 78.1516 96.5617 77.4421C96.1038 77.3478 95.6652 77.1871 95.2618 76.9663C93.8326 75.7769 92.2599 76.1577 90.7262 76.5979C90.1643 76.7271 89.6653 77.0237 89.3089 77.4421C89.087 77.7955 88.7747 78.0949 88.3989 78.3143C88.0232 78.5337 87.5958 78.667 87.1513 78.7026C86.4169 78.8803 85.696 79.1025 84.9937 79.3684C85.3837 79.7019 85.6048 80.0348 85.8648 80.082C86.6881 80.2303 87.5219 80.326 88.3601 80.3677C89.7512 80.4272 91.155 80.4511 92.5453 80.4744C92.9779 80.5147 93.4135 80.5147 93.8453 80.4744C95.979 80.272 98.1314 80.635 100.045 81.5209C100.618 81.713 101.121 82.0472 101.499 82.4861C101.875 82.9249 102.11 83.452 102.177 84.007C102.372 85.1957 101.865 86.1712 100.422 85.8977C100.236 85.9025 100.051 85.9347 99.8766 85.9928C100.122 86.4658 100.301 86.9655 100.409 87.4795C100.536 88.23 100.482 88.997 100.253 89.727C99.4866 91.5706 97.4455 91.9391 95.3664 90.9164C92.7665 89.6081 89.9589 88.4543 87.2297 87.3483C86.5917 87.1199 85.8909 87.0823 85.2275 87.2416C85.9163 87.634 86.5275 88.0503 87.2947 88.431C88.7254 89.0428 89.9118 90.049 90.6866 91.3088C90.9503 91.7579 91.0803 92.2624 91.0638 92.7716C90.9077 94.579 89.9589 95.067 88.1263 94.3534L86.5798 93.6398L85.631 94.8292C84.266 96.5175 82.5372 96.7199 81.0296 95.2092C79.891 94.015 78.8488 92.747 77.9097 91.4154C76.7838 89.8911 75.2428 88.6614 73.4387 87.8479C71.5888 86.9942 69.6571 86.2969 67.6677 85.7665C63.4546 84.4971 58.9531 84.251 54.6048 85.0535C50.6798 85.9148 46.827 87.0318 43.0757 88.3948C42.3478 88.6566 41.5679 88.7995 40.827 89.0373C40.0254 89.239 39.2464 89.5097 38.5004 89.846C37.4049 90.3805 36.365 91.0053 35.3939 91.7128C33.4833 93.1161 31.6506 94.6384 29.7789 96.0896C29.4019 96.3986 28.96 96.6249 28.5961 96.9455C28.0692 97.3098 27.6273 97.7671 27.2963 98.2893C27.1901 98.5183 27.0356 98.7248 26.8415 98.8984C26.6474 99.072 26.4176 99.2087 26.1655 99.3003C23.8909 100.335 22.3311 99.3837 20.4204 97.6946C20.2913 97.547 20.1782 97.3877 20.0825 97.2196C15.7866 99.0255 11.2767 100.37 6.64268 101.227C5.2251 101.568 3.72511 101.48 2.36638 100.977C1.82442 100.69 1.29944 100.376 0.79364 100.038C1.54751 98.8485 2.2104 97.7664 2.8603 96.696C3.00035 96.4437 3.21438 96.2325 3.4784 96.0855C3.74242 95.9386 4.04598 95.8613 4.35506 95.8634C8.11144 95.7684 11.5819 94.6029 15.1043 93.6042C16.7031 93.1524 18.3278 92.7832 19.9265 92.3314C21.5253 91.8796 23.3449 91.3204 25.0217 90.738C26.9064 90.0839 28.7651 89.3463 30.6107 88.6094C31.0103 88.4324 31.3855 88.2123 31.7286 87.9553C32.8448 87.1035 34.0121 86.3092 35.225 85.5765C37.8245 84.1376 40.5281 82.7458 43.2706 81.4854C47.221 79.6978 51.2986 78.1564 55.4757 76.8713C60.8438 75.1945 66.4199 74.2909 71.918 73.1015C75.5056 72.3161 79.1581 71.7692 82.7972 71.1745C84.331 70.925 85.9036 70.8539 87.4501 70.6755C88.0486 70.616 88.6335 70.5203 89.3612 70.4137C89.1401 70.1519 89.0751 69.9619 88.9585 69.938C87.0766 69.3945 85.0796 69.2722 83.1349 69.5811C80.3669 70.1758 77.6759 71.0795 74.9205 71.7337C73.5283 72.1055 72.0808 72.2744 70.6312 72.2334C67.5797 72.0324 64.5125 72.2525 61.5327 72.8875C57.863 73.634 54.2541 74.6115 50.7315 75.8125C46.4327 77.2821 42.3261 79.1845 38.4874 81.4854C37.8611 81.8237 37.2145 82.1293 36.5508 82.4013C34.1202 83.5907 31.6636 84.6844 29.259 85.8854C26.8544 87.0871 24.2678 88.4426 21.8112 89.7749C20.3814 90.5596 19.0297 91.4872 17.5999 92.2959C16.6763 92.8208 15.5898 93.0539 14.5073 92.9596C13.4249 92.8653 12.4062 92.4483 11.6079 91.7723C11.4146 91.4865 11.2741 91.1728 11.192 90.8447C14.8834 89.144 17.8599 86.7303 21.0963 84.6489C23.098 83.3528 25.2686 82.2701 27.3743 81.0814C30.4921 79.5598 33.7391 78.2712 37.0837 77.2281C40.3461 76.0387 43.5826 74.6709 46.8581 73.4938C50.668 71.9791 54.5745 70.6769 58.5562 69.5927C60.6748 69.0937 62.8195 68.6891 64.9251 68.1421C65.8325 67.8688 66.6876 67.4676 67.4597 66.9529C67.9866 66.6539 68.4194 66.2346 68.7156 65.7363C69.0119 65.238 69.1614 64.6777 69.1494 64.1106C69.1537 63.3932 69.2497 62.6788 69.4354 61.9818C69.667 61.3515 69.6815 60.6714 69.4769 60.0333C69.2724 59.3952 68.8586 58.83 68.2916 58.4141C67.8698 58.1102 67.5288 57.7228 67.2944 57.2809C67.06 56.8391 66.9381 56.3543 66.9381 55.8631C66.9381 55.3719 67.06 54.8872 67.2944 54.4453C67.5288 54.0034 67.8698 53.616 68.2916 53.3122C68.8948 52.7958 69.6616 52.468 70.4816 52.3761C71.3016 52.2842 72.1322 52.4329 72.8538 52.8008C73.1937 52.548 73.5497 52.3138 73.9196 52.0992C74.1978 51.9515 74.5084 51.8623 74.8288 51.8379C75.1493 51.8135 75.4717 51.8546 75.773 51.9582C76.0733 52.0617 76.346 52.2252 76.5694 52.4367C76.7928 52.6483 76.9624 52.9026 77.0655 53.1814C77.4032 54.1922 77.5459 55.2745 77.8059 56.428C78.1891 55.7048 78.4103 54.9189 78.4573 54.1163C78.5044 53.3138 78.3752 52.5108 78.0793 51.7543C77.6497 50.565 77.1947 49.3758 76.7794 48.246C76.5605 47.7964 76.473 47.3024 76.5253 46.8125C76.5776 46.3226 76.7681 45.8536 77.0782 45.4513C77.4107 44.999 77.8865 44.6513 78.4424 44.4555C78.9982 44.2598 79.6064 44.2254 80.1846 44.3572C80.8451 44.434 81.4584 44.7093 81.9291 45.1398C82.399 45.5704 82.7001 46.1317 82.7845 46.7356C82.7845 46.9259 82.7845 47.1281 82.8495 47.3778C84.7725 47.6038 86.9302 47.4968 87.2297 49.9229C87.0392 53.0106 86.012 56.0065 84.2399 58.64C85.1573 58.1864 86.0277 57.6569 86.8398 57.0584C87.2559 56.7119 87.7662 56.474 88.3168 56.3695C88.8681 56.2649 89.4397 56.2974 89.9723 56.4637C90.251 56.5043 90.5132 56.6101 90.7336 56.7708C90.9548 56.9316 91.1266 57.1417 91.2327 57.381C91.338 57.6203 91.3746 57.8805 91.3388 58.1365C91.3022 58.3925 91.1938 58.6356 91.025 58.8422C90.83 59.1633 90.6216 59.4725 90.2323 60.0314C91.6227 59.8293 92.5065 59.5914 93.0915 58.7114C93.7026 57.9427 93.9738 56.9913 93.8513 56.0474C93.728 55.1036 93.22 54.2371 92.4288 53.6214C91.9148 53.1555 91.3052 52.7877 90.635 52.5392C89.1647 52.0742 87.9365 51.1244 87.1901 49.8753C88.074 48.9714 87.7101 47.8059 87.9051 46.7594C87.9051 46.593 87.6063 46.3432 87.3986 46.1886C86.9175 45.8318 86.3848 45.5464 85.9036 45.1896C85.4165 44.8764 85.0617 44.4197 84.8988 43.8958C84.7352 43.372 84.7733 42.8128 85.0071 42.3116C85.1827 41.8448 85.5301 41.4483 85.9903 41.1902C86.4505 40.932 86.9937 40.8281 87.5286 40.8964C89.1924 41.0035 90.8561 41.2175 92.5453 41.384C92.5453 41.3008 92.5453 41.0867 92.4288 41.0511C90.0239 40.0996 87.6197 39.1601 85.2021 38.2563C84.7427 38.0612 84.2391 37.9675 83.7333 37.9828C82.4296 38.0467 81.1416 37.7028 80.0808 37.0076C77.9747 35.8183 77.8582 33.8323 79.7558 32.322C80.2108 31.9533 80.6919 31.6084 81.1596 31.2516C81.0587 30.8805 80.9892 30.5027 80.9511 30.1219C80.8622 29.5368 80.9638 28.9406 81.2447 28.4087C81.5257 27.8768 81.9732 27.4332 82.5298 27.134C83.0863 26.8348 83.7274 26.6934 84.3721 26.7277C85.0168 26.7621 85.6354 26.9707 86.1509 27.3271C86.8786 27.7382 87.5779 28.191 88.2436 28.6828C88.8801 29.1585 89.5428 29.658 90.4916 30.431C90.0545 29.665 89.9365 28.7798 90.1584 27.9399C90.381 27.1 90.9286 26.3625 91.7004 25.8643C92.7276 25.1746 93.5987 25.6503 94.3914 26.1854C97.0817 25.0794 97.784 25.3173 98.7455 28.1477C99.7078 30.9781 100.552 33.7253 101.462 36.5557C101.462 36.5557 101.605 36.6508 101.696 36.6508C103.633 36.6508 104.972 36.1157 105.322 34.0582C105.492 33.0474 106.284 32.9879 107.441 33.428C108.037 33.6198 108.576 33.9355 109.016 34.3503C109.456 34.7651 109.785 35.2677 109.976 35.8183C110.188 34.2187 110.02 32.5958 109.482 31.0614C109.076 29.8188 109.21 28.4805 109.859 27.3271C110.327 26.4589 110.951 25.686 112.095 25.7335C113.238 25.781 114.694 25.8524 115.461 27.0774C115.59 27.3588 115.737 27.6329 115.903 27.898C116.319 28.4212 116.813 28.6709 117.45 28.1477C117.619 28.0049 117.826 27.9099 117.982 27.779C118.31 27.4933 118.736 27.3187 119.187 27.2841C119.639 27.2495 120.089 27.357 120.465 27.5887C120.886 27.7578 121.235 28.0508 121.453 28.4214C121.672 28.7919 121.75 29.2188 121.674 29.6342C121.372 30.9837 120.937 32.3053 120.374 33.5825C119.438 35.7232 118.334 37.8044 117.333 39.9094C117.189 40.328 117.089 40.758 117.034 41.1937C117.336 41.0235 117.596 40.7985 117.799 40.5326C118.003 40.2668 118.145 39.9656 118.216 39.6477C118.554 38.8549 118.905 38.062 119.269 37.2693C119.531 36.7555 119.92 36.3045 120.405 35.9516C120.89 35.5987 121.458 35.3536 122.064 35.2356C122.69 35.1966 123.319 35.257 123.923 35.414C124.499 34.3016 124.762 33.0753 124.689 31.8462C124.637 31.2977 124.752 30.7466 125.022 30.2548C125.294 29.7629 125.708 29.3499 126.221 29.062C126.735 28.7742 127.325 28.623 127.927 28.6253C128.529 28.6276 129.118 28.7835 129.628 29.0753C130.032 28.5401 130.46 28.0287 130.85 27.4817C131.5 26.5779 132.683 25.8524 133.281 26.126C133.683 26.3599 134.013 26.6835 134.24 27.0663C134.467 27.4491 134.584 27.8785 134.581 28.3142C134.581 29.0298 134.499 29.7434 134.333 30.4429C134.333 30.9305 134.152 31.43 134.008 32.203C135.11 31.6534 135.979 30.7827 136.478 29.7294C137.193 27.9337 138.662 26.6492 139.727 25.1032C139.798 24.9858 139.854 24.8623 139.897 24.7345C138.588 23.4182 136.926 22.4382 135.075 21.8923C133.086 21.2263 130.993 20.7981 129.031 20.0727C127.793 19.6243 126.656 18.9712 125.677 18.1461C123.923 16.5882 124.13 15.2681 126.067 13.9005C126.275 13.7578 126.509 13.627 126.769 13.4724C126.665 13.2107 126.652 12.961 126.509 12.8539C126.103 12.4934 125.84 12.0182 125.765 11.5047C125.69 10.9912 125.805 10.4695 126.093 10.0235C126.183 9.66493 126.361 9.33019 126.616 9.04555C126.871 8.76099 127.194 8.53432 127.56 8.38332C127.927 8.23232 128.327 8.16116 128.729 8.17545C129.13 8.18974 129.523 8.28906 129.876 8.46562C131.097 9.01267 132.475 9.33374 133.19 10.6776C133.424 11.1295 134.256 11.3198 134.815 11.6171L135.101 11.4268C134.92 11.0628 134.706 10.7128 134.463 10.3803C133.385 9.19108 132.254 7.93046 131.202 6.66984C130.856 6.2521 130.636 5.75982 130.561 5.24091C130.485 4.72199 130.558 4.19411 130.772 3.70861C130.838 3.41642 130.982 3.14376 131.191 2.91527C131.401 2.68679 131.669 2.50966 131.973 2.3999C132.276 2.29014 132.604 2.25119 132.928 2.28658C133.252 2.32198 133.56 2.43059 133.827 2.60261C134.477 2.89993 135.127 3.22102 135.737 3.51834C135.737 3.51834 135.855 3.51834 135.997 3.51834C136.18 3.35682 136.338 3.17269 136.466 2.97128C136.615 2.5 136.937 2.08976 137.376 1.80857C137.816 1.52738 138.348 1.39214 138.883 1.42526C139.39 1.43916 139.884 1.57511 140.315 1.81939C140.747 2.06367 141.1 2.40766 141.34 2.81668C142.36 4.04541 143.025 5.48898 143.276 7.01476C143.527 8.09725 143.911 9.15041 144.42 10.1544C144.565 9.33224 144.832 8.53199 145.213 7.77584C145.377 7.48669 145.633 7.2495 145.946 7.09535C146.259 6.94125 146.616 6.87735 146.971 6.91206C147.325 6.94675 147.659 7.0784 147.93 7.28983C148.2 7.50125 148.395 7.78261 148.489 8.09698C148.674 8.41347 148.787 8.76133 148.82 9.11917C148.854 9.47702 148.807 9.83732 148.684 10.1781C148.612 10.4708 148.581 10.7705 148.593 11.0701C148.748 11.1606 148.919 11.225 149.099 11.2604C150.841 11.2604 151.218 11.4863 151.244 13.0561C151.27 14.6259 151.062 16.1125 150.945 17.6466C150.929 17.8519 150.842 18.0474 150.698 18.2055C149.074 19.3948 149.398 21.357 148.619 22.8674C148.501 23.0815 148.723 23.569 148.956 23.8069C149.494 24.2811 150.058 24.7297 150.646 25.1508C151.778 24.2401 152.474 22.9587 152.583 21.583C152.687 20.3105 152.882 19.0381 153.103 17.7774C153.339 15.5361 153.242 13.2759 152.817 11.0582C152.817 10.7133 152.349 10.4041 152.063 10.1187C151.593 9.70601 151.31 9.14713 151.269 8.55257C151.228 7.95794 151.432 7.37097 151.842 6.9077C152.025 6.64517 152.297 6.44413 152.615 6.33476C152.934 6.2254 153.283 6.21361 153.609 6.30118C153.784 6.38905 153.981 6.43556 154.179 6.43647C154.379 6.43738 154.575 6.39266 154.751 6.30639C154.927 6.22011 155.076 6.09502 155.186 5.94249C155.295 5.78995 155.36 5.61482 155.377 5.43303C155.591 4.73735 155.974 4.0952 156.498 3.55533C157.024 3.01546 157.676 2.59203 158.406 2.31719C158.716 2.11641 159.077 1.98979 159.455 1.94881C159.833 1.90783 160.217 1.95379 160.57 2.08251C160.924 2.21123 161.237 2.41866 161.481 2.68599C161.725 2.95332 161.892 3.27211 161.967 3.61348C162.146 4.57154 162.207 5.5448 162.149 6.51524C162.149 7.94235 162.032 9.38132 162.019 10.8085C162.049 11.2983 162.132 11.7842 162.266 12.2593L162.63 12.3545C162.929 12.0357 163.191 11.689 163.41 11.3198C164.203 9.57162 165.008 7.83531 165.672 6.05144C166.052 4.9261 166.322 3.7719 166.477 2.60261C166.763 0.806849 168.155 0.224117 169.974 0.140869C170.794 0.187937 171.567 0.505602 172.151 1.03489C172.733 1.56417 173.087 2.26912 173.145 3.01885C173.145 3.31616 173.145 3.61348 173.25 4.12486C173.86 3.97025 174.38 3.86322 174.887 3.72051C175.316 3.60575 175.769 3.58422 176.208 3.65761C176.648 3.73101 177.063 3.89731 177.421 4.14328C177.778 4.38925 178.067 4.7081 178.266 5.07447C178.464 5.44083 178.568 5.84459 178.565 6.25361C178.552 7.09652 178.333 7.92595 177.924 8.68122C177.514 9.43641 176.925 10.0982 176.2 10.6182C174.315 12.295 172.43 13.9718 170.572 15.6725C170.272 16.0456 170.01 16.4438 169.792 16.8617C170.728 16.6358 171.286 16.4811 171.859 16.3742C172.771 16.1476 173.701 15.9847 174.64 15.8865C175.433 15.8271 175.94 16.1957 176.07 17.0758C176.317 18.3602 176.434 19.5256 174.926 20.3819C175.264 20.6316 175.446 20.81 175.667 20.9408C176.088 21.1902 176.428 21.538 176.652 21.9483C176.876 22.3585 176.976 22.8161 176.942 23.2737C176.907 23.7313 176.739 24.172 176.456 24.5502C176.172 24.9284 175.783 25.2302 175.329 25.4243C173.815 26.109 172.166 26.5131 170.481 26.6136L160.616 27.1606C160.004 27.1606 159.393 27.3509 158.783 27.3509C157.796 27.372 156.835 27.6448 156.008 28.1386C155.181 28.6324 154.521 29.3274 154.104 30.1456C152.785 31.9728 151.001 33.479 148.904 34.534C147.84 35.0157 146.957 35.7778 146.37 36.7222L148.424 38.1017C148.433 38.6319 148.385 39.1617 148.28 39.6834C148.073 40.4089 147.969 41.2056 146.98 41.4554C146.681 41.5267 146.5 42.0143 146.031 42.6446C147.774 42.3711 148.93 42.6446 149.671 43.9647L153.298 42.7755C153.65 42.6682 153.96 42.4694 154.191 42.2033C154.422 41.9372 154.563 41.6153 154.598 41.277C155.403 37.4119 157.405 33.9275 158.939 30.3121C159.299 29.6199 159.802 28.998 160.421 28.4807C161.382 27.5649 161.967 27.6244 162.877 28.6115L163.28 29.0396C164.45 28.3261 165.711 27.6363 166.971 28.8018C167.816 29.5867 167.712 30.5619 167.036 31.6917C168.597 31.3239 170.066 30.6861 171.365 29.8126C173.02 28.7597 174.977 28.1765 176.993 28.1358C177.162 28.1358 177.33 28.1358 177.486 28.1358C180.086 28.1953 180.503 28.5401 180.801 31.0614C181.21 31.3174 181.646 31.5365 182.101 31.7155C182.8 31.9242 183.406 32.3326 183.832 32.8808C184.258 33.4289 184.481 34.0875 184.467 34.7599C184.463 35.5164 184.172 36.2482 183.643 36.8297C183.114 37.4112 182.381 37.8063 181.568 37.9471C180.203 38.2098 178.816 38.3649 177.422 38.4109C175.353 38.374 173.286 38.5777 171.274 39.0174C170.468 39.238 169.691 39.5412 168.96 39.9213C169.214 40.1416 169.525 40.3005 169.862 40.3836C170.201 40.4666 170.556 40.4713 170.897 40.397C171.578 40.2272 172.302 40.2626 172.959 40.4983C173.617 40.7339 174.175 41.1571 174.549 41.7052C175.303 42.7755 175.277 43.1798 174.081 43.7269C173.699 43.872 173.308 43.9991 172.911 44.1074L173.159 44.8685C173.86 47.0805 172.47 48.7336 169.974 48.4363C168.311 48.2095 166.661 47.8999 165.035 47.5087C162.332 46.8366 159.563 46.4104 156.768 46.2361C156.04 46.1217 155.291 46.1701 154.587 46.3772C153.883 46.5843 153.245 46.9438 152.725 47.4254C153.349 47.9962 154.025 47.699 154.74 47.6395C156.235 47.4968 157.73 47.3659 159.224 47.2827C159.615 47.2694 160.003 47.3429 160.356 47.4968C161.357 47.9011 161.916 48.9952 160.642 49.7682C160.368 49.9466 160.083 50.0893 159.823 50.232C159.8 50.3461 159.8 50.4629 159.823 50.5769C160.447 52.5273 159.147 53.6928 156.625 53.3716C155.611 53.1317 154.542 53.1773 153.558 53.5025C153.877 53.7549 154.253 53.941 154.66 54.0477C155.066 54.1545 155.493 54.1795 155.91 54.1209C157.639 54.2041 159.381 54.1209 161.109 54.2398C162.031 54.3952 162.912 54.7057 163.709 55.1555C164.684 55.6312 165.581 56.2496 166.438 56.7729C169.137 55.4727 171.651 53.8751 173.925 52.0159C176.525 50.1607 178.994 48.139 182.231 47.1757C182.6 47.007 183.002 46.9115 183.414 46.8954C183.826 46.8792 184.237 46.9429 184.62 47.0821C185.002 47.2214 185.349 47.433 185.636 47.7033C185.923 47.9736 186.145 48.2963 186.287 48.6503C186.636 48.5555 186.992 48.4801 187.352 48.4244C188.282 48.306 189.221 48.2583 190.159 48.2817C191.459 48.3887 191.811 48.8169 192.044 49.8991C192.159 50.2984 192.113 50.7221 191.915 51.0931C191.717 51.464 191.38 51.7577 190.966 51.9208C189.497 52.777 188.015 53.6095 186.547 54.4539C189.189 54.608 191.843 54.3833 194.41 53.7879C198.044 53.0535 201.827 53.2385 205.354 54.3231C205.952 54.5252 206.524 54.7512 206.654 55.4172C206.657 55.7291 206.559 56.0349 206.372 56.2954C206.184 56.5559 205.916 56.7594 205.601 56.8799C204.938 57.2486 204.224 57.534 203.34 57.9384C203.755 58.4616 204.08 58.9135 204.457 59.3298C205.575 60.519 205.757 61.5299 205.159 62.5289C204.84 63.1372 204.301 63.6258 203.633 63.9119C202.965 64.1979 202.209 64.264 201.494 64.0987C198.452 63.4446 195.437 62.6478 192.396 61.9343C190.251 61.4467 188.106 61.0185 185.897 60.5547L185.779 60.8639L188.015 61.6488C188.854 61.8688 189.618 62.2782 190.238 62.8393C190.858 63.4004 191.314 64.0952 191.563 64.8598C192.213 66.7864 191.122 67.8924 188.964 67.4405C188.327 67.3097 187.664 67.0718 187.04 66.8696C186.871 67.274 186.754 67.6069 186.585 67.9281C186.458 68.3125 186.228 68.6624 185.918 68.9468C185.608 69.2311 185.226 69.441 184.807 69.5586C184.387 69.6761 183.941 69.6973 183.51 69.6201C183.079 69.5435 182.676 69.3706 182.335 69.117C180.983 68.3981 179.681 67.6038 178.435 66.7388C176.855 65.6923 175.1 64.8888 173.236 64.3603C172.015 64.0035 170.871 63.4565 169.662 63.0522C168.05 62.5051 166.412 62.0175 164.398 61.3872C164.905 62.2672 165.268 62.8024 165.542 63.3613C166.27 64.836 165.945 65.6685 164.242 66.2988C163.36 66.6328 162.433 66.8568 161.486 66.9648C160.382 67.0837 159.251 67.0361 158.133 67.0718C157.809 67.1311 157.492 67.2146 157.184 67.3216C160.692 68.1681 164.087 69.3644 167.31 70.8895C169.46 71.8013 171.233 73.3236 172.365 75.2301C172.693 75.8781 172.853 76.5856 172.834 77.2992C172.834 78.0129 172.054 78.4886 170.962 78.4886C169.968 78.4271 168.979 78.3157 167.998 78.1557C167.852 78.8899 167.769 79.6336 167.751 80.3794C167.751 80.9501 167.881 81.5687 167.375 81.9495C166.896 82.5182 166.31 83.0056 165.646 83.3884ZM24.0988 97.1601C24.5872 97.2408 25.0892 97.2182 25.5668 97.0945C26.0442 96.9707 26.4847 96.7493 26.8544 96.4465L32.8594 91.9274C30.4678 92.1414 25.6456 95.1265 24.0988 97.1601ZM167.348 57.8432C166.595 58.307 166.205 58.7352 166.412 59.6033C167.271 59.8887 168.115 60.1742 169.012 60.4358C172.922 61.5429 176.657 63.11 180.125 65.0977C181.139 65.7399 182.14 66.394 183.206 66.941C184.505 67.6188 184.857 67.4643 185.428 66.1799C185.883 65.1809 186.247 64.9906 187.365 65.2761C187.794 65.3831 188.184 65.6209 188.665 65.6923C189.146 65.7636 189.796 65.8112 190.484 65.8826C190.47 65.3028 190.272 64.7392 189.917 64.2586C189.563 63.778 189.065 63.4006 188.483 63.1711C187.547 62.8143 186.637 62.4219 185.714 62.077C185.363 62.0103 185.034 61.8682 184.755 61.6624C184.476 61.4566 184.254 61.1929 184.108 60.8932C183.962 60.5935 183.896 60.2663 183.915 59.9386C183.935 59.611 184.039 59.2922 184.219 59.0087C185.013 59.092 185.897 59.1395 186.741 59.2941C187.586 59.4487 188.704 59.7342 189.678 59.972C192.421 60.638 195.164 61.3396 197.932 61.9699C199.232 62.2672 200.675 62.4219 202.04 62.6478C202.806 62.7786 203.145 62.2672 203.534 61.8272C203.924 61.3872 203.755 60.8877 203.352 60.4595C202.95 60.0314 202.52 59.4963 202.144 58.9849C201.927 58.7815 201.772 58.5301 201.693 58.2553C201.615 57.9805 201.615 57.6917 201.695 57.4173C201.775 57.1428 201.931 56.892 202.149 56.6895C202.366 56.4869 202.638 56.3395 202.936 56.2615L204.419 55.548C203.943 55.313 203.442 55.1256 202.924 54.989C200.268 54.6167 197.568 54.5887 194.904 54.9058C193.305 55.0842 191.706 55.3815 190.108 55.5361C188.509 55.6907 187.209 55.6907 185.753 55.7502C185.4 55.8081 185.036 55.7489 184.727 55.5832C184.417 55.4175 184.182 55.1563 184.064 54.8463C183.778 54.0376 184.558 53.7998 185.117 53.4906C186.547 52.6938 188.002 51.9089 189.418 51.1121C189.784 50.9653 190.08 50.7031 190.251 50.3735C190.423 50.0438 190.46 49.6686 190.354 49.3163C189.601 49.3758 188.886 49.3877 188.21 49.4947C187.534 49.6017 187.027 49.8634 186.429 49.9704C186.106 50.0686 185.754 50.0536 185.442 49.9285C185.13 49.8032 184.88 49.5767 184.739 49.2925C184.024 48.0438 184.012 48.1033 182.621 48.4363C179.54 49.2331 177.422 51.2905 174.822 52.9435C172.222 54.5966 169.883 56.2615 167.348 57.8432ZM155.468 42.8825C155.013 43.4057 154.09 43.596 153.375 43.9172C152.536 44.326 151.668 44.6835 150.776 44.9875C149.648 45.3084 148.637 45.9045 147.851 46.7118C147.436 47.2407 146.937 47.7097 146.37 48.1033C143.679 49.566 140.95 50.9694 138.246 52.3965C138.061 52.5058 137.888 52.6291 137.726 52.7651C138.653 52.5641 139.548 52.2563 140.391 51.8494C141.074 51.44 141.849 51.1761 142.659 51.0773C143.469 50.9785 144.293 51.0473 145.07 51.2786C145.42 51.4095 145.812 51.4095 146.161 51.2786C148.54 50.0893 151.166 50.232 153.7 49.9585C154.208 49.9585 154.728 49.8753 155 50.7434C152.193 51.5165 148.983 50.9337 146.734 52.4678C146.565 53.5738 146.435 54.3944 146.305 55.2031L150.204 55.8215C151.621 55.8679 152.977 56.364 154.039 57.2248C152.595 57.6292 151.439 57.0584 150.295 56.9751C149.151 56.8918 147.774 56.7134 146.656 56.5826C146.279 57.2486 146.031 57.7719 145.707 58.2119C144.784 59.4844 143.276 59.6033 141.807 59.7223C140.706 59.7815 139.626 60.0274 138.623 60.4477C139.039 61.2802 139.039 61.3396 139.572 61.3277C141.925 61.3277 144.303 61.4705 146.526 60.5428C146.944 60.3017 147.378 60.0833 147.825 59.8888C149.58 59.3654 151.322 58.7946 153.115 58.426C154.855 58.0568 156.624 57.8221 158.406 57.7243C159.292 57.7012 160.164 57.9349 160.897 58.3919C161.63 58.8489 162.187 59.5059 162.487 60.2693C162.898 60.2103 163.299 60.1066 163.683 59.9601C164.813 59.3892 165.242 57.7243 164.359 57.1296C163.292 56.2184 161.916 55.6686 160.459 55.5717C158.796 55.5717 157.132 55.5717 155.468 55.4885C154.768 55.5672 154.058 55.4585 153.423 55.1758C152.789 54.893 152.258 54.4481 151.894 53.8949C151.322 52.9197 151.517 52.4203 152.648 51.9921C153.883 51.6404 155.201 51.6074 156.456 51.897C156.798 51.9867 157.159 51.9923 157.504 51.9129C157.848 51.8336 158.164 51.6721 158.419 51.4451C158.172 50.7791 157.938 50.1726 157.691 49.5423L158.861 48.6266C158.652 48.5475 158.434 48.4917 158.211 48.46C155.169 48.8169 152.14 49.1855 149.113 49.5304C148.294 49.6255 147.41 49.7563 147.006 48.6979C147.4 48.5231 147.771 48.3076 148.111 48.0557C149.845 46.3219 152.11 45.1074 154.61 44.5712C157.106 44.2198 159.658 44.3906 162.071 45.0707C164.567 45.6296 167.088 46.0816 169.584 46.6405C170.598 46.8665 171.17 46.5573 171.404 46.0102C171.213 45.1826 171.083 44.3443 171.014 43.5009C171.014 42.5376 172.314 42.7874 173.029 42.0024C172.157 41.8597 171.534 41.7289 170.897 41.6695C170.26 41.61 169.324 41.6695 168.57 41.503C167.816 41.3364 166.79 40.6467 166.79 40.0639C166.79 39.2315 167.375 38.8034 168.09 38.4584C169.601 37.7883 171.236 37.3848 172.911 37.2693C175.069 37.0552 177.253 36.9481 179.41 36.8411C179.973 36.8254 180.526 36.7068 181.037 36.4923C181.548 36.2778 182.007 35.9719 182.387 35.5924C183.05 34.9621 183.141 34.5221 182.556 33.8442C182.157 33.422 181.688 33.0607 181.165 32.7739C180.715 32.5591 180.251 32.3724 179.774 32.2149C179.599 32.165 179.436 32.0836 179.296 31.9754C179.156 31.8672 179.04 31.7345 178.957 31.5849C178.873 31.4353 178.823 31.272 178.81 31.1045C178.796 30.9369 178.819 30.7687 178.878 30.6095C178.922 30.3654 178.953 30.1192 178.969 29.8721C177.824 29.5057 176.591 29.4358 175.407 29.6699C173.138 30.1444 170.991 31.0211 169.09 32.2506C168.32 32.6637 167.506 33.0025 166.66 33.2615C166.437 33.3722 166.175 33.3981 165.932 33.3336C165.688 33.269 165.483 33.1191 165.36 32.9165C165.154 32.4659 165.082 31.9736 165.152 31.4895C165.152 31.1803 165.646 30.9305 165.776 30.6095C165.867 30.2915 165.906 29.9628 165.892 29.6342C165.488 29.5755 165.076 29.5755 164.671 29.6342C164.32 29.7294 164.073 30.0862 163.748 30.2764C162.734 30.8829 162.513 30.8354 161.721 29.9197C161.629 29.8126 161.461 29.7769 161.227 29.6699C160.861 30.0601 160.539 30.4823 160.264 30.9305C159.472 32.5122 158.692 34.0939 158.016 35.6875C157.34 37.2811 156.716 39.1601 156.066 40.9083C155.807 41.5149 155.897 42.383 155.468 42.8825ZM145.993 38.399C145.915 38.399 145.824 38.4941 145.642 38.6012C145.901 38.8866 146.161 39.172 146.539 39.5644C146.98 38.7439 146.604 38.506 145.98 38.399H145.993ZM138.35 42.1333C136.635 44.2144 135.036 46.367 133.32 48.4481C132.883 48.9774 132.335 49.4221 131.708 49.7563C131.292 49.9123 130.825 49.9123 130.408 49.7563C130.136 49.6374 129.979 49.0904 129.979 48.7336C129.993 48.2758 130.112 47.8257 130.33 47.4135C130.877 46.367 131.487 45.3442 132.111 44.2739C131.877 43.822 131.63 43.3463 131.409 42.8943C130.904 43.2489 130.369 43.567 129.811 43.8458C129.122 44.1431 128.719 43.5484 128.199 43.2868C127.889 43.1257 127.547 43.0246 127.193 42.9897C126.839 42.9548 126.48 42.9868 126.14 43.0838C125.8 43.1808 125.486 43.3408 125.216 43.5537C124.946 43.7666 124.727 44.0279 124.573 44.3215C124.295 44.8247 123.94 45.2891 123.519 45.701C123.258 45.9285 123.069 46.2171 122.972 46.5355C122.876 46.854 122.877 47.1904 122.974 47.5087C123.296 49.342 122.954 51.2216 121.999 52.8603C120.597 55.4095 118.232 57.4077 115.344 58.4854C114.055 58.9891 112.719 59.3871 111.353 59.6747C110.222 59.9125 109.04 59.865 107.896 60.0433C107.265 60.245 106.662 60.5166 106.102 60.8521C106.529 60.9452 106.964 61.0049 107.402 61.0304C108.949 60.852 110.509 60.6855 112.042 60.412C113.225 60.198 114.369 59.7104 115.552 59.5557C116.995 59.3535 118.476 59.413 119.244 57.9741C119.308 57.867 119.542 57.8432 119.685 57.76C121.271 56.8443 122.883 55.9405 124.443 54.989C124.744 54.7783 124.959 54.4809 125.053 54.1447C125.833 51.7469 126.326 49.2785 126.522 46.7832C126.522 46.6762 126.73 46.5811 126.86 46.4621C127.029 46.5454 127.263 46.5811 127.289 46.6762C128.004 48.9952 127.016 51.1834 126.613 53.5619C128.93 52.8889 131.087 51.8195 132.969 50.4104C135.438 48.3174 138.285 46.6049 140.235 44.0122C140.428 43.8043 140.64 43.6132 140.872 43.4414C141.08 43.5603 141.236 43.596 141.261 43.6555C141.366 43.9885 141.444 44.3334 141.521 44.6545C143.03 44.9994 143.03 44.9993 143.055 45.9389L142.081 45.8556C141.692 45.8082 141.302 45.7843 140.911 45.7842C140.699 45.7793 140.489 45.8138 140.292 45.8856C140.097 45.9574 139.918 46.065 139.769 46.2018C139.618 46.3386 139.501 46.5018 139.423 46.6815C139.344 46.8612 139.307 47.0536 139.312 47.247C139.407 47.6219 139.569 47.9796 139.792 48.3055L138.636 48.6147C138.098 48.6778 137.575 48.8225 137.089 49.0428C135.698 49.9823 134.412 51.0408 133.034 52.004C132.314 52.4905 131.558 52.9315 130.772 53.3241C129.979 53.7522 129.161 54.1447 128.342 54.5133C129.269 54.8133 130.234 55.0012 131.214 55.0723C132.098 55.1793 132.969 55.3696 133.813 55.5242C134.403 55.6577 135.003 55.7452 135.607 55.7858C137.116 55.7858 138.623 55.7026 140.131 55.7858C140.304 55.8154 140.466 55.8858 140.6 55.9901C140.735 56.0943 140.838 56.2289 140.897 56.3805C140.897 56.8562 140.586 57.0821 140.027 57.0346C138.909 56.9394 137.804 56.8562 136.686 56.7848L133.502 56.6302C131.656 56.547 129.823 56.428 127.978 56.4161C127.133 56.4161 126.262 56.9513 125.482 56.1902C125.378 56.095 124.898 56.1902 124.715 56.321C123.663 57.094 122.662 57.9146 121.44 58.8779C124.898 58.8779 128.056 58.8779 131.214 58.8779C133.177 58.8779 135.113 58.8779 137.089 58.6876C139.065 58.4973 140.989 58.2 142.99 57.9384C143.32 57.931 143.642 57.8345 143.912 57.661C144.182 57.4875 144.391 57.2448 144.511 56.9632L143.536 55.2864C143.9 55.0128 144.16 54.8345 144.394 54.6323C144.637 54.4981 144.815 54.2856 144.894 54.0368C144.974 53.7879 144.948 53.5209 144.823 53.2884C144.705 53.0517 144.504 52.8571 144.253 52.7346C144.002 52.6122 143.713 52.5686 143.432 52.6106C142.77 52.7008 142.123 52.8687 141.509 53.11C140.052 53.6452 138.597 54.2041 137.181 54.8226C136.858 54.9808 136.484 55.0282 136.126 54.9563C135.769 54.8843 135.451 54.6977 135.231 54.4301C135.092 54.3134 134.984 54.1706 134.912 54.0118C134.84 53.8529 134.806 53.6816 134.814 53.5098C134.821 53.338 134.869 53.1696 134.955 53.0165C135.04 52.8633 135.161 52.7288 135.308 52.6225C135.992 52.0223 136.741 51.4882 137.544 51.0289C138.389 50.5412 139.338 50.1964 140.144 49.7326C141.834 48.8288 143.523 47.9368 145.148 46.9497C146.248 46.3478 147.092 45.4208 147.54 44.3215C144.94 44.3215 144.29 43.5603 144.823 41.4792V41.3364C145.291 39.5882 144.511 38.8391 142.64 39.3028C140.902 39.7831 139.388 40.7789 138.337 42.1333H138.35ZM124.338 66.8102C124.953 66.9589 125.519 67.2392 125.991 67.628C126.464 68.0167 126.829 68.5025 127.055 69.0459L127.939 66.5723C126.041 65.6566 125.053 64.8004 127.237 63.0046C127.783 62.5646 128.537 62.2434 128.641 61.4229C125.235 60.3764 115.643 61.1612 110.587 62.8738C110.587 63.4803 110.691 63.9798 111.626 63.8489C112.128 63.8072 112.633 63.8072 113.135 63.8489C113.64 63.7981 114.15 63.8935 114.593 64.1217C115.036 64.35 115.389 64.6997 115.604 65.1214C115.734 65.6139 115.693 66.1312 115.489 66.6019C115.283 67.0726 114.925 67.4736 114.46 67.7497L110.222 70.4253L110.301 70.7705C110.662 70.8526 111.035 70.8765 111.406 70.8416C113.805 70.398 116.102 69.5729 118.19 68.4038C119.065 67.9583 119.968 67.5612 120.894 67.2145C121.958 66.7225 123.173 66.5798 124.338 66.8102ZM105.803 61.6012L105.634 61.3634L101.085 62.8262L102.06 64.2176L105.803 61.6012ZM114.317 51.9089C115.915 52.3143 117.596 52.3592 119.217 52.0397C118.453 51.7129 117.625 51.5327 116.782 51.5102C115.939 51.4877 115.1 51.6234 114.317 51.9089ZM120.01 50.7196C120.01 49.9348 120.101 49.3401 120.166 48.4363L117.255 50.0893L117.333 50.3629L120.01 50.7196ZM109.846 54.109C111.25 55.7264 111.25 55.7264 111.146 57.5935C113.823 56.9632 116.748 55.0247 117.501 53.4192H116.826C115.743 53.4847 114.658 53.4847 113.576 53.4192C112.284 53.2668 110.972 53.5093 109.846 54.109ZM133.788 43.2393C133.703 43.3002 133.635 43.3778 133.587 43.4664C133.54 43.5549 133.515 43.6521 133.515 43.7506C133.645 45.0588 132.657 45.9032 132.033 46.9021C131.931 47.1226 131.861 47.3545 131.825 47.5919L132.072 47.7109L136.531 42.1452L136.271 41.9073C135.438 42.3235 134.593 42.7636 133.788 43.2393ZM143.484 36.4605C142.886 36.853 142.185 37.0195 142.38 37.7568C143.77 37.5665 143.77 37.5665 143.484 36.4605ZM137.908 37.9709C136.127 39.2672 134.62 40.3494 133.125 41.4792C133.034 41.5505 133.034 41.7527 132.956 42.0381C134.463 41.45 135.858 40.6472 137.089 39.6596C137.479 39.3861 137.557 38.7201 137.908 37.9709ZM153.505 24.7107C152.427 26.0784 151.192 27.339 150.074 28.6828C149.398 29.5153 148.774 30.3954 148.164 31.2516H148.085C147.358 30.9305 146.851 31.3348 146.344 31.7392C145.836 32.1436 145.252 32.4646 144.667 31.7987C144.771 31.3467 144.888 30.9186 144.992 30.4905L144.667 30.3597C143.407 32.4518 141.721 34.3045 139.702 35.8183C139.251 36.3009 138.847 36.8182 138.493 37.3643C138.584 37.4476 138.662 37.5309 138.753 37.6022C140.113 37.0841 141.396 36.413 142.575 35.6043C143.874 34.748 145.174 33.8799 146.474 33.0474C147.201 32.5955 147.916 32.1555 148.02 31.2635V31.2041C148.481 31.0163 148.918 30.7809 149.32 30.5024C151.049 29.1347 152.687 27.672 154.428 26.3281C155.01 25.8586 155.72 25.5421 156.482 25.4124C158.208 25.1456 159.959 25.0459 161.707 25.1151C165.339 25.1997 168.971 24.9487 172.547 24.3659C173.203 24.2923 173.823 24.0482 174.332 23.6625C174.841 23.2768 175.218 22.7656 175.42 22.1895C174.952 21.9517 174.536 21.809 174.185 21.583C173.93 21.4836 173.711 21.3215 173.552 21.1146C173.392 20.9078 173.298 20.6645 173.28 20.4117C173.262 20.1589 173.322 19.9066 173.452 19.683C173.582 19.4593 173.777 19.2731 174.016 19.145C174.169 19.0559 174.3 18.9385 174.4 18.8003C174.501 18.6622 174.568 18.5063 174.599 18.3427C174.63 18.1792 174.622 18.0117 174.578 17.8508C174.534 17.6899 174.453 17.5394 174.341 17.4088C173.457 17.599 172.56 17.8131 171.637 18.0034C171.154 18.1224 170.664 18.2177 170.169 18.2888C169.85 18.3565 169.518 18.3376 169.211 18.2345C168.905 18.1315 168.638 17.9487 168.443 17.7087C168.249 17.4687 168.134 17.1819 168.116 16.8835C168.096 16.5852 168.173 16.2883 168.336 16.0292C168.707 15.2863 169.208 14.6035 169.818 14.0075C170.858 13.0205 172.08 12.188 173.159 11.2247C174.283 10.2414 175.346 9.20113 176.343 8.10887C176.747 7.62361 176.987 7.0406 177.032 6.432C177.077 6.20257 177.061 5.96645 176.983 5.74428C176.906 5.52211 176.77 5.32066 176.588 5.15756C176.406 4.99446 176.183 4.87466 175.939 4.80866C175.694 4.74266 175.436 4.73245 175.186 4.77894C174.686 4.83572 174.19 4.92716 173.704 5.05247C172.34 5.29031 171.989 5.05247 171.676 3.76808C171.542 3.2245 171.336 2.69753 171.066 2.19827C170.924 1.98644 170.702 1.8298 170.442 1.75825C169.921 1.71263 169.398 1.82382 168.952 2.07495C168.506 2.32608 168.162 2.70341 167.972 3.14967C167.608 4.33892 167.375 5.44492 166.946 6.53903C166.243 8.32289 165.437 10.1068 164.658 11.8312C164.476 12.2516 164.24 12.6508 163.956 13.0205C163.818 13.2784 163.597 13.4925 163.325 13.6352C163.052 13.7778 162.739 13.8424 162.425 13.8206C162.112 13.7988 161.813 13.6918 161.567 13.5131C161.321 13.3344 161.139 13.0924 161.044 12.8183C160.828 12.4515 160.704 12.0452 160.681 11.629C160.681 10.1544 160.681 8.67964 160.681 7.205C160.752 6.23489 160.752 5.26147 160.681 4.29135C160.551 3.42319 159.913 3.18535 159.082 3.63726C158.537 3.88405 158.052 4.22789 157.655 4.64859C157.257 5.06928 156.956 5.55837 156.768 6.08711C156.722 6.39393 156.607 6.68875 156.431 6.95328C156.255 7.21778 156.021 7.44636 155.744 7.62484C155.468 7.80325 155.154 7.92773 154.823 7.99055C154.491 8.05336 154.149 8.05316 153.818 7.98993C154.007 9.17564 154.362 10.3345 154.87 11.4387C155.167 12.316 155.35 13.222 155.417 14.1384C155.417 15.9698 155.313 17.8131 155.234 19.6565C155.222 21.4596 154.625 23.2188 153.519 24.7107H153.505ZM147.955 24.9129C146.851 25.8762 147.136 27.1368 147.098 28.3618C147.904 27.5649 149.294 27.3152 149.528 26.0546L147.955 24.9129ZM144.745 28.8137C144.746 28.9982 144.773 29.182 144.823 29.3607H145.161C145.317 28.7542 145.486 28.1715 145.642 27.5412C145.876 26.6492 146.058 25.7454 146.318 24.8654C146.578 23.9853 146.89 23.2004 147.201 22.3799C147.552 21.0955 148.058 19.851 148.709 18.6693C150.009 16.7071 149.723 14.6854 149.645 12.5923L148.644 12.4615C147.345 12.295 146.929 11.8312 147.11 10.63C147.163 10.3236 147.241 10.0213 147.345 9.72624C147.433 9.43389 147.424 9.1243 147.32 8.83638C147.216 8.54854 147.021 8.29535 146.76 8.10887C145.836 8.81048 145.824 8.79858 145.771 9.45268C145.72 10.1068 145.771 10.4873 145.771 10.9987C145.806 11.3529 145.757 11.7096 145.629 12.0452C145.41 12.4343 145.059 12.7474 144.628 12.9372C144.352 12.9985 144.061 12.9581 143.818 12.8245C143.575 12.6909 143.399 12.4751 143.328 12.2236C143.215 11.9866 143.116 11.7445 143.03 11.4982C142.832 10.5943 142.58 9.70102 142.275 8.82237C141.535 7.00287 140.716 5.25464 139.845 3.43509C139.468 2.65018 138.974 2.59072 138.285 3.16156C137.894 3.51759 137.553 3.91713 137.271 4.35081C137.157 4.60217 136.98 4.82539 136.755 5.00222C136.529 5.17905 136.26 5.30448 135.972 5.36827C135.683 5.43205 135.381 5.43238 135.092 5.36922C134.803 5.30608 134.534 5.18123 134.308 5.0049C133.813 4.74326 133.294 4.54109 132.761 4.29135C132.163 5.6352 133.177 6.20604 133.762 6.8958C134.516 7.77584 135.452 8.53698 136.206 9.417C137.232 10.6063 137.739 12.4139 135.79 13.5794C135.243 13.3058 134.685 13.0799 134.165 12.7826C132.865 12.0333 131.565 11.2485 130.266 10.5111C129.589 10.1425 128.771 9.72624 128.159 10.5111C127.549 11.296 128.264 11.7004 128.706 12.2593C129.433 13.175 129.329 13.734 128.433 14.5308C128.153 14.7843 127.858 15.0226 127.549 15.2444C126.561 15.946 126.509 16.6239 127.549 17.2423C128.396 17.7258 129.299 18.1245 130.239 18.4315C132.319 19.1688 134.542 19.5019 136.647 20.2035C138.412 20.7843 140.052 21.6414 141.496 22.7366C143.601 24.3183 145.07 26.1854 144.758 28.8137H144.745ZM126.873 35.1761C126.873 36.1514 126.522 36.9838 125.339 37.1503C125.339 37.8757 125.339 38.4703 125.261 39.1482C126.561 39.3385 126.769 40.1948 126.626 41.3364C128.414 39.849 129.558 37.823 129.849 35.6281C129.849 34.3794 130.018 33.1425 130.122 31.8938H130.603C131.734 34.5815 130.928 37.186 129.863 39.838C130.403 39.6589 130.912 39.4063 131.37 39.0888C134.597 36.926 137.639 34.5406 140.469 31.9533C141.219 31.2786 141.681 30.3797 141.769 29.4202C141.891 28.919 141.902 28.4003 141.799 27.8953C141.696 27.3904 141.482 26.9098 141.171 26.4827C140.165 26.9586 139.367 27.7349 138.909 28.6828C138.337 29.6818 137.908 30.7402 137.297 31.7155C136.676 32.7498 135.944 33.7257 135.113 34.6291C134.528 35.2475 133.918 35.1285 133.203 34.6291C132.901 34.395 132.675 34.0888 132.551 33.7446C132.427 33.4004 132.41 33.0314 132.501 32.6787C132.67 31.5727 132.865 30.4548 133.008 29.3369C133.008 28.8018 133.164 28.2071 132.358 27.9218L130.694 30.4667C129.876 31.656 129.303 31.656 128.419 30.4667C128.273 30.3083 128.117 30.1574 127.952 30.0148C127.306 30.9107 126.966 31.9624 126.977 33.0355C126.873 33.7372 126.873 34.4507 126.873 35.1761ZM106.674 35.9135C106.012 38.185 105.856 38.292 103.36 38.1612C103.269 38.1612 103.178 38.2444 102.957 38.3515C103.178 39.1363 102.268 39.8261 102.814 40.7299C104.423 43.7571 104.756 47.2203 103.75 50.458C103.75 50.7434 103.75 51.0408 103.658 51.2191L107.558 52.2775C108.312 51.9802 109.443 51.5521 110.547 51.0883C112.367 50.3153 114.174 49.5066 115.981 48.7098C117.509 48.1711 118.854 47.2726 119.88 46.1054C120.405 45.5228 121.007 45.0033 121.674 44.5593C122.038 44.2977 122.7 44.2739 122.974 43.9528C123.649 42.9776 124.183 41.9073 124.78 40.8608C124.641 40.6644 124.47 40.4881 124.273 40.3375C123.885 40.1237 123.586 39.7955 123.429 39.4066C123.27 39.0177 123.261 38.5911 123.403 38.1968C123.533 37.7806 123.078 37.2217 122.909 36.7697C121.284 36.9005 120.855 37.8876 120.387 38.9104C119.92 40.0014 119.363 41.0588 118.724 42.0738C118.605 42.3115 118.417 42.5147 118.18 42.6606C117.943 42.8066 117.666 42.8898 117.381 42.9008C117.096 42.9119 116.813 42.8505 116.564 42.7235C116.314 42.5964 116.108 42.4085 115.968 42.1808C115.702 41.9113 115.525 41.578 115.459 41.22C115.392 40.8621 115.438 40.4941 115.591 40.1591C116.176 38.7796 116.89 37.4238 117.45 36.0443C118.359 33.9512 119.244 31.87 120.049 29.7651C120.076 29.6469 120.071 29.5247 120.034 29.4088C119.998 29.2928 119.932 29.1866 119.841 29.0991C119.725 29.0414 119.596 29.0064 119.465 28.9961C119.332 28.9859 119.2 29.0007 119.074 29.0396C118.824 29.1483 118.588 29.2841 118.372 29.444C116.579 30.4786 115.773 30.3121 114.473 28.6709C114.317 28.4688 114.213 28.219 114.057 28.0049C113.957 27.8291 113.811 27.679 113.631 27.5682C113.451 27.4573 113.244 27.3894 113.028 27.3705C112.813 27.3516 112.595 27.3823 112.396 27.4599C112.196 27.5375 112.021 27.6594 111.886 27.8147C111.555 28.1843 111.327 28.6218 111.22 29.0899C111.114 29.5579 111.132 30.0426 111.276 30.5024C111.782 33.0117 112.095 35.5567 112.42 38.1017C112.437 38.6645 112.358 39.2263 112.185 39.7666C112.079 40.1034 111.895 40.4155 111.646 40.6817C111.397 40.9479 111.088 41.1621 110.741 41.3098C110.393 41.4575 110.015 41.5352 109.632 41.5378C109.249 41.5403 108.869 41.4676 108.52 41.3245C107.558 40.8964 107.74 40.0402 107.441 39.3028C108.741 39.3028 108.442 38.3753 108.52 37.7093C108.663 36.6508 108.858 35.5448 107.441 34.8194C107.221 34.9978 107.051 35.081 106.986 35.1999C106.843 35.4243 106.729 35.6639 106.648 35.9135H106.674ZM96.2113 58.4141C98.5214 56.7074 100.368 54.5336 101.605 52.0635C102.134 50.9902 102.467 49.8455 102.593 48.6741C102.937 45.9573 102.375 43.209 100.982 40.7894C100.816 40.4631 100.693 40.1197 100.617 39.7666C100.318 38.6725 100.045 37.5903 99.7466 36.4962C99.6293 36.0562 99.4866 35.6162 99.3432 35.1642C98.6416 32.9047 97.9528 30.6332 97.2251 28.3737C97.0137 27.911 96.7522 27.4688 96.4452 27.0536C95.1452 27.4341 93.9491 28.4212 92.7792 27.0536C91.2588 28.1596 91.1288 28.9326 92.1949 29.9672C92.8053 30.55 93.4941 31.0376 94.1703 31.6203C94.4086 31.8239 94.5603 32.098 94.5984 32.3942C94.6365 32.6902 94.558 32.9891 94.378 33.2377C94.2196 33.5473 93.9364 33.7892 93.5883 33.9132C93.2394 34.0372 92.8524 34.0338 92.5065 33.9037C92.0186 33.6955 91.5771 33.4049 91.2065 33.0474C89.5002 31.3588 87.6339 29.8108 85.631 28.4212C85.2933 28.1995 84.8981 28.0639 84.4842 28.0284C84.071 27.9928 83.6549 28.0587 83.2783 28.219C82.9795 28.4894 82.7711 28.8325 82.6792 29.2077C82.5873 29.583 82.6142 29.9745 82.7584 30.3359C83.356 32.1079 83.3299 32.2149 81.7057 33.428C81.0296 33.9394 80.6658 34.4864 81.0296 35.1285L82.9399 35.8183C83.2246 35.9633 83.5249 36.079 83.8372 36.1633C86.4939 36.5419 89.0721 37.2919 91.48 38.3872C92.4497 38.7898 93.3582 39.3054 94.183 39.9213C95.1452 40.6348 95.1841 41.2889 94.6253 42.3949C94.4885 42.8269 94.1733 43.1931 93.7459 43.4152C93.3186 43.6374 92.8128 43.698 92.3376 43.5841C91.0377 43.4057 89.7377 43.1322 88.3735 42.93C87.8797 42.8982 87.3851 42.8982 86.8913 42.93C89.66 44.4047 90.5177 46.2718 89.8677 48.7336C89.6862 49.4352 90.1023 49.7682 90.8427 49.9229C91.4889 49.9707 92.1143 50.1519 92.6723 50.4526C93.2304 50.7533 93.7071 51.1658 94.0664 51.6591C95.2476 53.0932 95.8991 54.8345 95.9252 56.6302C95.9499 57.2325 96.0455 57.8306 96.2113 58.4141ZM75.0505 68.5462C76.8294 67.9621 78.5657 67.2749 80.2496 66.4891C83.0699 65.1571 85.8259 63.7063 89.1401 63.5754C89.6212 63.5754 90.2189 62.8975 90.44 62.3862C90.6612 61.8748 90.1539 61.518 89.6989 61.1969C88.204 60.1385 88.1651 59.6747 89.3351 58.3189C89.4023 58.2104 89.4553 58.0945 89.4912 57.9741C88.4774 57.4984 87.8797 58.0692 87.1901 58.5092C86.2824 59.0951 85.3314 59.6236 84.3437 60.0909C84.0673 60.2065 83.758 60.24 83.4599 60.1867C83.1618 60.1334 82.8891 59.9959 82.6799 59.7936C82.4618 59.553 82.3258 59.259 82.2892 58.9481C82.2518 58.6372 82.3153 58.3234 82.4722 58.0454C82.659 57.7347 82.863 57.433 83.0834 57.1415C83.6429 56.3226 84.1383 55.4682 84.5648 54.5847C84.9197 53.6122 85.2021 52.6189 85.4098 51.6115C86.0209 49.2331 85.7214 48.9476 83.0699 48.9238C81.7707 48.9238 81.3546 48.5671 81.2111 47.4254C81.2111 47.3184 81.2111 47.2232 81.2111 47.1162C81.0811 46.1886 80.5358 45.6653 79.7819 45.7367C79.5421 45.7481 79.3075 45.8077 79.0961 45.9112C78.8839 46.0146 78.7001 46.1594 78.5559 46.3353C78.4118 46.5111 78.3124 46.7138 78.2638 46.9289C78.2145 47.1441 78.2183 47.3663 78.2743 47.58C78.5507 48.6761 78.9108 49.7531 79.3531 50.8029C80.1293 52.6343 80.225 54.6487 79.6258 56.5351C79.4891 56.9862 79.2246 57.3964 78.8585 57.7243C77.767 58.7233 76.6232 58.4616 76.2594 57.094C76.0644 56.3567 76.0509 55.5836 75.9082 54.8226C75.8044 54.3112 75.6221 53.8117 75.3494 52.9078C74.6995 53.6095 74.2836 53.9901 73.9716 54.4063C72.9448 55.7858 72.8928 55.7977 71.3721 54.8345C70.5142 54.2874 69.9683 54.3707 69.4094 55.1317C69.1773 55.3942 69.0506 55.7217 69.0506 56.0593C69.0506 56.397 69.1773 56.7245 69.4094 56.987C69.6875 57.3087 69.9871 57.6146 70.3062 57.9027C70.7972 58.3279 71.171 58.8535 71.3969 59.4365C71.6229 60.0195 71.6945 60.6432 71.606 61.2564C71.4241 62.4456 71.1901 63.6349 70.9951 64.8242C70.7651 66.1559 70.021 67.3681 68.8978 68.2409C67.7746 69.1136 66.3467 69.5893 64.8731 69.5811C62.6988 69.5907 60.5432 69.9489 58.5042 70.6393C55.0078 71.722 51.5243 72.8752 48.1059 74.0762C44.8694 75.2656 41.6069 76.455 38.4484 77.6444C35.1034 78.8174 31.8431 80.1838 28.6871 81.7355C27.2443 82.508 25.6976 83.1266 24.2938 83.9708C21.5383 85.612 18.8347 87.3366 16.1441 89.0613C15.3773 89.5486 14.7144 90.1433 13.9995 90.6902L14.2985 91.0949C14.5296 91.0737 14.7543 91.0128 14.9613 90.9164C15.2722 90.6471 15.6021 90.3963 15.9492 90.1673C17.119 89.6197 18.3538 89.1679 19.5366 88.6094C21.6162 87.6101 23.6699 86.5519 25.7366 85.5286L33.4443 81.795C35.082 81.0096 36.7587 80.2843 38.3705 79.4162C42.3379 77.2958 46.4897 75.4782 50.7835 73.9812C52.4048 73.394 54.0576 72.8814 55.7357 72.4473C58.3352 71.8642 60.8568 71.4008 63.4564 70.9961C65.1461 70.7227 66.9138 70.7821 68.5645 70.4137C70.7643 69.9065 72.9299 69.2831 75.0505 68.5462ZM91.4927 64.182C91.149 64.3176 90.8255 64.4935 90.5312 64.7052C92.1553 65.4782 93.6503 64.1225 95.0675 64.8836C95.1452 64.8836 95.3918 64.6457 95.6002 64.5744C97.3805 63.9322 98.5766 64.5744 98.3294 66.1799C98.8381 66.3134 99.3813 66.2836 99.8684 66.0952C100.355 65.907 100.757 65.5717 101.007 65.1452C100.474 64.1582 99.2782 63.5397 99.4216 62.1126C100.149 61.744 100.942 61.2921 101.8 60.9234C103.386 60.2693 105.297 60.1623 106.297 58.5449C106.401 58.3784 106.804 58.3903 107.026 58.2713C107.806 57.9136 108.55 57.4917 109.248 57.0108C109.403 56.8506 109.516 56.6604 109.579 56.4544C109.642 56.2484 109.653 56.032 109.612 55.8215C109.456 55.2864 108.858 55.3577 108.312 55.4648C107.885 55.5562 107.45 55.608 107.012 55.6193C105.492 55.6193 105.153 55.1793 105.712 53.8235C105.758 53.6472 105.794 53.4685 105.817 53.2884C103.685 52.67 102.879 52.9673 101.709 54.6798C100.899 56.1147 99.781 57.3849 98.4205 58.4141C96.7702 59.4725 95.0541 60.4477 93.3515 61.411C92.7799 61.7321 92.1688 61.9581 92.4288 62.8143C93.8722 62.364 95.199 61.6475 96.3279 60.7093C97.8639 59.5318 99.6271 58.6282 101.527 58.0454C102.567 57.76 103.568 57.3318 104.621 56.9513C105.466 57.6292 105.452 58.2357 104.543 58.5925C104.275 58.6679 104.001 58.7196 103.723 58.7471C101.596 59.187 99.58 59.9943 97.784 61.1255C95.8983 62.4735 93.7691 63.508 91.4927 64.182ZM94.573 67.7497C94.573 67.2026 94.573 66.6556 94.508 65.9896C94.3981 65.9605 94.2846 65.9406 94.1703 65.9302C91.3888 65.9302 88.6074 65.835 85.8386 65.8469C85.1737 65.8859 84.5215 66.035 83.9149 66.2869C82.6799 66.7388 81.3807 67.3334 80.0808 67.9281C79.7565 68.0934 79.4517 68.2887 79.1708 68.5107C80.6389 68.4266 82.0912 68.1871 83.4987 67.7972C85.3314 67.3556 87.2693 67.4555 89.0362 68.0827C90.5394 68.4534 92.0739 68.7041 93.6241 68.8319C94.4953 68.8914 94.6641 68.6057 94.573 67.7616V67.7497ZM96.7052 69.4143C99.8377 69.6406 100.903 69.117 100.787 67.3572L96.8867 67.5119C96.809 68.1422 96.7567 68.7841 96.7052 69.4266V69.4143ZM96.7052 71.4247C96.7052 71.2934 96.6402 71.1745 96.614 71.0439L83.9799 72.7802L86.2675 74.3503C87.8797 73.8746 89.6727 73.3393 91.3761 72.6852C93.0788 72.031 95.0541 72.221 96.7052 71.4958V71.4247ZM60.1679 79.8209C63.6254 79.1783 67.0308 78.3102 70.4492 77.5255C70.9922 77.397 71.5193 77.2179 72.022 76.9903C73.4777 76.3361 74.9335 75.6464 76.3759 74.9567C76.6822 74.7789 76.9691 74.5759 77.2343 74.3503L77.0782 74.0646C65.3801 75.9793 53.942 78.7149 43.4526 84.2565C43.6036 84.275 43.7566 84.275 43.9075 84.2565C44.6094 84.0665 45.3113 83.8997 46.0002 83.6618C50.6008 82.0308 55.3391 80.7464 60.1679 79.8209ZM85.7998 77.5966C86.0986 77.5966 86.4109 77.466 86.7098 77.4065C86.2914 77.1386 85.7901 77.0012 85.2798 77.0142C83.9799 77.0142 83.746 76.6929 83.9799 75.5035C83.9799 75.254 84.0972 75.0161 84.1883 74.6709C83.6056 74.4064 82.969 74.2567 82.3198 74.2321C81.6706 74.2075 81.0229 74.3086 80.4185 74.5281C79.1185 74.9683 77.9097 75.6464 76.6359 76.1816C74.7464 77.0668 72.807 77.8604 70.8262 78.5597C69.3184 79.0478 67.6157 79.0355 66.0819 79.4641C63.3004 80.2365 60.3629 80.5338 57.7633 81.8422C57.4628 81.9365 57.1422 81.9652 56.8275 81.9256C56.1855 81.8763 55.5393 81.9003 54.9038 81.9967C52.9021 82.5442 51.0044 83.1861 48.9897 83.7808C44.9994 84.9701 40.996 86.1595 37.0577 87.42C34.5881 88.2287 32.1965 89.2513 29.7789 90.1905C24.7937 92.0368 19.6992 93.6247 14.5194 94.9481C11.7379 95.6973 8.89135 96.3036 6.08377 96.9817C4.78399 97.2907 4.29007 97.8614 4.01711 99.3598C5.70683 99.0385 7.33157 98.6824 8.98227 98.4206C15.2473 97.398 20.8624 94.8524 26.5554 92.3793C29.9479 90.9281 33.4703 89.7154 36.9537 88.431C37.6686 88.1692 38.4614 88.0742 39.1893 87.824C41.087 87.0871 43.0497 86.3851 44.9864 85.7665C45.2953 85.6421 45.6121 85.5348 45.9352 85.4459C47.573 85.0057 49.2107 84.5299 50.8614 84.1376C53.773 83.3884 56.6845 82.6631 59.648 82.199C61.1331 81.9789 62.6472 81.9789 64.1323 82.199C65.0503 82.4348 65.926 82.791 66.7318 83.2578L74.6865 86.5519C76.175 87.1596 77.5048 88.0516 78.5858 89.1679C79.5219 90.1194 80.4835 91.047 81.4323 91.9746L84.0322 94.4245C84.3183 93.9726 84.5126 93.7348 84.656 93.473C85.5137 91.8796 86.1509 91.7128 87.7886 92.6404C88.2301 92.8906 88.7239 93.069 89.2312 93.2946C89.725 92.462 89.7512 91.8557 89.0885 91.3327C88.4251 90.8091 87.6847 90.1433 86.9175 89.7031C85.696 88.8945 84.4087 88.1808 83.1745 87.325C82.9003 87.1452 82.7031 86.8841 82.6164 86.5861C82.5298 86.2881 82.5581 85.9716 82.6979 85.6913C82.8376 85.4104 83.0789 85.1827 83.3814 85.0467C83.684 84.9114 84.0292 84.8758 84.3572 84.9462C85.5704 85.1253 86.7688 85.3796 87.9447 85.707C89.985 86.409 91.935 87.3127 93.9626 88.0858C95.3918 88.621 96.8606 89.0613 98.174 89.4892C99.0705 88.9779 99.2266 88.4543 98.8882 87.7885L98.2644 86.5991C97.5501 85.1841 98.0305 84.4705 99.7593 84.3276L100.76 84.2326C100.712 83.9099 100.564 83.6064 100.334 83.3576C100.104 83.1095 99.8004 82.9256 99.4605 82.8292C98.5849 82.5059 97.6801 82.2509 96.7567 82.0684C94.0477 81.7335 91.3096 81.6419 88.5812 81.795C87.35 81.9023 86.1091 81.7307 84.9675 81.2953C84.659 81.1764 84.3968 80.9734 84.2182 80.7136C84.0389 80.4545 83.9515 80.151 83.9672 79.8441C83.9141 79.3287 84.0725 78.8133 84.4109 78.3984C84.7494 77.9828 85.2447 77.6977 85.7998 77.5966ZM109.612 84.7323L107.233 83.5429C106.752 84.5894 106.349 85.4931 105.933 86.5519C107.597 86.4924 108.091 85.1246 109.612 84.72V84.7323ZM115.11 77.5966L115.811 78.2507C117.333 79.6657 117.306 79.9754 115.656 81.2714C115.505 81.3835 115.383 81.525 115.3 81.6856C115.217 81.8456 115.174 82.0213 115.175 82.199C115.37 83.4595 114.473 83.9475 113.472 84.3638C112.822 84.6249 112.172 84.8034 111.457 85.0173C111.562 86.6661 111.038 88.297 109.976 89.632C109.274 90.8214 108.247 91.868 108.208 93.1995C109.062 93.3766 109.933 93.4805 110.807 93.5085C112.03 93.5085 112.887 93.7587 113.2 94.9481L114.499 94.0082C114.85 94.8647 113.394 94.9597 113.563 95.7444C114.525 95.9707 114.642 95.9823 115.136 95.4594C116.302 94.2803 117.03 92.7942 117.215 91.2138C117.374 90.0476 117.63 88.8945 117.982 87.7645C118.164 87.1227 118.437 86.4569 119.399 86.4801C119.79 86.5164 120.159 86.6681 120.447 86.9128C120.736 87.1575 120.929 87.4816 120.998 87.8363C121.063 88.1385 121.063 88.4495 120.998 88.7516C120.936 89.2212 120.975 89.6977 121.117 90.1529C121.257 90.6082 121.495 91.0333 121.817 91.4038L125.573 90.5241C125.573 90.6546 125.573 90.5241 125.573 90.5241C125.248 87.2416 124.78 84.007 122.168 81.4259C121.604 80.9276 121.115 80.3643 120.712 79.7491C119.49 77.4421 117.45 77.5132 115.175 77.6321L115.11 77.5966ZM125.573 71.9005C125.193 71.6715 124.925 71.3146 124.83 70.9072C124.735 70.4998 124.821 70.0747 125.066 69.724C125.166 69.5278 125.249 69.3255 125.313 69.117C125.038 68.6877 124.603 68.3621 124.088 68.2007C123.573 68.0392 123.011 68.0521 122.505 68.2373C121.678 68.3933 120.887 68.6788 120.166 69.0814C117.73 70.4253 115.107 71.4616 112.367 72.1616C111.948 72.3065 111.501 72.3701 111.054 72.3496C110.607 72.329 110.169 72.2251 109.767 72.0426C109.451 71.9668 109.166 71.8061 108.949 71.5812C108.732 71.357 108.593 71.0781 108.55 70.7808C108.507 70.4841 108.562 70.182 108.707 69.9133C108.851 69.644 109.081 69.4212 109.365 69.2722C109.714 69.0104 110.083 68.7718 110.47 68.5585C111.341 68.0113 112.263 67.5119 113.07 66.9172C113.589 66.5485 114.369 66.2155 114.044 65.2998C113.778 65.2273 113.503 65.1873 113.225 65.1809C112.615 65.1809 112.016 65.3474 111.406 65.4187C110.795 65.4901 109.976 65.5377 109.521 64.8004C108.702 63.4327 107.805 63.2543 106.284 63.956C105.114 64.503 104.777 65.5377 104.27 66.5009C103.158 68.8436 101.413 70.8901 99.2005 72.4473C98.7238 72.7734 98.1799 73.0085 97.6017 73.137C95.3664 73.6483 93.1176 74.0762 90.8816 74.552C90.5782 74.6702 90.2936 74.8261 90.0373 75.0161C90.4639 75.1098 90.9092 75.1098 91.3365 75.0161C92.8965 74.8972 94.4564 74.3503 96.0029 74.8972C97.3126 75.3408 98.5774 75.8856 99.7854 76.5261C102.866 78.1913 105.842 80.0109 108.884 81.6521C109.967 82.1696 111.128 82.538 112.328 82.7458C112.926 82.8887 113.628 82.6631 113.628 81.9016C113.541 81.4396 113.631 80.9638 113.882 80.5543C114.133 80.1449 114.529 79.827 115.006 79.6541C115.006 79.5235 115.006 79.3923 115.006 79.2733L113.316 78.4408C112.86 78.2822 112.425 78.0792 112.016 77.8345C110.99 77.0736 111.159 76.1098 112.393 75.7298C112.981 75.5623 113.598 75.4898 114.213 75.5158C117.229 75.5869 120.244 75.7298 123.312 75.7653C124.428 75.7947 125.545 75.6785 126.626 75.4201C128.029 75.0633 128.224 74.4454 127.393 73.3865C126.855 72.8253 126.244 72.3256 125.573 71.9005ZM127.354 71.3529L126.782 69.8669C126.262 70.6632 126.665 70.9845 127.367 71.3529H127.354ZM139.39 78.4291C139.516 77.7217 139.748 77.0333 140.079 76.3839C140.37 75.9588 140.705 75.5609 141.08 75.1945L142.38 76.5261C142.977 74.053 142.081 70.2592 140.586 69.1054C140.634 69.7151 140.586 70.3283 140.442 70.925C139.728 72.6729 138.922 74.3859 138.064 76.0866C137.908 76.4195 137.414 76.6334 136.907 77.0374C136.83 76.71 136.704 76.3935 136.531 76.0982C135.53 74.9088 135.53 74.7543 136.972 74.2909C137.804 74.0291 137.947 73.6367 137.557 73.042C137.167 72.4473 137.323 71.8526 138.051 71.7453C139.026 71.5197 139.13 70.8772 139.351 70.1519C139.557 68.6891 139.406 67.2024 138.909 65.7993C138.626 64.3957 137.844 63.1168 136.686 62.1602C136.491 62.8975 137.232 63.7657 135.972 64.1463L135.347 62.85C133.71 62.85 134.723 64.836 133.333 64.9549C133.159 64.7427 133.038 64.4982 132.979 64.2387C132.919 63.9791 132.922 63.7108 132.988 63.4526C133.054 63.1943 133.18 62.9522 133.358 62.7433C133.537 62.5345 133.763 62.3639 134.022 62.2434C134.723 61.8153 135.465 61.4348 136.192 61.0542L136.076 60.7331C134.581 60.7926 133.086 60.8164 131.604 60.9234C131.444 60.9569 131.293 61.0208 131.161 61.1109C131.028 61.201 130.918 61.3154 130.837 61.4467C130.174 62.4218 129.538 63.4327 128.836 64.6457C129.071 64.6839 129.302 64.7436 129.524 64.8242C130.552 65.2642 130.733 65.6804 130.304 66.608C130.2 66.7891 130.082 66.9639 129.953 67.1312C129.148 68.4157 129.199 68.9153 130.136 69.3316C131.072 69.7479 131.435 69.4027 132.111 68.2254C132.437 67.5797 132.833 66.966 133.294 66.394C133.801 65.8112 134.88 65.7755 135.166 66.3107C135.631 67.1158 135.939 67.9892 136.076 68.8914C136.079 69.7028 135.926 70.508 135.621 71.2695C135.022 73.1726 134.321 75.0756 133.697 76.9779C133.349 77.7312 133.293 78.5713 133.541 79.3567C133.692 79.4019 133.849 79.4299 134.008 79.4401C135.556 79.2494 136.18 79.678 136.336 81.0096C136.339 81.3117 136.405 81.6104 136.531 81.89C136.661 82.1395 136.972 82.5319 137.128 82.508C137.302 82.4704 137.466 82.4006 137.609 82.3022C137.752 82.2038 137.872 82.0801 137.96 81.9372C138.67 80.8578 139.158 79.6691 139.403 78.4291H139.39ZM150.269 72.2805C150.039 71.9825 149.935 71.6188 149.975 71.2559C150.017 70.8929 150.199 70.5559 150.49 70.3064C151.14 69.724 151.79 70.009 152.505 70.3064C153.219 70.6037 153.804 71.0084 154.493 71.3885C154.584 71.2162 154.635 71.0275 154.642 70.8361C154.648 70.6441 154.612 70.4534 154.533 70.2756C154.455 70.0972 154.337 69.9366 154.187 69.8026C154.037 69.6686 153.858 69.5647 153.662 69.4977C153.089 69.1696 152.495 68.8757 151.88 68.618C150.337 67.8646 148.701 67.2817 147.006 66.8815C147.006 67.4762 146.876 67.9638 146.811 68.4513C147.475 68.713 148.294 68.7841 147.995 69.7712L147.37 69.6884H146.76C146.76 71.1034 146.76 71.2818 147.41 71.6981C148.865 72.5539 148.514 73.9573 148.865 75.1351C148.865 75.2895 148.631 75.5274 148.501 75.7414C148.229 75.5869 147.774 75.468 147.748 75.2895C147.733 74.8336 147.78 74.3784 147.89 73.9341C147.461 73.4815 147.02 73.0181 146.591 72.5423C145.96 71.9408 145.521 71.193 145.322 70.3795C145.122 69.5661 145.17 68.7185 145.46 67.9281C145.889 66.8459 145.707 66.5247 144.641 65.9183L143.341 65.2166C142.652 64.836 142.626 64.3841 143.225 63.8013L145.213 64.8242L147.618 64.063L148.566 62.4575L149.762 63.5041C151.062 63.2186 152.362 63.1948 152.752 61.8034C152.752 61.6607 153.493 61.5299 153.739 61.6369C153.987 61.744 154.324 62.2078 154.598 62.4932C155.702 62.4932 156.768 62.4932 157.275 61.304L158.653 62.1721C158.172 62.6122 157.86 63.1116 157.431 63.2305C156.313 63.5279 155.118 63.5992 153.999 63.8727C151.992 64.1927 150.052 64.8028 148.254 65.6804C149.544 66.6526 151.116 67.2565 152.778 67.4167C152.92 66.9205 153.251 66.4866 153.71 66.1926C154.17 65.8986 154.728 65.7634 155.287 65.8112C156.443 65.8112 157.613 65.8112 158.769 65.8112C160.27 65.7224 161.762 65.5556 163.241 65.3117C163.475 65.2557 163.691 65.1485 163.87 64.9994C164.048 64.8502 164.185 64.6636 164.268 64.4554C164.268 64.1582 163.839 63.7182 163.488 63.4446C163.072 63.199 162.638 62.9804 162.188 62.7905C161.591 62.4456 160.888 62.1721 160.498 61.6012C160.108 61.0304 160.342 60.412 160.277 59.6509C159.823 59.4606 159.238 59.0087 158.718 59.0563C156.876 59.1954 155.05 59.4739 153.259 59.8888C151.439 60.3526 149.723 61.1493 147.943 61.744C145.479 62.4998 142.879 62.8069 140.287 62.6478C140.886 64.6159 141.647 66.54 142.561 68.4038C144.115 70.9612 145.221 73.7262 145.836 76.5979C146.002 77.4093 146.493 78.1352 147.215 78.6315C147.4 78.7873 147.618 78.907 147.857 78.9828C148.095 79.058 148.347 79.0881 148.599 79.0703C148.85 79.0526 149.095 78.9869 149.317 78.8789C149.54 78.7709 149.736 78.6219 149.892 78.4408C151.114 77.2521 151.504 77.3231 152.713 78.5125L154.87 80.6295C155.13 79.7354 155.109 78.7928 154.81 77.9096C154.511 77.0265 153.946 76.2377 153.18 75.6341C152.583 75.0872 152.024 74.5164 151.491 73.9341C151.031 73.4173 150.622 72.8636 150.269 72.2805ZM166.373 80.6056C166.463 80.0547 166.494 79.4969 166.465 78.9405C166.542 76.764 167.166 76.3361 169.493 76.8235C169.753 76.9178 170.032 76.9622 170.312 76.9547C170.719 76.8563 171.114 76.725 171.495 76.5623C170.264 74.3435 168.215 72.5956 165.711 71.6263C162.047 70.1225 158.278 68.8429 154.428 67.7972C154.312 67.7972 154.143 67.8805 153.999 67.9281C153.857 67.9757 153.999 68.0708 153.999 68.0946C154.312 68.38 154.623 68.6652 154.948 68.9393C157.08 70.7111 159.354 72.221 162.396 72.3284C162.695 72.3284 163.267 72.5902 163.254 72.6729C163.085 73.6128 164.073 73.8623 164.437 74.5281C164.562 74.915 164.636 75.3148 164.658 75.7175L162.058 74.3141C162.058 74.9088 162.162 75.3251 162.227 75.8719C160.524 75.6819 160.693 74.3859 160.303 73.5649L156.976 71.8642C156.872 72.1978 156.755 72.5184 156.612 72.9586L155.313 72.126L155.104 72.3755C155.493 72.8116 155.928 73.2102 156.404 73.5649C157.794 74.4372 158.97 75.563 159.862 76.8713C160.563 77.7989 161.162 78.7504 161.993 79.6302C162.562 80.3274 163.236 80.9481 163.995 81.4737C164.195 81.6118 164.43 81.7007 164.678 81.7307C164.926 81.7615 165.179 81.7328 165.412 81.648C165.644 81.5633 165.849 81.4245 166.007 81.2461C166.163 81.0677 166.267 80.8551 166.308 80.6295L166.373 80.6056ZM109.976 74.2546C111.132 74.1357 112.355 73.6005 113.212 74.3859C114.876 74.0646 116.345 73.8623 117.775 73.4938C119.204 73.1254 120.569 72.6257 121.778 72.2334C121.635 71.6147 121.492 71.044 121.284 70.1874C120.673 70.5682 120.088 70.7705 119.815 71.1629C119.548 71.5149 119.202 71.8109 118.801 72.0324C118.401 72.2539 117.953 72.3947 117.489 72.4473C116.618 72.6373 115.799 72.9825 114.889 72.4473C114.733 72.3639 114.46 72.4473 114.252 72.4473C111.951 72.8157 109.664 73.256 107.363 73.5649C106.392 73.5868 105.421 73.5191 104.465 73.3633C105.348 72.5184 106.012 71.9715 106.544 71.3413C107.077 70.7111 107.987 70.2353 107.623 68.9625L105.504 70.8539C105.244 70.4137 105.011 70.0453 104.582 69.3549C104.373 69.9974 104.127 70.3303 104.205 70.5443C104.379 71.0638 104.361 71.6216 104.154 72.1308C103.948 72.6401 103.564 73.0734 103.061 73.3633C101.982 73.2915 100.89 73.1849 99.7854 73.1726C99.6076 73.1862 99.4358 73.2416 99.2879 73.3332C99.14 73.4248 99.0204 73.5499 98.9405 73.6962C98.8628 73.9217 99.1482 74.338 99.4082 74.5281C100.32 75.1193 101.428 75.4017 102.541 75.3251C103.986 75.3367 105.386 75.7885 106.518 76.6095C107.571 77.3826 108.728 78.0368 109.832 78.7504L110.106 78.5002C109.573 76.764 107.649 76.1221 106.557 74.8254C107.688 74.6832 108.819 74.3859 109.976 74.2546ZM161.721 41.7646C162.046 41.7646 162.565 41.7646 162.682 41.9192C163.566 43.2155 165.282 42.5733 166.426 43.3344C166.556 43.4176 166.971 43.1441 167.257 43.0252C167.152 42.767 167.017 42.5198 166.855 42.2878C166.694 42.144 166.497 42.0379 166.282 41.9787L161.486 40.3494C161.83 39.9891 162.219 39.6659 162.643 39.3861C164.086 38.625 165.542 37.8401 167.062 37.2098C170.013 36.0205 173.015 34.8313 176.005 33.7253C176.59 33.5112 177.135 33.3447 177.305 32.536C175.875 32.0246 174.835 33.1544 173.405 33.2734C173.652 32.9522 173.756 32.7858 173.886 32.643C174.224 32.2982 174.692 31.8819 174.172 31.4538C173.652 31.0257 173.094 31.537 172.872 31.9295C172.484 32.6097 172.145 33.3129 171.859 34.0344L167.166 35.4973C166.946 35.0454 166.867 34.5102 166.581 34.3794C165.983 34.1177 165.516 34.4507 165.282 35.0216C165.152 35.3545 165.035 35.6994 164.878 36.0205C164.723 36.3416 164.58 36.7341 164.294 36.9124C163.319 37.5309 162.292 38.1017 160.953 38.8153C161.357 37.5665 161.629 36.6389 161.954 35.7351C162.279 34.8313 162.643 34.1058 162.903 33.2734C163.098 32.6668 163.046 32.0841 162.175 31.87C161.629 33.202 161.109 34.4269 160.616 35.6756C160.447 35.9991 160.333 36.3438 160.277 36.6984C160.143 37.6706 159.69 38.5827 158.978 39.3147C158.639 39.731 158.276 40.1234 157.977 40.504C157.47 41.2651 157.821 41.8002 158.809 41.7765C159.797 41.7527 160.784 41.7646 161.721 41.7646ZM175.524 55.2983C175.46 55.6435 175.284 55.9629 175.017 56.214C174.276 56.6985 173.473 57.0979 172.625 57.4032C172.352 57.4817 172.114 57.641 171.949 57.8561C171.785 58.0712 171.702 58.3301 171.716 58.5925C171.716 59.1871 172.249 59.306 172.781 59.3179C174.285 59.4756 175.702 60.0433 176.85 60.9472C177.811 61.5537 178.786 62.1364 179.788 62.731C180.082 62.9592 180.452 63.0912 180.837 63.1063C181.223 63.1213 181.604 63.0186 181.919 62.8143L180.164 61.4348C180.489 61.1137 180.749 60.8402 181.009 60.5666C180.679 60.3489 180.326 60.1617 179.956 60.0077C179.576 59.9102 179.179 59.8779 178.786 59.9125C178.101 59.9087 177.424 59.7733 176.799 59.5152C176.175 59.2572 175.617 58.882 175.16 58.4141L182.79 58.1287C183.096 57.9214 183.445 57.7755 183.817 57.7005C185.368 57.5698 186.927 57.534 188.483 57.5935C191.876 57.8194 195.255 58.1644 198.647 58.4497C199.002 58.4119 199.351 58.336 199.687 58.2238C198.959 57.4746 197.997 57.0346 198.387 55.7739C197.5 55.7753 196.62 55.9202 195.787 56.2021C194.492 56.8061 193.004 56.9704 191.589 56.6659C188.366 56.2913 185.103 56.2913 181.88 56.6659C180.333 56.9037 178.76 57.0108 177.2 57.1415C176.757 57.1038 176.321 57.0159 175.901 56.8799C176.382 56.5826 176.603 56.4637 176.811 56.3091C178.78 54.6342 181.031 53.2608 183.479 52.2418C183.869 52.1111 184.103 51.6591 184.467 51.3024C184.095 51.0529 183.637 50.9359 183.177 50.9731C182.718 51.0103 182.289 51.1992 181.971 51.5046C181.65 51.7736 181.23 51.9229 180.795 51.9229C180.359 51.9229 179.939 51.7736 179.618 51.5046C179.618 51.5046 179.424 51.5759 179.215 51.6591C179.215 52.0992 179.306 52.5749 179.359 53.0149L177.227 54.442L175.836 53.3597C175.693 54.3825 175.654 54.8463 175.524 55.2507V55.2983ZM116.384 91.7128L115.981 92.5338L116.683 91.9151L116.384 91.7128ZM144.784 21.0479C144.416 20.4552 144.259 19.7721 144.336 19.094C144.413 18.416 144.72 17.7769 145.213 17.2661C145.613 16.5565 145.89 15.7941 146.031 15.0065C146.105 14.7131 146.153 14.4149 146.175 14.1146C144.342 14.2453 144.745 16.3028 143.16 16.7071C142.535 15.066 141.937 13.4605 141.301 11.8788C141.175 11.4498 140.912 11.0647 140.547 10.7728C139.695 10.259 139.098 9.46068 138.883 8.54888C138.558 7.59743 138.168 6.65796 137.804 5.70656H137.271C137.271 6.15847 136.959 6.66984 137.102 7.06227C137.472 8.76844 138.22 10.3873 139.299 11.8193C139.876 12.4486 140.353 13.1492 140.716 13.9005C141.227 14.7221 141.488 15.6546 141.47 16.6001L138.051 15.4108C137.817 14.8756 138.441 13.9481 137.206 13.9243C136.933 14.3762 136.661 14.7924 136.413 15.1968C135.148 14.7167 133.793 14.4663 132.423 14.4594C132.553 15.4346 133.242 15.7201 134.008 15.9103C135.582 16.2909 137.167 16.5882 138.714 17.0995C140.599 17.6704 142.366 18.4315 142.912 20.4651C143.021 20.8622 143.241 21.2268 143.549 21.5236C143.682 21.6035 143.832 21.6556 143.99 21.6761C144.147 21.6967 144.307 21.6852 144.459 21.6425C144.565 21.572 144.65 21.4786 144.707 21.3706C144.763 21.2628 144.79 21.1437 144.784 21.0241V21.0479ZM82.0046 78.691C82.4595 78.3458 82.6799 78.0012 82.3034 77.5016C82.219 77.4612 82.1256 77.4394 82.0299 77.4394C81.9351 77.4394 81.8417 77.4612 81.7573 77.5016C81.3807 77.9534 81.4584 78.3458 82.0046 78.691ZM114.07 34.7718C113.862 35.5924 113.42 36.5081 114.746 37.2098C115.045 35.7708 115.331 34.4745 115.63 33.095C114.083 33.0474 114.239 34.0582 114.07 34.7718ZM105.712 42.2046C106.401 42.9419 107.194 43.596 107.87 44.3453C109.352 45.9864 109.17 47.354 107.48 48.7217C107.218 48.9124 106.981 49.1321 106.778 49.3758C106.68 49.4765 106.609 49.5974 106.573 49.7283C106.535 49.8591 106.534 49.9961 106.567 50.1277C106.6 50.2594 106.667 50.3819 106.763 50.4849C106.858 50.5878 106.979 50.6684 107.116 50.7196C108.283 50.0828 109.332 49.2799 110.222 48.3411C110.566 47.9576 110.979 47.6316 111.445 47.3778C112.653 46.8665 113.914 46.4502 115.162 45.9983C115.669 45.8199 116.384 45.7486 116.111 45.0232C115.838 44.2977 115.24 44.5236 114.681 44.6901C114.363 44.7814 114.051 44.8886 113.745 45.0112C113.147 45.2491 112.562 45.5108 111.9 45.7842C111.821 45.1896 111.77 44.7734 111.678 44.1669C111.25 44.476 111.016 44.6782 110.742 44.8329C110.514 44.9601 110.275 45.0714 110.027 45.1658L105.622 40.0877C105.471 40.2299 105.353 40.3986 105.276 40.5836C105.198 40.7686 105.162 40.9661 105.171 41.164C105.179 41.3619 105.232 41.5563 105.325 41.7352C105.418 41.914 105.55 42.0737 105.712 42.2046ZM113.2 43.275C113.771 41.8954 114.213 40.8251 114.616 39.7072C114.616 39.5763 114.447 39.3623 114.291 39.065C112.991 39.9451 113.095 41.1818 112.653 42.1927C112.575 42.4068 112.887 42.7041 113.2 43.275ZM82.2384 64.1701C82.8361 63.4446 82.3295 62.8975 81.9911 62.2197L78.092 62.3505C78.7935 61.5656 79.3919 60.8996 80.0285 60.1742C80.7584 59.2896 81.427 58.3642 82.0299 57.4032C82.2974 57.0282 82.4304 56.5866 82.4125 56.1394C82.3938 55.6921 82.2234 55.2611 81.9261 54.9058C80.8727 57.801 78.8197 60.3049 76.0771 62.0413C75.5922 61.0199 75.1926 59.9664 74.8815 58.8898C74.6865 57.9146 75.1414 56.8324 74.3746 55.7502C74.1666 55.9676 73.9755 56.1981 73.8027 56.4399C73.6944 56.6188 73.603 56.8057 73.5297 56.9989C72.9708 57.1415 72.3599 56.5113 72.1259 57.2843C71.892 58.0573 72.5159 58.0811 72.9318 58.2832C73.2328 58.4193 73.5517 58.5193 73.8806 58.5806C74.0756 59.4963 74.2446 60.198 74.3616 60.9591C74.5955 62.4932 74.7255 64.0273 73.1918 65.1809C73.0587 65.3332 72.9574 65.5065 72.8928 65.6923C73.6987 66.1918 74.1926 65.6923 74.5175 65.2642C75.3658 64.4829 76.4895 64.0024 77.6893 63.9084C78.092 64.3484 78.4035 64.7171 78.8981 65.2523L79.3008 63.8132C80.4969 63.0046 81.2507 64.2176 82.2384 64.1701ZM82.6799 50.6364C82.0822 51.6334 81.8805 52.789 82.1084 53.9068C83.356 52.4678 83.4733 51.8613 82.6799 50.6364ZM98.7978 49.9823C99.3701 48.7581 99.4844 47.3951 99.1228 46.1054L100.734 45.3323L98.8882 44.2739C98.8882 43.822 98.8882 43.3344 98.8882 42.8587L100.188 42.6209C100.643 41.4316 99.2005 41.6814 98.8882 41.2175V38.3634C97.4067 39.172 98.1217 40.4564 97.4455 41.5981C96.9674 39.7673 95.8101 38.1449 94.1703 37.0076C94.0014 36.4367 94.8591 35.7232 93.8587 35.188L92.9615 35.521C92.0904 35.1048 91.3238 34.6885 90.5177 34.3318C89.7123 33.975 89.4001 33.6658 89.5301 32.9165C89.6078 32.4765 89.5301 32.0722 88.8285 32.0365L88.0486 33.2853L85.9298 32.6074C85.9298 31.656 86.2936 30.6332 85.1371 29.9791C84.3049 30.8354 85.436 31.6084 85.1371 32.2506L84.1099 32.8215C84.3407 33.128 84.6112 33.4075 84.916 33.6539C85.2753 33.8025 85.6496 33.918 86.0336 33.9988C88.1001 34.7242 90.375 35.0929 92.0127 36.6389C92.6753 37.2574 93.3126 37.9233 93.9626 38.5179C95.5531 40.0414 96.7089 41.8998 97.329 43.929C97.5076 44.5834 97.6465 45.2465 97.7444 45.9151C96.2629 45.4751 95.4314 44.1669 93.8453 44.5236C93.8707 44.8464 93.7967 45.1693 93.6316 45.4553C93.4658 45.7413 93.2155 45.9789 92.9092 46.141C92.7276 46.2361 92.7538 46.6999 92.6365 47.1876L95.7564 46.367L98.3555 47.7703C98.1605 48.2936 97.979 48.7693 97.784 49.3044C97.0429 49.3044 96.3929 49.3044 95.7302 49.3044C95.0675 49.3044 94.6641 49.7207 95.0152 50.4104L97.5105 50.4699C97.1751 51.064 97.0429 51.7368 97.131 52.4007C97.2184 53.0646 97.5232 53.6889 98.0044 54.1922C98.1934 53.6906 98.3451 53.1781 98.4594 52.6581C98.4653 51.7588 98.5699 50.8624 98.7716 49.9823H98.7978ZM81.0946 78.976C80.0808 78.762 80.0673 78.762 79.5735 77.9889C79.3135 77.585 79.0535 77.3115 78.4297 77.7394L78.8847 79.6185C77.5093 80.1483 76.0928 80.5858 74.6475 80.9269C73.7637 81.093 72.6329 81.2119 72.048 80.4511C70.7482 80.4511 69.5784 80.6295 68.4346 80.6056C67.6677 80.6056 67.4597 80.879 67.4467 81.5687L68.8115 81.7116C69.7584 81.715 70.7044 81.7663 71.645 81.8661C72.462 81.9727 73.2532 82.2058 73.9846 82.5558C74.7714 82.9844 75.5078 83.4868 76.1809 84.0542C76.8107 84.4725 77.3561 84.9879 77.7932 85.5765C78.4685 86.7659 79.7946 87.2061 80.8607 88.2882C81.0311 87.9696 81.0684 87.6053 80.9653 87.2635C80.863 86.9217 80.6262 86.6264 80.3019 86.433C79.7603 86.0057 79.2522 85.545 78.7808 85.0535C78.3393 84.6133 77.962 84.1136 77.4809 83.6618C77.0005 83.21 76.8443 83.0794 76.5455 82.8053L91.025 84.3871L91.7788 86.314C93.0788 86.1356 92.1299 85.2436 92.6753 84.6728C93.0026 84.6817 93.3283 84.7131 93.6503 84.7678C94.0111 84.8922 94.3802 84.9961 94.7552 85.0768C95.0279 85.0768 95.3014 84.8868 95.5741 84.7794C95.4366 84.5586 95.2797 84.3481 95.1064 84.1492C94.8979 83.9592 94.508 83.8518 94.4303 83.6379C93.9753 82.508 93.7153 82.3179 92.5976 82.8415C91.8983 83.1464 91.1124 83.2462 90.3489 83.1266C87.0736 82.7937 83.8499 82.5203 80.5096 82.1751C79.6333 82.0281 78.7659 81.8415 77.9097 81.6166C78.7808 80.3083 80.8473 80.6056 81.0946 78.976ZM115.864 92.6171C115.864 92.6171 115.864 92.5337 115.864 92.4859V92.6171ZM167.166 22.463C168.48 22.4518 169.788 22.3043 171.066 22.023C171.3 22.023 171.456 21.6068 171.637 21.3927C171.425 21.2027 171.179 21.046 170.91 20.9289C170.578 20.8809 170.24 20.8809 169.909 20.9289L166.296 21.1668C166.296 20.5246 167.322 20.2629 166.595 19.4186C165.932 19.7872 165.295 20.1797 164.567 20.5484C164.242 20.7149 163.891 21.0003 163.566 20.9884C162.266 20.9884 160.967 20.8338 159.354 20.7268C160.394 19.9181 161.213 19.3829 161.954 18.7407C162.353 18.215 162.885 17.7863 163.506 17.492C164.127 17.1976 164.816 17.0466 165.516 17.052C165.815 17.052 166.14 16.7428 166.451 16.5763L165.957 15.8508C165.867 15.7319 165.762 15.6368 165.646 15.4822C166.465 14.5665 167.31 13.6864 168.076 12.7707C169.259 11.3555 170.442 9.94027 171.534 8.46562C171.75 8.13341 171.881 7.76073 171.917 7.37555C171.953 6.99036 171.893 6.60267 171.741 6.24172L170.442 7.69258L169.675 7.00287C169.517 7.04272 169.372 7.11661 169.251 7.21833C169.131 7.31997 169.039 7.4465 168.983 7.58738C168.927 7.72819 168.909 7.87926 168.93 8.02787C168.951 8.17654 169.01 8.31845 169.103 8.44183C169.256 8.74588 169.301 9.08643 169.232 9.41522C169.162 9.74402 168.98 10.0442 168.713 10.2733C168.308 10.7624 167.874 11.2308 167.413 11.6766C166.308 12.7469 165.191 13.8172 164.06 14.8638C162.76 16.1363 161.317 17.4088 159.913 18.6456C159.405 18.9907 158.866 19.2969 158.302 19.5613C158.393 18.2174 158.471 17.1828 158.549 16.1957L159.614 15.2325L158.068 14.2453C157.795 13.3059 157.197 12.2831 158.718 11.6528C158.825 11.5552 158.9 11.4328 158.937 11.2986C158.973 11.1645 158.97 11.0238 158.926 10.8916C158.827 10.7852 158.699 10.7041 158.556 10.6561C158.412 10.6082 158.258 10.5951 158.107 10.6182C157.576 10.8103 157.067 11.0493 156.586 11.3317C156.586 11.9977 156.586 12.521 156.586 13.0324C156.703 15.1611 156.846 17.278 156.937 19.4067C157.019 19.8118 156.967 20.2303 156.786 20.6077C156.605 20.9851 156.305 21.3042 155.923 21.5236C155.754 21.6068 155.677 21.8328 155.559 21.9755C156.365 22.7723 156.391 22.7723 157.184 22.3442C157.587 22.1301 158.042 21.7971 158.484 21.8209C161.434 21.9992 164.307 22.3323 167.166 22.463ZM172.119 8.92942C172.496 8.85607 172.86 8.7318 173.197 8.56077C173.444 8.38236 173.522 8.02561 173.679 7.75205C173.327 7.68069 172.925 7.46666 172.651 7.56182C172.499 7.59606 172.358 7.66503 172.242 7.7623C172.126 7.85964 172.039 7.98207 171.988 8.11837C171.938 8.25474 171.925 8.40048 171.953 8.54225C171.98 8.68402 172.046 8.81718 172.145 8.92942H172.119Z" fill="#101A24"/>
</g>
</svg>
