<svg width="94" height="94" viewBox="0 0 94 94" fill="none" xmlns="http://www.w3.org/2000/svg">
<g opacity="0.1">
<path d="M50.2809 37.5227C49.8564 26.5005 39.1222 14.705 29.4038 10.4447C25.3557 8.12501 18.6848 9.04985 14.7125 11.324C9.99737 14.0227 9.20898 19.8144 9.10285 24.7873C8.86027 36.5827 15.9254 50.2127 28.4335 52.6689C38.5764 54.655 50.7054 48.8634 50.2809 37.5227ZM28.3274 12.2792C35.5593 15.4479 41.8512 22.2098 45.5354 29.0931C47.9309 33.5808 49.4016 39.236 46.8393 44.0269C45.217 47.0895 42.2454 48.6663 39.0767 49.576C32.0267 50.2279 24.0519 42.5108 20.7467 36.795C17.1383 30.5789 11.7409 21.9521 14.3638 14.6747C17.8812 11.324 24.2793 9.94436 28.3274 12.2792ZM12.408 33.7627C11.2254 29.5479 10.7554 24.7115 11.6045 20.2995C12.1958 27.0008 16.3954 34.2176 19.7158 39.1905C22.4599 43.3144 27.5238 48.4086 32.9364 50.6221C23.0664 50.9556 15.0461 43.1476 12.408 33.7627Z" fill="#101A24"/>
<path d="M20.5648 13.0525C20.4586 13.2648 20.4283 13.4922 20.5496 13.7803C21.0954 18.45 22.6722 22.4677 25.5983 26.2125C30.4348 32.368 36.1809 36.8861 36.9238 45.2854C37.0451 46.6651 38.8796 46.6348 39.0464 45.2854C39.759 39.6151 39.4709 34.1419 35.5441 29.6845C30.647 24.1051 25.5377 20.4058 22.5964 13.2193C22.5661 13.1587 22.5357 13.1283 22.5054 13.0677C22.4903 13.0525 22.4751 13.0525 22.4751 13.0374C22.4163 12.9335 22.3393 12.841 22.2477 12.7645C22.2022 12.7341 22.1567 12.719 22.1264 12.6887C22.0657 12.6583 22.0051 12.6129 21.9293 12.5825C21.4593 12.4006 20.8983 12.5067 20.6406 12.9161C20.6103 12.9616 20.5799 12.9919 20.5648 13.0525ZM29.2067 26.5006C31.3293 28.4716 33.937 30.4729 35.4835 32.9745C36.5145 34.6422 36.9996 36.5374 37.1816 38.478C34.7406 33.2625 30.4803 29.1235 27.1903 24.4387C27.827 25.1361 28.4941 25.8335 29.2067 26.5006ZM44.1709 38.2203C44.0345 39.5848 46.157 39.5696 46.2935 38.2203C46.5361 35.7338 46.0206 33.3232 44.8683 31.1096C44.2316 29.8967 42.397 30.9732 43.0338 32.1861C44.0345 34.0812 44.3832 36.0977 44.1709 38.2203ZM44.0951 40.8129H44.0345C42.6699 40.8129 42.6699 42.9354 44.0345 42.9354H44.0951C45.4596 42.9354 45.4596 40.8129 44.0951 40.8129ZM80.3154 43.6632C76.3432 41.4041 69.657 40.4641 65.6241 42.7838C55.9057 47.0441 45.1716 58.8396 44.747 69.8619C44.3225 81.1874 56.4516 86.9941 66.5793 85.008C79.1177 82.5519 86.1374 68.9371 85.9099 57.1264C85.819 52.1687 85.0154 46.3467 80.3154 43.6632ZM48.1735 76.3661C45.6416 71.6054 47.0667 65.8896 49.4774 61.4322C53.1919 54.549 59.408 47.8022 66.6854 44.6183C70.7487 42.2835 77.1316 43.6177 80.649 46.9835C83.287 54.2609 77.8896 62.918 74.2812 69.1341C70.9609 74.8499 63.0012 82.5822 55.9361 81.9151C52.7674 81.0054 49.8109 79.4438 48.1735 76.3661ZM62.1067 82.9764C67.5041 80.7629 72.568 75.6687 75.3274 71.5448C78.6477 66.587 82.8474 59.34 83.4235 52.6387C84.2574 57.0354 83.8177 61.9629 82.6048 66.1171C79.8909 75.4716 72.007 83.31 62.1067 82.9764Z" fill="#101A24"/>
<path d="M56.1635 76.8679C58.3013 64.0263 72.5529 59.3263 74.9484 46.4241V46.3179C74.9635 46.227 74.9635 46.1208 74.9484 46.0299C74.9484 45.9995 74.9484 45.9541 74.9332 45.9237C74.9048 45.8037 74.8533 45.6904 74.7816 45.5902C74.7816 45.5902 74.7816 45.575 74.7664 45.575C74.4935 45.1808 73.978 44.9837 73.5384 45.1353C73.3109 45.196 73.1138 45.3628 72.9926 45.6205C69.7935 51.685 63.9564 56.0212 59.2413 60.8728C54.8445 65.406 53.7226 70.3789 54.0713 76.5799C54.1471 77.717 55.9664 78.1112 56.1635 76.8679ZM59.3777 63.8292C60.7726 62.1463 62.5009 60.7363 63.9867 59.1292C65.9274 57.0218 67.9893 55.1721 69.9148 53.2012C66.17 59.0686 60.1813 63.4047 56.6638 69.4541C57.1187 67.4679 57.9374 65.5728 59.3777 63.8292ZM66.3671 72.2119C64.6993 74.7135 62.1219 76.2448 59.499 77.579C58.2861 78.2006 59.3626 80.0351 60.5755 79.4135C63.5471 77.8974 66.3216 76.0932 68.2016 73.2732C68.9597 72.1512 67.1251 71.09 66.3671 72.2119ZM69.0506 68.9674C67.6861 68.9674 67.6861 71.09 69.0506 71.09C70.4151 71.09 70.4151 68.9674 69.0506 68.9674ZM24.6129 72.3029C23.2484 72.3029 23.2484 74.4254 24.6129 74.4254C25.9774 74.4254 25.9774 72.3029 24.6129 72.3029ZM24.3097 63.6321V63.435C24.3097 62.0705 22.1871 62.0705 22.1871 63.435V63.6321C22.1871 64.9966 24.3097 64.9966 24.3097 63.6321ZM35.3168 59.8403C33.9522 59.8403 33.9522 61.9629 35.3168 61.9629C36.6813 61.9629 36.6813 59.8403 35.3168 59.8403ZM32.3148 70.2561V70.4532C32.3148 71.8177 34.4374 71.8177 34.4374 70.4532V70.2561C34.4374 68.8916 32.3148 68.8764 32.3148 70.2561ZM28.5093 65.4954C27.1448 65.4954 27.1448 67.618 28.5093 67.618C29.8738 67.618 29.8738 65.4954 28.5093 65.4954ZM30.45 56.3395H30.2529C28.8884 56.3395 28.8884 58.4621 30.2529 58.4621H30.45C31.8145 58.4621 31.8145 56.3395 30.45 56.3395ZM39.4103 62.7664C38.0458 62.7664 38.0458 64.889 39.4103 64.889C40.7748 64.889 40.7748 62.7664 39.4103 62.7664ZM39.0161 73.8645C37.6516 73.8645 37.6516 75.9871 39.0161 75.9871C40.3806 75.9871 40.3806 73.8645 39.0161 73.8645ZM62.0764 34.248C63.4409 34.248 63.4409 32.1254 62.0764 32.1254C60.7119 32.1254 60.6968 34.248 62.0764 34.248ZM58.18 24.6979C59.5445 24.6979 59.5445 22.5753 58.18 22.5753C56.8155 22.5753 56.8155 24.6979 58.18 24.6979ZM65.609 22.2251C66.9735 22.2251 66.9735 20.1025 65.609 20.1025C64.2445 20.1025 64.2445 22.2251 65.609 22.2251ZM76.9193 28.9416C78.2839 28.9416 78.2839 26.819 76.9193 26.819C75.5548 26.819 75.5548 28.9416 76.9193 28.9416ZM68.0803 36.0219C69.4448 36.0219 69.4448 33.8993 68.0803 33.8993C66.7158 33.8993 66.7158 36.0219 68.0803 36.0219ZM68.8384 29.7012L69.1871 29.3524C70.1574 28.3821 68.6564 26.8812 67.6861 27.8515L67.3374 28.2002C66.3671 29.1553 67.868 30.6563 68.8384 29.7012ZM72.6742 23.999C74.0387 23.999 74.0387 21.8764 72.6742 21.8764C71.3097 21.8764 71.3097 23.999 72.6742 23.999ZM81.1645 35.3108C82.529 35.3108 82.529 33.1882 81.1645 33.1882C79.8 33.1882 79.8 35.3108 81.1645 35.3108ZM74.0993 39.5545C75.4638 39.5545 75.4638 37.4319 74.0993 37.4319C72.7197 37.4319 72.7197 39.5545 74.0993 39.5545Z" fill="#101A24"/>
</g>
</svg>
