<svg width="82" height="83" viewBox="0 0 82 83" fill="none" xmlns="http://www.w3.org/2000/svg">
<path opacity="0.1" d="M81.1434 40.0249C81.0511 39.7237 80.8457 39.4702 80.5706 39.3179C77.064 37.3763 72.7158 36.4984 67.8992 36.7441C68.864 34.2295 69.4471 31.6493 69.6061 29.099C69.9722 23.2308 68.067 18.213 64.2412 14.9699C60.4155 11.7269 55.164 10.678 49.4541 12.0162C45.4277 12.9599 41.5096 15.0185 38.0708 17.9524C37.8486 17.6189 37.6165 17.2922 37.3747 16.9727C37.043 16.5358 36.7043 16.1041 36.3589 15.678C34.1798 12.9884 31.7623 10.552 29.1735 8.43684C29.0501 8.33598 28.9081 8.26048 28.7555 8.21466C28.603 8.16884 28.443 8.15359 28.2846 8.16979C28.1262 8.18599 27.9725 8.23331 27.8323 8.30906C27.6922 8.38481 27.5682 8.4875 27.4677 8.61127C27.3671 8.73502 27.2917 8.87743 27.246 9.03037C27.2003 9.18331 27.1851 9.34378 27.2013 9.50261C27.2174 9.66145 27.2646 9.81554 27.3402 9.95608C27.4157 10.0966 27.5182 10.2209 27.6416 10.3217C30.1022 12.3323 32.4019 14.6502 34.477 17.2113C34.8062 17.6177 35.129 18.0291 35.4453 18.4457C35.734 18.8259 36.0071 19.2177 36.264 19.6201C36.0989 19.7847 35.9356 19.951 35.7741 20.1191L35.7483 20.146C32.9584 23.0462 30.6876 26.4701 29.1848 30.2111C29.1344 30.3361 29.0836 30.4609 29.0348 30.5865C28.7017 30.5041 28.3662 30.4316 28.0288 30.369L25.0441 26.6849C25.8454 25.4057 28.1268 21.3028 27.997 16.2356C27.9799 15.5643 27.4184 15.035 26.7537 15.0514C26.5945 15.0555 26.4377 15.091 26.2922 15.1558C26.1467 15.2207 26.0153 15.3136 25.9056 15.4294C25.796 15.5452 25.7101 15.6815 25.653 15.8305C25.5958 15.9795 25.5685 16.1384 25.5726 16.298C25.6682 20.0296 24.2642 23.1455 23.416 24.6757L19.0936 19.3408C19.9605 17.8471 21.6344 14.4034 21.5275 10.2282C21.5192 9.90583 21.3835 9.60002 21.1504 9.37796C20.9172 9.1559 20.6057 9.03575 20.2842 9.04394C20.125 9.04802 19.9682 9.0835 19.8227 9.14836C19.6772 9.21322 19.5458 9.30618 19.4361 9.42195C19.3265 9.53771 19.2406 9.674 19.1835 9.82304C19.1263 9.97208 19.099 10.1309 19.1032 10.2906C19.1782 13.2202 18.1884 15.7833 17.4355 17.2943L13.2951 12.1838C13.1947 12.0599 13.0709 11.957 12.9309 11.8811C12.7909 11.8051 12.6373 11.7575 12.4789 11.7411C12.3205 11.7246 12.1604 11.7397 12.0078 11.7852C11.8553 11.8308 11.7131 11.9061 11.5895 12.0068C11.4659 12.1075 11.3633 12.2315 11.2876 12.372C11.2118 12.5124 11.1644 12.6664 11.148 12.8252C11.1316 12.984 11.1465 13.1445 11.192 13.2975C11.2375 13.4505 11.3126 13.593 11.413 13.7169L15.5564 18.8308C13.933 19.2616 11.236 19.7072 8.37525 19.0297C8.06313 18.958 7.73537 19.0129 7.46352 19.1826C7.19166 19.3523 6.99776 19.6228 6.92416 19.9353C6.85055 20.2478 6.9032 20.5768 7.07062 20.8505C7.23804 21.1242 7.50663 21.3204 7.81778 21.3962C9.08064 21.6953 10.3094 21.8102 11.4526 21.8102C13.9786 21.8102 16.0853 21.2493 17.212 20.8742L21.5346 26.2089C19.8672 26.7282 16.5381 27.4679 12.9145 26.6097C12.2623 26.4552 11.6098 26.86 11.4558 27.5134C11.3019 28.1669 11.7055 28.8218 12.3572 28.976C13.734 29.302 15.0748 29.4275 16.3242 29.4275C19.5418 29.4273 22.1459 28.5957 23.1627 28.2181L24.6802 30.091C24.6031 30.0926 24.5261 30.0963 24.4492 30.0991C22.5634 30.1673 20.7051 30.5744 18.9628 31.301C16.4882 32.3339 14.3075 33.99 12.5124 36.178C12.3339 35.9652 12.1573 35.7509 11.9824 35.5351C7.48974 29.9901 4.41821 23.8173 3.10005 17.6842C1.89104 12.059 2.31043 6.86194 4.27593 2.97893C9.88385 1.45769 16.9866 3.11121 23.859 7.55853C24.1292 7.73335 24.4576 7.79339 24.772 7.72545C25.0864 7.6575 25.3609 7.46713 25.5353 7.19621C25.6217 7.06207 25.6808 6.91218 25.7094 6.75511C25.738 6.59804 25.7354 6.43687 25.7018 6.28079C25.6683 6.12471 25.6044 5.97679 25.5138 5.84548C25.4232 5.71416 25.3078 5.60202 25.174 5.51546C17.5027 0.551985 9.45315 -1.16978 3.08841 0.792394C2.78814 0.885018 2.53543 1.09087 2.3835 1.36659C-2.67035 10.5423 0.502878 25.2235 10.0999 37.0683C10.4116 37.4526 10.7288 37.8325 11.0513 38.2078C10.2607 39.4656 9.57553 40.8523 9.00789 42.3562C6.7837 48.2484 6.6293 55.2617 8.57314 62.1049C10.5167 68.9472 14.3335 74.8261 19.3203 78.6585C23.045 81.5211 27.0969 83 31.0658 83C32.5273 83.0009 33.9817 82.7976 35.3872 82.396C37.9826 81.6546 40.3066 80.2719 42.2692 78.3405C45.1456 80.3476 48.3895 81.4723 51.7169 81.5995C56.6377 81.7879 61.1563 79.5417 64.8954 76.496C68.2028 73.8019 71.146 70.7901 73.6431 67.5443C73.836 67.2887 73.9206 66.9671 73.8782 66.6494C73.8359 66.3316 73.6701 66.0435 73.417 65.8477C73.1639 65.6519 72.8439 65.5643 72.5266 65.6039C72.2094 65.6434 71.9205 65.807 71.723 66.0591C69.3402 69.1563 66.5285 72.0328 63.3662 74.6087C60.019 77.3357 56.2376 79.3392 51.8094 79.1697C49.04 79.0637 46.3263 78.149 43.8923 76.5114C44.9978 75.0884 45.9465 73.4555 46.7159 71.6355C48.8839 72.8088 52.6656 74.3942 57.2696 74.3942C58.0826 74.3942 58.9906 74.1527 58.9647 73.141C58.9476 72.4697 58.3919 71.9388 57.7214 71.9568C53.1607 72.0745 49.3705 70.3374 47.5628 69.3247C47.6933 68.9088 47.8142 68.4883 47.9251 68.063L52.9182 63.9957C54.1801 64.8016 58.4964 67.2768 63.9036 67.2768C64.6965 67.2768 65.5699 66.9978 65.5374 66.0244C65.5202 65.3531 64.9604 64.8244 64.2941 64.8401C60.0564 64.9494 56.5425 63.2952 54.9165 62.3676L60.9506 57.4525C62.4843 58.3575 66.0926 60.16 70.5135 60.16C71.3021 60.16 72.1353 59.858 72.11 58.9081C72.106 58.7484 72.0706 58.5912 72.0059 58.4453C71.9413 58.2994 71.8485 58.1677 71.7331 58.0577C71.6176 57.9477 71.4817 57.8616 71.333 57.8043C71.1844 57.7471 71.0259 57.7197 70.8667 57.7239C67.5307 57.8101 64.627 56.6372 62.986 55.7943L68.7179 51.1253C68.8415 51.0247 68.9441 50.9006 69.0199 50.7602C69.0956 50.6198 69.1431 50.4658 69.1595 50.307C69.1759 50.1482 69.1609 49.9877 69.1154 49.8347C69.0699 49.6817 68.9949 49.5391 68.8944 49.4152C68.7941 49.2913 68.6703 49.1884 68.5303 49.1125C68.3902 49.0365 68.2366 48.9889 68.0782 48.9725C67.9199 48.956 67.7598 48.9711 67.6072 49.0167C67.4546 49.0622 67.3125 49.1375 67.1889 49.2382L61.4534 53.9101C61.0533 52.4538 60.6125 50.1211 60.8918 47.5203L60.9949 47.4148C63.329 45.0208 65.3106 42.2589 66.796 39.2591C71.4494 38.8308 75.6318 39.5027 78.9629 41.2136C80.6011 47.2164 78.9433 54.8407 74.374 62.2303C74.2901 62.366 74.2336 62.5169 74.2078 62.6745C74.1821 62.832 74.1876 62.9931 74.2239 63.1486C74.2603 63.304 74.3268 63.4507 74.4198 63.5804C74.5127 63.71 74.6302 63.82 74.7656 63.9041C74.9009 63.9883 75.0514 64.0449 75.2085 64.0707C75.3657 64.0965 75.5263 64.091 75.6813 64.0545C75.8364 64.0181 75.9827 63.9513 76.112 63.8582C76.2413 63.765 76.351 63.6472 76.4349 63.5115C81.4949 55.3295 83.2111 46.7686 81.1434 40.0249ZM31.4098 31.1792C32.9795 27.2665 35.557 23.5878 38.6293 20.7126C38.6306 20.7115 38.6316 20.7098 38.6329 20.7087C45.7462 14.0539 55.0226 11.9757 61.1985 15.7598C60.9623 15.8981 60.7276 16.0389 60.4945 16.1823L60.4407 16.215C56.3018 18.7691 52.9187 22.2967 50.7155 26.6563L50.7066 26.674C48.2425 31.613 46.6907 37.0011 43.2375 41.4005L43.1985 41.4503C41.3942 38.6998 39.2227 36.3155 36.7668 34.4282C35.0201 33.0858 33.2012 32.048 31.3529 31.324C31.372 31.2757 31.3904 31.2274 31.4098 31.1792ZM33.8596 80.273C29.5861 81.1871 24.9819 79.946 20.7956 76.7286C16.2196 73.2118 12.7072 67.7818 10.9053 61.4386C8.47031 52.8662 9.69631 44.391 13.5377 38.8514C13.5508 38.8345 13.5649 38.8186 13.5774 38.801C15.2163 36.4538 17.2935 34.6991 19.6537 33.6509C19.6512 33.6857 19.6501 33.7191 19.6478 33.754C19.1494 41.3383 21.9048 48.5199 26.0641 54.7333C30.4668 61.3105 33.4331 68.7319 33.8023 76.7019C33.8563 77.8914 33.8754 79.0823 33.8596 80.273ZM41.2207 75.9108C41.1973 75.9367 41.1759 75.9641 41.1551 75.9918C39.7491 77.534 38.111 78.7216 36.2897 79.501C36.2897 78.4984 36.2664 77.4956 36.217 76.494C36.0095 72.2952 35.2676 68.1726 33.8059 64.2248C33.559 63.5579 33.2941 62.8979 33.0116 62.2454C31.6656 59.1342 29.9599 56.1918 28.0777 53.3783C25.6942 49.8161 23.4109 46.122 22.5268 41.8647C21.9168 38.9261 21.8785 35.8948 22.1451 32.9138C22.1475 32.8869 22.1508 32.8588 22.1532 32.8319C22.1849 32.8249 22.2166 32.8173 22.2482 32.8105C24.6433 32.3026 27.111 32.496 29.4388 33.2339C38.4541 36.0916 44.1414 45.6172 45.8502 54.4535C47.4514 62.733 45.6773 70.9549 41.2207 75.9108ZM48.6328 64.3538C49.0024 61.3776 48.9358 58.2593 48.4323 55.1223C48.5327 55.0943 48.6328 55.0641 48.7329 55.0346C49.172 54.9054 49.6075 54.7638 50.0387 54.6101C50.0416 58.2005 50.9803 61.0453 51.3873 62.1102L48.6328 64.3538ZM53.3883 60.4805C52.951 59.1123 52.3261 56.5677 52.4933 53.5896C52.4967 53.5481 52.8514 53.4145 52.8879 53.3963C54.2871 52.701 55.6243 51.8834 56.8919 50.9692C57.4034 50.5996 57.9031 50.2138 58.3903 49.8124C58.4739 52.3558 59.0461 54.4468 59.4223 55.5655L53.3883 60.4805ZM64.8921 37.6122C62.5734 42.5781 58.8301 46.9243 54.2085 49.8664C52.4466 50.9882 50.5503 51.9082 48.5605 52.5451C48.5254 52.5563 47.9663 52.7354 47.9636 52.727C47.6004 51.154 47.1323 49.6072 46.5623 48.0971C45.98 46.553 45.2995 45.0707 44.5291 43.6654C44.5491 43.6414 44.5682 43.6176 44.5879 43.5936C48.7152 38.6144 50.3378 32.3026 53.4203 26.7296L53.453 26.6711C55.6895 22.6428 59.2832 19.6021 63.2585 17.3853L63.2788 17.3743C67.992 21.9604 68.4348 30.0245 64.8921 37.6122Z" fill="#101A24"/>
</svg>
