<svg width="126" height="70" viewBox="0 0 126 70" fill="none" xmlns="http://www.w3.org/2000/svg">
<path opacity="0.1" d="M26.6602 61.7547C30.7213 64.3709 35.6155 66.4519 41.042 67.8699C46.4684 69.2878 52.3123 70.0127 58.2142 69.9998C81.7926 69.9998 103.859 59.3333 109.65 56.3015C109.906 56.1963 110.147 56.0783 110.37 55.9462C110.387 55.9372 110.41 55.9347 110.429 55.9244C115.78 53.0644 124.914 46.4339 125.924 34.1335C126.821 23.3361 119.599 17.6598 112.543 15.9477C108.573 14.9871 104.657 15.3359 102.558 16.8454C101.556 17.5623 99.5977 19.6092 103.003 23.0963C105.241 25.2809 106.15 27.8765 105.571 30.4292C104.993 32.9818 102.964 35.329 99.8391 37.0601C95.147 33.2982 90.0429 29.735 84.5618 26.3949C66.108 15.1333 43.6108 6.07499 36.3132 10.5278C36.1243 10.6535 35.9522 10.7894 35.7968 10.9318C35.7445 10.961 35.6947 10.9918 35.6477 11.0241C35.0683 11.4345 34.2999 12.0001 33.4182 12.676C29.9855 10.3055 25.372 8.69034 20.2885 8.07953C17.7993 7.88253 15.2692 8.05279 12.9099 8.57605C10.5506 9.09931 8.43094 9.96033 6.72845 11.087C3.98667 12.6741 1.97971 14.6754 0.910623 16.8885C-0.158466 19.1016 -0.25176 21.4479 0.64018 23.6901C1.90324 26.7235 4.51962 29.4832 8.19803 31.6621C10.1568 32.8548 12.3465 33.8962 14.723 34.7606C11.324 43.4944 12.7516 53.2594 26.6602 61.7547ZM15.6593 18.4344C16.0708 17.8958 16.8182 17.4802 17.7356 17.2802C18.5334 17.1417 19.39 17.2084 20.1059 17.4649C21.9845 18.167 23.5986 19.1041 24.8421 20.2145C23.0004 22.0792 21.322 24.0022 19.814 25.9755C16.4739 24.2531 13.1043 21.3829 15.6593 18.4344ZM29.6287 59.9412C4.38972 44.5243 24.4894 24.1467 34.8227 15.7502C35.1749 16.6997 35.6595 17.629 36.2713 18.528C40.1636 24.3916 49.8859 32.4137 62.2808 39.9855L63.679 40.8281C76.1956 48.3179 91.7207 55.3858 101.981 56.7606C88.242 63.0743 54.8657 75.3607 29.6287 59.9412ZM41.4673 19.3181C44.5638 19.3618 47.6044 19.8314 50.3628 20.6921C53.1212 21.5527 55.5264 22.7822 57.3997 24.289C60.2465 26.6168 60.2402 29.5306 60.2339 32.3495C60.2339 33.2473 60.2339 34.1566 60.3367 35.0505C52.9069 30.354 46.5587 25.0612 41.4673 19.3181ZM106.612 21.7779C105.214 20.3453 104.892 19.1206 105.755 18.5024C106.512 18.1704 107.408 17.9776 108.338 17.9469C109.268 17.9162 110.193 18.0489 111.004 18.3293C116.447 19.6515 122.527 24.5481 121.742 34.0027C120.804 45.3541 112.528 51.401 107.676 53.9943C107.638 54.0148 107.622 54.0443 107.586 54.0674C107.55 54.0904 107.473 54.1045 107.426 54.1315C107.318 54.1661 107.214 54.2055 107.116 54.2495C104.974 54.9318 99.5914 54.0404 92.1238 51.3677C98.6062 50.4472 104.429 48.2728 108.726 45.1681C108.912 45.0391 109.054 44.8886 109.143 44.7254C109.232 44.5623 109.266 44.3899 109.244 44.2185C109.221 44.0471 109.143 43.8802 109.013 43.7277C108.883 43.5752 108.704 43.4403 108.487 43.3308C108.27 43.2214 108.019 43.1398 107.749 43.0908C107.479 43.0418 107.196 43.0265 106.916 43.0457C106.637 43.0649 106.366 43.1183 106.121 43.2026C105.876 43.287 105.661 43.4006 105.489 43.5368C100.743 46.8581 94.0917 48.9396 86.9068 49.3516C82.5901 47.5336 78.4501 45.5638 74.5077 43.4521C75.5847 43.538 76.7079 43.6099 77.9297 43.6496C86.0151 44.1095 94.1044 42.7956 100.748 39.9432L100.771 39.9329C105.335 37.925 108.478 34.9317 109.563 31.5603C110.648 28.1889 109.593 24.6916 106.612 21.7779ZM81.5953 28.1994C86.9421 31.458 91.922 34.9338 96.5011 38.603C90.9433 40.5555 84.5396 41.4207 78.1523 41.0821C72.507 40.8974 68.7973 40.1946 66.8029 38.93C64.4201 37.4282 64.4243 35.0761 64.4306 32.3521C64.4306 29.2651 64.4432 25.7665 60.7629 22.7539C58.279 20.799 55.0689 19.2334 51.3982 18.1865C47.7275 17.1397 43.7016 16.6418 39.6534 16.7338C38.0809 14.0316 38.6583 12.9081 39.0236 12.5413L39.0803 12.4823C39.1376 12.4288 39.2045 12.3793 39.2797 12.3349C42.6786 10.2572 60.427 15.282 81.5953 28.1994ZM11.154 29.8487C8.03075 28.0052 5.80427 25.6694 4.72142 23.1002C4.00896 21.2823 4.09462 19.3817 4.96975 17.5906C5.84487 15.7994 7.47845 14.1811 9.70541 12.8992C10.9565 12.0567 12.5203 11.41 14.2654 11.0134C16.0106 10.6169 17.8861 10.482 19.7343 10.6202C24.0783 11.1996 27.985 12.643 30.8422 14.7242C29.5806 15.7719 28.3674 16.8411 27.2039 17.9304C25.8036 16.8348 24.0708 15.9143 22.1003 15.2192C21.2558 14.9313 20.3256 14.7494 19.3644 14.6845C18.4031 14.6195 17.4304 14.6727 16.5033 14.8409C15.5191 15.0368 14.6089 15.3507 13.8259 15.7643C13.0429 16.1779 12.4029 16.6828 11.9434 17.2494C8.33659 21.4047 12.4136 25.7908 18.082 28.42C17.2616 29.6562 16.5283 30.9133 15.884 32.1879C14.1789 31.5103 12.5938 30.7264 11.154 29.8487Z" fill="#101A24"/>
<path opacity="0.1" d="M34.7931 43.4913C27.3719 47.9324 26.0192 54.3726 31.7907 57.8529C32.4883 58.2602 33.2665 58.6126 34.1104 58.904C34.1443 58.913 34.1761 58.9257 34.2122 58.9346C36.2901 59.6459 38.6479 60.0124 41.0418 59.9997C46.6036 59.8872 51.8705 58.471 55.7125 56.0549C63.1337 51.6138 64.4865 45.1723 58.7128 41.6932C52.9391 38.2142 42.1953 39.0388 34.7931 43.4913ZM37.7871 45.2945C40.8281 43.3497 45.0102 42.1911 49.449 42.0635C50.4243 42.0661 51.3933 42.1539 52.3263 42.3257C51.6794 43.1055 51.2735 43.9493 51.1283 44.816C51.0518 45.7832 50.3768 46.6984 49.2352 47.3826C48.0936 48.0668 46.5676 48.4707 44.956 48.5152C42.4369 48.6388 40.0727 49.295 38.2845 50.367C36.4964 51.439 35.4004 52.8571 35.1918 54.3688C35.1052 54.8888 34.8909 55.3982 34.5557 55.8805C30.7497 53.3546 32.1512 48.6692 37.7871 45.2945ZM52.7185 54.2517C48.2828 56.924 42.4942 58.0031 38.1815 57.2332C38.8362 56.4504 39.2452 55.6019 39.3879 54.7302C39.4648 53.7639 40.1392 52.8495 41.2794 52.1656C42.4196 51.4818 43.9437 51.0777 45.5539 51.0323C48.0731 50.9085 50.4373 50.2522 52.2257 49.1803C54.0142 48.1084 55.1107 46.6904 55.3202 45.1787C55.405 44.6595 55.6213 44.1505 55.9563 43.6682C59.756 46.1878 58.3608 50.8732 52.7185 54.2517ZM91.8368 12.8669C92.651 12.9916 93.4885 13.0565 94.3282 13.0591C95.2272 13.0773 96.1232 12.9878 96.9639 12.7958C97.8046 12.6037 98.5729 12.313 99.2241 11.9405C100.102 11.3472 100.707 10.6264 100.978 9.84957C101.248 9.07277 101.176 8.26699 100.768 7.51215C99.9559 5.77598 98.3882 4.20091 96.2259 2.9489C94.1397 1.65145 91.5152 0.711041 88.6223 0.224437C87.3637 -0.0221006 86.0193 -0.0664194 84.7232 0.0958949C83.4271 0.258209 82.2244 0.621492 81.2351 1.14956C80.3546 1.74339 79.7488 2.46531 79.478 3.2434C79.2072 4.02148 79.2808 4.82858 79.6914 5.58428C80.5014 7.32091 82.0694 8.89625 84.2332 10.1475C86.3197 11.4437 88.9444 12.3824 91.8368 12.8669ZM84.2332 2.94126C84.7527 2.67276 85.427 2.53787 86.1097 2.56587C86.6101 2.56969 87.1084 2.60914 87.594 2.68549C89.7374 3.06447 91.6787 3.77289 93.2256 4.7406C94.8398 5.66962 96.0216 6.83555 96.6542 8.12295C97.0889 8.79612 96.9299 9.55454 96.2301 10.1412C95.7485 10.3474 95.1892 10.4786 94.6022 10.523C94.0153 10.5674 93.4191 10.5237 92.8673 10.3957C90.7237 10.0163 88.7824 9.30741 87.2356 8.33928C85.6216 7.41403 84.4389 6.2515 83.8049 4.96711C83.5898 4.63493 83.5163 4.27576 83.5911 3.92221C83.6659 3.56866 83.8866 3.23065 84.2332 2.94126Z" fill="#101A24"/>
</svg>
