<svg width="156" height="102" viewBox="0 0 156 102" fill="none" xmlns="http://www.w3.org/2000/svg">
<g opacity="0.1">
<path d="M116.62 81.8202C117.126 81.38 117.01 80.8216 116.996 80.2508C117.014 79.5043 117.097 78.7606 117.244 78.0265C118.224 78.1871 119.214 78.2979 120.207 78.3594C121.299 78.3594 122.079 77.872 122.079 77.1707C122.098 76.457 121.938 75.7488 121.611 75.1008C120.45 73.2183 118.659 71.7261 116.502 70.8436C113.28 69.3186 109.885 68.1224 106.377 67.2758C106.686 67.1689 107.003 67.0854 107.326 67.0261C108.444 67.0261 109.575 67.0261 110.68 66.919C111.627 66.8111 112.553 66.5871 113.435 66.2531C115.086 65.6228 115.411 64.7903 114.735 63.3156C114.462 62.7567 114.098 62.2215 113.591 61.3415C115.606 61.9717 117.244 62.4593 118.855 63.0064C120.064 63.4108 121.208 63.9578 122.43 64.3146C124.292 64.8431 126.049 65.6465 127.629 66.6931C128.874 67.5581 130.177 68.3524 131.528 69.0718C131.876 69.3159 132.285 69.4779 132.718 69.5442C133.151 69.6098 133.595 69.5777 134.011 69.4491C134.427 69.3213 134.803 69.1019 135.104 68.81C135.405 68.5181 135.624 68.1625 135.739 67.7753C135.908 67.4542 136.026 67.1212 136.194 66.7169C136.857 66.919 137.494 67.1569 138.118 67.2877C140.289 67.7396 141.381 66.6336 140.717 64.707C140.468 63.9424 140.012 63.2477 139.392 62.6865C138.772 62.1254 138.008 61.716 137.169 61.496L134.959 60.6517L135.077 60.3425C137.221 60.8063 139.366 61.2344 141.576 61.722C144.604 62.4356 147.62 63.2324 150.674 63.8865C151.389 64.0517 152.145 63.9858 152.813 63.6996C153.481 63.4136 154.02 62.925 154.339 62.3167C154.989 61.3177 154.755 60.3544 153.638 59.1176C153.26 58.7013 152.935 58.2494 152.52 57.7261C153.404 57.3218 154.119 57.0364 154.781 56.6677C155.096 56.5472 155.364 56.3437 155.552 56.0831C155.739 55.8226 155.838 55.5169 155.834 55.205C155.769 54.539 155.198 54.313 154.534 54.1109C151.007 53.0262 147.224 52.8413 143.59 53.5757C141.023 54.1711 138.37 54.3958 135.727 54.2416C137.196 53.3973 138.677 52.5648 140.146 51.7085C140.56 51.5455 140.897 51.2519 141.095 50.8808C141.293 50.5098 141.339 50.0862 141.225 49.6868C140.991 48.6046 140.601 48.1764 139.34 48.0695C138.401 48.0461 137.462 48.0939 136.532 48.2121C136.173 48.2678 135.816 48.3433 135.467 48.4381C135.326 48.084 135.104 47.7613 134.816 47.491C134.529 47.2208 134.183 47.0091 133.8 46.8699C133.417 46.7306 133.007 46.667 132.595 46.6831C132.183 46.6993 131.78 46.7948 131.412 46.9635C128.175 47.9267 125.693 49.9484 123.105 51.8037C120.832 53.6629 118.317 55.2605 115.619 56.5607C114.761 56.0374 113.864 55.3714 112.89 54.9433C112.092 54.4934 111.211 54.183 110.29 54.0276C108.574 53.873 106.832 54.0276 105.091 53.9087C104.673 53.9672 104.246 53.9422 103.84 53.8355C103.434 53.7287 103.058 53.5427 102.738 53.2902C103.723 52.9651 104.792 52.9195 105.806 53.1594C108.327 53.4805 109.627 52.3151 109.003 50.3647C108.981 50.2506 108.981 50.1339 109.003 50.0198C109.263 49.8771 109.548 49.7344 109.822 49.556C111.122 48.783 110.537 47.6889 109.536 47.2845C109.183 47.1307 108.795 47.0572 108.405 47.0704C106.91 47.1537 105.416 47.2845 103.921 47.4273C103.232 47.4867 102.53 47.784 101.906 47.2132C102.426 46.7317 103.064 46.3721 103.768 46.165C104.472 45.9579 105.22 45.9095 105.948 46.0239C108.679 46.2252 111.383 46.6673 114.02 47.344C115.647 47.7352 117.296 48.0449 118.96 48.2716C121.455 48.5333 122.859 46.8802 122.144 44.7039L121.897 43.9427C122.294 43.8345 122.684 43.7074 123.066 43.5622C124.263 43.0151 124.289 42.6108 123.535 41.5405C123.16 40.9924 122.603 40.5692 121.945 40.3336C121.287 40.098 120.564 40.0625 119.882 40.2323C119.542 40.3066 119.186 40.302 118.848 40.2189C118.51 40.1358 118.2 39.977 117.946 39.7566C118.683 39.388 119.463 39.0968 120.272 38.8884C122.285 38.4488 124.351 38.245 126.42 38.2819C127.814 38.236 129.202 38.0808 130.567 37.8181C131.379 37.6773 132.112 37.2823 132.641 36.7007C133.17 36.1192 133.462 35.3874 133.465 34.6309C133.479 33.9586 133.257 33.2999 132.831 32.7517C132.405 32.2037 131.798 31.7952 131.099 31.5865C130.644 31.4075 130.209 31.1884 129.799 30.9324C129.5 28.4111 129.098 28.0663 126.485 28.0068C126.329 28.0068 126.16 28.0068 125.991 28.0068C123.976 28.0475 122.018 28.6308 120.363 29.6837C119.065 30.5571 117.595 31.1949 116.035 31.5627C116.711 30.3734 116.815 29.4577 115.97 28.6728C114.67 27.4835 113.448 28.1971 112.278 28.9106L111.876 28.4825C110.966 27.4954 110.381 27.436 109.419 28.3517C108.801 28.869 108.297 29.491 107.937 30.1831C106.403 33.7509 104.402 37.3186 103.596 41.148C103.562 41.4863 103.421 41.8083 103.19 42.0744C102.959 42.3405 102.648 42.5393 102.296 42.6465L98.6693 43.8357C97.9289 42.5276 96.7716 42.2421 95.0302 42.5157C95.4978 41.9329 95.6801 41.4453 95.979 41.3264C97.0316 41.0766 97.1362 40.2799 97.2789 39.5544C97.3828 39.0327 97.4306 38.503 97.4216 37.9727L95.5763 36.5813C96.1329 35.6252 96.9876 34.8427 98.0327 34.3336C100.129 33.2786 101.914 31.7725 103.232 29.9453C103.65 29.1271 104.31 28.432 105.137 27.9383C105.963 27.4445 106.924 27.1717 107.911 27.1506C108.522 27.1506 109.133 26.996 109.743 26.9603L119.609 26.4132C121.295 26.3127 122.942 25.9086 124.458 25.224C124.912 25.0298 125.301 24.728 125.584 24.3498C125.868 23.9717 126.035 23.5309 126.07 23.0733C126.105 22.6158 126.005 22.1581 125.781 21.7479C125.557 21.3376 125.216 20.9898 124.795 20.7405C124.574 20.6097 124.393 20.4313 124.054 20.1815C125.563 19.3253 125.445 18.1598 125.198 16.8754C125.043 16.0192 124.561 15.6862 123.769 15.6862C122.829 15.7843 121.899 15.9473 120.987 16.1738C120.415 16.2808 119.856 16.4354 118.92 16.6614C119.139 16.2435 119.4 15.8453 119.7 15.4721C121.559 13.7715 123.444 12.0947 125.328 10.4178C126.053 9.8979 126.642 9.23608 127.051 8.48088C127.461 7.72568 127.681 6.89618 127.694 6.05328C127.687 5.65095 127.578 5.25554 127.378 4.89752C127.177 4.5395 126.889 4.22843 126.536 3.98829C126.183 3.74814 125.775 3.58535 125.342 3.51243C124.91 3.43952 124.465 3.45844 124.041 3.56775C123.535 3.71046 123.015 3.81749 122.404 3.97209C122.404 3.46071 122.404 3.16341 122.3 2.86609C122.239 2.11847 121.884 1.41639 121.301 0.889553C120.718 0.362716 119.946 0.046738 119.129 0C117.309 0.0713549 115.917 0.66598 115.632 2.46174C115.476 3.63103 115.206 4.78523 114.826 5.91057C114.163 7.69444 113.357 9.47833 112.565 11.179C112.345 11.5481 112.083 11.8949 111.785 12.2136L111.421 12.1184C111.289 11.655 111.206 11.1811 111.173 10.7033C111.173 9.27613 111.291 7.83717 111.303 6.41005C111.381 5.42955 111.337 4.44417 111.173 3.47261C111.102 3.1301 110.94 2.80923 110.698 2.53914C110.458 2.26904 110.147 2.05826 109.794 1.92595C109.442 1.79364 109.058 1.74397 108.68 1.78146C108.301 1.81896 107.938 1.94242 107.625 2.14065C106.895 2.41549 106.243 2.83891 105.718 3.37878C105.193 3.91866 104.81 4.5608 104.597 5.25648C104.58 5.43828 104.515 5.61341 104.405 5.76594C104.296 5.91847 104.146 6.04356 103.971 6.12984C103.795 6.21612 103.599 6.26083 103.399 6.25992C103.2 6.25901 103.004 6.21251 102.829 6.12463C102.503 6.03706 102.153 6.04885 101.835 6.15822C101.516 6.26758 101.245 6.46863 101.061 6.73115C100.652 7.19441 100.447 7.78139 100.488 8.37602C100.53 8.97058 100.813 9.52946 101.282 9.94213C101.568 10.2275 101.997 10.5368 102.036 10.8816C102.462 13.0994 102.558 15.3596 102.322 17.6009C102.101 18.8615 101.906 20.134 101.802 21.4065C101.694 22.7821 100.997 24.0635 99.8654 24.9743C99.2782 24.5647 98.7141 24.1281 98.1754 23.6661C97.9416 23.4282 97.7205 22.9406 97.8377 22.7266C98.6566 21.2162 98.2927 19.2658 99.9177 18.0647C100.061 17.9065 100.148 17.7111 100.164 17.5057C100.282 15.9716 100.476 14.4375 100.463 12.9153C100.45 11.393 100.06 11.1195 98.3189 11.1195C98.1388 11.0842 97.967 11.0197 97.8116 10.9292C97.8011 10.6296 97.8318 10.3299 97.9027 10.0373C98.0268 9.69645 98.0731 9.33615 98.0395 8.9783C98.0066 8.62046 97.893 8.2726 97.7078 7.95611C97.6144 7.64174 97.4201 7.36038 97.1489 7.14896C96.8785 6.93753 96.5438 6.80589 96.1897 6.77119C95.8363 6.73648 95.4792 6.80038 95.1654 6.95448C94.8516 7.10863 94.5961 7.34582 94.4325 7.63497C94.0507 8.39113 93.784 9.19137 93.6398 10.0135C93.1303 9.00954 92.747 7.95638 92.496 6.87389C92.245 5.34812 91.5786 3.90454 90.5588 2.67581C90.319 2.26679 89.9663 1.9228 89.5345 1.67853C89.1034 1.43424 88.6096 1.29829 88.1023 1.28439C87.5674 1.25127 87.0355 1.38652 86.5962 1.66771C86.1561 1.94889 85.8349 2.35913 85.6847 2.83042C85.5577 3.03182 85.4001 3.21595 85.217 3.37747C85.0736 3.37747 85.0086 3.37747 84.9571 3.37747C84.3198 3.08015 83.6571 2.75906 83.046 2.46174C82.78 2.28699 82.4692 2.17612 82.1442 2.13925C81.8185 2.10238 81.4883 2.14069 81.1835 2.25068C80.8787 2.36067 80.6082 2.53884 80.3975 2.76891C80.1876 2.99898 80.0434 3.27362 79.9784 3.56775C79.7774 4.0514 79.7147 4.57415 79.7969 5.08624C79.8783 5.59833 80.1024 6.08271 80.4468 6.4933C81.4995 7.75391 82.6306 8.95506 83.7094 10.2037C83.9522 10.5363 84.1651 10.8863 84.3459 11.2503L84.0598 11.4406C83.501 11.1433 82.6694 10.953 82.4356 10.5011C81.7468 9.15719 80.343 8.83612 79.1207 8.28907C78.7778 8.1324 78.402 8.04695 78.0188 8.03882C77.6355 8.03075 77.256 8.1002 76.9056 8.24225C76.5552 8.38429 76.2437 8.59544 75.9926 8.86053C75.7424 9.12561 75.5586 9.43807 75.4555 9.77561C75.1671 10.2216 75.052 10.7433 75.1275 11.2568C75.203 11.7702 75.4644 12.2455 75.8716 12.606C76.0143 12.7131 76.027 12.9628 76.1316 13.2245C75.8716 13.3791 75.6378 13.5098 75.4293 13.6526C73.4929 15.0202 73.2852 16.3403 75.0393 17.8982C76.0188 18.7233 77.1551 19.3764 78.3931 19.8248C80.3557 20.5502 82.4483 21.014 84.4371 21.6444C86.2876 22.1904 87.9507 23.1703 89.2588 24.4867C89.2163 24.6144 89.1595 24.7379 89.09 24.8553C88.0246 26.4013 86.4908 27.6857 85.8409 29.4815C85.3418 30.5348 84.4729 31.4055 83.371 31.9551C83.5144 31.1821 83.631 30.6826 83.696 30.195C83.8611 29.4955 83.944 28.7819 83.9432 28.0663C83.947 27.6306 83.8297 27.2012 83.6026 26.8184C83.3747 26.4356 83.0452 26.112 82.6433 25.8781C82.0456 25.6045 80.8622 26.33 80.213 27.2338C79.823 27.7809 79.3934 28.2923 78.9907 28.8274C78.4805 28.5355 77.891 28.3798 77.2896 28.3774C76.6874 28.375 76.0972 28.5263 75.584 28.8141C75.0707 29.1019 74.6553 29.515 74.3849 30.0068C74.1144 30.4987 73.9986 31.0498 74.0517 31.5984C74.1242 32.8274 73.8612 34.0537 73.2852 35.1661C72.6808 35.0091 72.0525 34.9487 71.4264 34.9877C70.8197 35.1057 70.2519 35.3508 69.7671 35.7036C69.2822 36.0566 68.8937 36.5076 68.6315 37.0213C68.2677 37.8141 67.9165 38.607 67.5788 39.3998C67.5071 39.7177 67.3652 40.0189 67.162 40.2847C66.9587 40.5506 66.698 40.7756 66.3962 40.9459C66.4515 40.5101 66.5516 40.0801 66.695 39.6615C67.6954 37.5565 68.8003 35.4753 69.7365 33.3346C70.2998 32.0574 70.7346 30.7358 71.0364 29.3864C71.1096 28.9727 71.0304 28.5486 70.8115 28.1805C70.5926 27.8124 70.2467 27.5213 69.8276 27.3527C69.4518 27.121 69.0006 27.0135 68.5493 27.0481C68.0981 27.0827 67.673 27.2573 67.345 27.543C67.1888 27.6738 66.9812 27.769 66.8116 27.9117C66.175 28.4349 65.6812 28.1852 65.2651 27.6619C65.1 27.3969 64.952 27.1228 64.8235 26.8413C64.0824 25.6521 62.7175 25.5689 61.4564 25.4975C60.196 25.4262 59.6887 26.2229 59.2211 27.0911C58.8602 27.6656 58.6279 28.2998 58.536 28.957C58.4448 29.6143 58.4964 30.2816 58.6884 30.9205C59.2263 32.4549 59.3944 34.0778 59.1822 35.6775C58.9902 35.1302 58.663 34.6309 58.2252 34.2183C57.7881 33.8057 57.2525 33.4912 56.6608 33.2989C55.5035 32.8589 54.7108 32.9184 54.542 33.9293C54.1909 35.9867 52.8521 36.51 50.9156 36.5219C50.8244 36.5219 50.7206 36.4386 50.6818 36.4267C49.7718 33.5963 48.9007 30.8015 47.9653 28.0187C47.0292 25.2359 46.2881 24.9743 43.5843 26.0446C42.7917 25.5094 41.9213 25.0337 40.894 25.7234C40.1223 26.2216 39.5747 26.9591 39.352 27.799C39.1294 28.639 39.2482 29.5241 39.6852 30.2902C38.6976 29.5171 38.0737 29.0177 37.4365 28.542C36.8059 28.0371 36.1418 27.5684 35.4477 27.1387C34.933 26.7823 34.3144 26.5737 33.6696 26.5393C33.0249 26.505 32.3839 26.6463 31.8273 26.9456C31.2707 27.2448 30.8232 27.6884 30.5423 28.2203C30.2614 28.7522 30.159 29.3484 30.2487 29.9334C30.2868 30.3143 30.3562 30.692 30.4571 31.0632C29.9887 31.42 29.5083 31.7648 29.0533 32.1335C27.1034 33.6439 27.2207 35.6775 29.2871 36.8667C30.3256 37.5838 31.5994 37.9569 32.9001 37.9251C33.4066 37.9099 33.9094 38.0036 34.3689 38.1987C36.7865 39.1025 39.1914 40.042 41.5963 40.9934C41.6867 40.9934 41.6867 41.2432 41.7129 41.3264C40.0229 41.1599 38.3599 40.9459 36.6961 40.8388C36.1612 40.7705 35.6173 40.8744 35.1578 41.1326C34.6976 41.3907 34.3502 41.7871 34.1739 42.254C33.9408 42.7552 33.9027 43.3144 34.0656 43.8382C34.2292 44.3621 34.5841 44.8188 35.0712 45.132C35.5523 45.4888 36.085 45.7742 36.5661 46.131C36.7738 46.2856 37.0988 46.5353 37.0726 46.7018C36.8776 47.7483 37.2415 48.9138 36.3577 49.8176C37.104 51.0668 38.3322 52.0166 39.8025 52.4816C40.4727 52.73 41.0823 53.0979 41.5963 53.5638C42.4024 54.1775 42.9224 55.0494 43.0502 56.0017C43.1787 56.9541 42.9045 57.9153 42.2851 58.6894C41.7002 59.5695 40.8163 59.8073 39.4252 60.0095C39.8152 59.403 40.0229 59.0938 40.2179 58.8202C40.3875 58.6137 40.4958 58.3706 40.5317 58.1146C40.5683 57.8586 40.5317 57.5983 40.4256 57.3591C40.3195 57.1198 40.1484 56.9096 39.9273 56.7489C39.7062 56.5881 39.4439 56.4824 39.1653 56.4417C38.6326 56.2755 38.061 56.2429 37.5104 56.3475C36.9591 56.452 36.4488 56.69 36.0327 57.0364C35.2206 57.635 34.351 58.1644 33.4335 58.618C35.2056 55.9846 36.2329 52.9886 36.4227 49.9009C36.1238 47.5224 33.9662 47.5224 32.0424 47.3559C32.0424 47.1061 32.0424 46.904 31.9774 46.7137C31.8938 46.1097 31.5927 45.5484 31.122 45.1178C30.6513 44.6873 30.038 44.4121 29.3783 44.3352C28.8 44.2035 28.1919 44.2378 27.6361 44.4335C27.0802 44.6293 26.6036 44.977 26.2719 45.4293C25.9618 45.8316 25.7706 46.3006 25.7183 46.7905C25.666 47.2804 25.7534 47.7744 25.9723 48.224C26.3496 49.4133 26.8045 50.6025 27.2722 51.7323C27.5688 52.4888 27.6973 53.2918 27.651 54.0944C27.6039 54.8969 27.382 55.6828 26.9995 56.4061C26.7395 55.2169 26.5961 54.1703 26.2584 53.1594C26.1553 52.8807 25.9865 52.6264 25.7623 52.4148C25.539 52.2032 25.267 52.0398 24.9659 51.9362C24.6651 51.8327 24.3427 51.7916 24.0222 51.816C23.7018 51.8403 23.3912 51.9296 23.1131 52.0772C22.743 52.2918 22.3871 52.5261 22.0472 52.7789C21.3256 52.411 20.4949 52.2622 19.675 52.3542C18.855 52.446 18.0882 52.7739 17.485 53.2902C17.0631 53.5941 16.7222 53.9815 16.4878 54.4234C16.2534 54.8652 16.1315 55.35 16.1315 55.8412C16.1315 56.3324 16.2534 56.8171 16.4878 57.259C16.7222 57.7008 17.0631 58.0883 17.485 58.3921C18.0289 58.7979 18.4291 59.3421 18.6351 59.956C18.841 60.5699 18.8433 61.2258 18.6418 61.841C18.4173 62.5813 18.295 63.3443 18.2778 64.1124C18.2898 64.6796 18.1403 65.2398 17.844 65.7382C17.5478 66.2365 17.115 66.6557 16.5881 66.9547C15.816 67.4694 14.9609 67.8707 14.0535 68.144C11.9478 68.6911 9.80323 69.0951 7.68454 69.5947C3.70289 70.6782 -0.203609 71.9811 -4.0135 73.4958C-7.302 74.6845 -10.5125 76.0052 -13.7879 77.2301C-17.1325 78.2726 -20.3796 79.5618 -23.4973 81.0827C-25.603 82.2721 -27.7736 83.3309 -29.7753 84.6509C-33.0118 86.7316 -35.9883 89.146 -39.6797 90.8467C-39.5734 91.1796 -39.4065 91.4926 -39.1858 91.7743C-38.3874 92.4496 -37.3688 92.8673 -36.2863 92.9616C-35.2038 93.0559 -34.1173 92.8228 -33.1938 92.2979C-31.764 91.4892 -30.4122 90.5616 -28.9824 89.7762C-26.5258 88.4446 -24.0432 87.1363 -21.5346 85.8874C-19.026 84.6386 -16.6734 83.5093 -14.2428 82.4033C-13.5755 82.0848 -12.9288 81.7314 -12.3062 81.3445C-8.50214 79.0675 -4.43524 77.1809 -0.179181 75.7195C3.34346 74.5184 6.95246 73.5409 10.622 72.7938C13.6018 72.1595 16.669 71.9387 19.7206 72.1396C21.1702 72.1807 22.6177 72.0125 24.0099 71.6406C26.7657 70.9865 29.456 70.0821 32.2247 69.4881C34.1687 69.1791 36.1657 69.3015 38.0476 69.8449C38.1649 69.8449 38.2299 70.0589 38.4503 70.32C37.7226 70.4273 37.1511 70.5223 36.54 70.5818C34.9927 70.7602 33.4201 70.832 31.8863 71.0815C28.2472 71.6762 24.5948 72.2709 21.0074 73.0078C15.5093 74.1972 9.93315 75.1008 4.56504 76.7776C0.387944 78.0634 -3.68964 79.6048 -7.63991 81.3923C-10.3825 82.6528 -13.047 84.0445 -15.6856 85.4834C-16.8985 86.2162 -18.0658 87.0098 -19.182 87.8616C-19.5252 88.1193 -19.9004 88.3387 -20.2998 88.5157C-22.1455 89.2533 -24.0042 89.9902 -25.8889 90.6443C-27.5657 91.2274 -29.2684 91.7387 -30.9841 92.2384C-32.6999 92.7374 -34.2076 93.0587 -35.8064 93.5105C-39.3288 94.5099 -42.7992 95.6753 -46.5556 95.7704C-46.8646 95.7683 -47.1682 95.8449 -47.4322 95.9918C-47.6962 96.1395 -47.9103 96.3507 -48.0503 96.6029C-48.5832 97.6611 -49.2461 98.7076 -50 99.897C-49.4933 100.223 -48.9683 100.525 -48.4273 100.801C-47.0728 101.315 -45.5727 101.416 -44.151 101.086C-39.5148 100.214 -35.0048 98.8532 -30.7112 97.0309C-30.6155 97.199 -30.5023 97.3583 -30.3732 97.5066C-28.4625 99.195 -26.9028 100.147 -24.6281 99.1123C-24.376 99.02 -24.1463 98.8833 -23.9522 98.7104C-23.7581 98.5367 -23.6035 98.3296 -23.4973 98.1013C-23.1663 97.5784 -22.7244 97.1218 -22.1975 96.7574C-21.8336 96.4361 -21.3917 96.2106 -21.0147 95.9009C-19.143 94.4504 -17.3103 92.9281 -15.3996 91.5248C-14.4306 90.8337 -13.3952 90.2246 -12.3062 89.7051C-11.5602 89.3688 -10.7812 89.0981 -9.97952 88.8965C-9.2387 88.6586 -8.4588 88.5157 -7.73091 88.2539C-3.97548 86.8902 -0.118216 85.7733 3.81121 84.9127C8.15947 84.1102 12.661 84.3563 16.8741 85.6256C18.8594 86.1609 20.7868 86.8615 22.6321 87.7187C24.4362 88.5321 25.9775 89.7619 27.1034 91.2869C28.0425 92.6185 29.0847 93.8865 30.2225 95.0806C31.7309 96.5906 33.4597 96.3883 34.8239 94.6999L35.7727 93.5105L37.2676 94.1291C39.1003 94.8428 40.0491 94.3547 40.2052 92.5474C40.2216 92.0381 40.0917 91.5336 39.8279 91.0845C39.0532 89.8254 37.8668 88.8192 36.4361 88.2067C35.7338 87.8616 35.0577 87.4453 34.3689 87.0174C35.0323 86.8581 35.7331 86.8957 36.3711 87.1247C39.1003 88.3134 41.8428 89.5028 44.5077 90.6922C46.5869 91.7148 48.628 91.3464 49.3945 89.5028C49.6239 88.7727 49.6769 88.0058 49.5506 87.2552C49.4423 86.7412 49.2638 86.2415 49.018 85.7685C49.1928 85.7111 49.3773 85.6789 49.5633 85.6735C51.0067 85.9469 51.5133 84.9598 51.3183 83.7827C51.2578 83.2407 51.0374 82.7239 50.6803 82.2878C50.3231 81.8524 49.8428 81.514 49.2907 81.3089C47.3766 80.423 45.2242 80.0601 43.0905 80.2624C42.6587 80.302 42.2231 80.302 41.7913 80.2624C40.4002 80.2624 38.9964 80.2624 37.6053 80.1551C36.7678 80.1141 35.9333 80.0184 35.11 79.87C34.85 79.87 34.6289 79.4893 34.2389 79.1564C34.9412 78.8905 35.6621 78.6677 36.3965 78.4906C36.8268 78.4571 37.2422 78.332 37.6105 78.1256C37.9781 77.9192 38.2882 77.6368 38.5153 77.3012C38.8754 76.8453 39.4006 76.5206 39.9975 76.3852C41.5313 75.9457 43.1039 75.5294 44.5331 76.7544C44.9366 76.9752 45.3751 77.1358 45.8331 77.2301C47.8219 77.967 49.6896 78.9513 51.3833 80.1551C51.7157 80.3328 51.9727 80.6083 52.1117 80.9371C52.2506 81.2652 52.2648 81.6268 52.1505 81.9631C52.0332 82.4033 52.1505 83.1525 52.4105 83.3542C52.8095 83.616 53.1001 83.9933 53.2346 84.4253C53.3691 84.8573 53.3399 85.318 53.1509 85.7329C53.071 86.085 53.0358 86.4438 53.0471 86.8034C53.0373 86.9975 53.0747 87.1917 53.1561 87.3714C53.2376 87.5519 53.3623 87.7125 53.52 87.8431C53.6776 87.9743 53.8651 88.0714 54.0691 88.1281C54.2723 88.1842 54.4875 88.1992 54.6981 88.1712C55.2913 88.0598 55.8561 87.8458 56.3619 87.5403C56.9723 87.2197 57.5311 86.8034 58.3111 86.2921C58.2775 86.532 58.2125 86.7679 58.1161 86.9934C57.2061 88.2778 56.1796 89.5151 55.4124 90.8583C55.0493 91.6047 54.9014 92.4236 54.9835 93.2371C54.9439 93.5775 54.9962 93.922 55.1359 94.2392C55.2756 94.557 55.4975 94.8387 55.7837 95.0595C56.0698 95.2802 56.4112 95.4334 56.7766 95.5051C57.1426 95.5776 57.5222 95.566 57.8823 95.473C58.4306 95.3828 58.9663 95.2392 59.4811 95.0451C59.7993 94.9453 60.1116 94.8298 60.4172 94.6999C60.5076 95.0212 60.5472 95.2112 60.6122 95.4012C60.7115 95.7444 60.8878 96.0643 61.1299 96.3418C61.372 96.6187 61.6738 96.847 62.0174 97.011C62.3611 97.1758 62.7384 97.2728 63.1247 97.2968C63.5116 97.3207 63.9001 97.2708 64.264 97.1498C65.0738 96.7923 65.7544 96.2318 66.2266 95.5325C67.2016 93.9507 68.3454 92.2979 68.2804 90.3832C68.2804 90.2164 68.45 90.0619 68.6576 89.6928C68.9565 90.4782 69.2038 91.049 69.3988 91.6314C69.5482 92.0183 69.7947 92.3676 70.1167 92.652C70.4395 92.937 70.8295 93.1496 71.2568 93.2726C72.0764 93.5939 72.4656 93.0703 73.0252 92.7374C73.4787 92.572 73.9426 92.4332 74.4155 92.3211C74.9482 92.0955 75.7155 91.9055 75.9232 91.5008C76.2511 91.0845 76.4611 90.6006 76.5335 90.092C76.6068 89.5834 76.5395 89.066 76.3393 88.5868C76.145 88.0509 75.9934 87.502 75.8843 86.9463C75.5392 85.1225 74.7823 83.3849 73.6617 81.8442C72.5179 80.5481 71.4652 79.1919 70.1653 77.6225C71.4652 77.6225 72.3491 77.6225 73.2717 77.7531C74.6755 77.859 76.0868 77.6464 77.3792 77.1344C77.7558 76.9922 78.3542 76.5992 78.3146 76.3975C78.1204 75.3155 78.6919 74.15 77.9508 73.1267C77.7042 72.8061 77.5093 72.4609 77.1581 71.938C78.2922 72.0351 79.4345 71.8573 80.4707 71.4233C81.5062 70.9892 82.399 70.3132 83.0594 69.4642C82.6119 72.0105 81.7812 74.4877 80.5895 76.8255C80.2257 77.4044 79.9874 78.0429 79.888 78.7046C79.7184 80.6076 80.5768 81.7492 82.4872 81.6179C82.7815 81.6015 83.0766 81.6015 83.371 81.6179C83.5398 81.9631 83.7221 82.2721 83.8782 82.605C84.0127 83.0472 84.3071 83.4355 84.7128 83.7048C85.1184 83.9748 85.6123 84.1115 86.1136 84.0917C86.5611 84.0671 86.9922 83.9263 87.3552 83.6864C87.7191 83.4464 88.0007 83.117 88.1673 82.7362C88.7912 81.2139 89.5584 79.7395 90.2727 78.2288C91.846 78.574 91.846 78.574 93.1064 77.4441C93.2752 77.7175 93.4187 77.9793 93.6002 78.2288C95.3678 80.6076 96.8628 81.1066 99.8781 80.2029C101.178 79.7989 101.178 79.8222 102.166 80.8216C102.524 81.2105 102.967 81.5263 103.466 81.7492C104.402 82.1415 105.064 81.9153 105.286 81.0116C105.649 79.5132 105.987 77.9431 104.831 76.5876C104.012 75.6244 103.089 74.7324 102.231 73.8048C101.763 73.3174 101.048 72.9845 101.087 72.0925C101.319 72.1294 101.531 72.2388 101.685 72.4014C103.297 73.8882 104.948 75.3387 106.521 76.8494C107.287 77.5986 107.82 78.4783 108.6 79.2275C109.483 80.2146 110.342 81.2255 111.317 82.1292C111.702 82.6104 112.244 82.9679 112.865 83.1518C113.486 83.335 114.154 83.3357 114.774 83.1525C115.471 82.8121 116.096 82.3609 116.62 81.8202ZM60.4037 57.4526C60.4037 55.5855 60.4037 55.5855 59.1038 53.9681C60.2371 53.3373 61.5692 53.0735 62.8863 53.2189C63.9681 53.2844 65.0536 53.2844 66.1362 53.2189H66.8116C66.0062 54.8838 63.0813 56.8223 60.4037 57.4526ZM19.6556 77.3012C16.2372 78.0859 12.8317 78.9541 9.37424 79.5966C4.54695 80.5071 -0.191282 81.7758 -4.7934 83.3904C-5.4823 83.6283 -6.18419 83.7944 -6.88609 83.9851C-7.03708 84.0029 -7.19001 84.0029 -7.341 83.9851C3.14832 78.4428 14.5734 75.66 26.2846 73.7932L26.4407 74.0782C26.1755 74.3045 25.8886 74.5075 25.5823 74.6845C24.0879 75.4577 22.6841 76.1118 21.2284 76.8015C20.7241 77.0169 20.1971 77.1843 19.6556 77.3012ZM40.5825 72.5443C38.8791 73.1985 37.1249 73.7337 35.4611 74.2095L33.1862 72.6393L45.8331 70.9147C45.8331 71.0459 45.8331 71.1649 45.9242 71.2954C44.2605 72.0802 42.2851 71.8901 40.5825 72.5443Z" fill="white"/>
<path d="M66.5777 81.5584L67.8777 80.3697C68.7226 80.786 68.06 81.4279 68.19 81.7368C69.3076 82.8073 70.3476 83.711 71.2568 84.722C71.9329 85.4951 71.8164 85.7446 71.0491 86.3755L67.8904 83.2475C67.0066 84.9721 66.3439 86.5177 65.4601 88.0044C64.5762 89.4912 63.5101 90.6683 62.4963 92.0238C61.6648 91.6314 61.6514 91.2869 62.0286 90.74C62.8348 89.5506 63.5497 88.3612 64.4463 86.9695C63.9464 87.0932 63.4384 87.1882 62.9252 87.2552C62.6786 87.2552 62.2363 87.1602 62.2109 87.029C62.1706 86.8936 62.1654 86.7508 62.1945 86.6134C62.2244 86.4753 62.2871 86.3447 62.3798 86.2326C62.9917 85.8751 63.6252 85.5491 64.2774 85.2572C65.0051 84.9004 66.175 85.1143 66.305 83.9612C66.3827 83.2475 66.4739 82.4628 66.5777 81.5584ZM65.0701 92.5118C64.3424 92.6902 64.0563 93.2255 63.7701 93.7962C64.3813 93.4989 65.0051 93.2371 65.0701 92.5118ZM56.1146 65.8606C55.2047 67.0498 55.4258 67.8705 56.8034 68.6555C56.9058 68.1712 56.8976 67.673 56.7788 67.192C56.6608 66.7109 56.4344 66.2576 56.1146 65.8606ZM114.852 83.2475C114.231 83.4307 113.563 83.4307 112.943 83.2468C112.322 83.063 111.781 82.7055 111.395 82.2249C110.42 81.3206 109.562 80.3103 108.678 79.3232C107.963 78.5378 107.378 77.658 106.598 76.9444C105.026 75.4337 103.375 73.9832 101.763 72.4965C101.608 72.3338 101.398 72.2244 101.165 72.1875C101.165 73.0795 101.841 73.3769 102.309 73.8998C103.193 74.8274 104.116 75.7195 104.908 76.6826C106.066 78.0388 105.728 79.6082 105.363 81.1066C105.143 82.0103 104.479 82.296 103.544 81.8442C103.044 81.6213 102.601 81.3055 102.244 80.9166C101.256 79.9172 101.269 79.894 99.9565 80.2979C96.9412 81.2016 95.4463 80.7498 93.6786 78.3238C93.4964 78.0743 93.3537 77.8125 93.1848 77.5391C91.8849 78.7285 91.8849 78.7285 90.3511 78.3238C89.6361 79.8345 88.8696 81.3089 88.245 82.8312C88.0784 83.212 87.7968 83.5414 87.4337 83.7814C87.0698 84.022 86.6395 84.1621 86.192 84.1867C85.6907 84.2066 85.1969 84.0698 84.7904 83.8005C84.3848 83.5305 84.0904 83.1429 83.9559 82.7007C83.7998 82.3671 83.6182 82.0581 83.4494 81.7136C83.155 81.6965 82.8599 81.6965 82.5656 81.7136C80.6157 81.8442 79.758 80.7026 79.9657 78.7996C80.0651 78.1379 80.3034 77.4994 80.6672 76.9205C81.8588 74.5834 82.6903 72.1055 83.1371 69.5592C82.4767 70.4089 81.5839 71.0842 80.5484 71.5183C79.5129 71.9523 78.3706 72.1301 77.2358 72.033C77.5869 72.5799 77.7819 72.9251 78.0292 73.2224C78.7696 74.245 78.1981 75.4105 78.3931 76.4926C78.3931 76.6949 77.8342 77.0873 77.4569 77.2301C76.1562 77.7278 74.7405 77.9239 73.3367 77.8009C72.414 77.7175 71.4779 77.7175 70.2303 77.6697C71.5302 79.2398 72.5829 80.5953 73.7267 81.892C74.8473 83.4321 75.6041 85.1704 75.9493 86.9934C76.0584 87.5499 76.21 88.0981 76.4043 88.6347C76.6045 89.1138 76.671 89.6313 76.5985 90.1399C76.5261 90.6484 76.3161 91.1324 75.9881 91.5487C75.7543 91.9527 75.0132 92.1427 74.4805 92.369C74.0076 92.4811 73.5436 92.6198 73.0902 92.7853C72.5306 93.1181 72.1406 93.6417 71.3218 93.3205C70.8773 93.1892 70.4738 92.9623 70.1451 92.6581C69.8171 92.3532 69.5743 91.9807 69.4376 91.5719C69.2426 90.9895 68.9953 90.3832 68.6965 89.634C68.4888 90.0025 68.3199 90.1569 68.3199 90.3237C68.3199 92.2856 67.2015 93.8912 66.2527 95.5202C65.7806 96.2195 65.0992 96.7807 64.2901 97.1382C63.9255 97.2585 63.5378 97.3084 63.1508 97.2851C62.7638 97.2612 62.3873 97.1635 62.0436 96.9994C61.6999 96.8347 61.3974 96.607 61.1553 96.3295C60.914 96.0527 60.7377 95.7328 60.6376 95.3896C60.5726 95.1996 60.5337 95.0089 60.4426 94.6883C60.1377 94.8182 59.8255 94.9337 59.5072 95.0328C58.9924 95.2276 58.456 95.3712 57.9084 95.4607C57.5535 95.5482 57.1807 95.5557 56.8221 95.4833C56.4628 95.4108 56.1288 95.2604 55.8464 95.0444C55.5648 94.8284 55.3444 94.5536 55.2032 94.2433C55.062 93.9329 55.0044 93.596 55.0358 93.261C54.9529 92.4476 55.1008 91.6287 55.4647 90.8822C56.2319 89.5383 57.2584 88.3018 58.1684 87.0174C58.264 86.7918 58.3298 86.556 58.3634 86.316C57.5834 86.8273 57.0634 87.2436 56.4135 87.5642C55.9077 87.8698 55.3429 88.0837 54.7497 88.1945C54.5383 88.2232 54.3223 88.2081 54.1176 88.1507C53.9129 88.094 53.7247 87.9955 53.5663 87.8636C53.4086 87.7317 53.2846 87.569 53.2039 87.3872C53.1233 87.206 53.0874 87.0105 53.0993 86.815C53.0881 86.4562 53.1225 86.0966 53.2032 85.7446C53.3915 85.3303 53.4214 84.8689 53.2869 84.4369C53.1524 84.0049 52.8618 83.6276 52.4621 83.3665C52.1632 83.1757 52.0855 82.4149 52.2021 81.9747C52.3156 81.6316 52.2955 81.2631 52.1468 80.9316C51.9974 80.6008 51.7277 80.326 51.3833 80.1551C49.6642 78.9718 47.7748 78.0108 45.7681 77.3012C45.3101 77.2069 44.8716 77.0462 44.4681 76.8255C43.0389 75.6361 41.4663 76.0168 39.9325 76.457C39.3707 76.5862 38.8716 76.8829 38.5153 77.3012C38.2934 77.6546 37.9811 77.954 37.6053 78.1734C37.2295 78.3929 36.8022 78.5262 36.3577 78.5617C35.6233 78.7394 34.9023 78.9616 34.2 79.2275C34.59 79.5611 34.8112 79.894 35.0712 79.9411C35.8945 80.0895 36.7282 80.1852 37.5665 80.2269C38.9576 80.2863 40.3613 80.3103 41.7517 80.3335C42.1843 80.3738 42.6198 80.3738 43.0516 80.3335C45.1854 80.1312 47.3377 80.4941 49.2518 81.38C49.8248 81.5721 50.3276 81.9064 50.7049 82.3452C51.0814 82.7841 51.316 83.3111 51.3833 83.8661C51.5783 85.0549 51.0717 86.0303 49.6283 85.7569C49.4423 85.7617 49.2578 85.7938 49.0829 85.8519C49.3287 86.3249 49.5073 86.8246 49.6156 87.3386C49.7419 88.0892 49.6889 88.8561 49.4595 89.5862C48.693 91.4297 46.6519 91.7982 44.5727 90.7756C41.9728 89.4672 39.1652 88.3134 36.4361 87.2074C35.7981 86.9791 35.0973 86.9415 34.4339 87.1007C35.1227 87.4931 35.7338 87.9094 36.5011 88.2901C37.9318 88.9019 39.1182 89.9081 39.8929 91.1679C40.1566 91.617 40.2866 92.1215 40.2702 92.6308C40.1141 94.4381 39.1652 94.9262 37.3326 94.2125L35.7861 93.4989L34.8373 94.6883C33.4724 96.3767 31.7436 96.579 30.2359 95.0683C29.0974 93.8742 28.0552 92.6062 27.1161 91.2746C25.9902 89.7502 24.4492 88.5205 22.6451 87.7071C20.7952 86.8533 18.8634 86.1561 16.874 85.6256C12.6609 84.3563 8.15946 84.1102 3.81121 84.9127C-0.113887 85.774 -3.96666 86.8909 -7.71791 88.2539C-8.44581 88.5157 -9.2257 88.6586 -9.9666 88.8965C-10.7682 89.0981 -11.5472 89.3688 -12.2932 89.7051C-13.3887 90.2397 -14.4286 90.8644 -15.3997 91.5719C-17.3103 92.9753 -19.143 94.4976 -21.0147 95.9488C-21.3917 96.2577 -21.8336 96.484 -22.1975 96.8046C-22.7244 97.1689 -23.1663 97.6262 -23.4973 98.1485C-23.6035 98.3775 -23.7581 98.5839 -23.9522 98.7575C-24.1463 98.9312 -24.376 99.0679 -24.6281 99.1595C-26.9028 100.194 -28.4625 99.2429 -30.3732 97.5538C-30.5023 97.4061 -30.6155 97.2468 -30.7112 97.0787C-35.007 98.8847 -39.517 100.229 -44.151 101.086C-45.5685 101.427 -47.0685 101.339 -48.4273 100.836C-48.9692 100.549 -49.4942 100.235 -50 99.897C-49.2461 98.7076 -48.5832 97.6255 -47.9333 96.5551C-47.7933 96.3029 -47.5793 96.0916 -47.3152 95.9447C-47.0512 95.7977 -46.7477 95.7205 -46.4386 95.7225C-42.6822 95.6275 -39.2118 94.462 -35.6894 93.4633C-34.0906 93.0115 -32.4659 92.6424 -30.8672 92.1905C-29.2684 91.7387 -27.4487 91.1796 -25.772 90.5972C-23.8873 89.943 -22.0286 89.2054 -20.1829 88.4686C-19.7834 88.2915 -19.4082 88.0714 -19.065 87.8144C-17.9488 86.9627 -16.7815 86.1684 -15.5686 85.4356C-12.9691 83.9967 -10.2655 82.605 -7.523 81.3445C-3.57265 79.557 0.504936 78.0155 4.68203 76.7304C10.0501 75.0537 15.6262 74.15 21.1244 72.9606C24.7119 72.1752 28.3645 71.6283 32.0036 71.0336C33.5374 70.7841 35.11 70.713 36.6565 70.5346C37.2549 70.4752 37.8399 70.3795 38.5676 70.2728C38.3464 70.011 38.2814 69.821 38.1649 69.7971C36.2829 69.2536 34.286 69.1313 32.3413 69.4403C29.5733 70.035 26.8822 70.9386 24.1269 71.5928C22.7346 71.9647 21.2871 72.1335 19.8376 72.0925C16.786 71.8915 13.7188 72.1116 10.739 72.7466C7.06938 73.4931 3.46045 74.4706 -0.0621886 75.6716C-4.36098 77.1413 -8.46755 79.0436 -12.3062 81.3445C-12.9326 81.6828 -13.5791 81.9884 -14.2428 82.2605C-16.6734 83.4499 -19.13 84.5436 -21.5346 85.7446C-23.9392 86.9463 -26.5258 88.3018 -28.9825 89.634C-30.4122 90.4188 -31.764 91.3463 -33.1938 92.155C-34.1173 92.68 -35.2038 92.9131 -36.2863 92.8187C-37.3688 92.7244 -38.3874 92.3074 -39.1858 91.6314C-39.379 91.3457 -39.5196 91.0319 -39.6017 90.7038C-35.9103 89.0031 -32.9338 86.5894 -29.6973 84.508C-27.6957 83.212 -25.525 82.1292 -23.4193 80.9405C-20.3016 79.4189 -17.0545 78.1304 -13.7099 77.0873C-10.4475 75.8979 -7.21101 74.5301 -3.93558 73.353C-0.125615 71.8382 3.78088 70.536 7.76253 69.4519C9.88115 68.9529 12.0258 68.5482 14.1315 68.0012C15.0389 67.7279 15.894 67.3267 16.6661 66.812C17.193 66.513 17.6258 66.0938 17.922 65.5954C18.2182 65.0971 18.3677 64.5369 18.3558 63.9697C18.3601 63.2523 18.4561 62.5379 18.6418 61.841C18.8734 61.2107 18.8878 60.5305 18.6833 59.8924C18.4787 59.2544 18.065 58.6891 17.4979 58.2732C17.0761 57.9693 16.7352 57.5819 16.5007 57.1401C16.2664 56.6982 16.1445 56.2134 16.1445 55.7223C16.1445 55.2311 16.2664 54.7463 16.5007 54.3044C16.7352 53.8626 17.0761 53.4751 17.4979 53.1713C18.1012 52.6549 18.868 52.3271 19.688 52.2352C20.5079 52.1433 21.3385 52.292 22.0602 52.6599C22.4001 52.4071 22.756 52.1729 23.126 51.9583C23.4042 51.8107 23.7148 51.7215 24.0352 51.6971C24.3557 51.6727 24.6781 51.7137 24.9794 51.8173C25.2797 51.9209 25.5524 52.0844 25.7758 52.2959C25.9992 52.5074 26.1688 52.7618 26.2719 53.0405C26.6095 54.0514 26.7522 55.1336 27.0122 56.2872C27.3955 55.5639 27.6166 54.778 27.6637 53.9754C27.7108 53.1729 27.5815 52.3699 27.2857 51.6134C26.8561 50.4241 26.4011 49.2349 25.9857 48.1051C25.7668 47.6555 25.6794 47.1615 25.7317 46.6717C25.784 46.1817 25.9745 45.7127 26.2846 45.3104C26.617 44.8581 27.0929 44.5104 27.6487 44.3147C28.2046 44.1189 28.8127 44.0845 29.391 44.2163C30.0514 44.2931 30.6648 44.5684 31.1354 44.9989C31.6054 45.4295 31.9065 45.9908 31.9909 46.5948C31.9909 46.7851 31.9909 46.9873 32.0559 47.237C33.9789 47.4629 36.1365 47.3559 36.4361 49.782C36.2456 52.8697 35.2183 55.8656 33.4462 58.4992C34.3637 58.0455 35.234 57.516 36.0461 56.9175C36.4623 56.5711 36.9725 56.3332 37.5231 56.2286C38.0745 56.124 38.646 56.1565 39.1787 56.3229C39.4574 56.3635 39.7196 56.4693 39.94 56.63C40.1611 56.7907 40.333 57.0009 40.439 57.2401C40.5444 57.4794 40.581 57.7397 40.5451 57.9957C40.5085 58.2517 40.4002 58.4947 40.2314 58.7013C40.0364 59.0224 39.8279 59.3316 39.4387 59.8906C40.829 59.6884 41.7128 59.4506 42.2978 58.5705C42.9089 57.8019 43.1801 56.8504 43.0576 55.9066C42.9343 54.9628 42.4263 54.0962 41.6351 53.4805C41.1211 53.0146 40.5115 52.6468 39.8414 52.3983C38.3711 51.9334 37.1429 50.9836 36.3965 49.7344C37.2803 48.8305 36.9165 47.6651 37.1115 46.6185C37.1115 46.4521 36.8126 46.2023 36.6049 46.0477C36.1238 45.6909 35.5911 45.4056 35.11 45.0487C34.6229 44.7355 34.268 44.2788 34.1052 43.755C33.9415 43.2312 33.9796 42.6719 34.2135 42.1707C34.3891 41.7039 34.7365 41.3075 35.1967 41.0493C35.6569 40.7911 36.2 40.6873 36.7349 40.7556C38.3987 40.8626 40.0625 41.0766 41.7517 41.2432C41.7517 41.1599 41.7517 40.9459 41.6351 40.9102C39.2302 39.9587 36.8261 39.0193 34.4085 38.1154C33.949 37.9204 33.4455 37.8266 32.9397 37.8419C31.636 37.9059 30.348 37.5619 29.2871 36.8667C27.1811 35.6775 27.0645 33.6914 28.9621 32.1811C29.4171 31.8124 29.8983 31.4675 30.3659 31.1107C30.2651 30.7396 30.1956 30.3619 30.1575 29.981C30.0686 29.3959 30.1702 28.7997 30.4511 28.2679C30.732 27.736 31.1795 27.2923 31.7361 26.9932C32.2927 26.6939 32.9337 26.5525 33.5785 26.5868C34.2232 26.6212 34.8418 26.8299 35.3573 27.1863C36.085 27.5973 36.7842 28.0501 37.4499 28.542C38.0864 29.0177 38.7491 29.5171 39.6979 30.2902C39.2609 29.5241 39.1428 28.639 39.3647 27.799C39.5874 26.9591 40.135 26.2216 40.9067 25.7234C41.934 25.0337 42.8051 25.5094 43.5978 26.0446C46.2881 24.9386 46.9903 25.1764 47.9519 28.0068C48.9141 30.8372 49.7583 33.5844 50.6683 36.4148C50.6683 36.4148 50.8117 36.51 50.9021 36.51C52.8394 36.51 54.1782 35.9748 54.5285 33.9174C54.6981 32.9065 55.4908 32.847 56.6473 33.2871C57.2435 33.4789 57.7821 33.7947 58.2222 34.2094C58.6622 34.6242 58.991 35.1268 59.1822 35.6775C59.3944 34.0778 59.2263 32.4549 58.6884 30.9205C58.282 29.6779 58.4164 28.3396 59.0649 27.1863C59.5333 26.3181 60.1572 25.5451 61.301 25.5927C62.4448 25.6402 63.9001 25.7115 64.6674 26.9365C64.7959 27.218 64.9438 27.492 65.1089 27.7571C65.5251 28.2804 66.0189 28.5301 66.6562 28.0068C66.825 27.8641 67.0327 27.769 67.1888 27.6382C67.5168 27.3524 67.9419 27.1779 68.3932 27.1433C68.8452 27.1087 69.2957 27.2161 69.6715 27.4479C70.0928 27.6169 70.441 27.9099 70.6599 28.2805C70.8788 28.6511 70.9565 29.0779 70.8803 29.4933C70.5784 30.8428 70.1436 32.1644 69.5803 33.4417C68.6442 35.5823 67.54 37.6635 66.5389 39.7685C66.3954 40.1871 66.2953 40.6171 66.24 41.0528C66.5419 40.8826 66.8026 40.6577 67.0058 40.3918C67.2098 40.1259 67.351 39.8248 67.4227 39.5068C67.7604 38.714 68.1115 37.9212 68.4753 37.1284C68.7376 36.6146 69.1261 36.1636 69.6117 35.8107C70.0965 35.4578 70.6643 35.2127 71.2702 35.0947C71.8963 35.0558 72.5254 35.1161 73.129 35.2731C73.705 34.1608 73.9687 32.9345 73.8955 31.7054C73.8432 31.1569 73.9583 30.6057 74.2287 30.1139C74.4999 29.6221 74.9146 29.209 75.4278 28.9211C75.9411 28.6333 76.5313 28.4821 77.1334 28.4844C77.7356 28.4867 78.3243 28.6426 78.8346 28.9344C79.238 28.3992 79.6668 27.8879 80.0568 27.3408C80.7068 26.437 81.8895 25.7115 82.4871 25.9851C82.8891 26.219 83.2193 26.5426 83.4464 26.9254C83.6735 27.3082 83.7908 27.7376 83.7871 28.1733C83.7878 28.8889 83.7049 29.6026 83.5398 30.3021C83.5398 30.7897 83.3583 31.2891 83.2148 32.0622C84.3168 31.5125 85.1857 30.6419 85.6847 29.5885C86.3997 27.7928 87.8685 26.5084 88.9338 24.9624C89.0041 24.8449 89.0601 24.7214 89.1034 24.5936C87.7945 23.2773 86.1322 22.2974 84.2809 21.7514C82.2922 21.0854 80.1995 20.6572 78.2369 19.9318C76.9997 19.4835 75.8626 18.8303 74.8832 18.0052C73.129 16.4473 73.3367 15.1273 75.2732 13.7596C75.4816 13.6169 75.7155 13.4861 75.9754 13.3315C75.8716 13.0698 75.8582 12.8201 75.7155 12.7131C75.309 12.3525 75.0468 11.8773 74.9714 11.3638C74.8959 10.8504 75.0117 10.3287 75.2993 9.88266C75.389 9.52406 75.5675 9.18932 75.8223 8.90469C76.077 8.62012 76.4005 8.39345 76.7666 8.24245C77.1334 8.09145 77.5331 8.02029 77.9351 8.03458C78.3363 8.04887 78.7292 8.14819 79.0819 8.32475C80.3034 8.87181 81.6818 9.19287 82.396 10.5368C82.6306 10.9887 83.4621 11.179 84.0209 11.4762L84.3071 11.2859C84.1263 10.9219 83.9126 10.572 83.6698 10.2394C82.591 9.05022 81.4606 7.78959 80.408 6.52897C80.0628 6.11123 79.8424 5.61895 79.767 5.10004C79.6915 4.58112 79.7647 4.05324 79.9784 3.56775C80.0441 3.27555 80.1883 3.00289 80.3975 2.7744C80.6074 2.54592 80.8757 2.36879 81.179 2.25903C81.4823 2.14927 81.8103 2.11032 82.1345 2.14571C82.458 2.18111 82.7666 2.28972 83.0333 2.46174C83.6832 2.75906 84.3332 3.08015 84.9436 3.37747C84.9436 3.37747 85.0609 3.37747 85.2036 3.37747C85.3866 3.21595 85.5443 3.03182 85.672 2.83042C85.8214 2.35913 86.1434 1.94889 86.5827 1.66771C87.0228 1.38652 87.554 1.25127 88.0896 1.28439C88.5962 1.29829 89.0907 1.43424 89.5218 1.67853C89.9529 1.9228 90.3063 2.26679 90.5461 2.67581C91.5659 3.90454 92.2315 5.34812 92.4825 6.87389C92.7336 7.95638 93.1176 9.00954 93.6264 10.0135C93.7713 9.19137 94.038 8.39113 94.419 7.63497C94.5834 7.34582 94.8389 7.10863 95.1519 6.95448C95.4657 6.80038 95.8228 6.73648 96.1769 6.77119C96.5311 6.80589 96.865 6.93753 97.1362 7.14896C97.4067 7.36038 97.6017 7.64174 97.695 7.95611C97.8803 8.2726 97.9931 8.62046 98.0268 8.9783C98.0604 9.33615 98.0133 9.69645 97.89 10.0373C97.8183 10.3299 97.7877 10.6296 97.7989 10.9292C97.9543 11.0197 98.1254 11.0842 98.3054 11.1195C100.048 11.1195 100.424 11.3454 100.45 12.9153C100.476 14.4851 100.268 15.9716 100.151 17.5057C100.135 17.7111 100.048 17.9065 99.9042 18.0647C98.28 19.2539 98.6043 21.2162 97.825 22.7266C97.7077 22.9406 97.9289 23.4282 98.1627 23.6661C98.7006 24.1402 99.2647 24.5888 99.8527 25.0099C100.985 24.0992 101.68 22.8178 101.789 21.4422C101.893 20.1696 102.088 18.8972 102.309 17.6366C102.545 15.3952 102.449 13.135 102.023 10.9173C102.023 10.5724 101.555 10.2632 101.269 9.97781C100.799 9.56514 100.516 9.00626 100.475 8.4117C100.435 7.81707 100.639 7.2301 101.048 6.76683C101.232 6.5043 101.503 6.30326 101.821 6.19389C102.14 6.08453 102.489 6.07275 102.816 6.16031C102.99 6.24818 103.187 6.29469 103.386 6.2956C103.585 6.29651 103.782 6.25179 103.957 6.16552C104.134 6.07924 104.282 5.95415 104.392 5.80162C104.501 5.64908 104.567 5.47395 104.583 5.29216C104.797 4.59648 105.18 3.95433 105.705 3.41446C106.23 2.87459 106.882 2.45116 107.612 2.17632C107.923 1.97554 108.284 1.84892 108.662 1.80794C109.04 1.76697 109.423 1.81292 109.776 1.94164C110.13 2.07036 110.444 2.27779 110.687 2.54512C110.931 2.81245 111.098 3.13124 111.173 3.47261C111.352 4.43067 111.413 5.40394 111.356 6.37437C111.356 7.80149 111.238 9.24045 111.226 10.6676C111.256 11.1574 111.339 11.6434 111.472 12.1184L111.836 12.2136C112.136 11.8949 112.397 11.5481 112.616 11.179C113.409 9.43075 114.215 7.69444 114.878 5.91057C115.259 4.78523 115.528 3.63103 115.684 2.46174C115.97 0.66598 117.361 0.0832475 119.18 0C120 0.0470682 120.774 0.364733 121.357 0.894016C121.94 1.4233 122.293 2.12825 122.351 2.87798C122.351 3.17529 122.351 3.47261 122.456 3.98399C123.066 3.82938 123.586 3.72235 124.094 3.57964C124.523 3.46488 124.975 3.44335 125.415 3.51675C125.855 3.59014 126.269 3.75644 126.627 4.00241C126.984 4.24838 127.273 4.56724 127.472 4.9336C127.671 5.29996 127.774 5.70372 127.772 6.11274C127.758 6.95565 127.539 7.78508 127.13 8.54035C126.721 9.29555 126.132 9.95737 125.406 10.4773C123.521 12.1541 121.637 13.831 119.778 15.5316C119.478 15.9048 119.217 16.3029 118.999 16.7209C119.934 16.4949 120.493 16.3403 121.065 16.2333C121.977 16.0068 122.907 15.8438 123.846 15.7456C124.639 15.6862 125.146 16.0549 125.276 16.9349C125.523 18.2193 125.64 19.3848 124.133 20.241C124.47 20.4908 124.653 20.6691 124.874 20.8C125.294 21.0493 125.634 21.3971 125.858 21.8074C126.082 22.2176 126.183 22.6752 126.148 23.1328C126.114 23.5904 125.946 24.0311 125.662 24.4093C125.379 24.7875 124.989 25.0893 124.535 25.2834C123.021 25.9681 121.373 26.3722 119.687 26.4727L109.822 27.0197C109.211 27.0197 108.6 27.21 107.989 27.21C107.002 27.2312 106.041 27.504 105.215 27.9977C104.388 28.4915 103.728 29.1866 103.31 30.0047C101.992 31.8319 100.208 33.3381 98.1104 34.3931C97.0466 34.8748 96.1635 35.6369 95.5763 36.5813L97.63 37.9608C97.639 38.4911 97.5912 39.0208 97.4866 39.5425C97.2789 40.268 97.1751 41.0647 96.1867 41.3145C95.8878 41.3859 95.7063 41.8735 95.2378 42.5038C96.9801 42.2302 98.1366 42.5038 98.8777 43.8238L102.504 42.6346C102.856 42.5274 103.167 42.3286 103.398 42.0625C103.628 41.7964 103.77 41.4745 103.804 41.1361C104.609 37.271 106.612 33.7866 108.145 30.1712C108.506 29.4791 109.008 28.8572 109.627 28.3398C110.588 27.4241 111.173 27.4835 112.083 28.4706L112.486 28.8987C113.656 28.1852 114.917 27.4954 116.177 28.6609C117.022 29.4458 116.919 30.421 116.242 31.5508C117.803 31.183 119.273 30.5452 120.571 29.6718C122.226 28.6189 124.183 28.0356 126.199 27.9949C126.368 27.9949 126.537 27.9949 126.693 27.9949C129.293 28.0544 129.709 28.3992 130.008 30.9205C130.416 31.1765 130.852 31.3956 131.307 31.5746C132.006 31.7833 132.613 32.1918 133.039 32.7399C133.465 33.288 133.687 33.9467 133.673 34.619C133.669 35.3755 133.378 36.1073 132.849 36.6889C132.32 37.2704 131.587 37.6654 130.774 37.8062C129.409 38.0689 128.022 38.2241 126.628 38.27C124.559 38.2331 122.493 38.4369 120.48 38.8765C119.674 39.0971 118.898 39.4003 118.166 39.7804C118.42 40.0008 118.731 40.1596 119.069 40.2427C119.407 40.3257 119.763 40.3304 120.103 40.2561C120.785 40.0863 121.508 40.1218 122.165 40.3574C122.824 40.593 123.381 41.0162 123.755 41.5643C124.509 42.6346 124.484 43.0389 123.288 43.586C122.905 43.7312 122.514 43.8583 122.118 43.9665L122.365 44.7277C123.066 46.9397 121.676 48.5927 119.18 48.2954C117.517 48.0686 115.867 47.759 114.241 47.3678C111.538 46.6957 108.769 46.2695 105.974 46.0953C105.246 45.9808 104.497 46.0292 103.794 46.2363C103.09 46.4434 102.451 46.803 101.932 47.2845C102.556 47.8554 103.232 47.5581 103.947 47.4986C105.442 47.3559 106.937 47.2251 108.431 47.1418C108.822 47.1285 109.209 47.202 109.562 47.3559C110.563 47.7602 111.122 48.8543 109.848 49.6274C109.575 49.8058 109.289 49.9484 109.029 50.0912C109.007 50.2053 109.007 50.322 109.029 50.436C109.653 52.3864 108.353 53.5519 105.832 53.2308C104.818 52.9908 103.749 53.0364 102.764 53.3616C103.084 53.614 103.46 53.8001 103.866 53.9069C104.272 54.0136 104.699 54.0386 105.117 53.98C106.845 54.0633 108.587 53.98 110.316 54.099C111.237 54.2543 112.118 54.5648 112.916 55.0147C113.89 55.4903 114.787 56.1088 115.645 56.632C118.343 55.3318 120.857 53.7343 123.131 51.8751C125.731 50.0198 128.2 47.9981 131.437 47.0348C131.806 46.8661 132.209 46.7706 132.62 46.7545C133.032 46.7384 133.443 46.802 133.826 46.9413C134.209 47.0805 134.555 47.2921 134.842 47.5624C135.13 47.8327 135.351 48.1554 135.493 48.5095C135.843 48.4147 136.198 48.3392 136.558 48.2835C137.488 48.1652 138.427 48.1175 139.366 48.1408C140.666 48.2478 141.017 48.676 141.251 49.7582C141.365 50.1575 141.32 50.5812 141.122 50.9522C140.924 51.3232 140.587 51.6169 140.172 51.7799C138.703 52.6361 137.221 53.4686 135.753 54.313C138.395 54.4671 141.049 54.2424 143.616 53.6471C147.25 52.9126 151.033 53.0976 154.56 54.1822C155.158 54.3843 155.73 54.6103 155.86 55.2763C155.863 55.5882 155.765 55.894 155.578 56.1545C155.39 56.4151 155.122 56.6186 154.808 56.7391C154.144 57.1077 153.43 57.3932 152.546 57.7975C152.962 58.3208 153.287 58.7727 153.664 59.189C154.781 60.3782 154.964 61.389 154.365 62.388C154.046 62.9963 153.507 63.4849 152.839 63.771C152.171 64.0571 151.415 64.1231 150.7 63.9578C147.659 63.3037 144.643 62.5069 141.602 61.7934C139.457 61.3058 137.312 60.8776 135.103 60.4138L134.986 60.7231L137.221 61.5079C138.06 61.7279 138.824 62.1373 139.444 62.6984C140.064 63.2596 140.52 63.9543 140.77 64.7189C141.42 66.6455 140.328 67.7515 138.171 67.2996C137.533 67.1688 136.871 66.9309 136.247 66.7288C136.077 67.1331 135.961 67.4661 135.792 67.7872C135.664 68.1716 135.435 68.5216 135.125 68.8059C134.815 69.0903 134.433 69.3001 134.013 69.4177C133.593 69.5353 133.148 69.5565 132.717 69.4792C132.286 69.4027 131.882 69.2297 131.542 68.9761C130.189 68.2572 128.887 67.4629 127.642 66.5979C126.062 65.5514 124.306 64.748 122.443 64.2194C121.221 63.8627 120.077 63.3156 118.869 62.9113C117.256 62.3642 115.619 61.8767 113.604 61.2463C114.111 62.1264 114.475 62.6615 114.748 63.2205C115.476 64.6951 115.151 65.5276 113.448 66.1579C112.567 66.4919 111.64 66.7159 110.692 66.8239C109.588 66.9428 108.457 66.8952 107.339 66.9309C107.016 66.9902 106.698 67.0738 106.39 67.1807C109.898 68.0273 113.294 69.2236 116.516 70.7486C118.667 71.6605 120.44 73.1828 121.572 75.0892C121.899 75.7372 122.059 76.4447 122.04 77.1584C122.04 77.872 121.26 78.3477 120.168 78.3477C119.174 78.2862 118.185 78.1748 117.205 78.0149C117.058 78.749 116.975 79.4927 116.957 80.2385C116.957 80.8093 117.087 81.4279 116.581 81.8086C116.102 82.3773 115.516 82.8647 114.852 83.2475ZM-26.6948 97.0192C-26.2065 97.0999 -25.7044 97.0773 -25.2269 96.9536C-24.7494 96.8299 -24.309 96.6084 -23.9392 96.3056L-17.9342 91.7866C-20.3258 92.0005 -25.1481 94.9856 -26.6948 97.0192ZM116.555 57.7024C115.801 58.1661 115.411 58.5943 115.619 59.4625C116.477 59.7478 117.321 60.0333 118.219 60.295C122.128 61.4021 125.864 62.9691 129.332 64.9568C130.345 65.599 131.347 66.2531 132.412 66.8001C133.712 67.478 134.063 67.3234 134.634 66.039C135.089 65.04 135.453 64.8497 136.572 65.1352C137.001 65.2422 137.391 65.48 137.871 65.5514C138.352 65.6228 139.002 65.6704 139.691 65.7417C139.676 65.1619 139.479 64.5983 139.124 64.1178C138.769 63.6372 138.271 63.2597 137.689 63.0302C136.753 62.6734 135.843 62.281 134.921 61.9361C134.569 61.8695 134.241 61.7274 133.961 61.5215C133.682 61.3157 133.46 61.0521 133.314 60.7523C133.168 60.4526 133.102 60.1254 133.122 59.7977C133.141 59.4701 133.246 59.1514 133.426 58.8678C134.219 58.9511 135.103 58.9987 135.947 59.1533C136.792 59.3078 137.911 59.5933 138.885 59.8311C141.627 60.4971 144.37 61.1988 147.139 61.8291C148.439 62.1264 149.881 62.281 151.246 62.5069C152.013 62.6377 152.351 62.1264 152.74 61.6864C153.13 61.2463 152.962 60.7469 152.559 60.3187C152.156 59.8906 151.727 59.3554 151.35 58.844C151.133 58.6406 150.978 58.3892 150.9 58.1144C150.821 57.8396 150.822 57.5509 150.902 57.2764C150.982 57.002 151.138 56.7512 151.355 56.5486C151.573 56.346 151.845 56.1986 152.143 56.1207L153.625 55.4071C153.15 55.1722 152.648 54.9847 152.13 54.8481C149.474 54.4759 146.774 54.4478 144.11 54.765C142.511 54.9433 140.912 55.2406 139.314 55.3952C137.716 55.5498 136.416 55.5498 134.959 55.6093C134.607 55.6672 134.242 55.608 133.933 55.4424C133.623 55.2767 133.388 55.0154 133.27 54.7055C132.984 53.8968 133.764 53.6589 134.323 53.3497C135.753 52.5529 137.208 51.768 138.625 50.9712C138.991 50.8244 139.286 50.5622 139.458 50.2326C139.63 49.9029 139.666 49.5277 139.561 49.1755C138.807 49.2349 138.092 49.2468 137.416 49.3538C136.741 49.4609 136.233 49.7225 135.636 49.8296C135.312 49.9277 134.96 49.9128 134.649 49.7876C134.336 49.6624 134.086 49.4358 133.946 49.1517C133.231 47.9029 133.218 47.9624 131.827 48.2954C128.747 49.0922 126.628 51.1496 124.029 52.8027C121.429 54.4557 119.089 56.1207 116.555 57.7024ZM104.674 42.7416C104.219 43.2649 103.297 43.4552 102.582 43.7763C101.742 44.1851 100.874 44.5426 99.9827 44.8466C98.8545 45.1675 97.843 45.7637 97.0578 46.571C96.6424 47.0998 96.1433 47.5688 95.5763 47.9624C92.8852 49.4252 90.1561 50.8285 87.4523 52.2556C87.2678 52.3649 87.0945 52.4882 86.9324 52.6242C87.8595 52.4232 88.7545 52.1155 89.5973 51.7085C90.2809 51.2991 91.0556 51.0352 91.8655 50.9365C92.6753 50.8376 93.4993 50.9065 94.2763 51.1377C94.626 51.2686 95.0182 51.2686 95.3678 51.1377C97.7466 49.9484 100.373 50.0912 102.907 49.8177C103.414 49.8177 103.934 49.7344 104.207 50.6025C101.399 51.3756 98.1889 50.7928 95.9401 52.327C95.7713 53.433 95.6413 54.2535 95.5113 55.0622L99.4104 55.6807C100.828 55.727 102.184 56.2231 103.245 57.0839C101.802 57.4883 100.645 56.9175 99.5015 56.8342C98.3577 56.751 96.9801 56.5726 95.8624 56.4417C95.4851 57.1077 95.2378 57.631 94.9136 58.0711C93.9902 59.3435 92.4825 59.4625 91.0138 59.5814C89.9125 59.6406 88.8322 59.8865 87.8296 60.3068C88.245 61.1393 88.245 61.1988 88.7784 61.1869C91.1311 61.1869 93.5098 61.3296 95.7324 60.4019C96.1508 60.1608 96.5849 59.9424 97.0316 59.7479C98.7866 59.2246 100.528 58.6537 102.322 58.2851C104.061 57.916 105.83 57.6812 107.612 57.5834C108.499 57.5604 109.371 57.794 110.104 58.251C110.836 58.708 111.393 59.365 111.693 60.1284C112.104 60.0695 112.505 59.9657 112.889 59.8192C114.02 59.2484 114.449 57.5834 113.565 56.9888C112.498 56.0775 111.122 55.5277 109.666 55.4309C108.002 55.4309 106.338 55.4309 104.674 55.3476C103.974 55.4264 103.264 55.3177 102.63 55.0349C101.995 54.7521 101.464 54.3072 101.1 53.754C100.528 52.7789 100.723 52.2794 101.854 51.8513C103.09 51.4995 104.408 51.4666 105.663 51.7561C106.004 51.8459 106.366 51.8514 106.71 51.772C107.055 51.6927 107.371 51.5312 107.625 51.3042C107.378 50.6382 107.144 50.0317 106.897 49.4014L108.067 48.4857C107.859 48.4067 107.64 48.3508 107.417 48.3192C104.376 48.676 101.347 49.0446 98.3189 49.3895C97.5 49.4846 96.6162 49.6155 96.2128 48.5571C96.6065 48.3822 96.9778 48.1667 97.3178 47.9148C99.051 46.1811 101.316 44.9665 103.817 44.4303C106.313 44.079 108.864 44.2497 111.277 44.9298C113.773 45.4887 116.295 45.9407 118.79 46.4997C119.804 46.7256 120.376 46.4164 120.61 45.8694C120.419 45.0417 120.289 44.2034 120.22 43.36C120.22 42.3967 121.52 42.6465 122.235 41.8616C121.364 41.7188 120.74 41.588 120.103 41.5286C119.466 41.4691 118.53 41.5286 117.776 41.3621C117.022 41.1956 115.996 40.5058 115.996 39.9231C115.996 39.0906 116.581 38.6625 117.296 38.3176C118.807 37.6474 120.443 37.244 122.118 37.1284C124.275 36.9143 126.459 36.8072 128.617 36.7002C129.179 36.6845 129.732 36.5659 130.243 36.3514C130.754 36.1369 131.214 35.831 131.593 35.4515C132.256 34.8212 132.347 34.3812 131.762 33.7033C131.364 33.2812 130.895 32.9198 130.372 32.633C129.922 32.4182 129.457 32.2315 128.98 32.0741C128.806 32.0242 128.643 31.9428 128.502 31.8345C128.362 31.7263 128.247 31.5936 128.163 31.444C128.079 31.2945 128.029 31.1311 128.016 30.9636C128.003 30.7961 128.025 30.6278 128.084 30.4686C128.129 30.2246 128.159 29.9783 128.175 29.7312C127.031 29.3648 125.798 29.2949 124.614 29.529C122.344 30.0035 120.198 30.8802 118.296 32.1097C117.527 32.5228 116.712 32.8616 115.866 33.1206C115.643 33.2313 115.382 33.2572 115.138 33.1927C114.895 33.1281 114.689 32.9783 114.566 32.7757C114.361 32.3251 114.289 31.8328 114.358 31.3486C114.358 31.0394 114.852 30.7897 114.982 30.4686C115.073 30.1506 115.113 29.8219 115.099 29.4933C114.694 29.4346 114.282 29.4346 113.877 29.4933C113.526 29.5885 113.279 29.9453 112.954 30.1356C111.941 30.7421 111.72 30.6945 110.927 29.7788C110.836 29.6718 110.667 29.6361 110.433 29.529C110.068 29.9192 109.745 30.3414 109.471 30.7897C108.678 32.3713 107.898 33.953 107.222 35.5466C106.547 37.1403 105.922 39.0193 105.273 40.7675C105.013 41.374 105.103 42.2421 104.674 42.7416ZM95.199 38.2581C95.1213 38.2581 95.0302 38.3533 94.8486 38.4603C95.1079 38.7458 95.3678 39.0311 95.7451 39.4236C96.1867 38.603 95.8101 38.3652 95.1863 38.2581H95.199ZM87.5562 41.9924C85.8409 44.0736 84.2421 46.2261 82.526 48.3073C82.0889 48.8366 81.5413 49.2812 80.9145 49.6155C80.4984 49.7715 80.0314 49.7715 79.6146 49.6155C79.3419 49.4965 79.1857 48.9495 79.1857 48.5927C79.1992 48.1349 79.3187 47.6848 79.5369 47.2726C80.083 46.2261 80.6934 45.2034 81.3172 44.133C81.0834 43.6811 80.8368 43.2055 80.6157 42.7535C80.1106 43.108 79.5757 43.4261 79.0169 43.7049C78.3281 44.0022 77.9254 43.4076 77.4054 43.146C77.0953 42.9849 76.7532 42.8838 76.399 42.8488C76.0449 42.8139 75.6863 42.846 75.3464 42.943C75.0065 43.04 74.6919 43.1999 74.4222 43.4128C74.1525 43.6257 73.9336 43.887 73.779 44.1806C73.5011 44.6838 73.1462 45.1483 72.7256 45.5601C72.4641 45.7877 72.2751 46.0762 72.1787 46.3947C72.0823 46.7131 72.0831 47.0495 72.1802 47.3678C72.5022 49.2012 72.16 51.0808 71.2052 52.7194C69.8029 55.2686 67.4384 57.2669 64.5501 58.3446C63.2614 58.8483 61.9255 59.2462 60.5598 59.5338C59.4287 59.7716 58.2461 59.7241 57.1023 59.9025C56.471 60.1041 55.8681 60.3757 55.3085 60.7112C55.7359 60.8044 56.1707 60.864 56.6085 60.8895C58.155 60.7112 59.7149 60.5447 61.2487 60.2712C62.4313 60.0571 63.5751 59.5695 64.7585 59.4149C66.2012 59.2127 67.6827 59.2721 68.4499 57.8332C68.5142 57.7261 68.7488 57.7024 68.8915 57.6191C70.4776 56.7034 72.089 55.7996 73.649 54.8481C73.9501 54.6375 74.1652 54.3401 74.2594 54.0038C75.0393 51.606 75.5324 49.1377 75.7282 46.6423C75.7282 46.5354 75.9366 46.4402 76.0666 46.3213C76.2354 46.4045 76.4693 46.4402 76.4954 46.5353C77.2104 48.8543 76.222 51.0425 75.8193 53.4211C78.1368 52.748 80.2937 51.6786 82.1756 50.2696C84.6448 48.1765 87.4912 46.464 89.4411 43.8714C89.6339 43.6634 89.8468 43.4723 90.0784 43.3005C90.2861 43.4195 90.4422 43.4552 90.4676 43.5146C90.5722 43.8476 90.6499 44.1925 90.7276 44.5136C92.236 44.8585 92.236 44.8584 92.2614 45.798L91.2872 45.7147C90.8987 45.6673 90.508 45.6434 90.1172 45.6434C89.9058 45.6385 89.6951 45.673 89.4986 45.7447C89.3029 45.8165 89.1244 45.9241 88.9749 46.0609C88.8248 46.1977 88.7075 46.361 88.629 46.5406C88.5506 46.7203 88.5132 46.9127 88.5185 47.1061C88.6133 47.481 88.7755 47.8387 88.9988 48.1646L87.8423 48.4738C87.3044 48.537 86.7815 48.6817 86.2958 48.9019C84.9048 49.8414 83.6182 50.8999 82.2406 51.8632C81.5204 52.3496 80.7643 52.7906 79.9784 53.1832C79.1857 53.6114 78.3669 54.0038 77.5481 54.3725C78.4752 54.6725 79.4405 54.8604 80.4207 54.9314C81.3045 55.0384 82.1756 55.2287 83.0198 55.3833C83.6093 55.5168 84.2092 55.6043 84.8136 55.645C86.322 55.645 87.8296 55.5617 89.3373 55.645C89.5106 55.6745 89.672 55.7449 89.8064 55.8492C89.9409 55.9535 90.044 56.0881 90.1038 56.2396C90.1038 56.7153 89.7923 56.9413 89.2334 56.8937C88.115 56.7985 87.0108 56.7153 85.8924 56.6439L82.7083 56.4893C80.8622 56.4061 79.0296 56.2872 77.1843 56.2753C76.3393 56.2753 75.4682 56.8104 74.6882 56.0493C74.5844 55.9541 74.104 56.0493 73.9217 56.1801C72.869 56.9532 71.8679 57.7737 70.6464 58.737C74.104 58.737 77.262 58.737 80.4207 58.737C82.3833 58.737 84.3198 58.737 86.2958 58.5468C88.2712 58.3564 90.1949 58.0592 92.1964 57.7975C92.5266 57.7901 92.8479 57.6936 93.1183 57.5201C93.3888 57.3466 93.5972 57.1039 93.7175 56.8223L92.7425 55.1455C93.1064 54.8719 93.3664 54.6936 93.6002 54.4914C93.843 54.3573 94.0216 54.1448 94.1008 53.8959C94.1807 53.6471 94.1546 53.38 94.029 53.1475C93.911 52.9108 93.71 52.7163 93.459 52.5938C93.208 52.4713 92.9196 52.4277 92.6387 52.4697C91.9768 52.5599 91.3298 52.7278 90.7149 52.9692C89.2588 53.5043 87.8035 54.0633 86.387 54.6817C86.0642 54.8399 85.6899 54.8874 85.3321 54.8154C84.975 54.7434 84.6575 54.5568 84.4371 54.2892C84.2989 54.1725 84.1905 54.0298 84.1181 53.8709C84.0463 53.712 84.0127 53.5408 84.0202 53.3689C84.0277 53.1971 84.0755 53.0288 84.1614 52.8756C84.2466 52.7224 84.3676 52.5879 84.5148 52.4816C85.1984 51.8814 85.9477 51.3473 86.7508 50.888C87.5958 50.4003 88.5446 50.0555 89.35 49.5917C91.0399 48.6879 92.7298 47.7959 94.354 46.8088C95.4545 46.2069 96.298 45.2799 96.7462 44.1806C94.1463 44.1806 93.4964 43.4195 94.029 41.3383V41.1956C94.4975 39.4474 93.7175 38.6982 91.846 39.162C90.1083 39.6423 88.5947 40.6381 87.5435 41.9924H87.5562ZM73.5444 66.6693C74.1593 66.818 74.7256 67.0983 75.1977 67.4871C75.6706 67.8759 76.0352 68.3616 76.2616 68.905L77.1454 66.4314C75.2478 65.5157 74.2594 64.6595 76.4431 62.8637C76.9893 62.4237 77.7431 62.1026 77.8469 61.282C74.4417 60.2355 64.8489 61.0204 59.7933 62.7329C59.7933 63.3394 59.8972 63.8389 60.8325 63.7081C61.3346 63.6663 61.8389 63.6663 62.3409 63.7081C62.846 63.6572 63.3562 63.7526 63.7993 63.9809C64.2423 64.2092 64.5957 64.5588 64.8101 64.9806C64.9401 65.4731 64.8997 65.9903 64.695 66.461C64.4896 66.9317 64.131 67.3327 63.6663 67.6088L59.4288 70.2845L59.5072 70.6297C59.868 70.7117 60.2416 70.7356 60.6122 70.7007C63.0118 70.2571 65.3084 69.4321 67.3965 68.2629C68.2714 67.8174 69.1739 67.4203 70.1003 67.0736C71.1641 66.5817 72.3797 66.4389 73.5444 66.6693ZM55.0097 61.4604L54.8408 61.2226L50.2918 62.6853L51.2667 64.0768L55.0097 61.4604ZM63.5236 51.768C65.1209 52.1734 66.8026 52.2183 68.4238 51.8988C67.6595 51.572 66.831 51.3918 65.9883 51.3694C65.1455 51.3469 64.3065 51.4826 63.5236 51.768ZM69.2165 50.5788C69.2165 49.7939 69.3076 49.1993 69.3726 48.2954L66.4612 49.9484L66.5389 50.222L69.2165 50.5788ZM59.0522 53.9681C60.456 55.5855 60.456 55.5855 60.3522 57.4526C63.0298 56.8223 65.9539 54.8838 66.7077 53.2783H66.0323C64.9498 53.3438 63.8643 53.3438 62.7825 53.2783C61.49 53.1259 60.1788 53.3684 59.0522 53.9681ZM82.9944 43.0984C82.9093 43.1593 82.8413 43.237 82.7935 43.3255C82.7464 43.4141 82.7217 43.5112 82.721 43.6098C82.851 44.9179 81.8633 45.7623 81.2395 46.7613C81.1371 46.9817 81.0669 47.2136 81.0318 47.451L81.2783 47.57L85.737 42.0043L85.477 41.7664C84.6448 42.1826 83.7998 42.6227 82.9944 43.0984ZM92.6902 36.3197C92.0926 36.7121 91.391 36.8786 91.586 37.616C92.9764 37.4257 92.9764 37.4257 92.6902 36.3197ZM87.1147 37.83C85.3336 39.1263 83.8259 40.2085 82.331 41.3383C82.2406 41.4097 82.2406 41.6118 82.1622 41.8973C83.6691 41.3091 85.0639 40.5063 86.2958 39.5187C86.6858 39.2452 86.7635 38.5792 87.1147 37.83ZM102.712 24.5699C101.633 25.9375 100.398 27.1982 99.2804 28.542C98.6043 29.3745 97.9804 30.2545 97.3701 31.1107H97.2916C96.5639 30.7897 96.0574 31.194 95.5501 31.5984C95.0429 32.0027 94.4586 32.3238 93.8736 31.6578C93.9775 31.2059 94.094 30.7778 94.1986 30.3496L93.8736 30.2188C92.6133 32.3109 90.9278 34.1636 88.9084 35.6775C88.4572 36.1601 88.053 36.6773 87.6996 37.2235C87.79 37.3067 87.8685 37.39 87.9596 37.4613C89.3193 36.9433 90.6029 36.2722 91.781 35.4634C93.0802 34.6071 94.3802 33.739 95.6801 32.9065C96.4078 32.4546 97.1228 32.0146 97.2266 31.1226V31.0632C97.6876 30.8754 98.1239 30.64 98.5266 30.3615C100.255 28.9939 101.893 27.5311 103.634 26.1872C104.216 25.7178 104.926 25.4013 105.688 25.2715C107.414 25.0047 109.165 24.9051 110.913 24.9743C114.545 25.0589 118.177 24.8079 121.754 24.225C122.41 24.1515 123.029 23.9074 123.539 23.5216C124.047 23.1359 124.425 22.6247 124.626 22.0487C124.159 21.8108 123.743 21.6681 123.391 21.4422C123.137 21.3428 122.918 21.1806 122.758 20.9738C122.598 20.7669 122.504 20.5236 122.487 20.2708C122.469 20.018 122.529 19.7657 122.659 19.5421C122.789 19.3185 122.984 19.1323 123.223 19.0042C123.376 18.915 123.506 18.7977 123.607 18.6594C123.707 18.5213 123.775 18.3654 123.805 18.2019C123.836 18.0384 123.828 17.8708 123.784 17.7099C123.74 17.5491 123.66 17.3985 123.548 17.2679C122.664 17.4582 121.767 17.6722 120.844 17.8626C120.36 17.9816 119.87 18.0768 119.375 18.1479C119.057 18.2156 118.724 18.1967 118.417 18.0937C118.111 17.9906 117.844 17.8079 117.649 17.5679C117.455 17.3279 117.341 17.041 117.322 16.7427C117.303 16.4444 117.38 16.1474 117.542 15.8884C117.914 15.1455 118.414 14.4627 119.024 13.8667C120.064 12.8796 121.286 12.0471 122.365 11.0838C123.489 10.1005 124.552 9.06026 125.549 7.968C125.953 7.48274 126.193 6.89973 126.238 6.29113C126.283 6.06171 126.267 5.82558 126.189 5.60341C126.112 5.38124 125.976 5.1798 125.794 5.01669C125.613 4.85359 125.389 4.73379 125.145 4.66779C124.901 4.60179 124.642 4.59158 124.393 4.63807C123.892 4.69485 123.397 4.78629 122.91 4.9116C121.546 5.14945 121.195 4.9116 120.883 3.62721C120.748 3.08363 120.543 2.55666 120.272 2.0574C120.13 1.84557 119.908 1.68893 119.648 1.61738C119.127 1.57176 118.604 1.68296 118.158 1.93408C117.713 2.18521 117.368 2.56254 117.179 3.0088C116.815 4.19805 116.581 5.30405 116.152 6.39816C115.45 8.18202 114.644 9.96591 113.864 11.6903C113.682 12.1107 113.447 12.5099 113.162 12.8796C113.024 13.1376 112.804 13.3517 112.531 13.4943C112.258 13.6369 111.945 13.7015 111.631 13.6798C111.318 13.658 111.02 13.5509 110.773 13.3722C110.527 13.1936 110.345 12.9516 110.251 12.6774C110.034 12.3106 109.91 11.9044 109.887 11.4881C109.887 10.0135 109.887 8.53877 109.887 7.06413C109.959 6.09402 109.959 5.1206 109.887 4.15048C109.757 3.28232 109.12 3.04448 108.288 3.4964C107.743 3.74318 107.259 4.08702 106.861 4.50772C106.464 4.92842 106.163 5.4175 105.974 5.94625C105.928 6.25306 105.813 6.54788 105.637 6.81241C105.461 7.07691 105.227 7.30549 104.951 7.48397C104.674 7.66238 104.361 7.78686 104.029 7.84968C103.697 7.9125 103.355 7.91229 103.024 7.84906C103.214 9.03477 103.568 10.1937 104.077 11.2978C104.373 12.1751 104.556 13.0812 104.623 13.9975C104.623 15.8289 104.519 17.6722 104.441 19.5156C104.429 21.3187 103.832 23.0779 102.725 24.5699H102.712ZM97.1616 24.7721C96.0574 25.7353 96.3428 26.996 96.304 28.2209C97.1101 27.4241 98.5004 27.1744 98.7343 25.9137L97.1616 24.7721ZM93.9513 28.6728C93.9528 28.8574 93.979 29.0412 94.029 29.2199H94.3675C94.5236 28.6133 94.6925 28.0306 94.8486 27.4003C95.0824 26.5084 95.264 25.6046 95.524 24.7245C95.784 23.8445 96.0963 23.0595 96.4078 22.239C96.7582 20.9546 97.264 19.7101 97.9154 18.5285C99.2154 16.5662 98.9293 14.5445 98.8516 12.4514L97.8504 12.3206C96.5512 12.1541 96.1351 11.6903 96.3167 10.4892C96.3689 10.1827 96.4474 9.88047 96.5512 9.58538C96.6394 9.29302 96.6304 8.98343 96.5266 8.69551C96.422 8.40767 96.227 8.15448 95.9663 7.968C95.0429 8.66961 95.0301 8.65771 94.9778 9.31181C94.9263 9.96591 94.9778 10.3465 94.9778 10.8578C95.0122 11.212 94.9637 11.5687 94.8352 11.9044C94.6163 12.2934 94.2651 12.6066 93.834 12.7963C93.5584 12.8577 93.2678 12.8172 93.0242 12.6836C92.7814 12.55 92.6051 12.3342 92.5348 12.0828C92.4213 11.8458 92.3219 11.6037 92.236 11.3573C92.038 10.4534 91.7863 9.56015 91.4814 8.6815C90.7411 6.862 89.9222 5.11377 89.0511 3.29422C88.6746 2.50931 88.18 2.44985 87.4912 3.02069C87.1005 3.37672 86.7598 3.77626 86.4774 4.20994C86.3638 4.4613 86.1868 4.68452 85.9611 4.86135C85.7355 5.03818 85.4666 5.16361 85.1782 5.2274C84.8891 5.29118 84.5872 5.29151 84.2981 5.22836C84.009 5.16521 83.7408 5.04036 83.5144 4.86403C83.0198 4.60239 82.5006 4.40022 81.9672 4.15048C81.3695 5.49433 82.3833 6.06517 82.9683 6.75493C83.7221 7.63497 84.6582 8.39612 85.412 9.27613C86.4385 10.4654 86.9458 12.2731 84.9959 13.4385C84.4498 13.165 83.8909 12.9391 83.371 12.6417C82.071 11.8925 80.7718 11.1076 79.4719 10.3702C78.7957 10.0016 77.9769 9.58538 77.3658 10.3702C76.7554 11.1552 77.4704 11.5595 77.9119 12.1184C78.6396 13.0341 78.5357 13.5931 77.6392 14.3899C77.3598 14.6435 77.0647 14.8817 76.7554 15.1035C75.767 15.8051 75.7155 16.483 76.7554 17.1014C77.6026 17.5849 78.5051 17.9836 79.4457 18.2907C81.5256 19.028 83.7482 19.361 85.8536 20.0627C87.6182 20.6434 89.2588 21.5005 90.7022 22.5957C92.8075 24.1774 94.2763 26.0446 93.964 28.6728H93.9513ZM76.0793 35.0353C76.0793 36.0105 75.7282 36.8429 74.5455 37.0094C74.5455 37.7348 74.5455 38.3295 74.4678 39.0074C75.767 39.1977 75.9754 40.0539 75.832 41.1956C77.6206 39.7081 78.7644 37.6821 79.0557 35.4872C79.0557 34.2385 79.2246 33.0017 79.3284 31.7529H79.8095C80.9407 34.4406 80.1345 37.0451 79.0692 39.6971C79.6093 39.518 80.1181 39.2655 80.5768 38.9479C83.8035 36.7852 86.8457 34.3997 89.675 31.8124C90.4258 31.1377 90.8875 30.2388 90.9749 29.2793C91.0974 28.7781 91.1079 28.2594 91.0055 27.7544C90.9024 27.2496 90.6888 26.7689 90.3772 26.3419C89.3709 26.8178 88.573 27.5941 88.115 28.542C87.5435 29.5409 87.1147 30.5993 86.5035 31.5746C85.882 32.609 85.1505 33.5849 84.3198 34.4882C83.7348 35.1066 83.1244 34.9877 82.4094 34.4882C82.1069 34.2541 81.8812 33.948 81.7572 33.6037C81.6332 33.2595 81.616 32.8906 81.7072 32.5379C81.876 31.4319 82.071 30.314 82.2144 29.1961C82.2144 28.6609 82.3706 28.0663 81.5645 27.7809L79.9007 30.3259C79.0819 31.5151 78.5096 31.5151 77.6258 30.3259C77.4794 30.1675 77.3232 30.0165 77.1581 29.874C76.5126 30.7698 76.1727 31.8215 76.1831 32.8946C76.0793 33.5963 76.0793 34.3099 76.0793 35.0353ZM55.8808 35.7726C55.2181 38.0441 55.062 38.1511 52.5659 38.0203C52.4755 38.0203 52.3844 38.1036 52.1632 38.2106C52.3844 38.9955 51.4744 39.6852 52.0205 40.5891C53.629 43.6162 53.9622 47.0795 52.9559 50.3172C52.9559 50.6025 52.9559 50.8999 52.8648 51.0782L56.7646 52.1367C57.5184 51.8394 58.6495 51.4113 59.7537 50.9474C61.5737 50.1744 63.3801 49.3657 65.1874 48.5689C66.7152 48.0302 68.06 47.1318 69.0865 45.9645C69.6109 45.3819 70.2131 44.8624 70.8803 44.4184C71.2441 44.1568 71.9068 44.133 72.1802 43.8119C72.8556 42.8367 73.389 41.7664 73.9867 40.7199C73.847 40.5236 73.6759 40.3472 73.4794 40.1966C73.0909 39.9829 72.7928 39.6546 72.6352 39.2657C72.4768 38.8768 72.4678 38.4503 72.609 38.056C72.739 37.6398 72.284 37.0808 72.1152 36.6288C70.4903 36.7597 70.0614 37.7467 69.5938 38.7695C69.1261 39.8605 68.5695 40.918 67.93 41.9329C67.8112 42.1707 67.6229 42.3738 67.3861 42.5198C67.1492 42.6658 66.8728 42.7489 66.5874 42.76C66.3028 42.771 66.0196 42.7097 65.7701 42.5826C65.5206 42.4555 65.3144 42.2677 65.1739 42.04C64.908 41.7704 64.7316 41.4371 64.6652 41.0792C64.5979 40.7212 64.6442 40.3532 64.7974 40.0182C65.3824 38.6387 66.0966 37.2829 66.6562 35.9034C67.5654 33.8104 68.4499 31.7291 69.2553 29.6242C69.2822 29.5061 69.277 29.3838 69.2404 29.2679C69.2045 29.152 69.138 29.0458 69.0476 28.9582C68.9311 28.9006 68.8026 28.8655 68.6711 28.8552C68.5388 28.845 68.4059 28.8598 68.2804 28.8987C68.0301 29.0075 67.794 29.1432 67.5788 29.3031C65.785 30.3378 64.9789 30.1712 63.679 28.5301C63.5236 28.3279 63.4197 28.0782 63.2636 27.8641C63.1635 27.6883 63.0171 27.5381 62.837 27.4273C62.6577 27.3165 62.45 27.2485 62.2348 27.2296C62.0189 27.2107 61.8015 27.2414 61.6021 27.319C61.4026 27.3966 61.2278 27.5185 61.0925 27.6738C60.7616 28.0434 60.533 28.4809 60.4261 28.949C60.32 29.4171 60.3387 29.9017 60.4822 30.3615C60.9887 32.8708 61.301 35.4159 61.626 37.9608C61.6431 38.5236 61.564 39.0854 61.3914 39.6258C61.2853 39.9626 61.1015 40.2746 60.8527 40.5409C60.6032 40.807 60.2946 41.0213 59.9472 41.1689C59.5998 41.3166 59.2218 41.3944 58.8385 41.3969C58.4553 41.3994 58.0758 41.3268 57.7261 41.1837C56.7646 40.7556 56.9461 39.8993 56.6473 39.162C57.9473 39.162 57.6484 38.2344 57.7261 37.5684C57.8696 36.51 58.0645 35.404 56.6473 34.6785C56.4269 34.8569 56.2573 34.9402 56.1923 35.059C56.0489 35.2834 55.9353 35.523 55.8546 35.7726H55.8808ZM45.4177 58.2732C47.7277 56.5665 49.5745 54.3927 50.8117 51.9226C51.3399 50.8494 51.6731 49.7046 51.7994 48.5333C52.1431 45.8165 51.5812 43.0681 50.1879 40.6485C50.0221 40.3223 49.8995 39.9788 49.8233 39.6258C49.5245 38.5317 49.2518 37.4495 48.953 36.3553C48.8357 35.9153 48.693 35.4753 48.5495 35.0234C47.848 32.7638 47.1592 30.4924 46.4315 28.2328C46.2201 27.7701 45.9586 27.3279 45.6515 26.9127C44.3516 27.2932 43.1555 28.2804 41.9855 26.9127C40.4652 28.0187 40.3352 28.7917 41.4013 29.8264C42.0117 30.4091 42.7005 30.8967 43.3766 31.4794C43.615 31.683 43.7666 31.9572 43.8047 32.2533C43.8428 32.5493 43.7644 32.8483 43.5843 33.0968C43.4259 33.4065 43.1428 33.6484 42.7946 33.7724C42.4457 33.8964 42.0588 33.8929 41.7128 33.7628C41.225 33.5546 40.7835 33.2641 40.4129 32.9065C38.7065 31.2179 36.8403 29.6699 34.8373 28.2804C34.4996 28.0586 34.1044 27.9231 33.6905 27.8875C33.2774 27.852 32.8612 27.9178 32.4847 28.0782C32.1859 28.3485 31.9774 28.6917 31.8855 29.0669C31.7936 29.4421 31.8205 29.8336 31.9647 30.195C32.5624 31.967 32.5363 32.0741 30.9121 33.2871C30.2359 33.7985 29.8721 34.3455 30.2359 34.9877L32.1463 35.6775C32.4309 35.8224 32.7312 35.9381 33.0435 36.0224C35.7002 36.401 38.2784 37.1511 40.6863 38.2463C41.6561 38.649 42.5645 39.1646 43.3893 39.7804C44.3516 40.4939 44.3904 41.148 43.8316 42.254C43.6949 42.686 43.3796 43.0522 42.9523 43.2744C42.5249 43.4965 42.0192 43.5571 41.544 43.4433C40.2441 43.2649 38.9441 42.9914 37.5799 42.7892C37.0861 42.7573 36.5915 42.7573 36.0977 42.7892C38.8664 44.2639 39.7241 46.131 39.0741 48.5927C38.8926 49.2943 39.3087 49.6274 40.0491 49.782C40.6953 49.8298 41.3206 50.011 41.8787 50.3117C42.4368 50.6124 42.9134 51.0249 43.2728 51.5182C44.4539 52.9523 45.1054 54.6937 45.1316 56.4893C45.1562 57.0917 45.2518 57.6898 45.4177 58.2732ZM24.2569 68.4053C26.0358 67.8212 27.772 67.1341 29.456 66.3482C32.2763 65.0163 35.0323 63.5654 38.3464 63.4346C38.8276 63.4346 39.4252 62.7567 39.6464 62.2453C39.8675 61.7339 39.3602 61.3772 38.9053 61.056C37.4103 59.9976 37.3715 59.5338 38.5414 58.178C38.6087 58.0695 38.6617 57.9536 38.6976 57.8332C37.6838 57.3575 37.0861 57.9283 36.3965 58.3683C35.4888 58.9542 34.5377 59.4827 33.5501 59.95C33.2736 60.0656 32.9643 60.0991 32.6663 60.0458C32.3682 59.9925 32.0955 59.855 31.8863 59.6528C31.6681 59.4121 31.5322 59.1181 31.4956 58.8073C31.4582 58.4964 31.5217 58.1825 31.6786 57.9045C31.8654 57.5938 32.0693 57.2921 32.2897 57.0007C32.8493 56.1818 33.3446 55.3273 33.7712 54.4438C34.1261 53.4714 34.4085 52.478 34.6162 51.4707C35.2273 49.0922 34.9277 48.8068 32.2763 48.783C30.9771 48.783 30.5609 48.4262 30.4175 47.2845C30.4175 47.1775 30.4175 47.0823 30.4175 46.9754C30.2875 46.0477 29.7421 45.5244 28.9883 45.5958C28.7485 45.6073 28.5139 45.6668 28.3025 45.7703C28.0903 45.8737 27.9065 46.0185 27.7623 46.1944C27.6181 46.3703 27.5188 46.5729 27.4702 46.7881C27.4209 47.0032 27.4246 47.2254 27.4807 47.4392C27.7571 48.5352 28.1172 49.6123 28.5595 50.662C29.3357 52.4935 29.4313 54.5079 28.8321 56.3942C28.6954 56.8454 28.431 57.2556 28.0649 57.5834C26.9734 58.5824 25.8296 58.3208 25.4657 56.9532C25.2707 56.2158 25.2573 55.4428 25.1146 54.6817C25.0108 54.1703 24.8285 53.6708 24.5558 52.767C23.9059 53.4686 23.49 53.8492 23.178 54.2654C22.1512 55.645 22.0992 55.6569 20.5785 54.6936C19.7206 54.1465 19.1747 54.2298 18.6158 54.9909C18.3836 55.2534 18.2569 55.5809 18.2569 55.9185C18.2569 56.2561 18.3836 56.5836 18.6158 56.8461C18.8939 57.1679 19.1934 57.4737 19.5126 57.7618C20.0036 58.1871 20.3773 58.7127 20.6033 59.2957C20.8293 59.8786 20.9009 60.5023 20.8124 61.1155C20.6305 62.3048 20.3965 63.494 20.2015 64.6833C19.9714 66.015 19.2273 67.2272 18.1041 68.1C16.981 68.9727 15.553 69.4485 14.0795 69.4403C11.9052 69.4498 9.74958 69.808 7.71053 70.4984C4.21412 71.5812 0.730705 72.7343 -2.68779 73.9354C-5.92421 75.1248 -9.1867 76.3142 -12.3452 77.5036C-15.6903 78.6765 -18.9506 80.043 -22.1065 81.5947C-23.5493 82.3671 -25.0961 82.9857 -26.4998 83.8299C-29.2554 85.4711 -31.959 87.1958 -34.6496 88.9204C-35.4164 89.4078 -36.0793 90.0025 -36.7942 90.5493L-36.4952 90.954C-36.264 90.9328 -36.0393 90.872 -35.8324 90.7756C-35.5215 90.5063 -35.1915 90.2554 -34.8445 90.0264C-33.6747 89.4789 -32.4399 89.027 -31.2571 88.4686C-29.1774 87.4692 -27.1237 86.411 -25.0571 85.3877L-17.3493 81.6541C-15.7116 80.8687 -14.0349 80.1435 -12.4231 79.2753C-8.45575 77.1549 -4.30398 75.3373 -0.0101884 73.8403C1.61116 73.2532 3.26396 72.7405 4.94202 72.3064C7.54154 71.7234 10.0631 71.2599 12.6627 70.8552C14.3524 70.5818 16.1202 70.6413 17.7709 70.2728C19.9706 69.7656 22.1362 69.1422 24.2569 68.4053ZM40.699 64.0411C40.3554 64.1768 40.0319 64.3527 39.7375 64.5644C41.3617 65.3373 42.8566 63.9816 44.2739 64.7427C44.3516 64.7427 44.5981 64.5049 44.8066 64.4335C46.5869 63.7913 47.783 64.4335 47.5357 66.039C48.0445 66.1725 48.5876 66.1427 49.0747 65.9544C49.5618 65.7661 49.9638 65.4308 50.2133 65.0044C49.6806 64.0173 48.4845 63.3989 48.628 61.9717C49.3556 61.6031 50.1483 61.1512 51.0067 60.7825C52.5921 60.1284 54.5031 60.0214 55.5035 58.404C55.6074 58.2375 56.0108 58.2494 56.2319 58.1305C57.0126 57.7728 57.7567 57.3509 58.4545 56.8699C58.6092 56.7097 58.7227 56.5195 58.7855 56.3135C58.8483 56.1075 58.8595 55.8911 58.8184 55.6807C58.6622 55.1455 58.0645 55.2169 57.5184 55.3239C57.0918 55.4154 56.6563 55.4672 56.2185 55.4784C54.6981 55.4784 54.3597 55.0384 54.9185 53.6827C54.9648 53.5063 55 53.3276 55.0231 53.1475C52.8909 52.5292 52.0855 52.8264 50.9156 54.539C50.1057 55.9738 48.9873 57.244 47.6269 58.2732C45.9765 59.3316 44.2604 60.3068 42.5578 61.2701C41.9863 61.5912 41.3752 61.8172 41.6351 62.6734C43.0785 62.2231 44.4054 61.5066 45.5342 60.5685C47.0703 59.3909 48.8334 58.4874 50.7333 57.9045C51.7732 57.6191 52.7744 57.191 53.827 56.8104C54.672 57.4883 54.6585 58.0949 53.7493 58.4516C53.4819 58.527 53.2077 58.5787 52.9298 58.6062C50.8028 59.0461 48.7864 59.8534 46.9903 60.9847C45.1047 62.3327 42.9754 63.3672 40.699 64.0411ZM43.7793 67.6088C43.7793 67.0617 43.7793 66.5147 43.7143 65.8487C43.6045 65.8196 43.4909 65.7998 43.3766 65.7893C40.5952 65.7893 37.8137 65.6941 35.045 65.706C34.3801 65.7451 33.7279 65.8941 33.1212 66.146C31.8863 66.5979 30.5871 67.1926 29.2871 67.7872C28.9629 67.9526 28.6581 68.1478 28.3772 68.3698C29.8452 68.2857 31.2976 68.0463 32.7051 67.6564C34.5377 67.2147 36.4757 67.3146 38.2426 67.9418C39.7457 68.3125 41.2803 68.5633 42.8305 68.6911C43.7016 68.7505 43.8705 68.4648 43.7793 67.6207V67.6088ZM45.9115 69.2735C49.0441 69.4997 50.1095 68.9761 49.9929 67.2164L46.0931 67.371C46.0154 68.0013 45.9631 68.6432 45.9115 69.2858V69.2735ZM45.9115 71.2838C45.9115 71.1526 45.8465 71.0336 45.8204 70.9031L33.1862 72.6393L35.4738 74.2095C37.0861 73.7337 38.8791 73.1985 40.5825 72.5443C42.2851 71.8901 44.2604 72.0802 45.9115 71.3549V71.2838ZM9.37424 79.68C12.8317 79.0375 16.2371 78.1693 19.6556 77.3846C20.1986 77.2561 20.7256 77.077 21.2284 76.8494C22.6841 76.1952 24.1399 75.5055 25.5823 74.8158C25.8886 74.6381 26.1755 74.435 26.4407 74.2095L26.2846 73.9237C14.5864 75.8384 3.14831 78.574 -7.341 84.1156C-7.19001 84.1341 -7.03708 84.1341 -6.8861 84.1156C-6.1842 83.9256 -5.4823 83.7588 -4.7934 83.5209C-0.192854 81.89 4.54545 80.6056 9.37424 79.68ZM35.0062 77.4557C35.305 77.4557 35.6173 77.3251 35.9161 77.2657C35.4977 76.9977 34.9964 76.8603 34.4862 76.8733C33.1862 76.8733 32.9524 76.552 33.1862 75.3626C33.1862 75.1131 33.3035 74.8753 33.3947 74.5301C32.8119 74.2655 32.1754 74.1158 31.5262 74.0912C30.877 74.0666 30.2292 74.1678 29.6248 74.3872C28.3249 74.8274 27.1161 75.5055 25.8423 76.0407C23.9527 76.9259 22.0134 77.7196 20.0325 78.4188C18.5248 78.9069 16.822 78.8946 15.2883 79.3232C12.5067 80.0956 9.56923 80.393 6.96964 81.7013C6.66915 81.7956 6.34857 81.8243 6.03382 81.7847C5.39184 81.7355 4.74568 81.7594 4.11012 81.8558C2.10843 82.4033 0.210802 83.0452 -1.80389 83.6399C-5.79421 84.8293 -9.7976 86.0187 -13.7359 87.2792C-16.2055 88.0878 -18.5971 89.1104 -21.0147 90.0496C-25.9999 91.8959 -31.0944 93.4838 -36.2743 94.8072C-39.0558 95.5564 -41.9023 96.1627 -44.7099 96.8408C-46.0097 97.1498 -46.5036 97.7206 -46.7765 99.2189C-45.0868 98.8976 -43.4621 98.5415 -41.8114 98.2797C-35.5464 97.2571 -29.9313 94.7115 -24.2382 92.2384C-20.8457 90.7872 -17.3233 89.5746 -13.8399 88.2901C-13.125 88.0283 -12.3322 87.9333 -11.6043 87.6831C-9.70661 86.9463 -7.74391 86.2442 -5.80721 85.6256C-5.49836 85.5012 -5.18152 85.3939 -4.8584 85.305C-3.22069 84.8648 -1.5829 84.3891 0.0678089 83.9967C2.97932 83.2475 5.89083 82.5223 8.85433 82.0581C10.3394 81.838 11.8536 81.838 13.3386 82.0581C14.2567 82.2939 15.1323 82.6501 15.9382 83.117L23.8929 86.411C25.3813 87.0187 26.7111 87.9108 27.7922 89.027C28.7283 89.9785 29.6898 90.9061 30.6386 91.8337L33.2385 94.2836C33.5247 93.8318 33.7189 93.5939 33.8624 93.3321C34.72 91.7387 35.3573 91.5719 36.9949 92.4995C37.4365 92.7497 37.9303 92.9281 38.4376 93.1537C38.9314 92.3211 38.9576 91.7148 38.2949 91.1919C37.6315 90.6683 36.8911 90.0025 36.1238 89.5623C34.9023 88.7536 33.6151 88.04 32.3809 87.1841C32.1067 87.0044 31.9094 86.7432 31.8228 86.4452C31.7361 86.1472 31.7645 85.8307 31.9042 85.5504C32.0439 85.2695 32.2852 85.0419 32.5878 84.9058C32.8904 84.7705 33.2355 84.7349 33.5635 84.8054C34.7768 84.9844 35.9751 85.2387 37.1511 85.5662C39.1914 86.2682 41.1413 87.1718 43.1689 87.9449C44.5981 88.4802 46.0669 88.9204 47.3803 89.3483C48.2768 88.837 48.433 88.3134 48.0945 87.6476L47.4707 86.4582C46.7565 85.0432 47.2369 84.3296 48.9657 84.1867L49.9668 84.0917C49.9182 83.7691 49.7703 83.4656 49.5402 83.2168C49.3101 82.9686 49.0068 82.7847 48.6668 82.6884C47.7912 82.365 46.8865 82.1101 45.9631 81.9276C43.2541 81.5926 40.516 81.501 37.7876 81.6541C36.5564 81.7615 35.3155 81.5899 34.1739 81.1545C33.8653 81.0355 33.6031 80.8325 33.4246 80.5727C33.2453 80.3137 33.1578 80.0102 33.1735 79.7032C33.1205 79.1878 33.2789 78.6724 33.6173 78.2575C33.9557 77.8419 34.4511 77.5569 35.0062 77.4557ZM58.8184 84.5914L56.4396 83.402C55.9585 84.4485 55.5558 85.3522 55.1397 86.411C56.8035 86.3516 57.2973 84.9838 58.8184 84.5791V84.5914ZM64.3163 77.4557L65.0178 78.1099C66.5389 79.5248 66.5127 79.8345 64.8624 81.1305C64.7115 81.2426 64.5897 81.3841 64.5068 81.5448C64.4231 81.7047 64.3805 81.8804 64.3813 82.0581C64.5762 83.3186 63.6797 83.8067 62.6786 84.223C62.0287 84.4841 61.3787 84.6625 60.6637 84.8764C60.7683 86.5252 60.2446 88.1562 59.1822 89.4912C58.4799 90.6806 57.4534 91.7271 57.4146 93.0587C58.2685 93.2357 59.1389 93.3396 60.0137 93.3676C61.236 93.3676 62.0936 93.6178 62.4059 94.8072L63.7051 93.8673C64.0563 94.7238 62.6002 94.8188 62.7698 95.6036C63.7313 95.8298 63.8486 95.8414 64.3424 95.3185C65.5079 94.1394 66.2363 92.6533 66.4216 91.0729C66.58 89.9068 66.8362 88.7536 67.1888 87.6237C67.3704 86.9818 67.6438 86.316 68.6053 86.3393C68.9968 86.3755 69.3651 86.5272 69.6535 86.772C69.9419 87.0167 70.1354 87.3407 70.2041 87.6955C70.2691 87.9976 70.2691 88.3086 70.2041 88.6107C70.1421 89.0803 70.1817 89.5568 70.3229 90.012C70.4634 90.4673 70.7009 90.8925 71.0229 91.263L74.7793 90.3832C74.7793 90.5138 74.7793 90.3832 74.7793 90.3832C74.4544 87.1008 73.9867 83.8661 71.3741 81.285C70.8108 80.7867 70.3214 80.2234 69.918 79.6082C68.6965 77.3012 66.6562 77.3723 64.3813 77.4912L64.3163 77.4557ZM74.7793 71.7596C74.3991 71.5306 74.1316 71.1738 74.0367 70.7664C73.9418 70.359 74.027 69.9338 74.2728 69.5831C74.3722 69.3869 74.4551 69.1846 74.5194 68.9761C74.2444 68.5468 73.8096 68.2213 73.2941 68.0598C72.7794 67.8983 72.2175 67.9113 71.7118 68.0964C70.8847 68.2524 70.0936 68.538 69.3726 68.9406C66.9363 70.2845 64.3133 71.3207 61.5737 72.0207C61.1545 72.1656 60.7078 72.2292 60.2603 72.2087C59.8135 72.1882 59.375 72.0843 58.9738 71.9018C58.657 71.8259 58.3724 71.6653 58.1557 71.4404C57.9383 71.2162 57.7993 70.9373 57.7567 70.6399C57.7134 70.3432 57.7679 70.0411 57.9129 69.7725C58.0578 69.5031 58.2872 69.2803 58.5711 69.1313C58.92 68.8695 59.2898 68.6309 59.676 68.4177C60.5471 67.8705 61.4698 67.371 62.2759 66.7764C62.7952 66.4076 63.5751 66.0747 63.2502 65.159C62.9842 65.0865 62.7093 65.0465 62.4313 65.04C61.821 65.04 61.2225 65.2066 60.6122 65.2778C60.001 65.3492 59.1822 65.3968 58.7272 64.6595C57.9084 63.2918 57.0111 63.1134 55.4908 63.8151C54.3209 64.3621 53.9832 65.3968 53.4759 66.3601C52.3642 68.7027 50.6197 70.7493 48.4068 72.3064C47.9302 72.6325 47.3863 72.8676 46.808 72.9961C44.5727 73.5075 42.324 73.9354 40.0879 74.4111C39.7846 74.5294 39.4999 74.6852 39.2437 74.8753C39.6703 74.9689 40.1156 74.9689 40.5429 74.8753C42.1028 74.7563 43.6628 74.2095 45.2093 74.7563C46.5189 75.1999 47.7838 75.7447 48.9918 76.3852C52.0721 78.0504 55.0485 79.87 58.0899 81.5113C59.1732 82.0287 60.3342 82.3972 61.5348 82.605C62.1325 82.7478 62.8348 82.5223 62.8348 81.7608C62.7474 81.2987 62.837 80.8229 63.088 80.4135C63.3391 80.004 63.7358 79.6862 64.2124 79.5132C64.2124 79.3827 64.2124 79.2514 64.2124 79.1325L62.5225 78.2999C62.0668 78.1413 61.6312 77.9383 61.2225 77.6936C60.196 76.9328 60.3649 75.969 61.5998 75.5889C62.1878 75.4214 62.8041 75.349 63.4197 75.3749C66.435 75.446 69.4503 75.5889 72.5179 75.6244C73.6348 75.6538 74.751 75.5376 75.832 75.2792C77.2358 74.9224 77.4308 74.3045 76.5993 73.2456C76.0614 72.6844 75.4502 72.1848 74.7793 71.7596ZM76.5604 71.2121L75.9881 69.726C75.4682 70.5223 75.8716 70.8436 76.5731 71.2121H76.5604ZM88.5962 78.2883C88.7224 77.5808 88.954 76.8924 89.285 76.2431C89.5763 75.8179 89.9118 75.4201 90.2861 75.0537L91.586 76.3852C92.1837 73.9121 91.2872 70.1184 89.7923 68.9645C89.8408 69.5742 89.7923 70.1874 89.6488 70.7841C88.9346 72.532 88.1285 74.245 87.2708 75.9457C87.1147 76.2786 86.6208 76.4926 86.1136 76.8965C86.0366 76.5691 85.9103 76.2526 85.737 75.9573C84.7359 74.7679 84.7359 74.6135 86.1785 74.15C87.0108 73.8882 87.1535 73.4958 86.7635 72.9011C86.3735 72.3064 86.5297 71.7117 87.2574 71.6044C88.2323 71.3788 88.3362 70.7363 88.5573 70.011C88.7635 68.5482 88.6126 67.0615 88.115 65.6585C87.8319 64.2548 87.0504 62.9759 85.8924 62.0193C85.6974 62.7567 86.4385 63.6248 85.1782 64.0054L84.5536 62.7091C82.916 62.7091 83.9298 64.6951 82.5394 64.8141C82.3654 64.6018 82.2443 64.3573 82.1853 64.0978C82.1256 63.8383 82.1285 63.57 82.1943 63.3117C82.26 63.0534 82.3863 62.8114 82.5648 62.6025C82.7434 62.3936 82.9698 62.223 83.2283 62.1026C83.9298 61.6745 84.6709 61.2939 85.3986 60.9133L85.282 60.5922C83.7871 60.6517 82.2921 60.6755 80.8107 60.7825C80.65 60.816 80.4991 60.88 80.3669 60.97C80.2346 61.0601 80.1248 61.1745 80.0434 61.3058C79.3807 62.281 78.7442 63.2918 78.0419 64.5049C78.2773 64.543 78.5081 64.6028 78.7307 64.6833C79.758 65.1233 79.9395 65.5395 79.5107 66.4671C79.4061 66.6483 79.2888 66.823 79.1596 66.9904C78.3542 68.2748 78.4058 68.7745 79.3419 69.1908C80.278 69.6071 80.6418 69.2619 81.3172 68.0845C81.6429 67.4388 82.0389 66.8252 82.5006 66.2531C83.0071 65.6704 84.0859 65.6347 84.3721 66.1698C84.8375 66.9749 85.1453 67.8483 85.282 68.7505C85.2858 69.5619 85.1319 70.3672 84.8271 71.1287C84.2286 73.0317 83.5271 74.9347 82.9033 76.8371C82.5551 77.5904 82.4998 78.4305 82.7471 79.2159C82.8988 79.261 83.0557 79.289 83.2148 79.2993C84.7621 79.1086 85.3859 79.5371 85.542 80.8687C85.545 81.1709 85.6115 81.4696 85.737 81.7492C85.867 81.9987 86.1785 82.391 86.3347 82.3671C86.5088 82.3295 86.6724 82.2598 86.8158 82.1613C86.9585 82.0629 87.0781 81.9392 87.1662 81.7963C87.876 80.717 88.3646 79.5283 88.6096 78.2883H88.5962ZM99.4754 72.1396C99.2453 71.8416 99.1414 71.478 99.1818 71.115C99.2229 70.752 99.4052 70.415 99.6965 70.1655C100.346 69.5831 100.996 69.8682 101.711 70.1655C102.426 70.4629 103.011 70.8675 103.699 71.2476C103.791 71.0753 103.841 70.8867 103.848 70.6953C103.855 70.5032 103.818 70.3125 103.74 70.1348C103.661 69.9563 103.543 69.7957 103.393 69.6617C103.244 69.5278 103.064 69.4239 102.868 69.3569C102.296 69.0288 101.701 68.7348 101.087 68.4771C99.5434 67.7237 97.9072 67.1408 96.2128 66.7407C96.2128 67.3353 96.0828 67.8229 96.0178 68.3105C96.6812 68.5721 97.5001 68.6432 97.2012 69.6303L96.5766 69.5476H95.9663C95.9663 70.9625 95.9663 71.141 96.6162 71.5572C98.0716 72.4131 97.7204 73.8164 98.0716 74.9942C98.0716 75.1487 97.8377 75.3866 97.7077 75.6005C97.4351 75.446 96.9801 75.3271 96.9539 75.1487C96.939 74.6927 96.9868 74.2375 97.0966 73.7932C96.6678 73.3407 96.2262 72.8772 95.7974 72.4014C95.1661 71.7999 94.7276 71.0521 94.5281 70.2387C94.3286 69.4252 94.3764 68.5776 94.6663 67.7872C95.0951 66.705 94.9136 66.3839 93.8475 65.7774L92.5475 65.0757C91.8587 64.6952 91.8326 64.2432 92.431 63.6605L94.419 64.6833L96.8239 63.9221L97.7727 62.3167L98.9688 63.3632C100.268 63.0777 101.568 63.054 101.958 61.6626C101.958 61.5198 102.699 61.389 102.946 61.496C103.193 61.6031 103.531 62.0669 103.804 62.3523C104.908 62.3523 105.974 62.3523 106.482 61.1631L107.859 62.0312C107.378 62.4713 107.066 62.9708 106.637 63.0896C105.519 63.387 104.324 63.4583 103.206 63.7318C101.198 64.0518 99.2587 64.662 97.4605 65.5395C98.7499 66.5117 100.323 67.1156 101.984 67.2758C102.126 66.7796 102.457 66.3458 102.917 66.0517C103.376 65.7577 103.934 65.6225 104.493 65.6704C105.649 65.6704 106.819 65.6704 107.976 65.6704C109.476 65.5816 110.969 65.4148 112.447 65.1709C112.682 65.1148 112.897 65.0076 113.076 64.8585C113.255 64.7093 113.392 64.5227 113.474 64.3146C113.474 64.0173 113.045 63.5773 112.695 63.3037C112.278 63.0581 111.844 62.8395 111.395 62.6496C110.797 62.3048 110.095 62.0312 109.705 61.4604C109.315 60.8895 109.548 60.2712 109.483 59.51C109.029 59.3197 108.444 58.8678 107.924 58.9154C106.083 59.0545 104.257 59.333 102.465 59.7479C100.645 60.2117 98.9292 61.0085 97.1489 61.6031C94.6857 62.359 92.0851 62.666 89.4934 62.5069C90.0926 64.475 90.8531 66.3991 91.7676 68.2629C93.3215 70.8204 94.4272 73.5854 95.0428 76.457C95.208 77.2684 95.6995 77.9943 96.4212 78.4906C96.6065 78.6465 96.8247 78.7661 97.063 78.842C97.3013 78.9172 97.5538 78.9472 97.8049 78.9295C98.0566 78.9117 98.3009 78.8461 98.5236 78.7381C98.7462 78.6301 98.9419 78.481 99.0988 78.2999C100.32 77.1112 100.71 77.1823 101.919 78.3717L104.077 80.4887C104.336 79.5946 104.315 78.6519 104.016 77.7688C103.717 76.8856 103.153 76.0968 102.387 75.4932C101.789 74.9463 101.23 74.3756 100.698 73.7932C100.237 73.2764 99.828 72.7227 99.4754 72.1396ZM115.58 80.4647C115.669 79.9138 115.7 79.356 115.671 78.7996C115.749 76.6231 116.372 76.1952 118.7 76.6826C118.96 76.7769 119.238 76.8214 119.518 76.8138C119.925 76.7154 120.32 76.5842 120.701 76.4215C119.47 74.2026 117.421 72.4548 114.917 71.4855C111.253 69.9816 107.484 68.702 103.634 67.6564C103.518 67.6564 103.349 67.7396 103.206 67.7872C103.063 67.8348 103.206 67.9299 103.206 67.9537C103.518 68.2391 103.829 68.5243 104.154 68.7984C106.287 70.5702 108.561 72.0802 111.602 72.1875C111.901 72.1875 112.473 72.4493 112.461 72.532C112.291 73.4719 113.279 73.7214 113.643 74.3872C113.769 74.7741 113.843 75.174 113.864 75.5766L111.265 74.1732C111.265 74.7679 111.368 75.1842 111.433 75.7311C109.731 75.541 109.9 74.245 109.51 73.4241L106.182 71.7234C106.078 72.0569 105.962 72.3775 105.818 72.8177L104.519 71.9852L104.311 72.2347C104.699 72.6708 105.135 73.0693 105.611 73.4241C107 74.2963 108.177 75.4221 109.068 76.7304C109.77 77.658 110.368 78.6096 111.2 79.4893C111.769 80.1865 112.443 80.8072 113.201 81.3329C113.401 81.4709 113.637 81.5598 113.885 81.5899C114.133 81.6206 114.385 81.5919 114.618 81.5072C114.851 81.4224 115.055 81.2836 115.213 81.1052C115.37 80.9268 115.474 80.7142 115.515 80.4887L115.58 80.4647ZM59.1822 74.1138C60.3387 73.9948 61.561 73.4596 62.4186 74.245C64.0824 73.9237 65.5512 73.7214 66.9811 73.353C68.4103 72.9845 69.7753 72.4848 70.9841 72.0925C70.8414 71.4739 70.698 70.9031 70.4903 70.0466C69.8791 70.4273 69.2942 70.6297 69.0215 71.022C68.754 71.3741 68.4089 71.67 68.0077 71.8915C67.6072 72.113 67.1597 72.2538 66.695 72.3064C65.8239 72.4965 65.0051 72.8417 64.0951 72.3064C63.939 72.223 63.6663 72.3064 63.4586 72.3064C61.1575 72.6749 58.8699 73.1151 56.5696 73.4241C55.5984 73.4459 54.6272 73.3783 53.6709 73.2224C54.5547 72.3775 55.2181 71.8307 55.7508 71.2004C56.2835 70.5702 57.1934 70.0944 56.8296 68.8216L54.7108 70.7131C54.4508 70.2728 54.217 69.9044 53.7882 69.214C53.5797 69.8565 53.3332 70.1894 53.4109 70.4034C53.585 70.9229 53.5678 71.4807 53.3608 71.9899C53.1539 72.4992 52.7699 72.9326 52.2671 73.2224C51.1883 73.1506 50.0968 73.044 48.9918 73.0317C48.814 73.0454 48.6422 73.1007 48.4942 73.1923C48.3463 73.2839 48.2268 73.409 48.1468 73.5553C48.0691 73.7809 48.3545 74.1972 48.6145 74.3872C49.526 74.9785 50.6339 75.2608 51.7471 75.1842C53.192 75.1958 54.5921 75.6477 55.7247 76.4686C56.7773 77.2417 57.9346 77.8959 59.0388 78.6096L59.3122 78.3594C58.7795 76.6231 56.8557 75.9813 55.7635 74.6845C56.8946 74.5424 58.025 74.245 59.1822 74.1138ZM110.927 41.6237C111.252 41.6237 111.772 41.6237 111.888 41.7783C112.772 43.0746 114.488 42.4324 115.632 43.1936C115.762 43.2767 116.177 43.0033 116.464 42.8843C116.358 42.6261 116.223 42.379 116.061 42.147C115.9 42.0031 115.704 41.897 115.489 41.8378L110.692 40.2085C111.037 39.8482 111.425 39.525 111.85 39.2452C113.292 38.4841 114.748 37.6992 116.269 37.0689C119.219 35.8797 122.221 34.6904 125.211 33.5844C125.796 33.3703 126.342 33.2039 126.511 32.3951C125.081 31.8838 124.041 33.0136 122.611 33.1325C122.859 32.8114 122.963 32.6449 123.093 32.5022C123.43 32.1573 123.899 31.741 123.379 31.3129C122.859 30.8848 122.3 31.3962 122.079 31.7886C121.69 32.4688 121.351 33.1721 121.065 33.8936L116.372 35.3564C116.152 34.9045 116.074 34.3693 115.787 34.2385C115.19 33.9768 114.722 34.3099 114.488 34.8807C114.358 35.2137 114.241 35.5585 114.085 35.8797C113.929 36.2007 113.786 36.5932 113.5 36.7716C112.526 37.39 111.498 37.9608 110.16 38.6744C110.563 37.4257 110.836 36.4981 111.161 35.5942C111.486 34.6904 111.85 33.9649 112.11 33.1325C112.305 32.526 112.252 31.9432 111.382 31.7291C110.836 33.0611 110.316 34.2861 109.822 35.5347C109.654 35.8582 109.54 36.203 109.483 36.5575C109.349 37.5297 108.896 38.4418 108.184 39.1739C107.846 39.5901 107.482 39.9825 107.183 40.3631C106.677 41.1242 107.027 41.6594 108.015 41.6356C109.003 41.6118 109.991 41.6237 110.927 41.6237ZM124.73 55.1574C124.667 55.5027 124.49 55.822 124.224 56.0731C123.483 56.5576 122.679 56.957 121.831 57.2623C121.558 57.3408 121.32 57.5001 121.155 57.7152C120.991 57.9303 120.909 58.1893 120.922 58.4516C120.922 59.0462 121.455 59.1652 121.988 59.177C123.492 59.3348 124.909 59.9024 126.056 60.8063C127.018 61.4128 127.993 61.9955 128.994 62.5902C129.288 62.8183 129.658 62.9503 130.044 62.9654C130.43 62.9805 130.81 62.8777 131.125 62.6734L129.37 61.2939C129.695 60.9728 129.955 60.6993 130.215 60.4257C129.885 60.208 129.533 60.0208 129.163 59.8668C128.782 59.7693 128.386 59.737 127.993 59.7716C127.308 59.7678 126.631 59.6325 126.006 59.3743C125.381 59.1163 124.823 58.7412 124.366 58.2732L131.996 57.9878C132.302 57.7806 132.652 57.6347 133.023 57.5596C134.574 57.4289 136.133 57.3932 137.689 57.4526C141.082 57.6786 144.461 58.0235 147.854 58.3089C148.208 58.271 148.557 58.1951 148.894 58.083C148.165 57.3337 147.204 56.8937 147.594 55.6331C146.706 55.6344 145.826 55.7794 144.994 56.0612C143.698 56.6652 142.211 56.8295 140.796 56.525C137.572 56.1504 134.31 56.1504 131.087 56.525C129.539 56.7629 127.967 56.8699 126.407 57.0007C125.964 56.9629 125.527 56.875 125.108 56.7391C125.588 56.4417 125.809 56.3229 126.017 56.1682C127.986 54.4934 130.238 53.12 132.685 52.101C133.075 51.9702 133.309 51.5182 133.673 51.1615C133.301 50.9121 132.843 50.795 132.383 50.8322C131.924 50.8694 131.495 51.0583 131.177 51.3637C130.856 51.6327 130.437 51.782 130.001 51.782C129.565 51.782 129.146 51.6327 128.824 51.3637C128.824 51.3637 128.63 51.4351 128.422 51.5182C128.422 51.9583 128.513 52.434 128.565 52.874L126.433 54.3011L125.043 53.2189C124.899 54.2416 124.86 54.7055 124.73 55.1098V55.1574ZM65.5901 91.5719L65.1874 92.3929L65.8889 91.7743L65.5901 91.5719ZM93.9902 20.907C93.6219 20.3143 93.4657 19.6313 93.5427 18.9532C93.6196 18.2751 93.9259 17.636 94.419 17.1252C94.8195 16.4157 95.0959 15.6533 95.2378 14.8656C95.3118 14.5722 95.3596 14.274 95.3813 13.9737C93.5487 14.1045 93.9513 16.1619 92.366 16.5662C91.7414 14.9251 91.1438 13.3196 90.5072 11.7379C90.381 11.3089 90.1187 10.9239 89.7534 10.6319C88.9017 10.1181 88.3048 9.31981 88.0896 8.40801C87.7646 7.45656 87.3747 6.51709 87.0108 5.56569H86.4774C86.4774 6.0176 86.1659 6.52897 86.3085 6.9214C86.6784 8.62757 87.4262 10.2464 88.505 11.6784C89.0825 12.3077 89.5592 13.0084 89.9222 13.7596C90.4333 14.5813 90.694 15.5138 90.6761 16.4592L87.2574 15.2699C87.0235 14.7348 87.6473 13.8072 86.4124 13.7834C86.1397 14.2353 85.867 14.6515 85.6197 15.0559C84.3541 14.5758 82.9989 14.3254 81.6295 14.3186C81.7595 15.2937 82.4483 15.5792 83.2148 15.7694C84.7882 16.15 86.3735 16.4473 87.92 16.9587C89.805 17.5295 91.5726 18.2907 92.1187 20.3243C92.2278 20.7213 92.4474 21.086 92.7552 21.3827C92.8882 21.4626 93.0384 21.5147 93.196 21.5353C93.3529 21.5558 93.5135 21.5443 93.6652 21.5016C93.7713 21.4311 93.8565 21.3377 93.9132 21.2298C93.9693 21.1219 93.9962 21.0028 93.9902 20.8832V20.907ZM31.2109 78.5501C31.6659 78.2049 31.8863 77.8604 31.5097 77.3607C31.4253 77.3204 31.3319 77.2985 31.2363 77.2985C31.1414 77.2985 31.048 77.3204 30.9636 77.3607C30.5871 77.8125 30.6648 78.2049 31.2109 78.5501ZM63.2763 34.6309C63.0686 35.4515 62.6263 36.3672 63.9524 37.0689C64.2513 35.6299 64.5374 34.3336 64.8362 32.9541C63.2898 32.9065 63.4451 33.9174 63.2763 34.6309ZM54.9185 42.0638C55.6073 42.8011 56.4008 43.4552 57.0761 44.2044C58.5584 45.8456 58.3761 47.2132 56.6862 48.5808C56.4239 48.7715 56.1878 48.9912 55.9846 49.2349C55.886 49.3356 55.8158 49.4565 55.7792 49.5874C55.7418 49.7182 55.7403 49.8552 55.7732 49.9869C55.8068 50.1185 55.8733 50.241 55.9689 50.344C56.0646 50.447 56.1856 50.5275 56.3223 50.5788C57.4893 49.9419 58.5382 49.139 59.4288 48.2002C59.7724 47.8167 60.1856 47.4908 60.651 47.237C61.8598 46.7256 63.1202 46.3094 64.3686 45.8575C64.8751 45.6791 65.5901 45.6077 65.3174 44.8823C65.0439 44.1568 64.4463 44.3827 63.8874 44.5493C63.5692 44.6405 63.2569 44.7477 62.9513 44.8703C62.3536 45.1082 61.7687 45.3699 61.106 45.6434C61.0275 45.0487 60.976 44.6325 60.8848 44.026C60.456 44.3352 60.2222 44.5374 59.9487 44.692C59.7201 44.8193 59.481 44.9306 59.2338 45.025L54.8281 39.9468C54.6772 40.089 54.5592 40.2577 54.4822 40.4427C54.4045 40.6277 54.3687 40.8252 54.3776 41.0231C54.3858 41.2211 54.4381 41.4154 54.5315 41.5943C54.6242 41.7731 54.7564 41.9329 54.9185 42.0638ZM62.4059 43.1341C62.9775 41.7545 63.4197 40.6842 63.8224 39.5663C63.8224 39.4355 63.6536 39.2215 63.4974 38.9241C62.1975 39.8042 62.3013 41.041 61.8598 42.0519C61.7814 42.2659 62.0936 42.5632 62.4059 43.1341ZM31.4447 64.0292C32.0424 63.3037 31.5359 62.7567 31.1975 62.0788L27.2984 62.2096C27.9999 61.4247 28.5983 60.7588 29.2348 60.0333C29.9647 59.1488 30.6334 58.2233 31.2363 57.2623C31.5038 56.8873 31.6368 56.4458 31.6188 55.9985C31.6001 55.5513 31.4298 55.1203 31.1325 54.765C30.0791 57.6601 28.026 60.1641 25.2834 61.9004C24.7986 60.879 24.399 59.8255 24.0879 58.7489C23.8929 57.7737 24.3478 56.6915 23.581 55.6093C23.373 55.8267 23.1819 56.0572 23.0091 56.2991C22.9007 56.4779 22.8094 56.6648 22.7361 56.858C22.1772 57.0007 21.5663 56.3704 21.3323 57.1434C21.0984 57.9164 21.7223 57.9402 22.1382 58.1424C22.4392 58.2785 22.758 58.3784 23.087 58.4397C23.282 59.3554 23.451 60.0571 23.568 60.8182C23.8019 62.3523 23.9319 63.8865 22.3982 65.04C22.2651 65.1923 22.1638 65.3656 22.0992 65.5514C22.9051 66.0509 23.399 65.5514 23.7239 65.1233C24.5722 64.342 25.6958 63.8616 26.8957 63.7675C27.2984 64.2075 27.6099 64.5762 28.1045 65.1114L28.5072 63.6724C29.7033 62.8637 30.4571 64.0768 31.4447 64.0292ZM31.8863 50.4955C31.2886 51.4925 31.0869 52.6481 31.3148 53.7659C32.5624 52.327 32.6797 51.7204 31.8863 50.4955ZM48.0041 49.8414C48.5764 48.6172 48.6907 47.2543 48.3291 45.9645L49.9406 45.1915L48.0945 44.133C48.0945 43.6811 48.0945 43.1936 48.0945 42.7178L49.3945 42.48C49.8495 41.2907 48.4068 41.5405 48.0945 41.0766V38.2225C46.613 39.0311 47.328 40.3156 46.6519 41.4572C46.1738 39.6264 45.0165 38.004 43.3766 36.8667C43.2078 36.2959 44.0655 35.5823 43.0651 35.0471L42.1678 35.3802C41.2967 34.9639 40.5302 34.5477 39.7241 34.1909C38.9187 33.8342 38.6064 33.5249 38.7364 32.7757C38.8141 32.3357 38.7364 31.9313 38.0349 31.8957L37.2549 33.1444L35.1362 32.4665C35.1362 31.5151 35.5 30.4924 34.3435 29.8383C33.5112 30.6945 34.6423 31.4675 34.3435 32.1097L33.3162 32.6806C33.5471 32.9871 33.8175 33.2667 34.1223 33.513C34.4817 33.6616 34.856 33.7772 35.24 33.8579C37.3065 34.5834 39.5814 34.9521 41.219 36.4981C41.8817 37.1165 42.519 37.7824 43.1689 38.377C44.7595 39.9006 45.9153 41.759 46.5354 43.7881C46.7139 44.4426 46.8529 45.1056 46.9507 45.7742C45.4693 45.3342 44.6377 44.026 43.0516 44.3828C43.077 44.7055 43.0031 45.0284 42.838 45.3144C42.6721 45.6004 42.4218 45.8381 42.1155 46.0001C41.934 46.0953 41.9601 46.5591 41.8428 47.0467L44.9627 46.2261L47.5619 47.6294C47.3669 48.1527 47.1853 48.6284 46.9903 49.1636C46.2492 49.1636 45.5992 49.1636 44.9366 49.1636C44.2739 49.1636 43.8705 49.5798 44.2216 50.2696L46.7169 50.329C46.3815 50.9231 46.2492 51.5959 46.3374 52.2598C46.4248 52.9238 46.7296 53.5481 47.2107 54.0514C47.3997 53.5497 47.5514 53.0373 47.6657 52.5173C47.6717 51.618 47.7763 50.7215 47.978 49.8414H48.0041ZM30.3009 78.8351C29.2871 78.6212 29.2737 78.6212 28.7799 77.8481C28.5199 77.4441 28.2599 77.1707 27.636 77.5986L28.091 79.4777C26.7156 80.0074 25.2991 80.4449 23.8539 80.786C22.9701 80.9521 21.8393 81.0711 21.2543 80.3103C19.9546 80.3103 18.7847 80.4887 17.6409 80.4647C16.874 80.4647 16.6661 80.7382 16.6531 81.4279L18.0179 81.5707C18.9648 81.5742 19.9108 81.6254 20.8514 81.7252C21.6684 81.8319 22.4596 82.065 23.191 82.4149C23.9777 82.8435 24.7142 83.346 25.3873 83.9133C26.0171 84.3316 26.5625 84.847 26.9995 85.4356C27.6749 86.625 29.001 87.0652 30.0671 88.1473C30.2374 87.8287 30.2748 87.4644 30.1717 87.1226C30.0693 86.7808 29.8325 86.4855 29.5083 86.2921C28.9666 85.8649 28.4586 85.4042 27.9872 84.9127C27.5457 84.4725 27.1684 83.9728 26.6872 83.5209C26.2069 83.0691 26.0507 82.9385 25.7519 82.6644L40.2314 84.2462L40.9852 86.1732C42.2851 85.9948 41.3363 85.1027 41.8817 84.5319C42.2089 84.5408 42.5347 84.5723 42.8567 84.6269C43.2175 84.7514 43.5866 84.8553 43.9616 84.9359C44.2343 84.9359 44.5077 84.7459 44.7804 84.6386C44.643 84.4178 44.4861 84.2072 44.3127 84.0083C44.1043 83.8183 43.7143 83.711 43.6366 83.497C43.1816 82.3671 42.9216 82.1771 41.804 82.7007C41.1047 83.0055 40.3188 83.1053 39.5552 82.9857C36.28 82.6528 33.0562 82.3794 29.716 82.0342C28.8396 81.8872 27.9722 81.7006 27.1161 81.4757C27.9872 80.1674 30.0537 80.4647 30.3009 78.8351ZM65.0701 92.4763C65.0701 92.4763 65.0701 92.3929 65.0701 92.345V92.4763ZM116.372 22.3222C117.687 22.311 118.995 22.1634 120.272 21.8822C120.506 21.8822 120.662 21.4659 120.844 21.2519C120.631 21.0618 120.385 20.9052 120.116 20.7881C119.784 20.74 119.447 20.74 119.115 20.7881L115.502 21.0259C115.502 20.3837 116.529 20.1221 115.801 19.2777C115.138 19.6464 114.501 20.0389 113.773 20.4075C113.448 20.574 113.097 20.8594 112.772 20.8475C111.472 20.8475 110.173 20.6929 108.561 20.5859C109.601 19.7772 110.42 19.242 111.161 18.5998C111.559 18.0741 112.092 17.6455 112.712 17.3511C113.333 17.0568 114.023 16.9057 114.722 16.9111C115.021 16.9111 115.346 16.6019 115.657 16.4354L115.164 15.7099C115.073 15.5911 114.969 15.4959 114.852 15.3413C115.671 14.4256 116.516 13.5455 117.282 12.6298C118.465 11.2146 119.648 9.7994 120.74 8.32475C120.956 7.99254 121.087 7.61986 121.123 7.23468C121.159 6.84949 121.099 6.4618 120.948 6.10085L119.648 7.55171L118.881 6.862C118.724 6.90185 118.579 6.97574 118.458 7.07746C118.337 7.1791 118.245 7.30563 118.189 7.44651C118.133 7.58733 118.115 7.73839 118.136 7.887C118.157 8.03567 118.216 8.17758 118.31 8.30096C118.463 8.60501 118.508 8.94556 118.438 9.27436C118.368 9.60315 118.186 9.90337 117.92 10.1324C117.515 10.6215 117.081 11.09 116.62 11.5357C115.515 12.606 114.397 13.6764 113.266 14.7229C111.966 15.9954 110.523 17.2679 109.12 18.5047C108.611 18.8498 108.072 19.1561 107.508 19.4205C107.599 18.0766 107.677 17.0419 107.755 16.0549L108.821 15.0916L107.274 14.1045C107.001 13.165 106.403 12.1422 107.924 11.5119C108.031 11.4143 108.107 11.2919 108.143 11.1578C108.18 11.0237 108.176 10.883 108.132 10.7508C108.033 10.6443 107.906 10.5632 107.762 10.5152C107.619 10.4673 107.464 10.4543 107.313 10.4773C106.782 10.6694 106.273 10.9084 105.792 11.1909C105.792 11.8568 105.792 12.3801 105.792 12.8915C105.909 15.0202 106.052 17.1371 106.143 19.2658C106.225 19.671 106.173 20.0894 105.992 20.4669C105.812 20.8442 105.511 21.1633 105.129 21.3827C104.961 21.4659 104.883 21.6919 104.766 21.8346C105.572 22.6314 105.598 22.6314 106.39 22.2033C106.793 21.9892 107.248 21.6562 107.69 21.68C110.641 21.8584 113.513 22.1914 116.372 22.3222ZM121.325 8.78855C121.702 8.7152 122.066 8.59093 122.404 8.4199C122.65 8.24149 122.729 7.88474 122.885 7.61118C122.534 7.53982 122.131 7.3258 121.858 7.42095C121.705 7.45519 121.564 7.52416 121.448 7.62144C121.332 7.71877 121.245 7.8412 121.194 7.9775C121.144 8.11387 121.131 8.25961 121.159 8.40138C121.187 8.54315 121.253 8.67631 121.351 8.78855H121.325Z" fill="#101A24"/>
</g>
</svg>
