<svg width="132" height="188" viewBox="0 0 132 188" fill="none" xmlns="http://www.w3.org/2000/svg">
<g opacity="0.1">
<path d="M130.589 94.5118C129.734 95.3034 128.834 96.0422 127.891 96.7239C124.113 99.3514 120.324 101.917 116.483 104.514C115.435 105.192 114.308 105.736 113.127 106.134C111.194 106.86 109.36 107.83 107.67 109.021C105.168 110.693 102.697 112.407 100.185 114.069C98.6356 115.015 96.9123 115.637 95.1193 115.897C92.5222 116.483 89.972 117.264 87.4901 118.234C86.0385 118.753 84.5558 119.2 83.0939 119.698C80.534 120.524 78.159 121.847 76.1026 123.593C73.7759 125.67 72.2415 128.225 70.4602 130.645C70.3988 130.739 70.4602 130.884 70.3575 131.279C70.9133 130.832 71.305 130.531 71.6857 130.24C73.7035 128.36 75.9405 126.735 78.3473 125.4C80.0768 124.528 81.8581 123.78 83.598 122.939C84.9882 122.274 86.3474 121.537 87.7163 120.861C89.8052 119.66 92.1002 118.872 94.4807 118.535C96.0854 118.243 97.666 117.826 99.2066 117.289C102.533 116.468 105.858 115.627 109.214 114.91C110.238 114.748 111.28 114.748 112.303 114.91C112.756 114.91 113.168 115.367 113.693 115.658C113.446 116.063 113.343 116.426 113.096 116.613C110.893 118.524 108.474 120.166 105.889 121.505C104.066 122.367 102.388 123.521 100.618 124.507C99.4949 125.13 98.3211 125.67 97.1991 126.283C95.7268 127.073 94.2752 127.914 92.8132 128.724C91.9836 129.032 91.2113 129.478 90.5272 130.043C89.9389 130.661 89.2404 131.161 88.468 131.518C87.6584 131.973 86.9481 132.588 86.3805 133.327C85.8123 134.066 85.3985 134.913 85.1634 135.818C85.0027 136.352 84.7855 136.867 84.5145 137.354C83.4483 139.285 82.178 141.092 80.7257 142.745C79.6961 143.919 78.8721 145.238 77.9046 146.442C77.2384 147.291 76.5164 148.093 75.7426 148.842C73.8579 150.607 71.9125 152.301 70.0382 154.035C68.7341 155.281 67.468 156.569 66.2391 157.898C64.8234 159.524 63.2469 161 61.5339 162.303C59.4127 163.839 57.3535 165.48 55.1709 166.945C53.962 167.761 52.6538 168.418 51.2794 168.897C49.8119 169.425 48.6003 170.5 47.892 171.899C46.6356 174.07 45.3074 176.199 44.1337 178.411C43.1041 180.488 42.1876 182.566 41.1477 184.643C40.7084 185.432 40.2091 186.185 39.6553 186.897C39.5112 187.118 39.2981 187.284 39.0499 187.368C38.8023 187.453 38.5326 187.452 38.2858 187.364C37.8741 187.25 37.452 187.146 37.0396 187.021C35.2584 186.482 34.9805 184.944 35.7321 183.387C37.2872 180.271 39.0478 177.32 40.6643 174.267C41.1746 173.222 41.6318 172.151 42.0331 171.058C42.1055 170.902 42.1055 170.705 42.1979 170.58C43.3613 168.897 43.6806 166.934 44.2571 165.023C44.5509 163.725 44.5509 162.376 44.2571 161.077C43.9481 159.114 43.6399 157.151 43.4441 155.178C43.1172 152.659 42.9386 150.125 42.9089 147.585C42.9489 142.466 43.7964 137.386 45.4205 132.536C46.2032 130.344 47.2948 128.267 48.201 126.117C48.8906 124.486 49.5188 122.824 50.1464 121.162C50.7746 119.501 51.3822 117.829 52.0414 116.188C52.1856 115.845 52.5455 115.596 52.9676 115.149C53.1427 115.531 53.2745 115.932 53.3593 116.343C53.4207 117.673 53.4517 119.013 53.4517 120.342C53.4517 123.188 53.5137 126.044 53.3489 128.88C53.1324 132.671 52.7 136.451 52.4014 140.242C52.3193 141.228 52.4014 142.226 52.4014 143.223C52.3766 143.999 52.2621 144.769 52.0614 145.519C51.5063 147.386 51.1236 149.302 50.9187 151.241C50.6657 152.989 50.3216 154.722 49.8892 156.434C49.8892 156.642 49.8278 156.849 49.7761 157.234C50.3491 156.889 50.7698 156.335 50.9498 155.686C51.527 153.455 52.609 151.39 54.1103 149.652C54.7233 148.824 55.1261 147.858 55.284 146.838C55.6233 145.445 56.0563 144.078 56.5818 142.745C57.4362 140.533 58.3831 138.352 59.3099 136.17C59.6809 135.298 60.134 134.467 60.5147 133.595C61.2525 132.071 61.6394 130.399 61.647 128.703C61.6677 127.134 61.9932 125.585 62.6049 124.143C64.1696 119.989 65.6936 115.897 67.4542 111.825C68.2983 109.811 69.5134 107.92 70.4602 105.957C71.4077 103.994 72.3959 101.896 73.4773 99.9226C74.7234 97.6589 76.0716 95.4467 77.4308 93.2443C78.4604 91.51 79.6134 89.8376 80.7361 88.1451C80.8912 87.9649 81.0671 87.8042 81.2609 87.6672C81.3898 87.7347 81.5036 87.8279 81.5967 87.9406C81.6898 88.0526 81.7602 88.1827 81.8036 88.3232C81.8464 88.463 81.8615 88.6098 81.8477 88.7559C81.8346 88.902 81.7926 89.0439 81.7243 89.1733C81.3533 90.3677 81.0036 91.5726 80.643 92.7872C79.6134 96.1945 78.6769 99.6116 77.6577 103.008C76.2157 107.775 74.7234 112.522 73.2607 117.278C72.8015 118.734 72.4201 120.216 72.118 121.713C72.6228 121.121 73.1476 120.55 73.6214 119.916C75.2378 117.694 76.7826 115.419 78.4294 113.217C79.8093 111.358 81.3126 109.582 82.7332 107.744C83.1545 107.119 83.5001 106.446 83.7628 105.739C84.7586 103.246 85.513 100.661 86.0178 98.022C86.3523 96.1438 86.3523 94.2196 86.0178 92.3406C85.7909 90.5131 85.3586 88.6954 85.2558 86.8568C85.0462 84.6564 85.1365 82.4373 85.5234 80.2619C85.5234 80.0122 85.6165 79.7527 85.6468 79.4932C85.8323 77.8731 85.9151 76.232 86.213 74.6223C86.5695 72.6953 86.4778 70.7113 85.9454 68.8268C85.4765 66.7982 85.4979 64.6862 86.0075 62.6674C86.0247 62.5373 86.0626 62.4114 86.1205 62.2939C87.1501 60.3412 87.737 58.1909 88.9831 56.353C89.2507 55.9683 89.4362 55.5321 89.6727 55.1272C89.9093 54.7224 90.3217 54.5561 90.7023 54.9923C90.9672 55.3088 91.1568 55.6817 91.2581 56.0831C91.5464 57.3394 91.8243 58.6069 92.0098 59.8841C92.1953 61.1613 92.2471 62.5429 92.3705 63.8619C92.3705 64.4643 92.5657 65.0563 92.5864 65.6588C92.707 66.6939 92.707 67.7395 92.5864 68.7746C92.3126 70.3558 92.274 71.9697 92.4733 73.5628C92.6381 75.1099 92.8132 76.6786 93.0601 78.1847C93.1836 78.9945 93.5028 79.7632 93.6677 80.5736C93.9042 81.7054 94.0794 82.8581 94.2855 84.0115C94.2855 84.1667 94.3469 84.3225 94.409 84.6759C95.0883 83.7931 95.6455 82.822 96.0668 81.7882C97.0343 79.8564 97.9715 77.9148 98.9908 76.0031C99.9072 74.2897 100.906 72.6174 101.863 70.9353C101.986 70.6577 102.142 70.3962 102.326 70.1562C103.373 68.7885 104.284 67.3207 105.045 65.7728C106.363 63.6024 107.712 61.4521 109.049 59.2921C110.388 57.1314 111.644 55.1377 112.942 53.0604C114.527 53.0604 114.877 53.507 114.476 54.9923C114.218 55.9578 113.858 56.8928 113.621 57.8591C113.219 59.5412 112.787 61.2135 112.509 62.9269C112.15 65.3742 111.38 67.7409 110.233 69.9273C108.998 72.2021 108 74.6118 106.856 76.9381C105.992 78.6828 105.045 80.3865 104.159 82.1312C103.717 83.014 103.315 83.9281 102.913 84.8317C102.201 86.3364 101.598 87.8912 101.111 89.4849C101.445 89.2742 101.765 89.0418 102.069 88.7886C103.984 86.9917 105.868 85.1747 107.773 83.3778C108.463 82.7232 109.214 82.1416 109.832 81.4668C111.511 79.7945 113.158 78.1012 114.795 76.3983C117.739 73.3652 120.653 70.312 123.619 67.2998C124.065 66.9735 124.558 66.7175 125.081 66.5415C125.372 67.0188 125.552 67.5558 125.61 68.1137C125.667 68.6709 125.599 69.2344 125.41 69.761C124.706 72.7607 123.293 75.5433 121.291 77.8731C119.644 79.9503 118.131 82.1729 116.576 84.3434C114.414 87.3451 112.581 90.575 109.935 93.2241C109.627 93.5664 109.282 93.8731 108.905 94.1375C106.556 95.8029 104.377 97.6992 102.399 99.798C101.922 100.229 101.38 100.581 100.792 100.837C99.0039 101.646 97.3316 102.694 95.8192 103.952C94.5352 104.956 93.198 105.888 91.814 106.746C89.7148 107.937 87.9039 109.583 86.5116 111.566C86.3778 111.784 86.1309 111.95 86.0792 112.334C86.8308 111.888 87.6032 111.462 88.3342 110.963C90.9906 109.156 93.6401 107.335 96.2827 105.5C97.6005 104.694 98.8383 103.763 99.979 102.717C100.723 101.985 101.642 101.459 102.646 101.19C104.272 100.67 105.734 99.7361 107.361 99.1747C109.811 98.2565 112.314 97.4899 114.857 96.8798C117.127 96.4276 119.324 95.6582 121.384 94.5945C122.853 93.8836 124.407 93.3667 126.007 93.0578C127.037 92.8185 128.066 92.5382 129.096 92.3928C129.598 92.3455 130.104 92.4505 130.547 92.694C130.711 92.7803 130.848 92.909 130.945 93.0662C131.042 93.2241 131.096 93.405 131.1 93.5907C131.104 93.7764 131.059 93.9594 130.969 94.1215C130.879 94.2836 130.748 94.4178 130.589 94.5118ZM57.1169 108.834C58.6699 107.406 60.0712 105.82 61.2974 104.098C61.8222 103.309 62.327 102.488 62.8931 101.751C64.4275 99.7869 65.8047 97.7034 67.0115 95.5191C69.1444 91.9504 70.7892 88.1075 71.9022 84.0943C72.0249 83.6414 72.0567 83.1677 71.9946 82.7023C71.8863 82.3552 71.7153 82.0317 71.4898 81.7472C71.1816 81.9343 70.7795 82.038 70.5843 82.3079C69.2148 84.136 67.8038 85.9434 66.5894 87.8752C66.0219 88.8436 65.3371 89.7368 64.551 90.534C63.1297 91.8321 62.1311 93.4731 60.4326 94.5118C60.3291 94.5737 60.2678 94.7093 60.185 94.8025C59.063 96.1632 57.9817 97.565 56.7873 98.8638C55.1502 100.629 53.4103 102.301 51.7325 104.057C50.9187 104.887 50.085 105.708 49.354 106.601C48.4486 107.808 47.4128 108.908 46.2653 109.883C45.4288 110.561 44.6343 111.289 43.8868 112.065C42.6103 113.331 41.3538 114.629 40.0981 115.939C39.3105 116.73 38.5644 117.562 37.8637 118.431C36.7307 119.885 35.6811 121.391 34.5791 122.866C34.5791 122.866 34.4247 122.866 34.2495 122.866C34.2612 122.614 34.2957 122.364 34.3529 122.118C35.1046 119.677 35.8763 117.237 36.6383 114.848C37.4693 111.92 39.1381 109.304 41.4366 107.328C43.0117 105.999 44.4737 104.524 46.0694 103.174C47.6652 101.824 49.5699 100.588 51.2173 99.165C52.8648 97.7417 54.5943 95.9865 56.2625 94.3768C57.0962 93.5768 57.879 92.7044 58.7645 91.967C60.8547 90.2182 62.7904 88.2891 64.551 86.2028C65.062 85.551 65.5164 84.8561 65.9095 84.1256C66.435 83.2428 66.857 82.2974 67.3818 81.4042C68.71 79.1294 70.0589 76.8658 71.4077 74.6118C71.8091 73.9468 72.2518 73.3033 72.6125 72.6174C73.4462 71.0077 74.2496 69.377 75.0523 67.7569C75.8557 66.1367 76.6384 64.5784 77.3894 62.9687C77.6473 62.408 77.9563 61.7847 77.5136 61.1718C76.2674 61.0473 76.2571 61.0368 75.6082 61.8473C75.2275 62.3147 74.8978 62.8233 74.5785 63.2907C73.549 64.5784 72.5918 65.8876 71.5519 67.144C70.7243 68.1916 69.8265 69.1802 68.8645 70.104C66.6715 72.1089 64.3654 73.9781 62.1725 75.9725C59.5982 78.3197 57.0859 80.7399 54.5633 83.1385C53.3489 84.2919 52.1235 85.4341 50.9911 86.6808C49.2202 88.6258 47.5038 90.6133 45.8432 92.6418C44.5868 94.1792 43.4441 95.7577 42.2703 97.3987C41.7145 98.1466 41.189 98.9361 40.6539 99.7048L40.3863 99.5907C40.5201 99.0293 40.6849 98.4791 40.7877 97.9079C41.4056 94.4902 42.5193 91.183 44.0923 88.0929C44.3206 87.6268 44.5233 87.1482 44.6998 86.6599C45.606 84.3127 46.4707 81.9649 47.3872 79.6282C48.252 77.4578 49.1582 75.3075 50.0747 73.1579C50.4043 72.3892 50.5278 71.4751 51.4642 71.0807C51.6187 71.0077 51.6911 70.7273 51.7939 70.5402C52.1952 69.585 52.6793 68.6501 53.2248 67.7047C53.5937 66.9666 54.0385 66.2709 54.553 65.6275C56.6018 63.2894 59.1458 61.4473 61.9973 60.2375C63.3972 59.6142 64.7358 58.8246 66.1157 58.1603C66.8025 57.7185 67.5687 57.4187 68.3707 57.2768C69.7706 57.1217 71.1609 56.8406 72.5504 56.5603C74.1593 56.0803 75.8385 55.8869 77.5136 55.9892C77.6798 56.026 77.8514 56.026 78.0176 55.9892C79.9637 55.4493 81.9305 54.9505 83.8352 54.3272C86.6254 53.3721 89.3948 52.3126 92.1643 51.274C94.3676 50.4427 96.5606 49.5599 98.7535 48.7084C99.1963 48.5422 99.6494 48.4072 100.082 48.2103C101.966 47.3686 103.799 46.4239 105.724 45.7067C106.816 45.3018 107.865 44.5331 109.163 44.8865C109.338 44.8865 109.575 44.7724 109.771 44.6889C110.749 44.2632 111.737 43.8375 112.705 43.37C113.064 43.2524 113.385 43.0367 113.631 42.7467C113.906 42.3098 114.326 41.9856 114.815 41.8326C115.073 41.708 115.237 41.386 115.454 41.1578C115.23 40.9185 114.973 40.7119 114.692 40.5449C114.44 40.4969 114.181 40.4969 113.93 40.5449C112.211 40.5449 110.502 40.5449 108.782 40.5449C107.896 40.4044 107.002 40.3147 106.105 40.275C104.399 40.3988 102.717 40.748 101.101 41.3136C97.5212 42.5317 93.7877 43.2315 90.0127 43.3908C89.7962 43.3908 89.5803 43.3908 89.3638 43.3282C87.4901 43.2559 85.5958 43.0583 83.7214 43.1314C79.0493 43.4214 74.4737 44.5985 70.234 46.5999L69.8733 46.7453C67.2156 47.8562 64.6827 49.2489 62.3166 50.8997C62.0794 51.0556 61.8429 51.1905 61.4208 51.4403C61.467 51.169 61.5325 50.9018 61.616 50.6403C62.4814 48.8023 63.3359 46.9533 64.2317 45.1355C65.1275 43.3178 66.2908 41.324 67.1039 39.3192C68.0148 36.9442 68.5431 34.4371 68.6693 31.8931C68.6893 31.3762 68.772 30.8635 68.9162 30.3668C69.6058 28.2165 70.2754 26.0565 71.0678 23.948C71.9174 21.5918 72.407 19.1194 72.5194 16.6151C72.516 16.0954 72.5642 15.5772 72.6635 15.0679C73.3773 12.213 74.3531 9.43105 75.5778 6.75904C76.3805 5.0032 76.9467 3.12354 77.637 1.28492C77.6867 1.17014 77.7121 1.04632 77.7121 0.921099C77.7121 0.796577 77.6873 0.672053 77.6377 0.55727C77.5887 0.442487 77.5163 0.338831 77.426 0.253266C77.3356 0.1677 77.2287 0.101613 77.1115 0.0598739C76.6177 -0.158562 76.3495 0.26718 76.0819 0.589269C75.5158 1.24388 74.9599 1.8978 74.3524 2.50024C72.9215 3.93398 71.356 5.2425 70.0485 6.76877C68.5148 8.56565 67.1866 10.5392 65.786 12.4606C64.544 14.0613 63.4414 15.7678 62.4918 17.5605C61.6263 19.3984 60.9567 21.3233 60.494 23.3038C59.4644 27.2509 58.3321 31.1661 57.2094 35.0819C56.8287 36.4218 56.3343 37.7199 55.8715 39.1327C55.7171 38.4468 55.5826 37.8235 55.4488 37.2113C54.7874 34.8802 54.4413 32.469 54.4192 30.0447C54.4344 28.7842 54.3309 27.525 54.1103 26.2847C54.073 26.0836 53.9923 25.8937 53.8751 25.7268C53.7579 25.5605 53.6062 25.4214 53.431 25.3191C52.9676 25.132 52.6793 25.5995 52.4841 25.9939C52.3159 26.3007 52.1814 26.6242 52.0821 26.9602C51.5573 29.3692 50.9912 31.7685 50.5484 34.2305C50.3009 35.5905 50.3422 37.0033 50.1567 38.3849C49.8788 40.4621 49.5085 42.4767 49.1271 44.5227C49.1271 44.6785 49.0554 44.8239 48.9727 45.1773L48.5403 44.5227C47.8706 43.2162 47.0666 41.9835 46.1418 40.8461C45.9294 40.579 45.7715 40.2715 45.6784 39.9425C45.4619 39.3818 45.3488 38.7689 45.0915 38.2395C44.1633 36.092 43.4558 33.8541 42.9807 31.5612C42.5621 29.8993 42.109 28.2409 41.6214 26.5859C40.7884 23.5786 40.396 20.4641 40.4581 17.342C40.4581 16.3034 40.3346 15.1716 41.1277 14.3201C40.5098 13.3434 40.1801 13.1667 39.7995 13.6864C38.7395 15.0554 37.943 16.6123 37.452 18.277C36.9555 20.4307 36.8266 22.6541 37.0707 24.8516C37.1707 26.2388 36.9707 27.6315 36.4838 28.933C35.6749 30.9943 35.4432 33.2398 35.8149 35.4249C36.3293 37.9174 36.8445 40.41 37.5548 42.8614C38.1003 44.8761 38.852 46.8288 39.5416 48.9373C37.9665 47.8152 36.5252 46.8601 35.1246 45.8215C32.4172 43.7957 29.225 43.0896 26.0231 42.435C23.3481 42.0134 20.7228 41.3171 18.1878 40.3578C16.561 39.683 14.8728 39.1529 13.2047 38.6026C12.875 38.4886 12.2475 38.4677 12.1751 38.6026C12.0082 39.0173 11.9613 39.4715 12.0413 39.9112C12.1185 40.2493 12.2696 40.5651 12.484 40.8357C13.0523 41.6538 13.8081 42.3202 14.6873 42.778C16.3245 43.7234 18.0133 44.6576 19.6298 45.6962C22.4261 47.5467 25.4032 49.1022 28.5147 50.339C31.4193 51.4556 34.1033 53.0841 36.4425 55.1481C38.6209 57.1683 40.5746 59.4215 42.2703 61.8681C43.2144 62.9909 43.9978 64.2431 44.5971 65.5864C44.8136 66.1888 45.215 66.7182 45.4826 67.3102C45.6453 67.6546 45.7329 68.0295 45.7398 68.4115C45.637 72.4303 44.0619 76.024 42.4662 79.9294C42.291 79.3479 42.1876 79.0362 42.1159 78.7245C41.6835 76.8345 41.2718 74.9339 40.8187 73.0431C40.3243 70.9659 39.7891 68.8887 39.2843 66.8845C39.1712 66.417 39.1195 65.9391 38.9651 65.4925C38.6871 64.6619 38.2754 64.5784 37.6782 65.1808C37.4824 65.3784 37.2252 65.5029 37.0293 65.7109C36.8342 65.9182 36.5045 66.1986 36.4631 66.4796C36.2983 67.5182 36.2163 68.6188 36.1439 69.6991C36.0721 70.7795 36.1438 71.5892 36.0101 72.5242C35.4749 76.5645 34.8984 80.584 34.3323 84.6133C34.3323 84.9771 34.1364 85.3201 33.9716 85.9531L33.7144 85.2261C32.8392 82.6195 32.7668 79.8773 32.242 77.208C31.9655 75.4508 31.5662 73.7158 31.0476 72.015C30.5566 70.6341 30.1711 69.2177 29.8946 67.7777C29.6884 66.2702 29.1884 64.8198 28.4223 63.5092C27.6292 62.3252 26.8575 61.1307 26.0542 59.9669C24.7363 58.0351 23.4185 56.1137 22.0696 54.2131C20.8918 52.4441 19.2581 51.0333 17.3437 50.1317C16.9472 49.9766 16.5941 49.7276 16.3141 49.4041C16.0059 49.0396 15.6073 48.7634 15.1583 48.6048C14.7101 48.4462 14.2274 48.41 13.7605 48.5011C12.8854 48.5011 12.5047 49.29 12.9888 50.0691C13.3667 50.6416 13.8053 51.171 14.2963 51.6476C15.1459 52.3717 15.8459 53.2573 16.3555 54.2549C16.7362 55.1272 17.1175 55.9996 17.3851 56.9032C17.7257 57.8034 18.0043 58.7265 18.2188 59.6657C18.7029 62.2208 19.0939 64.7864 19.5884 67.3311C20.0828 69.8758 20.618 72.1395 21.1021 74.6014C21.8338 78.4804 23.2275 82.2014 25.2204 85.6004C25.8893 86.7635 26.4969 87.958 27.1762 89.1107C27.5679 89.7757 28.0823 90.3677 28.5147 91.0008C29.4712 92.1702 30.1725 93.5288 30.5739 94.9897C30.7532 95.9712 31.0221 96.9347 31.3772 97.8662C31.8751 99.0175 32.1883 100.241 32.3041 101.491C32.4958 102.63 32.582 103.784 32.5613 104.94C32.3448 107.356 32.2724 109.784 32.3448 112.21C32.2931 112.89 32.1648 113.562 31.9641 114.214C31.871 114.629 31.6655 115.025 31.5421 115.44C30.9345 117.517 30.3477 119.594 29.7505 121.672C29.6815 121.819 29.6022 121.961 29.5132 122.097C29.3429 121.83 29.1947 121.548 29.0705 121.256C28.4637 119.511 27.8147 117.766 27.2899 115.99C26.4045 112.999 25.6114 109.987 24.7674 106.996C24.5929 106.371 24.3653 105.763 24.0874 105.178C22.9861 102.831 21.7296 100.556 20.7828 98.1465C20.1704 96.4241 19.3063 94.8032 18.2188 93.3382C15.9438 90.4714 13.5653 87.6881 11.2283 84.8734C10.7648 84.3127 10.3531 83.6894 9.83801 83.1802C8.33466 81.7054 6.74922 80.2619 5.25621 78.8282C4.30938 77.9454 3.34117 77.0939 2.37365 76.2529C1.93092 75.8682 1.42614 75.9204 1.34407 76.3878C1.13788 77.5197 0.468971 78.5792 0.891012 79.8049C1.01721 80.3976 1.10686 80.9973 1.15858 81.6018C1.44753 83.5079 1.86333 85.3917 2.40467 87.2414C3.21289 89.2825 4.15492 91.2672 5.22519 93.1824C6.16237 94.9792 7.28438 96.6613 8.21121 98.4791C9.71456 101.595 11.1455 104.711 12.4944 107.921C13.2592 110.001 14.1391 112.036 15.13 114.017C15.8507 115.294 16.4065 116.666 17.1072 117.943C17.7733 119.349 18.5878 120.68 19.5367 121.91C21.3731 124.09 23.0006 126.441 24.3963 128.931C26.0873 131.729 26.7196 135.048 26.1776 138.279C26.0886 138.791 26.0301 139.308 26.0025 139.827C25.9101 143.192 25.848 146.567 25.7452 149.933C25.6831 152.227 25.5494 154.513 25.4673 156.808C25.4522 157.35 25.628 157.88 25.9632 158.305C26.299 158.728 26.7727 159.019 27.3003 159.124C29.5443 159.124 31.7683 157.483 31.4186 155.073C31.2642 154.035 31.1607 152.924 31.0683 151.843C30.929 150.811 30.8773 149.769 30.9138 148.728C31.0683 146.838 31.398 144.957 31.6345 143.078C31.7373 142.257 31.8097 141.447 31.9021 140.626C32.2317 137.801 32.2317 134.904 33.9612 132.401C34.6446 131.059 35.448 129.784 36.3604 128.588C38.3961 126.495 40.5629 124.535 42.8469 122.721C45.1529 120.851 47.3907 118.895 49.5595 116.852C51.6835 115.029 53.6468 113.024 55.4288 110.86C55.937 110.14 56.5018 109.463 57.1169 108.834Z" fill="white"/>
<path d="M130.547 92.694C130.104 92.4505 129.598 92.3455 129.096 92.3928C128.066 92.5382 127.037 92.8185 126.007 93.0578C124.407 93.3667 122.853 93.8836 121.384 94.5945C119.324 95.6582 117.127 96.4276 114.857 96.8798C112.314 97.4899 109.811 98.2565 107.361 99.1747C105.755 99.7361 104.272 100.67 102.646 101.19C101.645 101.461 100.731 101.987 99.9893 102.717C98.8487 103.763 97.6109 104.694 96.293 105.5C93.6435 107.335 90.994 109.156 88.3446 110.963C87.6136 111.462 86.8412 111.888 86.0895 112.334C86.0895 111.95 86.3881 111.784 86.5219 111.566C87.9142 109.583 89.7252 107.937 91.8244 106.747C93.2084 105.888 94.5455 104.956 95.8296 103.952C97.3419 102.694 99.0142 101.646 100.802 100.837C101.39 100.581 101.933 100.229 102.409 99.798C104.356 97.6895 106.504 95.7792 108.823 94.0964C109.2 93.8314 109.545 93.5253 109.853 93.1824C112.499 90.5549 114.332 87.3034 116.494 84.3023C118.048 82.1312 119.583 79.9294 121.209 77.8313C123.21 75.5016 124.623 72.719 125.328 69.72C125.516 69.1927 125.584 68.6292 125.527 68.072C125.47 67.5148 125.289 66.977 124.998 66.4998C124.475 66.6765 123.982 66.9318 123.536 67.2581C120.571 70.2703 117.657 73.3235 114.713 76.3565C113.075 78.0602 111.428 79.7527 109.75 81.4251C109.091 82.0999 108.339 82.6814 107.691 83.336C105.786 85.1329 103.901 86.9507 101.986 88.7475C101.683 89.0001 101.363 89.2324 101.029 89.4432C101.516 87.8502 102.118 86.2947 102.831 84.79C103.233 83.8863 103.634 82.9729 104.077 82.0894C104.962 80.3656 105.91 78.6626 106.774 76.8964C107.917 74.5701 108.916 72.1603 110.151 69.8862C111.298 67.6998 112.067 65.3325 112.426 62.8859C112.705 61.1718 113.137 59.5001 113.539 57.8173C113.775 56.8511 114.136 55.9168 114.393 54.9505C114.795 53.4653 114.393 53.0604 112.86 53.0187C111.562 55.0959 110.264 57.1732 108.967 59.2504C107.67 61.3276 106.28 63.5607 104.962 65.7318C104.201 67.2789 103.291 68.7475 102.244 70.1144C102.06 70.3551 101.904 70.6167 101.781 70.8936C100.823 72.5763 99.8245 74.248 98.908 75.9621C97.8784 77.8731 96.9523 79.8153 95.9841 81.7472C95.5931 82.7941 95.0634 83.7827 94.409 84.6863C94.3469 84.3329 94.3159 84.1771 94.2855 84.0213C94.0794 82.8686 93.9042 81.7159 93.6677 80.584C93.5028 79.7736 93.1836 79.0049 93.0601 78.1952C92.8132 76.6578 92.6381 75.0793 92.4733 73.5732C92.274 71.9802 92.3126 70.3663 92.5864 68.785C92.707 67.7499 92.707 66.7043 92.5864 65.6692C92.5864 65.0668 92.4215 64.4748 92.3705 63.8723C92.2471 62.5534 92.1953 61.2135 92.0098 59.8946C91.8243 58.5756 91.5464 57.3498 91.2581 56.0928C91.1451 55.7046 90.9485 55.3464 90.6816 55.0445C90.3113 54.6076 89.9507 54.6806 89.6521 55.1794C89.3535 55.6775 89.23 56.0205 88.9625 56.4045C87.7267 58.1603 87.1191 60.3412 86.1102 62.3147C86.0523 62.4323 86.0144 62.5582 85.9971 62.6883C85.4875 64.7064 85.4661 66.8191 85.9351 68.8476C86.4536 70.728 86.535 72.7043 86.1723 74.6223C85.8737 76.232 85.7909 77.8731 85.6061 79.4932C85.6061 79.7527 85.5337 80.0122 85.482 80.2619C85.0951 82.4373 85.0048 84.6564 85.2144 86.8568C85.3179 88.6954 85.7502 90.5131 85.9764 92.3406C86.3109 94.2196 86.3109 96.1438 85.9764 98.022C85.4723 100.661 84.7172 103.246 83.7214 105.739C83.4587 106.446 83.1132 107.119 82.6918 107.744C81.2712 109.582 79.7679 111.358 78.3887 113.217C76.7412 115.419 75.1964 117.694 73.58 119.916C73.1269 120.55 72.5504 121.121 72.0766 121.713C72.3787 120.216 72.7601 118.734 73.22 117.278C74.682 112.522 76.175 107.775 77.6163 103.008C78.6459 99.6116 79.6031 96.1945 80.6023 92.7872C80.9623 91.5726 81.3126 90.3677 81.6829 89.1733C81.7512 89.0439 81.7933 88.902 81.8071 88.7559C81.8202 88.6098 81.805 88.463 81.7622 88.3232C81.7188 88.1827 81.6491 88.0526 81.556 87.9406C81.463 87.8279 81.3485 87.7347 81.2195 87.6672C81.0264 87.8042 80.8499 87.9649 80.6947 88.1451C79.5727 89.8376 78.4397 91.51 77.3894 93.2443C76.0309 95.4467 74.682 97.6589 73.4359 99.9226C72.4063 101.896 71.4388 103.952 70.4195 105.957C69.4003 107.962 68.2569 109.811 67.4128 111.825C65.704 115.897 64.1282 120.02 62.5635 124.143C61.9518 125.585 61.6263 127.134 61.6063 128.703C61.598 130.399 61.2112 132.071 60.4733 133.595C60.0926 134.467 59.6395 135.298 59.2685 136.17C58.3424 138.352 57.3949 140.533 56.5404 142.745C56.0294 144.079 55.6095 145.446 55.284 146.838C55.0937 147.855 54.6592 148.811 54.0179 149.621C52.5166 151.359 51.4346 153.425 50.8574 155.655C50.6767 156.304 50.2567 156.858 49.6836 157.203C49.6836 156.818 49.7554 156.611 49.7967 156.403C50.2291 154.691 50.5725 152.958 50.8263 151.21C51.0311 149.271 51.4139 147.355 51.969 145.487C52.1697 144.738 52.2835 143.967 52.309 143.192C52.3704 142.153 52.2469 141.198 52.309 140.211C52.6076 136.42 53.04 132.639 53.2558 128.849C53.4206 126.013 53.3489 123.157 53.3593 120.311C53.3593 118.981 53.3593 117.642 53.2662 116.312C53.1814 115.9 53.0503 115.5 52.8752 115.118C52.4531 115.596 52.0925 115.845 51.9483 116.156C51.2897 117.797 50.6925 119.47 50.054 121.132C49.4154 122.793 48.7982 124.455 48.1079 126.085C47.2018 128.236 46.1108 130.313 45.3281 132.504C43.7427 137.361 42.9324 142.441 42.9289 147.554C42.9593 150.093 43.1379 152.628 43.4647 155.146C43.6599 157.119 43.9689 159.082 44.2778 161.046C44.5716 162.344 44.5716 163.693 44.2778 164.992C43.7323 166.904 43.413 168.866 42.2186 170.549C42.1262 170.673 42.1262 170.871 42.0538 171.027C41.6524 172.12 41.1952 173.191 40.6849 174.236C39.0685 177.29 37.3079 180.271 35.7528 183.355C34.9598 184.923 35.2791 186.471 37.0603 186.99C37.472 187.115 37.8948 187.219 38.3065 187.333C38.5534 187.421 38.8223 187.422 39.0705 187.337C39.3188 187.252 39.5319 187.087 39.6753 186.866C40.2298 186.154 40.7284 185.4 41.1683 184.612C42.1979 182.534 43.0834 180.457 44.1544 178.38C45.3281 176.168 46.6563 174.039 47.9127 171.868C48.6203 170.468 49.8326 169.394 51.3001 168.866C52.6745 168.387 53.9827 167.73 55.1916 166.914C57.3742 165.449 59.4333 163.798 61.5546 162.271C63.271 160.969 64.8509 159.494 66.2701 157.867C67.4921 156.538 68.7582 155.25 70.0692 154.003C71.9429 152.227 73.889 150.535 75.773 148.81C76.546 148.071 77.2681 147.28 77.9356 146.442C78.9031 145.238 79.7369 143.919 80.7568 142.745C82.2091 141.092 83.4793 139.285 84.5455 137.355C84.8165 136.867 85.0337 136.352 85.1937 135.818C85.4296 134.913 85.8433 134.066 86.4109 133.327C86.9791 132.588 87.6894 131.973 88.499 131.518C89.2714 131.161 89.97 130.661 90.5582 130.043C91.2423 129.478 92.0147 129.032 92.8436 128.724C94.3062 127.914 95.7579 127.073 97.2302 126.283C98.3522 125.67 99.5259 125.13 100.648 124.507C102.419 123.521 104.097 122.367 105.92 121.505C108.505 120.166 110.923 118.524 113.127 116.613C113.374 116.426 113.477 116.063 113.724 115.658C113.199 115.367 112.787 114.951 112.334 114.91C111.311 114.748 110.269 114.748 109.245 114.91C105.889 115.627 102.563 116.468 99.2377 117.289C97.6964 117.826 96.1165 118.243 94.5117 118.535C92.1312 118.872 89.8355 119.66 87.7473 120.862C86.3674 121.537 85.0089 122.274 83.629 122.939C81.8891 123.78 80.1078 124.528 78.3783 125.4C75.9716 126.735 73.7345 128.36 71.7167 130.24C71.336 130.562 70.9443 130.863 70.3885 131.279C70.4505 130.884 70.3885 130.739 70.4913 130.645C72.2415 128.267 73.8172 125.67 76.1026 123.593C78.1521 121.834 80.5237 120.496 83.0835 119.657C84.5455 119.158 86.0281 118.711 87.4798 118.192C89.9617 117.223 92.5119 116.442 95.109 115.855C96.9019 115.596 98.6252 114.974 100.175 114.028C102.687 112.366 105.158 110.652 107.66 108.979C109.351 107.788 111.184 106.819 113.117 106.092C114.298 105.694 115.425 105.15 116.473 104.472C120.314 101.927 124.102 99.2791 127.881 96.6822C128.826 96.0144 129.73 95.2895 130.589 94.5118C130.748 94.4178 130.879 94.2836 130.969 94.1215C131.059 93.9594 131.104 93.7764 131.1 93.5907C131.096 93.405 131.042 93.2241 130.945 93.0662C130.848 92.909 130.711 92.7803 130.547 92.694ZM103.119 102.353C103.418 101.907 104.21 101.813 104.777 101.553C103.95 103.242 102.827 104.766 101.462 106.051L101.225 105.905C101.788 104.686 102.421 103.5 103.119 102.353ZM99.6493 105.126C100.092 104.213 100.535 103.278 101.802 103.049C101.029 104.472 100.309 105.854 99.5155 107.203C99.379 107.367 99.2107 107.5 99.0218 107.594C98.8321 107.689 98.6253 107.743 98.4142 107.754C98.8259 106.892 99.2273 106.009 99.6493 105.126ZM98.5273 105.21C98.0756 106.388 97.5419 107.534 96.9316 108.637C96.5916 109.187 95.7986 109.457 95.2117 109.852C95.3607 108.869 95.7392 107.935 96.3151 107.128C96.8916 106.321 97.6502 105.663 98.5273 105.21ZM108.36 84.3225L108.617 84.4477C108.298 85.1538 108.03 85.8807 107.66 86.5249C107.289 87.1684 107.382 88.1138 106.115 88.5082C107.021 87.0334 107.433 85.5378 108.36 84.3225ZM106.507 89.6303C108.339 88.1215 110.06 86.4797 111.655 84.7176C112.509 83.8759 113.333 82.9931 114.167 82.1207C114.445 81.8195 114.702 81.4974 115.197 80.9785C114.702 80.9785 114.404 80.9785 114.27 81.0411C113.537 81.6393 112.848 82.2919 112.211 82.9931C111.335 84.056 110.311 84.9868 109.174 85.7562C109.575 84.7691 109.966 83.7827 110.388 82.8066C110.518 82.584 110.693 82.3927 110.903 82.2453C112.531 80.8366 114.03 79.2832 115.381 77.6032C116.968 75.8578 118.625 74.1652 120.262 72.4101C121.147 71.4751 122.043 70.561 122.949 69.6469C123.155 69.4396 123.392 69.2734 123.814 68.9096C123.569 70.2793 123.02 71.5753 122.208 72.7009C120.993 74.7781 119.675 76.8553 118.336 78.8178C117.657 79.8571 116.834 80.7086 116.072 81.6533C115.917 81.8014 115.768 81.958 115.629 82.1207C114.136 84.198 112.643 86.2752 111.191 88.3524C110.169 89.8453 108.962 91.1997 107.598 92.3824C105.394 94.3038 103.346 96.3914 101.184 98.3545C100.69 98.7483 100.151 99.0794 99.5776 99.341C98.8363 99.67 98.1143 100.041 97.415 100.453C96.0358 101.408 94.7179 102.457 93.3691 103.454C92.8643 103.828 92.3395 104.171 91.8244 104.493L91.5671 104.213C92.1126 103.402 92.5967 102.551 93.2042 101.772C94.7772 99.558 96.7426 97.6568 99.0011 96.1632C101.246 94.6349 103.317 92.8617 105.179 90.8763C105.588 90.4262 106.032 90.0088 106.507 89.6303ZM105.58 87.3764C104.757 88.8303 104.787 90.8554 102.8 91.5309C103.541 90.0457 103.84 88.2175 105.58 87.3764ZM101.719 90.8763C101.441 91.718 101.215 92.4137 100.978 93.0989C100.916 93.2964 100.885 93.5664 100.741 93.6707C99.6342 94.6404 98.4218 95.4801 97.1267 96.1737C98.3418 93.9406 99.5569 92.0707 101.719 90.8763ZM91.7113 78.4129H91.9891C92.3498 80.1785 92.7201 81.9343 93.0188 83.6999C93.1939 84.5249 93.3139 85.3611 93.3794 86.2028C93.4773 86.8971 93.4318 87.6046 93.2456 88.2801C92.6512 89.8578 91.9278 91.3827 91.083 92.8394C91.0368 92.3559 91.0368 91.869 91.083 91.3855C91.2823 90.358 91.303 89.3041 91.1451 88.2696C90.9802 86.774 90.9492 85.2574 90.8465 83.7513C90.8485 83.4543 90.8141 83.1573 90.7437 82.8686C90.2906 81.176 91.1658 79.8668 91.7113 78.4651V78.4129ZM91.3202 76.2738C91.5671 77.3124 90.8775 77.8 90.5168 78.4546C90.5554 77.6616 90.8361 76.8998 91.3202 76.2738ZM91.032 73.5315C91.3512 74.4351 91.032 75.0689 90.1155 75.6087L91.032 73.5315ZM88.2315 90.991C87.9432 88.5083 87.6756 86.0157 87.5619 83.5232C87.4901 80.328 87.6756 77.1322 88.1184 73.9677C88.186 72.5068 88.1618 71.0431 88.046 69.585C88.046 67.809 88.046 66.033 88.1184 64.2667C88.1384 64.0532 88.1384 63.8375 88.1184 63.6233C87.7991 62.0546 88.4783 60.746 89.1479 59.4166C89.4976 58.7105 89.7962 57.9732 90.1155 57.2462H90.383C90.6099 58.8351 90.8465 60.4239 91.0423 62.024C91.3051 63.6434 91.4768 65.2762 91.5568 66.9158C91.7064 68.6772 91.4671 70.4511 90.8568 72.1089C90.821 72.2341 90.7651 72.3537 90.692 72.4616C89.1576 74.1652 89.1479 76.2007 89.3741 78.3197C89.4976 79.5245 89.4362 80.7399 89.5079 81.944C89.5804 83.1489 89.7141 84.2606 89.8169 85.4133C89.9196 86.566 90.0534 87.6359 90.0948 88.758C90.0948 89.7027 90.0127 90.6481 90.0334 91.6032C90.0334 92.8916 90.1672 94.1792 90.2079 95.4773C90.2341 95.8551 90.1817 96.2335 90.0534 96.589C89.261 98.3128 88.417 100.016 87.5826 101.719C87.5357 101.811 87.4688 101.891 87.3867 101.952C87.3046 102.013 87.2095 102.054 87.1088 102.073C87.1688 101.722 87.2515 101.374 87.3564 101.034C88.4342 97.8036 88.7342 94.3615 88.2315 90.991ZM71.696 106.975C72.4994 105.157 73.2711 103.33 74.1055 101.523C74.5786 100.484 75.1351 99.5281 75.6599 98.5521C76.6895 96.7552 77.7191 94.9688 78.7487 93.1824C79.0231 92.6293 79.3693 92.1159 79.7782 91.6554C79.7313 92.006 79.6624 92.3524 79.5727 92.694C77.9356 98.1674 76.2571 103.621 74.5993 109.052C73.9303 111.244 73.4048 113.498 72.6945 115.678C71.7987 118.431 70.7795 121.142 69.7913 123.873C69.2562 125.338 68.6797 126.782 68.1231 128.236C68.0521 128.49 67.9376 128.728 67.7838 128.942C66.5791 130.334 66.2288 132.172 65.3537 133.74C64.4786 135.308 63.7165 136.856 62.8828 138.435C62.6325 138.894 62.2801 139.289 61.8532 139.587C62.1263 138.578 62.4704 137.589 62.8828 136.627C63.4628 135.521 63.942 134.364 64.3137 133.169C64.7151 131.85 65.3433 130.593 65.8378 129.306C66.435 127.82 67.0425 126.346 67.6397 124.86C68.2211 123.163 68.9093 121.505 69.6989 119.896C69.9637 119.175 70.1437 118.426 70.234 117.662C70.6354 116.115 71.0064 114.547 71.4595 113.03C72.0767 110.953 72.7359 108.814 73.4359 106.726C73.7552 105.76 74.2082 104.835 74.5993 103.891L74.1669 103.714L71.8608 109.063C71.6574 108.759 71.5353 108.407 71.5064 108.041C71.4774 107.675 71.5429 107.308 71.696 106.975ZM65.704 135.226L66.888 133.086C66.7646 134.405 66.6101 134.685 65.704 135.247V135.226ZM70.5637 109.364C70.6664 110.693 71.3153 111.825 70.3885 113.061C70.2961 111.815 69.5134 110.693 70.5637 109.385V109.364ZM69.2665 112.168C69.7293 113.114 69.2665 114.007 69.3796 114.858C69.5803 115.793 69.5086 116.767 69.1734 117.662C68.8445 116.567 68.61 115.444 68.4735 114.308C68.6107 113.553 68.879 112.828 69.2665 112.168ZM58.8982 140.522C60.134 137.811 61.5132 135.163 62.6359 132.411C63.1407 130.986 63.4862 129.509 63.6655 128.007C64.2455 125.299 65.0516 122.644 66.0743 120.072C66.466 118.93 66.9494 117.818 67.4128 116.697C67.5494 116.435 67.708 116.184 67.8866 115.949C68.1852 117.268 68.4631 118.421 68.71 119.573C68.699 119.788 68.6389 119.998 68.5355 120.186C67.3921 123.167 66.2908 126.169 65.1068 129.139C64.3654 131.019 63.511 132.858 62.7283 134.727C62.2442 135.88 61.7911 137.054 61.3381 138.217C60.4326 140.647 59.143 142.913 57.5183 144.927C57.5018 144.578 57.5294 144.229 57.6011 143.888C58.0024 142.724 58.3734 141.582 58.8982 140.481V140.522ZM49.9816 139.848C49.4671 138.809 49.9816 137.77 51.4132 136.638C51.7939 138.134 50.5588 138.778 49.9816 139.806V139.848ZM51.7118 133.761C51.7118 134.239 51.7118 134.716 51.7118 135.226L50.1981 136.088L50.0229 135.932L51.4132 133.709L51.7118 133.761ZM38.0493 185.91L37.0196 184.518C37.5548 183.667 38.2444 183.583 39.2533 183.781L38.0493 185.91ZM84 125.255C84.9972 123.59 86.5592 122.346 88.3963 121.754C88.9087 121.537 89.4072 121.287 89.8893 121.007C91.1189 120.38 92.445 119.969 93.8118 119.792C95.4489 119.501 97.0757 119.137 98.6818 118.753C102.08 117.839 105.457 116.842 108.865 115.949C109.434 115.902 110.008 115.948 110.563 116.084L110.625 116.458C110.403 116.636 110.169 116.8 109.925 116.946C106.332 118.815 102.717 120.664 99.1556 122.554C98.517 122.897 97.9611 123.406 97.3536 123.79C96.2213 124.497 95.0883 125.171 93.9456 125.868C93.0291 126.418 92.0512 126.906 91.1761 127.509C87.8115 129.829 84.2069 131.776 80.4271 133.315C79.2458 133.815 78.0942 134.384 76.9777 135.018C74.7847 136.285 72.6842 137.718 70.4506 138.913C68.2162 140.107 66.0433 140.99 63.5931 142.122C63.7786 141.706 63.8296 141.354 64.0358 141.187C66.095 139.515 68.2466 137.822 70.4299 136.254C71.5312 135.454 72.8083 134.904 73.982 134.177L81.1891 129.918C81.745 129.596 82.3215 129.306 82.8877 128.994C85.002 127.838 87.1088 126.681 89.2093 125.525C89.4879 125.35 89.7555 125.159 90.0127 124.954L89.8893 124.715L82.6201 127.924C83.1449 126.865 83.5773 126.065 84 125.255ZM63.9331 150.41C62.409 151.978 60.6588 153.329 59.032 154.803C57.8583 155.842 56.6949 156.954 55.5729 158.075C54.7281 158.916 53.9358 159.82 53.1221 160.703C53.009 160.838 52.9166 161.004 52.8131 161.149C52.7104 161.014 52.6179 160.869 52.5248 160.734C54.0275 157.677 55.7481 154.733 57.6728 151.926C57.8121 151.764 57.9431 151.594 58.0645 151.418C59.0879 149.518 60.4898 147.852 62.1828 146.526C64.8495 144.225 67.6935 142.141 70.6871 140.294C72.438 139.396 74.2393 138.602 76.0819 137.916C77.5749 137.251 79.0473 136.555 80.5196 135.839C81.2299 135.506 81.9409 135.142 82.6512 134.8L82.7849 135.028L79.0783 137.895L70.0899 144.843C67.9073 146.547 65.8495 148.407 63.9331 150.41ZM63.7475 153.889C63.6448 153.411 63.5517 153.017 63.4386 152.477L66.1778 149.777C66.2702 151.833 64.7875 152.674 63.7475 153.889ZM62.5945 153.567C61.987 154.741 61.7091 156.143 60.3809 156.849C61.1119 155.79 61.1222 154.17 62.5945 153.567ZM77.9356 128.173C78.0901 127.966 78.3576 127.789 78.4087 127.571C78.6562 126.293 79.7168 125.971 80.6844 125.493C81.6519 125.016 82.4863 124.725 83.3925 124.341L83.5773 124.528C82.1981 126.231 81.1788 128.215 79.4589 129.658C79.8506 128.257 80.9726 127.208 81.3843 125.836C81.316 125.776 81.2443 125.72 81.1685 125.67C81.0064 125.756 80.8574 125.864 80.7257 125.992C79.7679 127.259 78.8107 128.537 77.8735 129.814C77.6653 130.089 77.4991 130.394 77.3791 130.718C77.1632 131.289 76.7308 131.455 76.0716 131.611C76.5026 130.37 77.1322 129.209 77.9356 128.173ZM74.1262 131.59C74.5262 130.968 74.871 130.312 75.1558 129.627C75.5261 128.36 76.535 127.893 77.6777 127.477L73.7655 133.169L73.4876 133.013C73.6731 132.536 73.889 132.058 74.1262 131.59ZM74.4448 129.825L72.6021 132.598C72.3656 132.961 72.1491 133.336 71.9022 133.637C71.7615 133.898 71.5691 134.129 71.336 134.312C68.1604 136.282 65.2737 138.691 62.7593 141.468C62.44 141.811 62.2339 142.247 61.956 142.61C61.3794 143.358 60.7926 144.106 60.1954 144.833C59.5982 145.56 59.032 145.82 59.1658 146.775C59.1658 147.107 58.7437 147.491 58.5175 147.814L57.5804 149.206C56.808 150.4 56.1184 151.646 55.2536 152.768C54.3675 154.045 53.6117 155.409 52.9986 156.839C51.8208 159.327 50.4436 161.713 48.8803 163.974C48.6955 164.218 48.5465 164.488 48.4375 164.774C48.3755 164.941 48.4375 165.273 48.5092 165.335C48.7209 165.46 48.9692 165.503 49.2099 165.46C49.3947 165.46 49.5395 165.2 49.7036 165.044C50.6015 164.196 51.4408 163.286 52.2159 162.323C53.4303 160.922 54.7523 159.619 56.1694 158.429C57.3639 157.338 58.6513 156.351 60.134 155.115C60.1064 155.408 60.0478 155.697 59.9589 155.977C59.4996 156.696 59.1037 157.453 58.7748 158.241C58.4769 159.15 57.9045 159.942 57.1377 160.506C55.4591 161.835 53.7606 163.133 52.0718 164.452C51.9573 164.57 51.8539 164.699 51.7628 164.837C52.5248 164.941 52.9366 164.473 53.3896 164.151C55.2536 162.853 57.0963 161.513 58.9396 160.194C59.0113 160.194 59.1141 160.121 59.1554 160.059C60.185 158.273 61.9049 157.245 63.2738 155.811C64.3034 154.772 65.333 153.619 66.4246 152.602C67.5156 151.584 68.4838 150.908 69.5134 150.015C70.8519 148.8 72.1387 147.533 73.4049 146.256C73.7883 145.82 74.1331 145.35 74.4344 144.854C73.6628 144.656 73.4048 145.103 73.0862 145.414L67.5259 150.826C67.4025 150.95 67.2687 151.064 67.0425 151.262C67.0425 150.451 67.0425 149.87 66.9598 149.091C72.3104 144.35 77.8976 139.888 83.7014 135.724C83.2959 136.882 82.5836 137.906 81.6422 138.684C80.312 139.917 79.1914 141.363 78.3266 142.963C77.4612 144.251 76.4867 145.461 75.413 146.577C74.4448 147.616 73.3538 148.479 72.3242 149.465C70.6974 151.002 69.1224 152.581 67.4749 154.118C65.024 156.341 62.6152 158.625 60.0306 160.682C57.9576 162.497 55.6343 163.998 53.1324 165.137C52.5779 165.381 52.0531 165.688 51.5677 166.052C49.8685 167.151 48.0562 168.06 46.1618 168.762C45.8839 169.126 45.606 169.489 45.2764 169.946L45.7398 170.808C43.7634 174.61 41.8069 178.39 39.7788 182.306H37.9872C38.0837 182.008 38.201 181.716 38.3375 181.434C39.7374 179.211 41.2201 177.04 42.5276 174.766C43.1482 173.482 43.6978 172.164 44.1751 170.819C44.3157 170.337 44.5695 169.896 44.9157 169.534C45.2619 169.172 45.6894 168.901 46.1618 168.742C46.0425 168.752 45.9218 168.752 45.8019 168.742C45.6681 168.683 45.537 168.617 45.4108 168.545C45.5646 167.942 45.7605 167.298 45.9046 166.654C46.0411 166.079 46.1404 165.496 46.2032 164.909C46.3163 163.632 46.4094 162.344 46.4708 161.056C46.4708 160.287 46.4708 159.508 46.4708 158.74C46.5087 158.495 46.5707 158.255 46.6562 158.023V157.94C45.8329 156.902 46.059 155.593 45.9666 154.409C45.8432 152.737 45.8942 151.043 45.9666 149.361C45.9666 146.339 45.9667 143.316 46.2032 140.305C46.2984 138.443 46.6094 136.599 47.13 134.81C48.6637 129.845 50.3733 124.933 52.0614 119.875C52.4235 120.655 52.549 121.526 52.4221 122.378C52.3297 125.493 52.1752 128.506 52.0511 131.569C52.0511 132.152 51.969 132.608 51.3098 132.93C51.0119 133.055 50.8263 133.46 50.5891 133.74L50.3422 133.647C50.4657 132.961 50.6201 132.276 50.7132 131.569C50.8056 130.863 50.8367 130.209 50.898 129.492C50.2291 129.327 50.0643 129.711 50.0022 130.178C49.776 131.819 49.5085 133.439 49.3437 135.08C48.9934 138.394 48.7465 141.717 48.3651 145.02C48.1182 147.169 47.7065 149.288 47.4079 151.428C46.9866 153.557 46.7493 155.718 46.6976 157.888V157.94L47.7272 156.995C47.6121 155.006 47.8314 153.011 48.3755 151.096C48.9906 148.22 49.3657 145.299 49.4982 142.361C49.4982 141.125 50.2801 140.657 51.2897 139.962C51.2739 140.819 51.2153 141.675 51.1146 142.527C50.9084 143.763 50.5484 144.968 50.3526 146.204C50.0436 148.125 49.8478 150.057 49.5492 151.978C49.385 153.017 49.0864 154.056 48.8596 155.094C48.6947 155.853 48.5506 156.611 48.3961 157.369C48.0975 158.896 47.7479 160.412 47.5003 161.949C47.3665 162.79 47.5934 162.925 48.3141 162.853C49.2609 160.993 50.1264 159.207 51.0836 157.473C52.2263 155.395 53.4517 153.318 54.6461 151.241C54.995 150.442 55.5722 149.766 56.3039 149.299C56.4287 149.221 56.5356 149.116 56.6177 148.993C56.699 148.869 56.7535 148.729 56.777 148.582C56.9625 146.505 58.0541 144.781 59.2382 142.901C59.5982 143.815 58.7644 144.314 58.9803 145.165C63.1979 139.171 68.4335 133.978 74.4448 129.825ZM75.1861 120.997C75.1861 121.173 75.3103 121.402 75.1861 121.505C74.7062 122.232 74.18 122.925 73.6111 123.582C71.7208 125.75 70.0644 128.115 68.6693 130.635C68.3107 131.205 67.8969 131.737 67.4335 132.224C69.0389 128.602 71.0643 125.186 73.4669 122.046C74.1462 122.17 74.3213 121.619 74.5889 121.194H73.5593L74.9599 119.553C75.1716 119.343 75.3682 119.117 75.5468 118.878C77.606 115.762 79.8196 112.843 82.0229 109.883C82.4139 109.354 83.0525 109 83.4849 108.502C83.9118 107.972 84.3069 107.417 84.6689 106.84C84.4221 107.888 83.9359 108.862 83.2483 109.686C82.5567 110.52 81.9332 111.409 81.3843 112.345C81.9815 112.718 82.4139 112.573 82.6512 112.199C83.1973 111.222 83.9986 110.414 84.9675 109.863C85.071 109.785 85.1469 109.676 85.1834 109.551C85.553 108.826 85.8468 108.063 86.0592 107.276C86.3881 105.511 87.5212 104.16 88.2728 102.623C89.0238 101.086 90.0845 99.7772 90.5065 98.1055C90.6099 97.7104 91.0423 97.3987 91.2892 97.0669C91.294 96.3984 91.3733 95.7333 91.5257 95.0829C92.0615 93.6394 92.7201 92.2265 93.3484 90.8144C93.3932 90.7253 93.4573 90.6474 93.5352 90.5862C93.6139 90.525 93.7049 90.4825 93.8014 90.4609C94.4703 90.4609 94.6455 90.0143 94.6248 89.526C94.5014 86.9715 95.7268 84.8317 96.7978 82.6919C98.5991 79.0571 100.555 75.4946 102.46 71.9113C102.611 71.5997 102.786 71.3005 102.986 71.0181C104.979 68.1541 106.805 65.1753 108.452 62.0963C109.374 60.4393 110.54 58.9332 111.912 57.6302C111.716 58.3989 111.551 59.1676 111.335 59.9259C111.119 60.6841 110.862 61.1405 110.738 61.7638C110.18 64.0803 109.386 66.3322 108.37 68.4838C107.478 70.2153 106.787 72.0449 106.311 73.9364C106.116 74.6898 105.821 75.4125 105.436 76.0866C104.17 78.7872 102.882 81.4668 101.606 84.1667C100.248 87.2554 98.6825 90.2467 96.9213 93.1197C95.3151 95.6227 93.6366 98.0742 91.9278 100.505C91.4437 101.2 90.5168 101.626 90.1879 102.353C89.9279 103.141 89.6038 103.904 89.2197 104.638C87.9942 106.466 86.8722 108.378 85.5027 110.091C83.6704 112.396 81.9815 114.879 79.4286 116.489C79.2727 116.566 79.141 116.684 79.0472 116.832C78.188 118.568 76.846 120.015 75.1861 120.997ZM127.757 94.5118C125.543 96.1319 123.31 97.7312 121.076 99.341C118.538 101.042 115.861 102.522 113.075 103.766C112.118 104.233 111.202 104.805 110.254 105.292C107.383 106.945 104.612 108.77 101.956 110.756C99.8962 112.166 97.6502 113.278 95.2841 114.058C93.8635 114.526 92.3498 114.702 90.8878 115.025C88.5866 115.554 86.3495 116.334 84.2159 117.351C82.4553 118.151 80.7464 119.065 79.0679 119.916C78.8514 120.02 78.6252 120.104 78.1411 120.3C78.2928 120.007 78.4611 119.722 78.6459 119.449C78.8107 119.241 79.0783 119.116 79.1914 118.899C80.3444 116.738 82.5374 115.886 84.4221 114.64C86.6461 113.175 88.8494 111.669 91.0527 110.164C92.4526 109.198 93.8325 108.211 95.4386 107.047C95.351 107.371 95.2303 107.685 95.0779 107.982C94.6255 108.554 94.2159 109.157 93.8532 109.79C93.2249 110.986 92.185 111.91 90.9285 112.387C88.8694 113.425 86.8102 114.339 84.751 115.315C84.6276 115.377 84.5455 115.554 84.3083 115.834C84.5882 115.875 84.8731 115.875 85.1531 115.834C86.7385 115.191 88.3239 114.526 89.9093 113.861C90.6099 113.571 91.3202 113.28 92.0409 113.009C93.9766 112.282 95.3869 110.683 97.1888 109.758C98.6515 108.948 100.071 108.06 101.441 107.1C101.702 106.961 101.975 106.843 102.255 106.747C102.481 106.643 102.8 106.611 102.913 106.435C103.675 105.271 104.972 104.877 106.074 104.358C107.382 103.714 108.658 103.008 109.966 102.364C110.646 102.031 111.356 101.792 112.077 101.491C111.84 100.67 111.768 100.567 110.985 100.92C109.74 101.47 108.535 102.156 107.32 102.789L104.705 104.036C104.718 103.683 104.78 103.333 104.89 102.997C105.346 101.853 106.214 100.926 107.32 100.4C109.276 99.6116 111.233 98.8429 113.24 98.2091C114.527 97.8043 115.907 97.6276 117.225 97.2638C118.169 97.0092 119.095 96.6864 119.994 96.2982C121.137 95.8098 122.239 95.2596 123.371 94.7093C123.815 94.5424 124.268 94.4074 124.73 94.3038C125.678 94.0477 126.625 93.7987 127.572 93.5559C127.841 93.5079 128.113 93.4801 128.385 93.4731L128.478 93.6707C128.261 93.9698 128.02 94.2516 127.757 94.5118ZM91.083 67.3826C91.1554 67.6428 91.3099 67.8709 91.2478 68.0059C90.9189 68.8372 90.5582 69.6469 90.2182 70.4574C90.0431 70.8101 89.9507 71.4125 89.3535 71.1113C88.7563 70.8101 88.9728 70.353 89.199 69.969C89.7141 69.0862 89.9714 67.985 91.083 67.3826ZM57.1066 108.834C58.6596 107.406 60.0609 105.82 61.287 104.098C61.8118 103.309 62.3166 102.488 62.8828 101.751C64.4172 99.7869 65.7943 97.7034 67.0011 95.5191C69.1341 91.9504 70.7788 88.1075 71.8918 84.0943C72.0146 83.6414 72.0463 83.1677 71.9843 82.7023C71.876 82.3552 71.705 82.0317 71.4801 81.7472C71.1712 81.9343 70.7692 82.038 70.574 82.3079C69.2045 84.136 67.7942 85.9434 66.5791 87.8752C66.015 88.8429 65.3337 89.7361 64.551 90.534C63.1297 91.8321 62.1311 93.4731 60.4326 94.5118C60.3291 94.5737 60.2678 94.7093 60.185 94.8025C59.063 96.1632 57.9817 97.565 56.7873 98.8638C55.1502 100.629 53.4103 102.301 51.7325 104.057C50.9187 104.887 50.085 105.708 49.354 106.601C48.4486 107.808 47.4128 108.908 46.2653 109.883C45.4288 110.561 44.6343 111.289 43.8868 112.065C42.6103 113.331 41.3538 114.629 40.0981 115.939C39.3105 116.73 38.5644 117.562 37.8637 118.431C36.7307 119.885 35.6811 121.391 34.5791 122.866C34.5791 122.866 34.4247 122.866 34.2495 122.866C34.2612 122.614 34.2957 122.364 34.3529 122.118C35.1046 119.677 35.8763 117.237 36.6383 114.848C37.4693 111.92 39.1381 109.304 41.4366 107.328C43.0117 105.999 44.4737 104.524 46.0694 103.174C47.6652 101.824 49.5699 100.588 51.2173 99.165C52.8648 97.7417 54.5943 95.9865 56.2625 94.3768C57.0962 93.5768 57.879 92.7044 58.7645 91.967C60.8547 90.2182 62.7904 88.2891 64.551 86.2028C65.062 85.551 65.5164 84.8561 65.9095 84.1256C66.435 83.2428 66.857 82.2974 67.3818 81.4042C68.71 79.1294 70.0589 76.8658 71.4077 74.6118C71.8091 73.9468 72.2518 73.3033 72.6125 72.6174C73.4462 71.0077 74.2496 69.377 75.0523 67.7569C75.8557 66.1367 76.6384 64.5784 77.3894 62.9687C77.6473 62.408 77.9563 61.7847 77.5136 61.1718C76.2674 61.0473 76.2571 61.0368 75.6082 61.8473C75.2275 62.3147 74.8978 62.8233 74.5785 63.2907C73.549 64.5784 72.5918 65.8876 71.5519 67.144C70.7243 68.1916 69.8265 69.1802 68.8645 70.104C66.6715 72.1089 64.3654 73.9781 62.1725 75.9725C59.5982 78.3197 57.0859 80.7399 54.5633 83.1385C53.3489 84.2919 52.1235 85.4341 50.9911 86.6808C49.2202 88.6258 47.5038 90.6133 45.8432 92.6418C44.5868 94.1792 43.4441 95.7577 42.2703 97.3987C41.7145 98.1466 41.189 98.9361 40.6539 99.7048L40.3863 99.5907C40.5201 99.0293 40.6849 98.4791 40.7877 97.9079C41.4056 94.4902 42.5193 91.183 44.0923 88.0929C44.3206 87.6268 44.5233 87.1482 44.6998 86.6599C45.606 84.3127 46.4707 81.9649 47.3872 79.6282C48.252 77.4578 49.1582 75.3075 50.0747 73.1579C50.4043 72.3892 50.5278 71.4751 51.4642 71.0807C51.6187 71.0077 51.6911 70.7273 51.7939 70.5402C52.1952 69.585 52.6793 68.6501 53.2248 67.7047C53.5937 66.9666 54.0385 66.2709 54.553 65.6275C56.6018 63.2894 59.1458 61.4473 61.9973 60.2375C63.3972 59.6142 64.7358 58.8246 66.1157 58.1603C66.8025 57.7185 67.5687 57.4187 68.3707 57.2768C69.7706 57.1217 71.1609 56.8406 72.5504 56.5603C74.1593 56.0803 75.8385 55.8869 77.5136 55.9892C77.6798 56.026 77.8514 56.026 78.0176 55.9892C79.9637 55.4493 81.9305 54.9505 83.8352 54.3272C86.6254 53.3721 89.3948 52.3126 92.1643 51.274C94.3676 50.4427 96.5606 49.5599 98.7535 48.7084C99.1963 48.5422 99.6494 48.4072 100.082 48.2103C101.966 47.3686 103.799 46.4239 105.724 45.7067C106.816 45.3018 107.865 44.5331 109.163 44.8865C109.338 44.8865 109.575 44.7724 109.771 44.6889C110.749 44.2632 111.737 43.8375 112.705 43.37C113.064 43.2524 113.385 43.0367 113.631 42.7467C113.906 42.3098 114.326 41.9856 114.815 41.8326C115.073 41.708 115.237 41.386 115.454 41.1578C115.23 40.9185 114.973 40.7119 114.692 40.5449C114.44 40.4969 114.181 40.4969 113.93 40.5449C112.211 40.5449 110.502 40.5449 108.782 40.5449C107.896 40.4044 107.002 40.3147 106.105 40.275C104.399 40.3988 102.717 40.748 101.101 41.3136C97.5212 42.5317 93.7877 43.2315 90.0127 43.3908C89.7962 43.3908 89.5803 43.3908 89.3638 43.3282C87.4901 43.2559 85.5958 43.0583 83.7214 43.1314C79.0493 43.4214 74.4737 44.5985 70.234 46.5999L69.8733 46.7453C67.2156 47.8562 64.6827 49.2489 62.3166 50.8997C62.0794 51.0556 61.8429 51.1905 61.4208 51.4403C61.467 51.169 61.5325 50.9018 61.616 50.6403C62.4814 48.8023 63.3359 46.9533 64.2317 45.1355C65.1275 43.3178 66.2908 41.324 67.1039 39.3192C68.0148 36.9442 68.5431 34.4371 68.6693 31.8931C68.6893 31.3762 68.772 30.8635 68.9162 30.3668C69.6058 28.2165 70.2754 26.0565 71.0678 23.948C71.9174 21.5918 72.407 19.1194 72.5194 16.6151C72.516 16.0954 72.5642 15.5772 72.6635 15.0679C73.3773 12.213 74.3531 9.43105 75.5778 6.75904C76.3805 5.0032 76.9467 3.12354 77.637 1.28492C77.6867 1.17014 77.7121 1.04632 77.7121 0.921099C77.7121 0.796577 77.6873 0.672053 77.6377 0.55727C77.5887 0.442487 77.5163 0.338831 77.426 0.253266C77.3356 0.1677 77.2287 0.101613 77.1115 0.0598739C76.6177 -0.158562 76.3495 0.26718 76.0819 0.589269C75.5158 1.24388 74.9599 1.8978 74.3524 2.50024C72.9215 3.93398 71.356 5.2425 70.0485 6.76877C68.5148 8.56565 67.1866 10.5392 65.786 12.4606C64.544 14.0613 63.4414 15.7678 62.4918 17.5605C61.6263 19.3984 60.9567 21.3233 60.494 23.3038C59.4644 27.2509 58.3321 31.1661 57.2094 35.0819C56.8287 36.4218 56.3343 37.7199 55.8715 39.1327C55.7171 38.4468 55.5826 37.8235 55.4488 37.2113C54.7874 34.8802 54.4413 32.469 54.4192 30.0447C54.4344 28.7842 54.3309 27.525 54.1103 26.2847C54.073 26.0836 53.9923 25.8937 53.8751 25.7268C53.7579 25.5605 53.6062 25.4214 53.431 25.3191C52.9676 25.132 52.6793 25.5995 52.4841 25.9939C52.3159 26.3007 52.1814 26.6242 52.0821 26.9602C51.5573 29.3692 50.9912 31.7685 50.5484 34.2305C50.3009 35.5905 50.3422 37.0033 50.1567 38.3849C49.8788 40.4621 49.5085 42.4767 49.1271 44.5227C49.1271 44.6785 49.0554 44.8239 48.9727 45.1773L48.5403 44.5227C47.8706 43.2162 47.0666 41.9835 46.1418 40.8461C45.9294 40.579 45.7715 40.2715 45.6784 39.9425C45.4619 39.3818 45.3488 38.7689 45.0915 38.2395C44.1633 36.092 43.4558 33.8541 42.9807 31.5612C42.5621 29.8993 42.109 28.2409 41.6214 26.5859C40.7884 23.5786 40.396 20.4641 40.4581 17.342C40.4581 16.3034 40.3346 15.1716 41.1277 14.3201C40.5098 13.3434 40.1801 13.1667 39.7995 13.6864C38.7395 15.0554 37.943 16.6123 37.452 18.277C36.9555 20.4307 36.8266 22.6541 37.0707 24.8516C37.1707 26.2388 36.9707 27.6315 36.4838 28.933C35.6749 30.9943 35.4432 33.2398 35.8149 35.4249C36.3293 37.9174 36.8445 40.41 37.5548 42.8614C38.1003 44.8761 38.852 46.8288 39.5416 48.9373C37.9665 47.8152 36.5252 46.8601 35.1246 45.8215C32.4172 43.7957 29.225 43.0896 26.0231 42.435C23.3481 42.0134 20.7228 41.3171 18.1878 40.3578C16.561 39.683 14.8728 39.1529 13.2047 38.6026C12.875 38.4886 12.2475 38.4677 12.1751 38.6026C12.0082 39.0173 11.9613 39.4715 12.0413 39.9112C12.1185 40.2493 12.2696 40.5651 12.484 40.8357C13.0523 41.6538 13.8081 42.3202 14.6873 42.778C16.3245 43.7234 18.0133 44.6576 19.6298 45.6962C22.4261 47.5467 25.4032 49.1022 28.5147 50.339C31.4193 51.4556 34.1033 53.0841 36.4425 55.1481C38.6209 57.1683 40.5746 59.4215 42.2703 61.8681C43.2144 62.9909 43.9978 64.2431 44.5971 65.5864C44.8136 66.1888 45.215 66.7182 45.4826 67.3102C45.6453 67.6546 45.7329 68.0295 45.7398 68.4115C45.637 72.4303 44.0619 76.024 42.4662 79.9294C42.291 79.3479 42.1876 79.0362 42.1159 78.7245C41.6835 76.8345 41.2718 74.9339 40.8187 73.0431C40.3243 70.9659 39.7891 68.8887 39.2843 66.8845C39.1712 66.417 39.1195 65.9391 38.9651 65.4925C38.6871 64.6619 38.2754 64.5784 37.6782 65.1808C37.4824 65.3784 37.2252 65.5029 37.0293 65.7109C36.8342 65.9182 36.5045 66.1986 36.4631 66.4796C36.2983 67.5182 36.2163 68.6188 36.1439 69.6991C36.0721 70.7795 36.1438 71.5892 36.0101 72.5242C35.4749 76.5645 34.8984 80.584 34.3323 84.6133C34.3323 84.9771 34.1364 85.3201 33.9716 85.9531L33.7144 85.2261C32.8392 82.6195 32.7668 79.8773 32.242 77.208C31.9655 75.4508 31.5662 73.7158 31.0476 72.015C30.5566 70.6341 30.1711 69.2177 29.8946 67.7777C29.6884 66.2702 29.1884 64.8198 28.4223 63.5092C27.6292 62.3252 26.8575 61.1307 26.0542 59.9669C24.7363 58.0351 23.4185 56.1137 22.0696 54.2131C20.8918 52.4441 19.2581 51.0333 17.3437 50.1317C16.9472 49.9766 16.5941 49.7276 16.3141 49.4041C16.0059 49.0396 15.6073 48.7634 15.1583 48.6048C14.7101 48.4462 14.2274 48.41 13.7605 48.5011C12.8854 48.5011 12.5047 49.29 12.9888 50.0691C13.3667 50.6416 13.8053 51.171 14.2963 51.6476C15.1459 52.3717 15.8459 53.2573 16.3555 54.2549C16.7362 55.1272 17.1175 55.9996 17.3851 56.9032C17.7257 57.8034 18.0043 58.7265 18.2188 59.6657C18.7029 62.2208 19.0939 64.7864 19.5884 67.3311C20.0828 69.8758 20.618 72.1395 21.1021 74.6014C21.8338 78.4804 23.2275 82.2014 25.2204 85.6004C25.8893 86.7635 26.4969 87.958 27.1762 89.1107C27.5679 89.7757 28.0823 90.3677 28.5147 91.0008C29.4712 92.1702 30.1725 93.5288 30.5739 94.9897C30.7532 95.9712 31.0221 96.9347 31.3772 97.8662C31.8751 99.0175 32.1883 100.241 32.3041 101.491C32.4958 102.63 32.582 103.784 32.5613 104.94C32.3448 107.356 32.2724 109.784 32.3448 112.21C32.2931 112.89 32.1648 113.563 31.9641 114.214C31.871 114.629 31.6655 115.025 31.5421 115.44C30.9345 117.517 30.3477 119.594 29.7505 121.672C29.6815 121.819 29.6022 121.961 29.5132 122.097C29.3429 121.83 29.1947 121.548 29.0705 121.256C28.4637 119.511 27.8147 117.766 27.2899 115.99C26.4045 112.999 25.6114 109.987 24.7674 106.996C24.5929 106.371 24.3653 105.763 24.0874 105.178C22.9861 102.831 21.7296 100.556 20.7828 98.1465C20.1704 96.4241 19.3063 94.8032 18.2188 93.3382C15.9438 90.4714 13.5653 87.6881 11.2283 84.8734C10.7648 84.3127 10.3531 83.6894 9.83801 83.1802C8.33466 81.7054 6.74922 80.2619 5.25621 78.8282C4.30938 77.9454 3.34117 77.0939 2.37365 76.2529C1.93092 75.8682 1.42614 75.9204 1.34407 76.3878C1.13788 77.5197 0.468971 78.5792 0.891012 79.8049C1.01721 80.3976 1.10686 80.9973 1.15858 81.6018C1.44753 83.5079 1.86333 85.3917 2.40467 87.2414C3.21289 89.2825 4.15492 91.2672 5.22519 93.1824C6.16237 94.9792 7.28438 96.6613 8.21121 98.4791C9.71456 101.595 11.1455 104.711 12.4944 107.921C13.2592 110.001 14.1391 112.036 15.13 114.017C15.8507 115.294 16.4065 116.666 17.1072 117.943C17.7733 119.349 18.5878 120.68 19.5367 121.91C21.3731 124.09 23.0006 126.442 24.3963 128.931C26.0873 131.729 26.7196 135.048 26.1776 138.279C26.0886 138.791 26.0301 139.308 26.0025 139.827C25.9101 143.192 25.848 146.567 25.7452 149.933C25.6831 152.227 25.5494 154.513 25.4673 156.808C25.4522 157.35 25.628 157.88 25.9632 158.305C26.299 158.728 26.7727 159.019 27.3003 159.124C29.5443 159.124 31.7683 157.483 31.4186 155.073C31.2642 154.035 31.1607 152.924 31.0683 151.843C30.929 150.811 30.8773 149.769 30.9138 148.728C31.0683 146.838 31.398 144.957 31.6345 143.078C31.7373 142.257 31.8097 141.447 31.9021 140.626C32.2317 137.801 32.2317 134.904 33.9612 132.401C34.6446 131.059 35.448 129.784 36.3604 128.588C38.3961 126.495 40.5629 124.535 42.8469 122.721C45.1529 120.851 47.3907 118.895 49.5595 116.852C51.6835 115.029 53.6468 113.024 55.4288 110.86C55.937 110.14 56.5018 109.463 57.1169 108.834H57.1066ZM50.7849 106.373L50.847 106.217C52.0414 104.981 53.2558 103.776 54.4088 102.519C56.6025 100.11 59.0423 97.9392 61.0808 95.3841C62.2235 93.9511 63.6345 92.7462 64.9109 91.4377L65.1785 91.6554C64.3034 92.8916 63.449 94.1375 62.5738 95.3632C61.6987 96.589 61.0705 97.6276 60.2471 98.6662C59.2175 99.9128 58.1879 101.086 57.1583 102.311C56.1287 103.537 55.284 104.649 54.3371 105.812C53.9358 106.31 53.5234 106.851 52.7414 106.279C52.4842 106.965 51.578 107.318 52.0821 108.138C51.6497 108.554 51.4132 109.25 50.5174 109.25C50.7849 108.709 50.9912 108.211 51.238 107.795C51.3167 107.676 51.3704 107.541 51.3953 107.399C51.4194 107.258 51.4146 107.113 51.3808 106.973C51.347 106.834 51.2849 106.702 51.198 106.588C51.1118 106.474 51.0022 106.38 50.8774 106.31L50.7953 106.404C50.4146 107.349 50.0333 108.284 49.6423 109.219C49.6423 109.291 49.4257 109.291 49.3126 109.333L49.2609 109.436C49.1375 109.935 49.014 110.475 48.9009 110.942L48.592 110.818C48.8182 110.361 49.0347 109.893 49.2609 109.436C49.2609 109.436 49.2609 109.333 49.2609 109.291C49.1065 107.941 50.0229 107.203 50.7953 106.373H50.7849ZM47.161 110.403C47.3259 110.028 47.7583 109.769 48.0672 109.468L48.3348 109.655L46.6459 113.207L46.2549 113.082C46.5535 112.168 46.8004 111.254 47.1714 110.403H47.161ZM45.7191 111.441C45.548 112.974 44.9681 114.431 44.0413 115.658C44.175 115.253 44.2985 114.837 44.4529 114.433C44.6074 114.028 44.8136 113.539 44.2371 113.124L45.7191 111.441ZM58.7851 80.4282C61.7911 77.9976 64.5406 75.2351 67.5059 72.7732C69.2755 71.2769 70.9278 69.6449 72.4477 67.8918C73.0552 67.1962 73.58 66.417 74.2289 65.7422C73.7772 67.2532 72.96 68.6278 71.8505 69.7409C70.8209 70.7795 69.6782 71.8181 68.6072 72.8567C67.9893 73.4591 67.3921 74.0713 66.8053 74.6946C64.3137 77.3534 61.8325 80.0331 59.3513 82.6919C59.1858 82.8359 59.0099 82.968 58.8258 83.087C58.8258 82.5986 58.8258 82.287 58.8258 81.7367C57.3438 82.9312 57.3439 84.9354 55.7888 86.2028C56.4274 83.8863 56.9418 81.9134 58.7851 80.4282ZM51.7428 87.1475C52.1483 86.7691 52.5821 86.4213 53.04 86.1089C53.04 86.1089 53.04 86.0366 53.04 85.9948C53.6675 85.1162 54.4578 84.3684 55.3667 83.7931C55.0592 85.9336 54.0433 87.9065 52.4841 89.391C52.7517 88.5709 53.0089 87.823 53.2558 87.0648C53.3793 86.6599 53.5544 86.2341 53.04 86.0261L52.9779 86.0783C52.2986 87.7708 51.629 89.4536 50.9187 91.1469C50.6857 91.759 50.2636 92.2801 49.714 92.6321C49.725 91.9009 49.9236 91.1851 50.2905 90.5549C50.476 90.1702 50.8367 89.7027 50.7333 89.3806C50.5071 88.2801 51.1656 87.75 51.7428 87.1475ZM50.7132 93.5872C52.1028 92.1646 53.3076 90.6063 54.584 89.1003C55.2019 88.3837 55.5626 87.3451 56.8287 87.4905C56.9832 87.4905 57.2714 87.1065 57.3535 86.8463C57.6052 86.0547 58.0514 85.3402 58.6514 84.7691C60.3499 82.9931 62.0491 81.2171 63.6959 79.4C65.3433 77.5823 66.9184 75.6713 68.6693 73.8431C69.503 72.9395 70.4809 72.1708 71.5312 71.2052C71.4698 71.537 71.5312 71.6929 71.4181 71.7659C69.421 74.1444 68.2672 77.032 66.7232 79.6699C65.2385 82.454 63.4235 85.0453 61.3181 87.3868C60.4326 88.2801 59.403 89.0689 58.5072 89.9211C56.3142 91.9983 54.162 94.0756 51.938 96.1528C50.5691 97.3577 49.1065 98.4791 47.6755 99.7048C45.8432 101.252 44.0309 102.821 42.0848 104.285C43.3103 102.54 44.6385 100.858 45.7501 99.0919C47.0473 96.8693 48.9726 95.3319 50.6718 93.5872H50.7132ZM38.6768 104.7C39.4698 103.278 40.4787 101.98 41.3952 100.619C42.9682 98.2008 44.6661 95.8676 46.4811 93.629C47.5107 92.4137 48.5403 91.2192 49.5699 90.0143L49.714 90.1389C49.2099 91.51 48.6844 92.8811 48.201 94.2933C48.1093 94.4846 47.9755 94.6516 47.8093 94.7817C46.1211 96.0798 45.1529 97.9392 43.9585 99.6318C42.6848 101.777 41.2711 103.835 39.7271 105.791C38.8416 106.83 38.0899 107.868 37.2976 108.979C36.1073 110.583 35.4156 112.506 35.3101 114.505C35.2639 114.858 35.1846 115.205 35.0736 115.543C34.3729 118.317 33.6626 121.09 33.0144 123.852C32.5999 125.607 31.9559 127.297 31.0994 128.88C31.0276 128.643 30.9828 128.399 30.9656 128.152C31.1814 126.179 31.3979 124.206 31.6552 122.232C31.7476 121.505 31.9745 120.799 32.1289 120.072C32.4889 118.379 32.8185 116.686 33.1585 114.993C33.3233 114.266 33.282 113.425 34.1881 113.03C34.4143 112.937 34.5481 112.563 34.6819 112.293C36.0101 109.748 37.2562 107.183 38.6361 104.7H38.6768ZM72.0766 49.8507C72.6332 48.8121 73.22 47.7735 73.7965 46.7348C74.1055 46.1637 74.6303 46.1227 75.2792 46.0705C74.2496 47.6907 73.22 49.1863 72.1905 50.7439L71.9229 50.6194C71.9415 50.3578 71.9939 50.0997 72.0766 49.8507ZM62.9345 52.5721C63.7786 51.9279 64.7151 51.4298 65.5805 50.8893L65.8585 50.4844L67.8659 49.5599L67.928 49.4667H67.9893C69.5292 48.3571 71.2271 47.4889 73.0242 46.8907C72.7359 47.4312 72.5814 47.7943 72.3656 48.1164C71.3643 49.3032 70.4719 50.579 69.6989 51.9279C69.6472 52.0636 69.3589 52.0942 69.05 52.2291C69.2355 50.7961 70.5843 50.0483 70.6043 48.6876C69.0189 49.9133 68.2672 51.8034 66.9908 53.258L66.7336 53.1224C67.0115 52.5825 67.2687 52.0837 67.5466 51.5022C67.8245 50.9206 68.0928 50.5366 68.3293 50.0274C68.5659 49.5189 68.2776 49.5189 67.9997 49.4041H67.9176C67.4542 50.1728 66.9805 50.9415 66.5067 51.6997C66.0336 52.458 65.5805 53.2677 65.0964 54.0058C64.9937 54.161 64.7978 54.2444 64.4371 54.2236C64.8495 53.4862 65.2199 52.7384 65.6626 52.0323C65.8454 51.8222 65.9633 51.5627 66.0012 51.2858C66.0398 51.009 65.997 50.7265 65.8791 50.474C65.8791 50.5888 65.8067 50.7439 65.7247 50.7961L65.5805 50.8893C65.0033 51.7102 64.4268 52.5206 63.871 53.3617C63.511 53.8911 63.2228 54.4726 62.8414 55.0027C62.6538 55.1718 62.4421 55.3116 62.2132 55.418L62.0284 55.2309C62.2649 54.7224 62.5118 54.1923 62.749 53.7144C62.6993 53.6545 62.6442 53.5989 62.5842 53.5488C62.3497 53.6559 62.1318 53.7957 61.9353 53.9641C61.5029 54.4831 61.1118 55.0027 60.7001 55.6052C60.414 55.9481 60.0581 56.225 59.6568 56.417C59.2554 56.609 58.8175 56.7105 58.3734 56.7161C58.4865 56.4462 58.4969 56.2486 58.61 56.1658C59.9995 54.961 61.4622 53.7352 62.9345 52.593V52.5721ZM62.4918 19.9389C63.8862 16.7744 65.7502 13.8436 68.0204 11.2453C69.05 9.93679 70.0796 8.54548 71.1092 7.28843C72.4063 5.80321 73.8172 4.4425 75.2275 3.01989L75.5364 3.20633C75.2861 4.12946 74.9772 5.0352 74.6096 5.91729C72.7946 9.70374 71.4133 13.6871 70.4913 17.7886C70.3368 18.4641 70.3575 19.1807 70.172 19.8659C69.7396 21.445 69.2865 22.9817 68.7203 24.5608C67.7293 27.2892 67.0115 30.1108 66.5791 32.9838C66.3157 34.2478 65.9716 35.4931 65.5495 36.7125C65.4475 37.0423 65.3233 37.3651 65.1785 37.6781C64.5916 39.0701 63.9641 40.4517 63.4076 41.8326C62.8517 43.2141 62.2235 44.6576 61.7704 46.1018C61.2332 47.8896 60.4354 49.5877 59.403 51.139C58.723 52.1255 58.219 53.2163 57.6114 54.2549C57.4356 54.5199 57.2397 54.7697 57.0246 55.0027C56.9059 54.7029 56.8514 54.3822 56.8639 54.0601C56.8763 53.738 56.9556 53.4222 57.0963 53.1328C58.0231 49.8507 59.0527 46.5895 59.8761 43.2768C60.463 40.8879 60.7001 38.4155 61.2353 36.0065C61.5442 34.6249 62.1208 33.3059 62.5635 31.9557C62.9662 30.8677 63.3103 29.7581 63.5931 28.6318C64.2151 25.9202 65.1261 23.2836 66.3115 20.7695C66.9804 19.3573 67.6397 17.9549 68.3707 16.6151C69.1017 15.2752 69.6989 14.1747 70.3161 12.9594C70.5843 12.4606 70.8209 11.9208 71.0678 11.4429C71.5933 10.4043 72.0974 9.28287 72.6435 8.19208C72.778 7.8533 72.8918 7.50617 72.9828 7.15347C72.6759 7.17086 72.3808 7.27868 72.1339 7.46303C71.887 7.64738 71.6988 7.9013 71.5932 8.19208C70.5637 10.2693 69.5341 12.3465 68.5045 14.4238C67.3611 16.844 66.3315 19.326 65.1785 21.7462C63.1193 25.9835 62.0897 30.5845 60.5147 34.9678C60.134 36.2986 59.8685 37.6614 59.7216 39.0388C59.403 40.732 59.1244 42.435 58.7541 44.1282C58.3217 46.1122 57.7962 48.0851 57.3025 50.0587C57.2397 50.2472 57.1645 50.4316 57.0756 50.609L56.8804 50.5262C57.0121 49.5523 57.077 48.57 57.0756 47.587C57.0066 46.5115 56.8452 45.4451 56.5922 44.3981C56.3653 43.3408 56.3653 42.2465 56.5922 41.1891C57.8162 35.6002 59.3209 30.0781 61.1015 24.6436C61.4622 23.0861 61.8325 21.4659 62.4918 19.9389ZM52.9779 59.4062C52.9779 59.0326 53.7399 58.586 54.2034 58.2326C54.7516 57.8299 55.3219 57.4584 55.9122 57.1217C56.3777 56.8712 56.8549 56.6459 57.3439 56.4462C57.2039 57.1175 56.9266 57.7512 56.5294 58.3078C56.1322 58.8636 55.6239 59.3304 55.0371 59.6761L54.4399 59.2608C53.6675 59.5203 53.4827 60.2375 53.1013 60.7982C52.7207 61.3589 52.6483 62.024 51.7118 62.2208C51.8559 61.8786 51.969 61.6914 52.0311 61.4834C52.2676 60.7773 52.9676 60.3307 52.9262 59.4271L52.9779 59.4062ZM51.0215 38.748C51.2898 36.6193 51.4236 34.4691 51.6187 32.3292C51.7035 30.5157 52.1814 28.7431 53.0193 27.1362C53.1069 27.3615 53.1724 27.5946 53.2152 27.8325C53.3179 29.4318 53.3896 31.0207 53.493 32.62C53.5096 33.2656 53.5779 33.9084 53.6986 34.5421C54.4951 38.2569 54.9295 42.0413 54.9957 45.8416C54.9695 46.0142 54.9695 46.1895 54.9957 46.3613C55.7888 48.6876 55.4185 51.0354 55.2433 53.4034C55.2392 54.2027 55.0785 54.9937 54.7695 55.7297C54.5633 56.0378 54.3171 56.3168 54.0385 56.5603L53.8323 56.4149C53.8323 55.9892 53.8944 55.5738 53.9565 55.1585C54.1102 53.1766 53.9151 51.1829 53.3793 49.2691C53.1634 48.2305 53.2352 47.1195 53.0807 46.0496C52.7814 43.7811 52.64 41.4938 52.6586 39.2051C52.6586 39.1327 52.5765 39.0701 52.4428 38.883C52.3462 39.0993 52.2635 39.3213 52.1952 39.548C51.5573 42.1234 52.1952 44.7411 52.1952 47.2858C52.2532 48.794 52.4566 50.2931 52.8028 51.7624C53.0648 52.6284 53.0648 53.5544 52.8028 54.4211C52.5145 53.299 52.2676 52.1672 51.9069 51.066C51.6483 50.2089 51.3036 49.3804 50.8774 48.5943C50.1919 47.482 49.9147 46.1623 50.0953 44.8656C50.3422 42.8406 50.7643 40.8044 51.0215 38.748ZM45.5749 42.6743C46.9031 45.1773 48.2113 47.7011 49.5699 50.2041C50.9794 52.4733 51.6359 55.1363 51.4442 57.8069L49.9816 59.1363C49.734 57.9265 49.425 56.7307 49.0554 55.553C48.5299 54.0991 47.8507 52.6966 47.2225 51.274C46.5363 49.6538 45.8191 48.0406 45.0708 46.4336C44.9046 46.0837 44.8122 45.7032 44.7977 45.3157C44.784 44.9282 44.8488 44.5415 44.9881 44.1804C45.1329 43.6559 45.2356 43.1209 45.297 42.5804C45.4205 42.5804 45.5446 42.5804 45.5749 42.6743ZM44.5454 40.0774C44.7516 40.5554 44.9061 40.9087 44.9578 41.0541L43.9282 44.17C43.1868 43.2768 43.8351 42.6534 43.9282 42.0197C43.9268 41.315 44.1626 40.6298 44.5971 40.0774H44.5454ZM43.5054 37.3873C43.7737 37.9279 44.0516 38.4259 44.3192 39.0179C42.9186 39.6413 43.6089 41.2406 42.62 42.1338C42.6593 40.5713 42.8489 39.0166 43.1868 37.4917L43.5054 37.3873ZM40.0877 44.0656C39.3257 42.1366 38.8568 40.1025 38.6975 38.0315C38.6361 36.9205 38.3271 35.8193 38.1727 34.7077C37.9872 33.6426 37.8637 32.5678 37.8017 31.4882C37.772 30.6757 37.8658 29.8631 38.0796 29.0784C38.8058 26.2249 39.0216 23.2635 38.7182 20.3334C38.6023 19.3608 38.7706 18.3751 39.2023 17.4979L39.4595 17.55C39.5243 17.9723 39.5485 18.4001 39.5312 18.8273C39.243 21.4756 39.9843 24.0203 40.5608 26.5233C41.138 29.0269 41.8483 31.717 42.5172 34.3028C42.7027 35.0193 42.96 35.7052 43.1765 36.38C42.1469 37.4186 42.3117 38.7689 41.7966 40.0461C41.4366 39.6934 41.2407 39.4444 41.3745 38.9247C41.6524 37.8861 41.8276 36.8475 42.0435 35.8089C42.0552 35.5877 42.0552 35.3658 42.0435 35.1438C41.838 35.1438 41.6525 35.1438 41.6214 35.2586C40.7877 37.0242 39.9946 38.7689 40.9421 40.794C41.5738 42.2124 42.3283 43.571 43.1972 44.8552C43.9337 46.0065 44.5647 47.2232 45.0812 48.4907C46.1108 50.8691 47.1404 53.258 48.0569 55.6671C48.3389 56.4712 48.5796 57.2893 48.7775 58.1185L48.5713 58.2952C48.3451 58.1805 48.0155 58.129 47.9024 57.9419C47.4569 57.1989 47.0514 56.433 46.6873 55.6462C45.9149 54.1554 44.9715 52.7606 43.8764 51.4917C43.1799 50.5568 42.5765 49.555 42.0745 48.5011C41.3256 47.0778 40.6615 45.6107 40.0877 44.1074V44.0656ZM32.0669 47.1815C31.2945 46.6416 31.6552 45.8416 31.3876 44.9797C32.4068 45.4889 32.4482 45.6962 32.0669 47.2023V47.1815ZM46.6873 65.3262C46.4115 64.3349 46.188 63.3297 46.0177 62.3147C45.9046 62.3767 45.6577 62.4803 45.2667 62.657C44.3709 61.6184 43.4234 60.4657 42.5172 59.3234C41.4877 58.0045 40.5305 56.6125 39.4285 55.3352C37.83 53.6344 35.9301 52.25 33.8275 51.2531C30.4401 49.3943 27.0017 47.6281 23.5316 45.8416C22.9551 45.5404 22.3372 45.354 21.74 45.1042C18.9229 43.8291 16.2651 42.2221 13.8225 40.3167C13.7129 40.2367 13.6219 40.1324 13.5578 40.0113C13.4936 39.891 13.4577 39.7574 13.4522 39.6204C14.3377 39.9842 15.2431 40.3167 16.1286 40.659C19.4932 41.9967 22.9895 42.9679 26.5589 43.5571L27.3203 43.7025C28.6485 43.9933 28.5974 44.0037 28.7209 45.354C28.7726 45.9147 28.6078 46.7042 29.6677 47.0159C29.6677 46.1429 29.6677 45.3748 29.6677 44.6374C30.1725 44.3981 30.5428 44.554 30.4608 44.9797C30.1415 46.7042 31.2745 47.4722 32.52 48.2103C34.4612 49.3874 36.2887 50.7474 37.9768 52.2709C38.1203 52.3662 38.2575 52.4705 38.3885 52.5825C40.9629 55.418 43.7944 58.0246 45.9253 61.2448C46.3046 61.8292 46.6487 62.4358 46.9549 63.0626C47.1611 63.4674 47.3873 63.5711 47.7886 63.1662C46.8859 60.8093 45.4798 58.682 43.6703 56.9345C42.4966 55.7297 41.3849 54.4726 40.1595 53.3304C38.7389 52.0323 37.2148 50.8274 35.7321 49.5912C35.3018 49.2302 34.8439 48.9032 34.3633 48.6152C33.9185 48.3905 33.5689 48.0114 33.3799 47.5474C33.1903 47.0841 33.1737 46.5665 33.3337 46.0914C34.2936 46.5679 35.228 47.0945 36.1342 47.6698C37.39 48.563 38.5844 49.5502 39.7684 50.547C40.225 50.931 40.6332 51.3707 40.9836 51.8556C41.3952 52.4058 42.0131 52.5408 42.5172 52.8942C43.3765 53.5391 44.1392 54.305 44.7826 55.169C45.9563 56.7057 47.0473 58.2848 48.1182 59.9259C48.3196 60.3544 48.4616 60.8086 48.5403 61.2761C48.1389 61.7123 47.6141 62.1172 48.0872 62.8128C48.561 63.5092 48.8596 63.4466 49.3851 63.0104C49.6223 62.7648 49.8361 62.497 50.0229 62.2104C50.5236 61.5196 51.116 60.9005 51.7835 60.3725C51.438 60.8344 51.1767 61.3547 51.0119 61.9092C50.8629 62.9979 50.3547 64.0038 49.5699 64.7655C49.2609 65.1189 49.0865 65.5134 49.7761 65.8041C50.5278 65.0354 51.2794 64.2361 52.0718 63.4779C52.9428 62.6076 53.8572 61.7826 54.8109 61.0055C56.2446 59.8445 57.7397 58.7627 59.2892 57.7652C60.6167 56.9846 61.9925 56.2911 63.4076 55.6879C65.7447 54.6493 68.1128 53.6107 70.4402 52.5206C72.0153 51.7728 73.529 50.8893 75.104 50.09C75.835 49.7157 76.5971 49.4249 77.3177 49.0514C79.0679 48.1477 80.8492 48.6569 82.6201 48.906C83.3821 49.0096 84.1338 49.29 84.7717 48.5317L85.8013 49.4667C85.9971 49.3526 86.193 49.3004 86.275 49.1759C86.4454 48.8455 86.7136 48.5762 87.0412 48.4051C87.3694 48.234 87.7418 48.17 88.108 48.2201C88.1894 48.2361 88.2735 48.2361 88.3549 48.2201C91.4437 47.1815 94.7283 46.8183 97.7343 45.4576C99.2893 44.7515 100.926 44.2013 102.502 43.5467C103.017 43.3011 103.517 43.0201 103.995 42.7056C103.995 42.6221 103.995 42.5289 103.912 42.435C103.696 42.435 103.439 42.259 103.253 42.3209C100.72 43.2454 98.1053 43.8688 95.6958 45.2086C95.111 45.482 94.4904 45.6712 93.8532 45.7693C92.2126 46.1227 90.5754 46.4684 88.9417 46.8079C88.7052 46.8601 88.4576 46.8079 88.0563 46.8907L89.2197 44.9901C89.1479 44.9178 89.0859 44.8343 89.0135 44.7515C88.768 44.8204 88.5349 44.9289 88.3239 45.0736C87.768 45.6135 87.2943 46.2263 86.7281 46.7662C86.3785 47.0521 86.0061 47.3088 85.6165 47.5349C85.6165 46.33 87.006 46.0705 86.7695 44.8656C86.5047 44.9213 86.253 45.027 86.0282 45.1773C85.4206 45.7797 84.8544 46.4336 84.2572 47.0569C83.8455 47.4931 83.4332 47.9815 82.5891 47.514L83.8966 45.7901C83.4952 45.3435 83.207 45.5404 82.9497 45.7901C82.4746 46.2235 82.0408 46.6994 81.6519 47.2128C81.3843 47.5975 81.1271 47.8048 80.7051 47.6803C79.0162 47.1717 77.6163 47.9091 76.1957 48.7189C75.5571 49.0618 74.9392 49.4249 74.311 49.7575L74.1358 49.5397L76.3598 45.4785C77.3887 45.139 78.4376 44.8649 79.5003 44.6576C82.2174 44.1595 84.9896 44.0482 87.737 44.3258C89.4797 44.5345 91.2368 44.5832 92.9877 44.4712C93.0698 44.4809 93.1532 44.4809 93.2353 44.4712C95.9427 43.7748 98.6611 43.1522 101.328 42.394C103.387 41.7915 105.302 41.116 107.505 41.459C108.803 41.667 110.131 41.667 111.521 41.9682C111.223 42.1491 110.909 42.3021 110.584 42.4246C108.179 43.2127 105.833 44.1707 103.562 45.2914C101.503 46.2055 99.3404 46.995 97.2198 47.8256C96.9826 47.9293 96.7254 47.9815 96.4992 48.106C94.5566 49.1613 92.4616 49.9008 90.2907 50.2973C88.7832 50.7905 87.3053 51.37 85.8633 52.0323C83.1863 52.9359 80.4989 53.8396 77.7708 54.5457C76.4984 54.7321 75.2158 54.8288 73.9304 54.8364C72.9008 54.9505 71.8712 55.2205 70.9133 55.418L67.5259 56.0831C64.6778 56.7425 61.9408 57.8201 59.403 59.2817C57.6638 60.2146 56.0391 61.3513 54.5633 62.6674C53.6641 63.3847 52.8972 64.257 52.2986 65.2434C52.0166 65.7144 51.8601 66.2515 51.8456 66.801C51.869 67.2706 51.7538 67.7367 51.5159 68.1408C49.7133 71.1489 48.2162 74.3329 47.0473 77.6442C46.4604 79.0772 45.7722 80.4658 44.9881 81.7987C44.7274 82.344 44.504 82.9061 44.3192 83.4814C43.6234 85.7639 42.6882 87.9642 41.529 90.0456C41.1801 88.3837 41.4359 86.6508 42.2497 85.1642C42.5076 84.8401 42.7351 84.4922 42.9289 84.1256C43.0937 83.7201 43.1455 83.2943 43.7427 83.2943C44.175 83.2943 44.3709 82.9931 44.4116 82.5054C44.4936 81.864 44.6316 81.2317 44.824 80.6146C45.2764 78.8595 45.7398 77.1044 46.1825 75.3492C46.1825 75.1099 46.1211 74.8296 46.1825 74.5805C46.1577 73.8445 46.3591 73.119 46.759 72.5033C46.9859 72.0915 47.0935 71.6233 47.068 71.153C47.028 70.5269 47.0211 69.8995 47.0473 69.2734C47.259 67.9551 47.1349 66.6042 46.6873 65.3471V65.3262ZM30.327 73.7395C30.8725 76.4498 31.3566 79.1712 31.851 81.8821C31.851 82.1416 31.851 82.4011 31.9538 82.6508L33.7144 90.4714C33.7488 90.5945 33.7551 90.7246 33.7323 90.8505C33.7088 90.9771 33.6571 91.0961 33.5806 91.1984C32.973 89.5677 32.3862 87.9267 31.7683 86.2856C31.4283 85.4028 31.0683 84.5305 30.6773 83.6686C30.1208 82.4533 29.5339 81.2484 28.9574 80.0435C28.8436 79.8132 28.7836 79.5586 28.7836 79.3012C28.7836 79.0432 28.8436 78.7892 28.9574 78.5583C29.2153 77.8939 29.3795 77.1976 29.627 76.3983C28.5975 76.3983 28.7519 77.5719 27.8768 77.7896C27.7527 77.3534 27.4444 76.8964 27.5265 76.5228C27.9692 74.6014 28.5044 72.7113 29.0705 70.561C29.6994 71.5231 30.127 72.6049 30.327 73.7395ZM28.2678 67.1962L28.6181 67.2581C28.9367 69.7096 27.5886 71.7868 27.0017 74.2271C26.7286 74.0699 26.5224 73.8167 26.4224 73.5162C26.3217 73.2164 26.3335 72.8887 26.4555 72.5965C27.0734 70.8031 27.6775 69 28.2678 67.1857V67.1962ZM33.9206 105.271C33.8944 104.798 33.8944 104.323 33.9206 103.849C33.9268 102.249 33.7364 100.655 33.3537 99.1024C33.0585 97.4989 32.6027 95.9295 31.9951 94.4178C31.3152 92.9124 30.5739 91.3959 29.8325 89.983C28.3299 87.2728 26.6927 84.6341 25.2101 81.903C23.5509 78.8672 22.4558 75.5517 21.9772 72.1193C21.74 70.3635 21.2359 68.6605 20.9476 66.9262C20.5352 64.7551 20.1959 62.5847 19.7939 60.4135C19.2408 57.0215 18.0037 53.7804 16.1597 50.8893C16.0624 50.6799 15.9866 50.4608 15.9335 50.2354C17.4913 50.8733 18.8801 51.8688 19.9897 53.1432C21.3593 54.9192 22.6048 56.7996 23.8405 58.6688C25.0763 60.5387 26.2086 62.3767 27.372 64.2361C27.6334 64.6334 27.8568 65.0535 28.0409 65.4925C28.1306 65.7304 28.1306 65.9927 28.0409 66.2299C27.2796 67.9231 26.4555 69.585 25.6832 71.3089C25.5142 71.1607 25.3977 70.961 25.3508 70.7398C25.3046 70.5186 25.3307 70.2883 25.4259 70.0831C25.7349 69.1899 26.0024 68.2661 26.25 67.352C26.2921 66.9582 26.2921 66.561 26.25 66.168C25.2204 66.8845 25.457 68.0685 24.5301 68.6501L23.295 65.5342C22.6668 66.0226 22.9447 66.5729 23.0682 66.9158C23.4392 68.1207 23.8819 69.2942 24.3143 70.4678C24.8494 71.9217 25.4983 73.3444 25.9204 74.8296C26.6045 77.1085 27.5079 79.3138 28.6181 81.4146C30.1311 84.5305 31.2228 87.7194 32.4379 90.918C32.9006 92.1646 33.1068 93.5044 33.4675 94.8025C33.6833 95.6332 33.9406 96.454 34.1468 97.2951C34.2543 97.7097 34.3164 98.134 34.3323 98.5626C34.2702 99.5413 34.2702 100.523 34.3323 101.502C34.5764 103.214 34.4784 104.958 34.044 106.632C34.0129 106.175 33.9509 105.718 33.9206 105.262V105.271ZM37.4624 96.7135C37.5962 95.5608 37.8224 94.4178 37.9562 93.2547C38.1623 91.4578 38.3272 89.6616 38.5223 87.8648C38.5644 87.4828 38.6333 87.1044 38.7285 86.7322C39.1899 84.5214 39.1726 82.2362 38.6768 80.0331C38.5575 80.2105 38.4706 80.4073 38.4196 80.6146C38.3168 81.9545 38.2547 83.2839 38.183 84.6237C38.183 85.1016 38.183 85.5795 38.1106 86.047C37.6162 89.1629 37.081 92.3615 36.6176 95.5191C36.4942 96.3497 36.4424 97.1914 36.3604 98.0325C36.3604 98.6349 36.3604 99.2373 36.288 99.8293H35.9383C35.8873 99.5219 35.8991 99.2067 35.9715 98.9034C36.0439 98.6001 36.1763 98.3142 36.3604 98.0638V97.9907C36.2783 97.8871 36.1238 97.7834 36.1342 97.6895C36.3914 94.3768 36.7107 91.0738 36.9162 87.7604C37.05 85.8181 36.9783 83.8759 37.0603 81.9343C37.1431 80.168 37.3176 78.4025 37.452 76.6265C37.5238 75.5878 37.6162 74.6633 37.6679 73.6769C37.7603 72.0358 37.8017 70.3843 37.8948 68.7537C37.93 68.4212 38.0748 68.1109 38.3065 67.8709C38.6051 69.0132 38.9244 70.1457 39.2023 71.2984C39.8609 74.0616 40.5201 76.824 41.1277 79.6073C41.6263 81.5051 41.5656 83.5086 40.9525 85.3715C40.3036 87.1169 40.4374 88.934 40.2215 90.7309C40.2215 91.1566 40.1284 91.583 40.0464 92.0088C39.7167 93.8363 39.3974 95.6645 39.0167 97.4822C38.7802 98.6245 38.4402 99.7466 38.1313 100.961C39.0271 101.512 38.7182 102.291 38.3168 103.038C37.5031 104.503 36.6487 105.957 35.7115 107.598C35.5487 106.264 35.737 104.91 36.2576 103.672C36.6928 102.589 36.99 101.455 37.1431 100.297C37.3383 99.1232 37.3279 97.8975 37.4624 96.7031V96.7135ZM16.7775 93.4731C16.9258 93.7472 17.023 94.0464 17.0658 94.3559C16.9292 95.8189 16.4831 97.2359 15.7583 98.5104C15.5011 96.7448 16.4376 95.2283 16.4686 93.5253L16.7775 93.4731ZM15.861 93.0578C15.501 94.3037 15.1197 95.5399 14.7391 96.7761C14.7391 96.9111 14.5225 97.0043 14.3474 97.1914C14.2343 96.9625 14.0798 96.8067 14.1005 96.6926C14.4094 95.0001 14.7287 93.3277 15.0784 91.4996C15.7273 91.9149 16.0672 92.351 15.861 93.0265V93.0578ZM20.7724 119.189C19.2277 116.655 18.023 113.902 16.6541 111.244C16.4155 110.644 16.1369 110.061 15.8197 109.499C14.1418 107.089 13.4619 104.243 12.3709 101.574C11.3848 99.2825 10.1883 97.0885 8.79804 95.0203C7.6657 93.1719 6.4713 91.3959 5.33896 89.5364C4.96795 88.8742 4.65832 88.1785 4.41213 87.4592C3.84596 85.9225 3.38256 84.3433 2.76467 82.8275C2.2647 81.1454 2.07642 79.3847 2.20882 77.6338C7.35676 81.2588 10.7648 86.1611 14.5639 90.6272L13.1433 95.5504C12.9585 94.6432 13.004 93.7034 13.2771 92.8185C13.3798 91.9775 13.4929 91.1364 13.6163 90.2328C13.0709 90.0978 12.9061 90.3364 12.8137 90.7935C12.6585 91.7069 12.4206 92.6036 12.1034 93.4731C11.8241 92.6161 11.8454 91.6881 12.1647 90.8456C12.3295 90.4088 12.4227 90.0248 11.7634 89.7236C11.5062 90.4818 11.2793 91.1775 10.9503 92.175C9.98212 90.783 9.2408 89.6714 8.40706 88.4978C7.92296 88.7684 7.99533 89.2665 8.2629 89.7131C8.68494 90.4088 9.19941 91.0425 9.66283 91.718C10.3118 92.6731 10.9503 93.6498 11.5986 94.605C12.2475 95.5608 12.824 96.4645 13.5136 97.3264C14.2032 98.1883 15.2432 99.206 16.0362 100.204C16.4355 100.709 16.7486 101.277 16.963 101.886C17.8071 104.108 18.6002 106.352 19.3925 108.585C20.0208 110.147 20.4097 111.797 20.5456 113.477C20.7097 114.753 21.1042 115.989 21.7089 117.123C22.6461 119.2 23.6964 121.339 24.7363 123.427C25.228 124.198 25.5763 125.054 25.7659 125.95C23.9743 123.593 22.1827 121.516 20.7724 119.158V119.189ZM29.6374 156.476C29.5181 156.839 29.2767 157.149 28.9554 157.352C28.634 157.555 28.2526 157.638 27.8768 157.587C27.732 157.545 27.5989 157.471 27.4858 157.372C27.3727 157.272 27.2823 157.149 27.2217 157.01C27.161 156.872 27.1306 156.721 27.1334 156.57C27.1362 156.418 27.172 156.269 27.2382 156.133C27.3693 155.81 27.6147 155.549 27.9271 155.399C28.2395 155.249 28.5961 155.222 28.9264 155.323C29.5443 155.52 29.8119 155.956 29.6374 156.445V156.476ZM30.1725 142.839C29.8739 144.978 29.5339 147.128 29.3691 149.278C29.256 150.857 29.3691 152.446 29.4312 154.108L27.372 154.326C27.3251 154.02 27.3044 153.711 27.31 153.401C27.4341 152.103 27.6189 150.815 27.743 149.517C28.0313 146.547 28.3195 143.576 28.5561 140.606C28.6181 139.93 28.4016 139.224 28.443 138.529C28.5147 137.219 28.6898 135.911 28.7926 134.592C28.8416 134.172 28.8167 133.747 28.7209 133.336C28.494 132.515 28.1651 131.705 27.9071 130.895C27.5106 129.937 27.301 128.911 27.2899 127.872C27.272 127.181 27.1327 126.499 26.8776 125.857C26.5852 124.904 26.2417 123.968 25.848 123.053C25.3335 121.88 24.7363 120.747 24.1598 119.594L22.4406 116.219L23.5936 112.739C22.564 112.677 22.7385 113.716 22.2344 114.079C21.6165 113.124 21.5552 113.041 22.1724 111.379C22.502 110.538 22.4916 109.478 23.4702 108.844L23.0171 107.982C21.7503 108.481 22.2448 109.966 21.3386 110.735C21.1931 110.561 21.0945 110.352 21.051 110.129C21.0076 109.905 21.0214 109.674 21.0917 109.457C21.431 108.481 21.8227 107.536 22.1213 106.56C22.2247 106.295 22.253 106.008 22.2034 105.728C22.0868 105.317 21.9386 104.914 21.7607 104.524C21.3593 105.687 20.9579 106.851 20.5662 108.014L20.2063 107.921C19.2898 106.331 20.5766 105.054 20.958 103.61C20.7828 103.257 20.4945 103.257 20.278 103.558C19.8663 104.15 19.516 104.794 19.0325 105.635C18.4657 104.087 18.003 102.665 17.4265 101.2C18.2092 100.167 18.5995 98.8846 18.5278 97.5858C17.4982 97.2331 17.8692 98.3963 17.323 98.6245C17.2258 97.5761 17.3885 96.5194 17.7968 95.5504C18.6408 95.9448 18.7747 96.7865 19.0222 97.4405C19.7567 99.5114 20.6552 101.518 21.7089 103.444C21.8138 103.718 21.8862 104.004 21.9255 104.295C22.7454 105.049 23.3226 106.033 23.5833 107.121C23.8833 108.061 24.1308 109.018 24.3246 109.987L25.1894 113.445C26.219 116.364 27.2486 119.272 28.1133 122.232C28.3451 123.377 28.452 124.544 28.4326 125.712C28.4954 127.955 28.8029 130.184 29.3491 132.359C29.4622 132.764 29.7919 133.117 29.8532 133.522C30.0077 134.685 30.6876 135.869 30.5332 136.929C30.2546 138.871 30.4401 140.855 30.1725 142.808V142.839ZM36.6487 124.735C35.2998 126.418 34.0336 128.163 32.7468 129.928C32.4482 130.334 32.2007 130.791 31.789 131.445C31.751 131.159 31.751 130.869 31.789 130.583C32.2655 128.695 33.124 126.926 34.3115 125.39C35.0074 124.49 35.6404 123.543 36.2059 122.554C38.3968 119.509 40.7842 116.612 43.3516 113.882C43.4675 113.756 43.5909 113.638 43.722 113.529L43.9792 113.612C43.9427 113.883 43.884 114.15 43.804 114.412C43.2689 115.585 42.7744 116.759 42.1572 117.912C41.9628 118.286 41.7242 118.634 41.4463 118.95C39.8402 120.882 38.2134 122.762 36.6487 124.705V124.735ZM42.229 120.81C41.4566 121.386 40.6449 121.907 39.7995 122.367L39.614 122.129C39.9126 121.859 40.1801 121.568 40.4891 121.318C40.798 121.069 41.0759 121.038 41.2201 120.81C43.2792 117.382 46.368 114.848 49.0968 112.033C50.4146 110.683 51.907 109.509 53.2152 108.19C54.5227 106.871 55.7681 105.521 57.0349 104.181C57.5907 103.589 58.1673 102.997 58.6817 102.374C58.8975 102.047 59.0803 101.699 59.2279 101.335C59.361 100.959 59.5561 100.608 59.8044 100.297C60.7147 99.3452 61.4656 98.2509 62.0284 97.0565C62.6566 96.1876 63.3441 95.3653 64.0875 94.5945C64.642 93.9351 65.1413 93.2297 65.5805 92.4867C65.7564 92.0331 65.7888 91.5357 65.6729 91.0634C67.2308 88.765 68.7893 86.4762 70.3471 84.198L70.5637 84.3329C69.9251 85.59 69.2865 86.8463 68.6383 88.0929L64.3448 96.4018C63.3166 98.2989 62.0835 100.075 60.6691 101.699C58.1465 104.7 55.6447 107.702 53.0607 110.652C49.6899 114.279 46.0701 117.663 42.229 120.778V120.81ZM89.5907 101.907C89.6555 101.699 89.7383 101.498 89.8376 101.304C90.5479 100.266 91.2892 99.165 91.9685 98.0533C92.4112 97.3264 92.7512 96.5264 93.1422 95.7577L93.9352 94.2829C94.1076 94.022 94.2662 93.7514 94.409 93.4731C96.4061 88.9138 98.857 84.5618 100.432 79.8153C100.842 78.8171 101.313 77.8459 101.842 76.9068C102.872 74.8296 103.768 72.8358 104.767 70.8309C105.148 70.0713 105.637 69.3722 106.219 68.7537L106.62 68.9826C106.517 69.2838 106.445 69.585 106.321 69.8654C105.504 71.5892 104.688 73.32 103.871 75.0584C103.356 76.0971 102.779 77.2185 102.295 78.3301C101.688 79.711 101.194 81.1447 100.576 82.4846C99.7624 84.3023 98.8977 86.0888 98.0225 87.8648C96.8488 90.2536 95.5413 92.5904 94.46 95.0203C93.4146 97.3396 92.0526 99.5003 90.4141 101.439C90.3127 101.566 90.1865 101.671 90.0424 101.746C89.8989 101.821 89.7417 101.866 89.5803 101.875L89.5907 101.907ZM24.726 112.926L25.2101 113.415C25.148 113.571 25.0763 113.726 24.8908 114.163C24.7363 113.601 24.6439 113.31 24.5612 113.009L24.726 112.926Z" fill="#101A24"/>
</g>
</svg>
