<svg width="93" height="106" viewBox="0 0 93 106" fill="none" xmlns="http://www.w3.org/2000/svg">
<g opacity="0.1">
<path d="M77.339 64.0723C76.8022 64.2833 76.2511 64.4629 75.6885 64.6099C73.4497 65.1522 71.2154 65.665 68.9512 66.1832C68.338 66.3109 67.707 66.3653 67.073 66.3454C66.0234 66.3459 64.984 66.4727 63.9801 66.7223C62.5081 67.0512 61.0447 67.4036 59.5693 67.7261C58.6714 67.8899 57.7395 67.8793 56.8299 67.6947C55.4799 67.5213 54.1224 67.4432 52.7689 67.461C51.9846 67.4501 51.1965 67.4014 50.4105 67.3791C49.0414 67.3194 47.685 67.5132 46.4176 67.9498C44.9678 68.4892 43.8283 69.3755 42.5899 70.1599C42.5457 70.1913 42.553 70.2667 42.4421 70.426C42.7808 70.3193 43.0173 70.2502 43.2469 70.1839C44.5163 69.681 45.8526 69.3289 47.2262 69.1351C48.1999 69.0347 49.1794 68.9988 50.1533 68.9142C50.9303 68.8497 51.7035 68.7476 52.4718 68.6749C53.6706 68.4878 54.9055 68.5196 56.112 68.7682C56.9353 68.9065 57.7662 68.9851 58.5964 69.0031C60.3362 69.1935 62.0788 69.3748 63.8172 69.617C64.3386 69.7158 64.8439 69.8905 65.3149 70.135C65.5346 70.211 65.6636 70.4843 65.8733 70.7029C65.6909 70.8426 65.5845 70.9878 65.4358 71.0302C64.0717 71.5159 62.6445 71.845 61.1839 72.0108C60.1667 72.0909 59.1747 72.3257 58.1633 72.4702C57.5224 72.5609 56.8697 72.6056 56.2308 72.6918C55.3946 72.7982 54.5606 72.9312 53.7262 73.0487C53.2762 73.0475 52.8327 73.1175 52.4136 73.2556C52.0327 73.4334 51.6166 73.5401 51.1868 73.5703C50.7238 73.6381 50.2841 73.7946 49.8945 74.03C49.5046 74.2654 49.1728 74.5752 48.9188 74.9405C48.7582 75.1526 48.5731 75.3469 48.3663 75.5194C47.5505 76.2046 46.6548 76.8004 45.6948 77.2966C45.0139 77.6491 44.4102 78.1012 43.7545 78.4782C43.3001 78.7463 42.826 78.9839 42.3348 79.1894C41.1476 79.6635 39.9422 80.0951 38.7649 80.5569C37.9396 80.8961 37.1264 81.26 36.3247 81.6489C35.3866 82.1391 34.3938 82.535 33.3615 82.8309C32.095 83.1629 30.8425 83.552 29.5575 83.8413C28.8449 84.0041 28.1089 84.0786 27.3683 84.0626C26.575 84.0528 25.8212 84.3303 25.2612 84.838C24.3159 85.5986 23.3423 86.3289 22.4308 87.1221C21.61 87.8791 20.8441 88.655 20.0183 89.4103C19.6832 89.6897 19.3244 89.9431 18.9458 90.1688C18.8416 90.2436 18.7127 90.2819 18.5792 90.2783C18.446 90.2748 18.3155 90.2289 18.2093 90.1483C18.0273 90.0282 17.8388 89.9107 17.6582 89.7858C16.878 89.2455 16.9812 88.5108 17.5868 87.9398C18.8231 86.8061 20.1335 85.781 21.3899 84.6856C21.7992 84.3033 22.1866 83.9008 22.5504 83.479C22.6096 83.4214 22.6402 83.333 22.7043 83.2928C23.5289 82.7347 23.9875 81.9097 24.5629 81.1511C24.9064 80.6191 25.1152 80.0154 25.1737 79.3849C25.3278 78.4545 25.4822 77.5242 25.6926 76.6084C25.9239 75.4266 26.2297 74.2621 26.6084 73.1207C27.4202 70.8363 28.6175 68.7048 30.1557 66.8065C30.8744 65.957 31.7253 65.2104 32.4975 64.4001C33.0843 63.7859 33.6462 63.1475 34.2077 62.509C34.7695 61.8709 35.3229 61.2243 35.8966 60.6004C36.0196 60.4711 36.2327 60.42 36.5065 60.2909C36.5323 60.4912 36.5342 60.6926 36.5115 60.8912C36.3355 61.4964 36.1432 62.1013 35.9374 62.6962C35.4969 63.9699 35.0849 65.2587 34.566 66.5C33.8743 68.1602 33.0794 69.7798 32.3479 71.4262C32.1554 71.8539 32.0408 72.3141 31.8865 72.7603C31.7544 73.1033 31.5797 73.4287 31.3663 73.7307C30.808 74.4735 30.3258 75.2668 29.9264 76.1001C29.5331 76.8401 29.098 77.5579 28.6234 78.2516C28.5912 78.3447 28.5293 78.4272 28.4447 78.5907C28.776 78.5323 29.0658 78.3547 29.2534 78.0948C29.8786 77.1931 30.723 76.4502 31.7199 75.9243C32.1453 75.6566 32.4902 75.2917 32.7247 74.8614C33.1048 74.295 33.5264 73.7559 33.9875 73.2475C34.7442 72.4007 35.5409 71.5835 36.328 70.7625C36.6429 70.4343 36.9912 70.1386 37.3108 69.812C37.9045 69.2536 38.351 68.5701 38.6171 67.8126C38.8699 67.114 39.2676 66.4753 39.7874 65.9324C41.1892 64.3355 42.5615 62.7598 44.0455 61.2328C44.7666 60.4728 45.6484 59.8306 46.4113 59.1108C47.1747 58.3911 47.9786 57.6179 48.8084 56.916C49.763 56.1119 50.7592 55.3479 51.7592 54.5902C52.5269 53.9867 53.3448 53.4316 54.1512 52.8624C54.2543 52.8078 54.3645 52.7653 54.4796 52.7365C54.5317 52.7883 54.5725 52.8491 54.6002 52.9152C54.628 52.9809 54.642 53.0509 54.6413 53.1211C54.6404 53.1909 54.625 53.2591 54.5957 53.3222C54.5667 53.3853 54.5243 53.4418 54.4712 53.4883C54.1064 53.9606 53.7504 54.4412 53.3875 54.9243C52.3609 56.2766 51.3778 57.6488 50.3579 58.9978C48.9208 60.8896 47.4625 62.7636 46.0169 64.6472C45.5689 65.2218 45.1547 65.8207 44.7764 66.4403C45.1128 66.26 45.4557 66.0924 45.7835 65.8883C46.9113 65.1646 48.0125 64.4056 49.1518 63.6964C50.1088 63.0956 51.1126 62.5529 52.0859 61.9686C52.387 61.7597 52.6586 61.5166 52.8955 61.244C53.7643 60.2952 54.5301 59.2651 55.1834 58.1685C55.6364 57.384 55.9342 56.5228 56.0629 55.6258C56.2357 54.7699 56.3074 53.8838 56.5422 53.0438C56.7811 52.0238 57.1684 51.0458 57.6927 50.1372C57.7314 50.0254 57.8167 49.9249 57.8716 49.8138C58.2123 49.1198 58.5065 48.3993 58.9001 47.7288C59.3712 46.9262 59.6339 46.0229 59.6674 45.0902C59.754 44.1037 60.0913 43.162 60.6509 42.344C60.6794 42.2887 60.7173 42.2387 60.7635 42.1958C61.565 41.4945 62.1824 40.6306 63.0712 40.017C63.2605 39.8897 63.4179 39.7256 63.5953 39.5841C63.7727 39.4426 63.9984 39.4373 64.1154 39.6964C64.1948 39.8824 64.2291 40.0811 64.2161 40.2778C64.1614 40.8884 64.1 41.5022 63.9922 42.105C63.8845 42.7077 63.6957 43.3347 63.5514 43.9457C63.4582 44.2153 63.4612 44.513 63.3779 44.7861C63.2762 45.2696 63.1144 45.7375 62.8957 46.1805C62.5181 46.8423 62.2496 47.5581 62.0997 48.3045C61.9401 49.0246 61.7822 49.756 61.6688 50.4715C61.6033 50.8546 61.6392 51.2521 61.5936 51.6425C61.5331 52.1887 61.4396 52.7339 61.3611 53.2847C61.3371 53.3542 61.3427 53.4342 61.3181 53.6028C61.7841 53.3216 62.2046 52.9804 62.569 52.5884C63.3371 51.8861 64.0921 51.1743 64.8822 50.4897C65.5918 49.8766 66.3349 49.2956 67.0594 48.7033C67.1622 48.5998 67.2783 48.5088 67.4047 48.4323C68.124 47.9958 68.7926 47.4915 69.4013 46.9265C70.3763 46.1761 71.3632 45.44 72.3463 44.6977C73.3298 43.9551 74.2476 43.2735 75.1982 42.5614C75.9669 42.8273 76.0677 43.0859 75.6432 43.6833C75.3686 44.0722 75.0494 44.4303 74.7848 44.823C74.3298 45.5085 73.8613 46.1844 73.4613 46.9046C72.9083 47.9396 72.1688 48.8697 71.2742 49.6559C70.3232 50.4669 69.466 51.3779 68.5515 52.2273C67.8622 52.8631 67.1393 53.4667 66.4399 54.0991C66.0886 54.4199 65.7522 54.7616 65.4177 55.0987C64.8393 55.6527 64.3064 56.2474 63.8237 56.879C64.0181 56.8407 64.2092 56.7904 64.3959 56.728C65.6026 56.245 66.7974 55.7478 67.9992 55.263C68.4349 55.0857 68.8894 54.9515 69.2934 54.7531C70.3662 54.2861 71.4271 53.8046 72.4843 53.3169C74.3816 52.4533 76.2673 51.5756 78.1714 50.7248C78.4383 50.6536 78.717 50.6218 78.9977 50.6306C79.0649 50.893 79.0694 51.1637 79.0108 51.423C78.9523 51.682 78.832 51.9227 78.6589 52.1267C77.8531 53.3511 76.7373 54.3595 75.4063 55.0665C74.2859 55.7199 73.2082 56.4609 72.1182 57.1714C70.6052 58.1523 69.2165 59.2904 67.5234 60.0322C67.3213 60.1338 67.1063 60.2132 66.8828 60.2684C65.4861 60.6198 64.1355 61.1029 62.8516 61.7105C62.5538 61.8237 62.2363 61.8899 61.9117 61.9059C60.9193 61.9684 59.9463 62.1568 59.0182 62.4664C58.2403 62.7 57.4475 62.8933 56.6436 63.045C55.4414 63.226 54.3085 63.6589 53.3265 64.3127C53.2278 64.3881 53.0824 64.4208 52.9978 64.5843C53.4314 64.5104 53.8719 64.4494 54.3035 64.3488C55.8713 63.9854 57.4378 63.615 59.0033 63.2369C59.7671 63.097 60.5115 62.8877 61.2264 62.6111C61.7005 62.4083 62.2273 62.327 62.7559 62.3749C63.6251 62.4152 64.4786 62.2422 65.3544 62.2638C66.6843 62.2636 68.0167 62.3404 69.3441 62.4937C70.5149 62.6721 71.6993 62.6962 72.8631 62.5657C73.6854 62.4939 74.5188 62.5231 75.3424 62.6532C75.8787 62.7188 76.4213 62.766 76.9431 62.8736C77.1942 62.9367 77.423 63.0685 77.6003 63.2518C77.6662 63.3178 77.7128 63.3985 77.7356 63.4851C77.758 63.572 77.7561 63.662 77.7294 63.7458C77.7026 63.8296 77.6526 63.904 77.5837 63.9614C77.5151 64.0189 77.4308 64.057 77.339 64.0723ZM39.496 58.1605C40.47 57.7821 41.3951 57.3069 42.2562 56.742C42.6327 56.4769 43.0046 56.1942 43.3932 55.9591C44.4412 55.3376 45.4315 54.6361 46.3548 53.8609C47.9415 52.6214 49.3338 51.1774 50.4947 49.568C50.6243 49.3859 50.713 49.1792 50.755 48.9605C50.7562 48.787 50.7233 48.6135 50.658 48.4484C50.4796 48.4804 50.2686 48.4594 50.1322 48.5474C49.1851 49.1359 48.2212 49.7082 47.3333 50.3691C46.9082 50.7073 46.4379 50.9922 45.9333 51.2172C45.0432 51.5598 44.305 52.1267 43.3206 52.3067C43.2609 52.3171 43.2102 52.3675 43.1556 52.3953C42.4009 52.8162 41.6596 53.2622 40.8794 53.6431C39.8123 54.1587 38.7099 54.6151 37.6245 55.1195C37.1014 55.3548 36.5702 55.582 36.0775 55.8592C35.4516 56.2475 34.779 56.5663 34.0717 56.8101C33.5612 56.973 33.0632 57.1658 32.5807 57.3876C31.7657 57.7404 30.9555 58.1107 30.1439 58.486C29.6396 58.7079 29.149 58.9551 28.6747 59.2268C27.9002 59.6875 27.1582 60.1855 26.3955 60.6607C26.3955 60.6607 26.3206 60.6348 26.2357 60.6055C26.2804 60.4947 26.3358 60.3884 26.4016 60.2881C27.1439 59.3217 27.8959 58.3589 28.6351 57.4176C29.4913 56.2465 30.7054 55.3558 32.1257 54.8571C33.0952 54.5262 34.0325 54.1111 35.0152 53.7747C35.998 53.438 37.1129 53.2042 38.1319 52.8438C39.1511 52.4831 40.2614 51.9876 41.3195 51.547C41.8476 51.3288 42.3622 51.0696 42.9057 50.8881C44.1899 50.4559 45.4271 49.9172 46.6037 49.2788C46.9524 49.0728 47.2803 48.8379 47.584 48.577C47.9754 48.27 48.3264 47.9177 48.7192 47.6059C49.7153 46.8106 50.7198 46.0237 51.7227 45.2412C52.0203 45.0109 52.3345 44.7971 52.6156 44.5506C53.269 43.97 53.911 43.375 54.551 42.7845C55.1914 42.1941 55.8121 41.628 56.4254 41.0335C56.6373 40.8258 56.8836 40.5987 56.7637 40.2501C56.1788 39.9854 56.1754 39.979 55.7353 40.2329C55.4783 40.3783 55.2398 40.5506 55.0126 40.7063C54.314 41.1099 53.6472 41.5353 52.9485 41.9232C52.3851 42.2533 51.7967 42.5451 51.1872 42.7972C49.8136 43.3267 48.406 43.7765 47.0339 44.3014C45.4224 44.9201 43.8296 45.5819 42.2351 46.2324C41.4677 46.5449 40.6967 46.8506 39.9547 47.2186C38.7949 47.7921 37.655 48.3938 36.5358 49.0231C35.6885 49.5005 34.8901 50.0153 34.067 50.5529C33.6817 50.7943 33.3047 51.0596 32.9262 51.3139L32.8141 51.2179C32.9659 50.9891 33.131 50.7705 33.2692 50.5321C34.0979 49.1061 35.1498 47.8128 36.3909 46.6936C36.5737 46.5233 36.7461 46.3431 36.9073 46.1542C37.71 45.2557 38.4927 44.35 39.2988 43.4579C40.0541 42.6315 40.8263 41.8212 41.6034 41.0128C41.8823 40.7241 42.0836 40.3357 42.5988 40.3162C42.685 40.3094 42.7635 40.1961 42.8423 40.1296C43.1847 39.7694 43.5642 39.4322 43.975 39.1006C44.2682 38.8321 44.5915 38.5954 44.9406 38.3936C46.2959 37.6908 47.8147 37.2931 49.3846 37.2299C50.1599 37.1857 50.9312 37.0568 51.7031 36.9909C52.1045 36.9084 52.5225 36.9027 52.9333 36.9737C53.6361 37.139 54.3538 37.2464 55.0709 37.3539C55.9254 37.4089 56.7695 37.604 57.5659 37.9307C57.6408 37.9751 57.7241 38.0039 57.8104 38.0152C58.8376 38.1 59.8685 38.2066 60.8885 38.2471C62.3893 38.2875 63.8962 38.2778 65.3999 38.2775C66.5969 38.2749 67.7969 38.2476 68.9921 38.2343C69.2325 38.2341 69.4731 38.2497 69.7132 38.2341C70.7574 38.1735 71.7921 38.058 72.8367 38.0599C73.4287 38.0618 74.0566 37.8937 74.6313 38.2696C74.7159 38.2988 74.8486 38.2876 74.9565 38.283C75.4965 38.2565 76.0416 38.2317 76.5834 38.1848C76.7759 38.1925 76.9647 38.1497 77.129 38.0612C77.3297 37.9117 77.5835 37.8371 77.8446 37.8507C77.989 37.8382 78.1184 37.7216 78.2587 37.6558C78.1871 37.5111 78.0947 37.3756 77.9841 37.2537C77.8695 37.19 77.7441 37.1466 77.6146 37.1259C76.781 36.8376 75.9523 36.551 75.1184 36.2626C74.7104 36.0511 74.291 35.861 73.8621 35.6928C73.0159 35.4622 72.146 35.3363 71.275 35.3185C69.3506 35.2633 67.4319 34.9503 65.5768 34.3886C65.4718 34.3522 65.3671 34.316 65.2718 34.2517C64.3745 33.9051 63.4865 33.499 62.5664 33.2173C60.256 32.5636 57.8551 32.3231 55.4895 32.5077L55.2921 32.5123C53.8314 32.5638 52.3876 32.7623 50.9848 33.1043C50.8457 33.1343 50.7101 33.155 50.4668 33.196C50.5312 33.0823 50.6043 32.9738 50.6852 32.8707C51.3894 32.1933 52.0899 31.509 52.8056 30.8458C53.5214 30.1825 54.3941 29.4853 55.0986 28.7243C55.908 27.8142 56.5522 26.7808 57.0072 25.6634C57.0969 25.4354 57.2164 25.2198 57.3631 25.0217C58.0304 24.175 58.6894 23.3206 59.4 22.5098C60.1767 21.5978 60.7968 20.5734 61.2389 19.4715C61.3177 19.2383 61.4213 19.0145 61.5483 18.8032C62.3363 17.6452 63.2401 16.5638 64.2475 15.5733C64.9085 14.9221 65.474 14.1759 66.0934 13.4688C66.1352 13.4257 66.1667 13.3746 66.1861 13.3185C66.2054 13.2628 66.2126 13.2029 66.2063 13.1432C66.2003 13.0836 66.1813 13.0251 66.1507 12.9717C66.1201 12.9182 66.0785 12.8707 66.0282 12.8324C65.8226 12.6518 65.6266 12.7974 65.447 12.8966C65.0711 13.0947 64.7004 13.2941 64.3125 13.4618C63.3968 13.8635 62.4351 14.1866 61.5649 14.6504C60.5431 15.1974 59.5936 15.8579 58.617 16.4829C57.767 16.991 56.9682 17.5698 56.2302 18.2129C55.5261 18.8903 54.9035 19.6395 54.3725 20.4482C53.2623 22.0421 52.1072 23.6044 50.9567 25.1686C50.5647 25.7044 50.1241 26.2025 49.681 26.7572C49.7123 26.4243 49.7435 26.1228 49.7734 25.8264C49.8136 24.6722 50.0189 23.535 50.3835 22.4463C50.586 21.8847 50.7307 21.3038 50.8157 20.7117C50.8287 20.6155 50.819 20.517 50.788 20.4226C50.7569 20.3285 50.7049 20.2408 50.6358 20.1657C50.44 20.0042 50.2279 20.1651 50.0722 20.3089C49.9431 20.418 49.8279 20.5402 49.7277 20.6739C49.1003 21.6641 48.4544 22.6429 47.8587 23.6705C47.5281 24.2376 47.3295 24.8769 47.0257 25.4641C46.5694 26.3471 46.078 27.1867 45.5764 28.0384C45.5522 28.1081 45.495 28.1611 45.4001 28.3054L45.2918 27.9399C45.1693 27.2429 44.9702 26.5564 44.6979 25.8923C44.6362 25.7371 44.6073 25.573 44.6131 25.4101C44.5948 25.1229 44.6349 24.8296 44.5921 24.5496C44.4744 23.4328 44.4777 22.3126 44.6022 21.2067C44.6565 20.3927 44.6935 19.5745 44.7133 18.7521C44.7748 17.2665 45.0666 15.8068 45.58 14.4199C45.7408 13.9551 45.8561 13.4279 46.3724 13.1798C46.224 12.639 46.0915 12.5047 45.8265 12.6734C45.1006 13.1084 44.4734 13.6716 43.9777 14.3342C43.4035 15.2149 42.9969 16.1883 42.7751 17.2127C42.6089 17.8503 42.2963 18.4401 41.8588 18.9409C41.1475 19.7278 40.6875 20.6939 40.5295 21.7341C40.3932 22.9359 40.2572 24.1379 40.2221 25.3541C40.1748 26.3472 40.237 27.3472 40.245 28.4065C39.655 27.6402 39.1039 26.971 38.5856 26.2713C37.5863 24.9107 36.1477 24.0593 34.6965 23.2294C33.4646 22.5921 32.2994 21.8401 31.2187 20.9857C30.5343 20.4109 29.7978 19.8905 29.0741 19.3645C28.9319 19.2581 28.6308 19.1435 28.5748 19.1918C28.4297 19.3494 28.3367 19.5448 28.3074 19.755C28.2925 19.9193 28.3169 20.0859 28.379 20.243C28.5279 20.7044 28.7912 21.1295 29.1467 21.4818C29.7942 22.1794 30.4685 22.8808 31.0916 23.6167C32.1611 24.9138 33.3639 26.1092 34.6812 27.1846C35.9168 28.1714 36.9662 29.3504 37.7809 30.6664C38.5246 31.9359 39.1231 33.2719 39.5667 34.6513C39.8507 35.3121 40.0367 36.0039 40.1194 36.7056C40.1311 37.0115 40.2438 37.3158 40.2819 37.6256C40.3075 37.807 40.2919 37.9895 40.2362 38.1616C39.5643 39.943 38.2443 41.2872 36.866 42.7674C36.8711 42.4777 36.8691 42.3209 36.8826 42.1694C36.9655 41.251 37.0601 40.3314 37.133 39.4092C37.2148 38.3966 37.2768 37.3772 37.3423 36.3956C37.3598 36.1674 37.4087 35.9448 37.403 35.7191C37.3968 35.3007 37.21 35.1943 36.8272 35.3638C36.7017 35.4193 36.5577 35.4319 36.4305 35.4922C36.3038 35.5522 36.1005 35.6224 36.037 35.7413C35.7963 36.1784 35.5862 36.6572 35.3838 37.1286C35.1818 37.6001 35.0913 37.9745 34.8817 38.3705C33.9968 40.089 33.0951 41.7912 32.1969 43.4995C32.1405 43.6624 31.9925 43.783 31.8146 44.0387L31.8024 43.6702C31.7815 42.3568 32.1709 41.1174 32.3296 39.8348C32.4675 39.002 32.5424 38.1585 32.5542 37.3104C32.5299 36.61 32.5622 35.9115 32.651 35.2206C32.7844 34.5114 32.7664 33.7784 32.5978 33.0634C32.3965 32.4005 32.2072 31.7365 31.9978 31.0809C31.6578 29.9953 31.3162 28.9144 30.9563 27.8376C30.659 26.8483 30.0852 25.9429 29.2965 25.2184C29.1282 25.0825 28.9956 24.9118 28.9099 24.7201C28.8169 24.5052 28.6663 24.3148 28.4732 24.1685C28.2804 24.0224 28.0519 23.9252 27.8114 23.8877C27.3871 23.7409 27.0804 24.0302 27.1945 24.46C27.2892 24.7796 27.4199 25.0901 27.5842 25.3857C27.8841 25.8523 28.0864 26.366 28.1791 26.898C28.2287 27.3522 28.2786 27.8066 28.2684 28.2559C28.2943 28.7159 28.2865 29.1758 28.2451 29.632C28.0843 30.8568 27.8768 32.0706 27.7227 33.2924C27.5686 34.5141 27.4777 35.617 27.3313 36.8C27.0857 38.6587 27.1855 40.5578 27.6258 42.4132C27.7701 43.0459 27.8798 43.6824 28.0308 44.3122C28.1178 44.6755 28.2756 45.0267 28.3872 45.3826C28.67 46.0663 28.7998 46.792 28.7683 47.5131C28.7033 47.9825 28.6846 48.4588 28.7126 48.9352C28.7758 49.534 28.7382 50.1342 28.6009 50.7131C28.5176 51.2549 28.3808 51.7858 28.1919 52.2995C27.7128 53.3448 27.3019 54.4192 26.9615 55.517C26.8311 55.8128 26.6649 56.092 26.4667 56.3501C26.3573 56.5203 26.1965 56.6627 26.0723 56.8279C25.4562 57.6556 24.8501 58.4869 24.239 59.3164C24.1828 59.3708 24.1223 59.421 24.0581 59.4671C24.0168 59.319 23.9886 59.1681 23.9736 59.0165C23.9494 58.1339 23.9049 57.2439 23.9253 56.361C23.959 54.8738 24.0406 53.393 24.0943 51.9127C24.1064 51.6039 24.0902 51.2936 24.046 50.9852C23.8753 49.75 23.6181 48.5212 23.532 47.284C23.5017 46.4104 23.3336 45.5401 23.033 44.702C22.3736 43.0374 21.6511 41.3929 20.9536 39.7413C20.8156 39.4126 20.7125 39.0646 20.5415 38.7503C20.0408 37.8382 19.4955 36.9263 18.9935 36.0342C18.671 35.4804 18.3333 34.9369 17.9944 34.3982C17.8392 34.1518 17.5864 34.0905 17.4742 34.286C17.1991 34.7579 16.7107 35.1199 16.7256 35.7393C16.6951 36.0257 16.6457 36.3091 16.5772 36.5883C16.4223 37.4899 16.3323 38.4027 16.3085 39.3213C16.3845 40.3703 16.5341 41.4166 16.7566 42.4532C16.9329 43.4145 17.2166 44.3555 17.3846 45.3244C17.6313 46.971 17.8429 48.6055 18.0001 50.2682C18.049 51.3274 18.1606 52.3859 18.3344 53.4388C18.4862 54.1313 18.5434 54.8381 18.6855 55.5273C18.7908 56.2685 18.9797 57.0007 19.2495 57.7102C19.8025 58.994 20.2278 60.3189 20.5191 61.6676C20.9059 63.2034 20.6988 64.7948 19.9359 66.1497C19.8135 66.364 19.7051 66.5855 19.6114 66.8131C19.0458 68.3035 18.4932 69.8037 17.9224 71.2927C17.5371 72.3094 17.1185 73.3098 16.7234 74.3234C16.6322 74.5634 16.6354 74.8301 16.7322 75.0762C16.8295 75.3222 17.0142 75.5317 17.2537 75.6672C18.3418 76.0436 19.6742 75.6821 19.8777 74.545C19.9636 74.0543 20.0854 73.5397 20.2078 73.0407C20.3 72.5553 20.4363 72.0803 20.6152 71.6203C20.9826 70.8003 21.4335 70.0141 21.8392 69.2125C22.0161 68.8624 22.1765 68.5121 22.3484 68.1602C22.9455 66.9512 23.394 65.6544 24.6201 64.8243C25.159 64.3386 25.7461 63.9024 26.3735 63.5205C27.6846 62.9251 29.0387 62.4111 30.427 61.9822C31.8345 61.5324 33.2224 61.0322 34.5903 60.4815C35.9025 60.0217 37.1648 59.4537 38.3639 58.784C38.7216 58.5473 39.1003 58.3391 39.496 58.1605Z" fill="white"/>
<path d="M77.6003 63.2518C77.423 63.0685 77.1942 62.9367 76.9431 62.8736C76.4213 62.766 75.8787 62.7188 75.3424 62.6532C74.5188 62.5231 73.6854 62.4939 72.8631 62.5657C71.6993 62.6962 70.5149 62.6721 69.3441 62.4937C68.0167 62.3404 66.6843 62.2636 65.3544 62.2638C64.4887 62.2457 63.6251 62.4152 62.7559 62.3749C62.2288 62.3282 61.704 62.4102 61.2314 62.6128C60.5165 62.8895 59.7721 63.0988 59.0083 63.2386C57.4395 63.6156 55.873 63.986 54.3085 64.3505C53.8769 64.4512 53.4365 64.5122 53.0028 64.586C53.0624 64.4138 53.2328 64.3898 53.3315 64.3145C54.3135 63.6607 55.4464 63.2277 56.6485 63.0471C57.4525 62.895 58.2453 62.7018 59.0232 62.4681C59.9513 62.1586 60.9243 61.9701 61.9168 61.9076C62.2413 61.8916 62.5588 61.8254 62.8566 61.7123C64.127 61.0951 65.4643 60.6004 66.8493 60.2362C67.0729 60.1808 67.2875 60.1016 67.49 59.9998C69.1798 59.2676 70.5719 58.1198 72.0847 57.1393C73.1745 56.4283 74.2593 55.7002 75.3729 55.0341C76.7036 54.3269 77.8195 53.3185 78.6254 52.0945C78.7983 51.8901 78.9187 51.6494 78.9771 51.3904C79.036 51.1315 79.0313 50.8605 78.964 50.5981C78.6832 50.5895 78.4046 50.6211 78.1378 50.6923C76.2336 51.5431 74.3483 52.4209 72.4509 53.2845C71.3934 53.7724 70.3325 54.2536 69.2601 54.7207C68.836 54.9121 68.3815 55.0463 67.9658 55.2306C66.7641 55.7153 65.5689 56.2128 64.3621 56.6958C64.1759 56.7579 63.9848 56.8082 63.7903 56.8466C64.273 56.2153 64.8057 55.6201 65.3844 55.0663C65.7188 54.7291 66.0548 54.3877 66.4063 54.0665C67.1024 53.4435 67.8255 52.8403 68.5182 52.1948C69.4324 51.3453 70.2896 50.4343 71.2408 49.6238C72.135 48.8375 72.8746 47.9071 73.4275 46.8724C73.8279 46.152 74.2963 45.4763 74.7514 44.7905C75.0157 44.3977 75.3352 44.0401 75.6095 43.6508C76.034 43.0534 75.9021 42.8049 75.1648 42.529C74.214 43.241 73.2635 43.9531 72.3129 44.6652C71.3624 45.3773 70.3427 46.1436 69.3676 46.8942C68.7593 47.4591 68.0906 47.9637 67.3714 48.3999C67.2448 48.4767 67.1288 48.5676 67.0261 48.6709C66.3011 49.2633 65.5582 49.844 64.8485 50.4575C64.0534 51.14 63.3037 51.854 62.5352 52.5562C62.1835 52.9592 61.7737 53.3127 61.3165 53.6074C61.3411 53.4389 61.3502 53.3639 61.3596 53.2891C61.438 52.7386 61.5315 52.1934 61.592 51.6471C61.6375 51.2568 61.6017 50.8592 61.6672 50.4761C61.7855 49.7467 61.9448 49.0109 62.098 48.3092C62.248 47.5628 62.5165 46.847 62.894 46.1852C63.1128 45.7422 63.2746 45.2742 63.3763 44.7907C63.4696 44.5211 63.4813 44.2285 63.5498 43.9504C63.6941 43.3394 63.8764 42.731 63.9906 42.1096C64.1048 41.4882 64.1598 40.893 64.2146 40.2821C64.2198 40.0894 64.18 39.8961 64.0973 39.7163C63.9854 39.4586 63.7992 39.4308 63.5772 39.604C63.3553 39.7768 63.2424 39.9096 63.0532 40.0366C62.1822 40.6152 61.55 41.4893 60.7553 42.2034C60.709 42.2463 60.6711 42.2963 60.6427 42.3516C60.0832 43.1693 59.7458 44.1113 59.6592 45.0978C59.6196 46.0263 59.3531 46.9244 58.8803 47.722C58.4864 48.3923 58.1923 49.1129 57.8519 49.807C57.8117 49.9231 57.7364 50.0271 57.6727 50.1302C57.1484 51.0389 56.7611 52.0169 56.5221 53.0368C56.2877 53.877 56.216 54.7631 56.0428 55.6189C55.9141 56.5159 55.6163 57.377 55.1634 58.1616C54.5104 59.2582 53.7443 60.2882 52.8755 61.2371C52.6386 61.5096 52.3669 61.7527 52.0659 61.9617C51.0926 62.546 50.0887 63.0887 49.1321 63.6896C47.9924 64.3987 46.8913 65.1577 45.7634 65.8813C45.4456 66.089 45.0777 66.2479 44.7563 66.4334C45.1346 65.8137 45.5488 65.2149 45.9972 64.6404C47.4424 62.7566 48.9011 60.8828 50.3379 58.9909C51.3628 57.6436 52.3559 56.2748 53.3678 54.9175C53.7303 54.4343 54.0867 53.9538 54.4512 53.4813C54.5043 53.4349 54.5467 53.3784 54.576 53.3153C54.6049 53.2521 54.6203 53.1839 54.6212 53.1142C54.6219 53.044 54.6083 52.9741 54.5804 52.9083C54.5527 52.8423 54.5117 52.7814 54.4596 52.7295C54.3447 52.7585 54.2343 52.8008 54.1311 52.8554C53.3251 53.4247 52.5168 53.9832 51.7391 54.5832C50.7395 55.3411 49.743 56.1049 48.7884 56.909C47.9836 57.6196 47.1962 58.3777 46.3916 59.104C45.5872 59.83 44.7465 60.4658 44.0254 61.2259C42.5666 62.7616 41.1643 64.3426 39.7673 65.9255C39.2475 66.4683 38.8499 67.1071 38.5974 67.8058C38.3309 68.5631 37.8845 69.2467 37.2908 69.8051C36.9711 70.1317 36.6229 70.4274 36.308 70.7556C35.5212 71.5766 34.7242 72.3938 33.9674 73.2405C33.5132 73.7517 33.0979 74.2933 32.7247 74.8614C32.4749 75.285 32.1163 75.6399 31.68 75.8947C30.6829 76.421 29.8386 77.1639 29.2135 78.0652C29.0254 78.3254 28.736 78.5028 28.4047 78.5611C28.4643 78.389 28.5311 78.3082 28.5834 78.2221C29.0579 77.5287 29.4928 76.8104 29.8865 76.0706C30.2859 75.2372 30.768 74.444 31.3263 73.7012C31.5396 73.3995 31.7141 73.0736 31.8465 72.7308C32.037 72.2762 32.125 71.8281 32.3079 71.3967C33.0394 69.7503 33.8343 68.1307 34.5257 66.4704C35.0446 65.229 35.4519 63.9387 35.8974 62.6667C36.1032 62.0718 36.3106 61.4721 36.4712 60.8615C36.4939 60.663 36.4923 60.4617 36.4665 60.2614C36.1879 60.4045 35.9745 60.4555 35.8563 60.5708C35.283 61.1948 34.7345 61.8431 34.1676 62.4798C33.6009 63.1162 33.0444 63.7564 32.4572 64.3705C31.685 65.1808 30.8345 65.9275 30.1158 66.777C28.5953 68.6845 27.416 70.8223 26.6229 73.1101C26.2446 74.2516 25.9388 75.416 25.7075 76.5979C25.4968 77.5136 25.3427 78.444 25.1886 79.3744C25.13 80.0049 24.9213 80.6086 24.5778 81.1406C24.0174 81.9047 23.5588 82.7294 22.7191 83.2822C22.6551 83.3224 22.6245 83.4109 22.5652 83.4684C22.2015 83.8903 21.8139 84.293 21.4048 84.6751C20.1482 85.7708 18.8332 86.8096 17.6017 87.9293C16.9744 88.498 16.8896 89.2443 17.673 89.7753C17.8533 89.9004 18.0422 90.0176 18.2242 90.1377C18.3303 90.2184 18.4605 90.2641 18.5941 90.2677C18.7276 90.2714 18.8565 90.233 18.9603 90.1581C19.3393 89.9326 19.6977 89.679 20.0331 89.3997C20.8539 88.6427 21.6048 87.8616 22.4456 87.1116C23.3572 86.3183 24.3307 85.5884 25.276 84.8274C25.8358 84.3197 26.5899 84.0423 27.3832 84.0521C28.1238 84.0681 28.8598 83.9936 29.5723 83.8311C30.8574 83.5415 32.1114 83.148 33.3763 82.8204C34.4102 82.5254 35.4047 82.13 36.3446 81.6401C37.1429 81.2501 37.9562 80.8861 38.7848 80.5481C39.9682 80.0674 41.1739 79.6363 42.3544 79.1805C42.8437 78.9792 43.3162 78.7463 43.7695 78.4834C44.4252 78.1064 45.0336 77.6559 45.7098 77.3018C46.6699 76.8056 47.5656 76.2097 48.3813 75.5249C48.5882 75.3521 48.7733 75.1578 48.9336 74.9456C49.1879 74.5804 49.5197 74.2706 49.9092 74.0351C50.2991 73.7998 50.7389 73.6433 51.2019 73.5755C51.6316 73.5453 52.0478 73.4386 52.4286 73.2608C52.8478 73.1227 53.2913 73.0527 53.7409 73.0538C54.5756 72.9364 55.4097 72.8034 56.2458 72.697C56.8848 72.6108 57.5374 72.5661 58.178 72.4753C59.1894 72.3308 60.1818 72.0961 61.199 72.016C62.6596 71.8502 64.0864 71.521 65.4509 71.0354C65.5996 70.993 65.7056 70.8477 65.8883 70.708C65.6786 70.4895 65.5433 70.2346 65.3299 70.1402C64.8589 69.8957 64.3536 69.721 63.8322 69.6222C62.0938 69.38 60.3509 69.1986 58.6114 69.0083C57.7809 68.9902 56.9503 68.9117 56.127 68.7734C54.9206 68.5248 53.6853 68.4929 52.4868 68.6804C51.7132 68.751 50.9403 68.8531 50.1683 68.9194C49.1944 69.004 48.215 69.0399 47.2413 69.1403C45.8676 69.3341 44.5313 69.6862 43.262 70.1891C43.0275 70.2694 42.791 70.3385 42.4572 70.4312C42.5483 70.265 42.5407 70.1896 42.605 70.1651C43.8218 69.3941 44.9879 68.4962 46.4176 67.9498C47.6837 67.5061 49.0407 67.3052 50.4118 67.359C51.1979 67.3809 51.986 67.4297 52.7703 67.4406C54.1238 67.4231 55.4813 67.5012 56.8314 67.6743C57.7409 67.8588 58.6728 67.8695 59.5706 67.706C61.0461 67.3835 62.5095 67.0307 63.9815 66.7019C64.9858 66.4524 66.0247 66.3258 67.0744 66.325C67.7088 66.345 68.3394 66.2905 68.9527 66.1627C71.2088 65.6679 73.4558 65.1181 75.6902 64.5896C76.2517 64.4492 76.8023 64.2764 77.339 64.0723C77.4308 64.057 77.5151 64.0189 77.5837 63.9614C77.6526 63.904 77.7026 63.8296 77.7294 63.7458C77.7561 63.662 77.758 63.572 77.7356 63.4851C77.7128 63.3984 77.6662 63.3178 77.6003 63.2518ZM62.8056 62.9749C63.0195 62.8251 63.4181 62.9163 63.7329 62.8948C63.0709 63.5122 62.2902 64.0059 61.4294 64.3517L61.3372 64.2469C61.7991 63.7956 62.2894 63.3709 62.8056 62.9749ZM60.6937 63.634C61.0498 63.2994 61.4092 62.9552 62.0589 63.0653C61.464 63.5727 60.9007 64.0702 60.3073 64.5412C60.2158 64.5914 60.1136 64.6227 60.0074 64.6333C59.9008 64.6439 59.792 64.6335 59.688 64.6031C60.021 64.2864 60.3524 63.9583 60.6937 63.634ZM60.1367 63.4832C59.7353 63.9348 59.2991 64.3581 58.8324 64.7495C58.5824 64.9387 58.1561 64.9265 57.8104 65.005C58.0348 64.5897 58.3629 64.2354 58.767 63.9708C59.1715 63.7063 59.6412 63.539 60.1367 63.4832ZM68.1375 55.7842L68.2428 55.8834C67.9791 56.146 67.7365 56.4263 67.4572 56.6525C67.1777 56.8783 67.0765 57.317 66.4012 57.2811C67.0688 56.773 67.5 56.1727 68.1375 55.7842ZM66.4174 57.849C67.5394 57.481 68.6279 57.0348 69.6741 56.5136C70.2187 56.2802 70.7546 56.0232 71.2942 55.7727C71.4756 55.6845 71.6502 55.5835 71.9702 55.4342C71.7305 55.3513 71.5857 55.3012 71.5111 55.3068C71.0631 55.4516 70.628 55.6281 70.2105 55.8351C69.6213 56.1639 68.981 56.4088 68.3102 56.5624C68.6576 56.1879 68.9998 55.812 69.3556 55.4459C69.4529 55.3681 69.5674 55.3118 69.6923 55.2811C70.6998 54.9237 71.6669 54.4798 72.5823 53.9546C73.6216 53.4394 74.6871 52.9599 75.7526 52.4489C76.3267 52.179 76.9025 51.9201 77.4834 51.663C77.6155 51.6048 77.7559 51.57 78.0169 51.478C77.6862 52.05 77.2194 52.5379 76.6512 52.9054C75.7405 53.6313 74.78 54.3399 73.8272 54.9937C73.3369 55.345 72.8059 55.5879 72.2901 55.8829C72.192 55.9232 72.0958 55.9684 72.0031 56.0179C70.9576 56.6972 69.9121 57.3765 68.8867 58.0627C68.1601 58.5594 67.3649 58.9631 66.5204 59.2636C65.1547 59.754 63.838 60.3447 62.4859 60.8607C62.1855 60.9541 61.8728 61.0119 61.5544 61.0329C61.144 61.0558 60.7365 61.1007 60.3337 61.1677C59.5171 61.3639 58.7157 61.6123 57.9072 61.8326C57.6046 61.9151 57.297 61.9806 56.9974 62.0384L56.916 61.8697C57.306 61.5985 57.6725 61.2986 58.0877 61.0518C59.1931 60.3249 60.4404 59.8037 61.7667 59.514C63.0917 59.2064 64.3707 58.7602 65.5805 58.1838C65.8485 58.051 66.1284 57.9386 66.4174 57.849ZM66.3169 56.6848C65.6926 57.1974 65.3938 58.1088 64.3259 58.0779C64.9153 57.5375 65.343 56.7694 66.3169 56.6848ZM63.9029 57.6036C63.6378 57.9337 63.4205 58.2071 63.1994 58.474C63.139 58.5521 63.0822 58.6677 62.9962 58.6903C62.3094 58.9386 61.5916 59.1111 60.8562 59.2043C61.7911 58.4087 62.6697 57.7756 63.9029 57.6036ZM60.9794 50.3474L61.1142 50.394C61.0158 51.2446 60.9236 52.0925 60.7951 52.9328C60.7523 53.3314 60.681 53.7258 60.5825 54.1135C60.5225 54.4406 60.391 54.7496 60.1961 55.0207C59.6637 55.6271 59.0769 56.1882 58.4418 56.6985C58.4942 56.4744 58.5696 56.2564 58.6668 56.0478C58.9225 55.6214 59.0956 55.1532 59.1792 54.6637C59.3308 53.9667 59.5505 53.2828 59.7338 52.5915C59.7808 52.4589 59.81 52.3202 59.8206 52.1792C59.8629 51.3457 60.4899 50.9066 60.9714 50.3707L60.9794 50.3474ZM61.1209 49.3244C61.0799 49.8306 60.67 49.9332 60.3938 50.1657C60.5353 49.8173 60.7893 49.5234 61.1209 49.3244ZM61.4056 48.0488C61.4206 48.5068 61.1677 48.7368 60.6397 48.8247L61.4056 48.0488ZM57.3452 55.3931C57.5897 54.2336 57.8458 53.0732 58.1764 51.9386C58.6362 50.4966 59.2208 49.0974 59.9253 47.7554C60.1842 47.1129 60.3991 46.4538 60.5686 45.7818C60.8435 44.987 61.1184 44.1921 61.4269 43.4138C61.4697 43.3215 61.503 43.225 61.5265 43.1258C61.6145 42.3702 62.1464 41.8985 62.6769 41.4158C62.9557 41.1584 63.2146 40.8785 63.482 40.6067L63.6117 40.6516C63.4758 41.4007 63.3446 42.1515 63.1919 42.9004C63.0686 43.6692 62.8991 44.4287 62.6841 45.176C62.4841 45.9894 62.0934 46.7432 61.5409 47.3827C61.5041 47.4328 61.4585 47.4769 61.4064 47.5129C60.3987 48.0181 60.0789 48.9274 59.8606 49.9137C59.734 50.4736 59.5161 51.0072 59.3645 51.5582C59.2131 52.1096 59.1059 52.6295 58.9773 53.1626C58.8487 53.6958 58.7479 54.197 58.5943 54.7062C58.4481 55.129 58.262 55.5383 58.1241 55.9692C57.9247 56.5458 57.7903 57.1446 57.6091 57.7323C57.5633 57.9058 57.4793 58.0664 57.3621 58.2039C56.7111 58.8426 56.0381 59.4635 55.3699 60.0857C55.3329 60.1189 55.2882 60.1432 55.239 60.1568C55.1897 60.1705 55.1372 60.1729 55.0855 60.1644C55.1689 60.0172 55.2628 59.8757 55.3663 59.7411C56.389 58.476 57.0672 56.9858 57.3452 55.3931ZM46.853 59.7736C47.524 59.0948 48.181 58.4063 48.8654 57.7374C49.2555 57.3519 49.6734 57.0175 50.0789 56.6687C50.8563 56.0371 51.632 55.4103 52.4078 54.7835C52.6265 54.582 52.8738 54.4103 53.1434 54.2727C53.0664 54.4218 52.9793 54.5653 52.883 54.7031C51.2419 56.8781 49.5839 59.0372 47.9393 61.1901C47.2757 62.0586 46.6721 62.9792 45.9901 63.8362C45.1296 64.9179 44.2158 65.9602 43.3138 67.0168C42.8277 67.5824 42.3246 68.1321 41.8297 68.6895C41.756 68.7912 41.6635 68.8788 41.5559 68.9486C40.7562 69.3695 40.3019 70.1333 39.6347 70.6886C38.9677 71.2436 38.3586 71.8085 37.71 72.3751C37.5175 72.5386 37.2855 72.6564 37.0323 72.7184C37.321 72.3124 37.641 71.9274 37.9897 71.5663C38.4422 71.1685 38.8538 70.7308 39.2189 70.2586C39.6177 69.7356 40.1168 69.2784 40.5559 68.785C41.0754 68.2205 41.5983 67.6623 42.1178 67.0978C42.6624 66.4356 43.2527 65.8091 43.8847 65.2211C44.1247 64.943 44.3279 64.6378 44.4899 64.3115C44.9241 63.686 45.3467 63.0465 45.8011 62.4438C46.4219 61.6176 47.0727 60.7708 47.7353 59.9539C48.0396 59.575 48.4024 59.2372 48.7383 58.88L48.556 58.7284L46.6098 60.7355C46.5582 60.5654 46.5535 60.3874 46.5961 60.2187C46.6387 60.0501 46.7273 59.8967 46.853 59.7736ZM39.5747 71.4121L40.4801 70.653C40.2161 71.2226 40.0978 71.3221 39.5715 71.4214L39.5747 71.4121ZM45.9342 60.6528C45.7783 61.265 45.9177 61.8804 45.277 62.2782C45.4251 61.7048 45.2192 61.0716 45.931 60.6621L45.9342 60.6528ZM44.8712 61.6903C44.9492 62.191 44.5866 62.5131 44.5096 62.9132C44.4622 63.3653 44.2767 63.7891 43.9756 64.1336C43.9857 63.5881 44.0458 63.0462 44.1554 62.5149C44.3388 62.2002 44.5811 61.9207 44.8712 61.6903ZM35.4548 72.6412C36.4736 71.6352 37.5523 70.6812 38.5227 69.6379C38.988 69.0849 39.3841 68.4819 39.7036 67.8395C40.4041 66.7247 41.2059 65.6718 42.0998 64.6923C42.4666 64.2468 42.873 63.8303 43.2713 63.4062C43.3781 63.3117 43.4938 63.2262 43.6168 63.151C43.5575 63.7913 43.5138 64.3538 43.4551 64.9111C43.4165 65.0055 43.3548 65.0894 43.2756 65.1561C42.2598 66.2985 41.2611 67.4572 40.2272 68.588C39.5768 69.3049 38.8779 69.9845 38.209 70.6898C37.7959 71.1245 37.3944 71.5741 36.9947 72.0186C36.1795 72.9543 35.2035 73.752 34.1039 74.3809C34.1499 74.2221 34.2173 74.0705 34.3048 73.9299C34.6796 73.4764 35.0363 73.0274 35.4612 72.6225L35.4548 72.6412ZM31.2356 70.8439C31.1469 70.2928 31.5571 69.9142 32.4266 69.6474C32.3796 70.3807 31.681 70.4618 31.242 70.8252L31.2356 70.8439ZM33.0166 68.4101C32.9427 68.6237 32.8688 68.8376 32.7899 69.0655L31.9226 69.1974L31.8617 69.0983L32.8799 68.3367L33.0166 68.4101ZM18.3197 89.4579L18.0359 88.6623C18.4272 88.3709 18.7745 88.4492 19.2331 88.7068L18.3197 89.4579ZM49.9897 70.018C50.7309 69.4402 51.6809 69.1455 52.6633 69.1887C52.9455 69.1771 53.2259 69.149 53.5029 69.1047C54.1961 69.0303 54.9028 69.0688 55.593 69.2186C56.4319 69.363 57.277 69.473 58.1152 69.5705C59.9043 69.7312 61.6961 69.8514 63.4869 70.0232C63.7703 70.0979 64.0414 70.2146 64.2896 70.3684L64.2619 70.546C64.1265 70.5888 63.9878 70.6228 63.8465 70.6471C61.815 70.8811 59.7763 71.1025 57.7566 71.3511C57.3939 71.3975 57.0456 71.5319 56.6915 71.6021C56.0331 71.7282 55.3793 71.8402 54.7174 71.9602C54.1879 72.0528 53.6381 72.1074 53.1205 72.2302C51.1298 72.7046 49.0807 72.9712 47.0097 73.026C46.3595 73.0517 45.713 73.1133 45.0735 73.2096C43.8139 73.4091 42.5736 73.6982 41.3056 73.8582C40.0373 74.018 38.847 74.0487 37.4837 74.1443C37.6379 73.9896 37.7173 73.8403 37.843 73.8005C39.1004 73.3973 40.4057 73.0004 41.7071 72.6648C42.365 72.4914 43.0694 72.4594 43.7511 72.3308L47.9049 71.6338C48.2242 71.5829 48.5488 71.5494 48.8716 71.5049C50.0758 71.3421 51.2764 71.1776 52.4739 71.0125C52.636 70.981 52.7954 70.9403 52.9519 70.8916L52.929 70.7641L48.9074 70.9812C49.3259 70.5951 49.6594 70.3095 49.9897 70.018ZM36.3656 77.9109C35.3839 78.3571 34.3262 78.6679 33.3091 79.0551C32.5792 79.3231 31.843 79.6255 31.1254 79.9392C30.5856 80.1739 30.0615 80.4455 29.5303 80.7041C29.4545 80.7455 29.384 80.8045 29.3113 80.8522C29.2824 80.7745 29.2601 80.694 29.2358 80.618C30.4377 79.5016 31.7277 78.4726 33.0954 77.5395C33.188 77.4903 33.2778 77.4363 33.364 77.3776C34.1543 76.6989 35.092 76.1884 36.1182 75.8789C37.7674 75.2965 39.469 74.8407 41.2065 74.5162C42.1945 74.4079 43.1909 74.3544 44.1905 74.3564C45.0174 74.3092 45.839 74.2448 46.6639 74.171C47.0597 74.1413 47.4608 74.0977 47.8582 74.0637L47.8878 74.1882L45.6467 74.8496L40.2128 76.4519C38.8907 76.8483 37.605 77.3357 36.3656 77.9109ZM35.7371 79.4368C35.7613 79.2057 35.7772 79.0136 35.8059 78.753L37.5521 78.0038C37.2786 78.9396 36.4295 79.0673 35.7371 79.4368ZM35.2279 79.0993C34.7516 79.5227 34.3998 80.1037 33.6465 80.197C34.1649 79.8454 34.4207 79.122 35.2279 79.0993ZM46.5974 70.307C46.7044 70.2402 46.8615 70.206 46.92 70.1168C47.2378 69.5867 47.8019 69.6204 48.3451 69.5688C48.8881 69.5174 49.3377 69.5272 49.8366 69.507L49.8973 69.6218C48.9649 70.1526 48.1636 70.8696 47.1062 71.2272C47.5131 70.6656 48.2195 70.3842 48.6314 69.8396C48.6076 69.8011 48.5815 69.7642 48.5524 69.729C48.4606 69.7401 48.3716 69.7637 48.2879 69.7989C47.6274 70.2052 46.9654 70.6166 46.3133 71.0311C46.1698 71.1191 46.042 71.2276 45.9337 71.3526C45.7406 71.572 45.5052 71.5739 45.1614 71.5331C45.5625 71.0499 46.0475 70.6359 46.5974 70.307ZM44.2213 71.1975C44.5115 70.9862 44.7804 70.7501 45.0244 70.4916C45.4001 69.9867 45.9617 69.9467 46.58 69.9525L43.802 71.8437L43.6914 71.7274C43.8553 71.5446 44.0339 71.3669 44.2213 71.1975ZM44.6491 70.4607L43.3263 71.393C43.1554 71.5159 42.9925 71.647 42.8261 71.7404C42.7174 71.8339 42.5885 71.9047 42.4471 71.9475C40.6022 72.2969 38.8297 72.8907 37.1807 73.7119C36.9728 73.8118 36.8053 73.9724 36.6143 74.0883C36.219 74.3264 35.8187 74.5626 35.4165 74.7878C35.0144 75.013 34.6996 75.0345 34.6167 75.4844C34.5652 75.6332 34.3011 75.7343 34.1416 75.8405L33.4717 76.3063C32.9123 76.7114 32.3851 77.1533 31.792 77.5105C31.1648 77.9332 30.5871 78.4169 30.0684 78.9542C29.1123 79.8701 28.075 80.7073 26.967 81.457C26.8396 81.5352 26.7257 81.6307 26.6285 81.7407C26.5727 81.8047 26.5513 81.964 26.5765 82.0037C26.6599 82.0949 26.7735 82.1562 26.897 82.1769C26.9866 82.2079 27.097 82.1161 27.2007 82.0739C27.7674 81.8446 28.3151 81.5785 28.8401 81.2772C29.6458 80.8539 30.4884 80.4928 31.3599 80.1974C32.1079 79.9095 32.8849 79.684 33.7952 79.3794C33.7365 79.5058 33.6633 79.6255 33.5769 79.7358C33.2429 79.9804 32.9337 80.253 32.6522 80.5506C32.3671 80.9072 31.967 81.1656 31.5079 81.2894C30.4882 81.6029 29.4637 81.899 28.4406 82.2061C28.3668 82.2398 28.2967 82.2801 28.2312 82.3264C28.5847 82.5006 28.8567 82.3604 29.1262 82.2923C30.231 82.0239 31.3319 81.7333 32.4299 81.4522C32.4646 81.4642 32.5258 81.4487 32.5554 81.428C33.3312 80.8011 34.3243 80.6294 35.21 80.2173C35.87 79.9251 36.5477 79.5819 37.2345 79.3095C37.9211 79.037 38.4951 78.897 39.1326 78.67C39.9698 78.3505 40.7898 77.9994 41.6015 77.6401C41.8549 77.5092 42.0948 77.3569 42.3178 77.1851C41.9742 76.9673 41.78 77.1239 41.5773 77.21L38.0435 78.6994C37.9643 78.7344 37.8818 78.763 37.7415 78.8135C37.867 78.4508 37.957 78.1905 38.0374 77.8282C41.3658 76.6035 44.7657 75.5436 48.2245 74.6532C47.8486 75.1036 47.3447 75.4425 46.7677 75.633C45.9319 75.9616 45.1646 76.4209 44.4977 76.992C43.8787 77.4231 43.2189 77.8011 42.5255 78.1207C41.8952 78.4232 41.2327 78.6263 40.5808 78.8951C39.554 79.3103 38.5459 79.7526 37.5091 80.1644C35.9766 80.7481 34.455 81.3665 32.8834 81.8534C31.5973 82.318 30.2384 82.6002 28.8488 82.6906C28.5423 82.7066 28.2403 82.7559 27.9486 82.8373C26.9545 83.0442 25.935 83.1472 24.9077 83.144C24.7166 83.2602 24.5257 83.3761 24.2951 83.5254L24.3864 83.9889C22.8396 85.3589 21.3058 86.7225 19.7162 88.1349L18.8475 87.8345C18.9405 87.7171 19.0424 87.6063 19.1524 87.5028C20.1752 86.7429 21.2302 86.0198 22.2162 85.2213C22.7159 84.7507 23.1864 84.2532 23.626 83.7311C23.7689 83.5389 23.9602 83.3841 24.184 83.2803C24.4079 83.1764 24.6572 83.1267 24.9109 83.1346C24.8515 83.1193 24.793 83.0991 24.7364 83.0743C24.6806 83.0257 24.6273 82.9741 24.5773 82.9206C24.7451 82.6768 24.9398 82.4213 25.1094 82.1572C25.2645 81.9229 25.4029 81.6787 25.5242 81.4264C25.7767 80.8738 26.0213 80.3128 26.2504 79.7468C26.3694 79.4028 26.49 79.0541 26.6088 78.7104C26.6651 78.6071 26.7324 78.5101 26.8098 78.4205L26.8226 78.3834C26.5841 77.7805 26.8963 77.2328 27.0348 76.6874C27.2338 75.9183 27.5206 75.169 27.8161 74.4284C28.284 73.0756 28.7519 71.7229 29.3327 70.4148C29.667 69.5976 30.1033 68.8244 30.6326 68.1112C32.1447 66.1464 33.7341 64.2345 35.3356 62.2539C35.3904 62.6639 35.3164 63.0747 35.1231 63.4345C34.596 64.8135 34.0548 66.1357 33.5204 67.486C33.4303 67.7466 33.3199 67.9371 32.9504 67.9707C32.7866 67.9764 32.6339 68.1268 32.4755 68.2125L32.3703 68.1291C32.5362 67.8431 32.7172 67.5624 32.8717 67.2616C33.0258 66.9611 33.1421 66.6737 33.2829 66.363C32.9841 66.1767 32.8448 66.3209 32.7423 66.5197C32.3786 67.2162 31.9981 67.8965 31.6642 68.6033C30.9814 70.0274 30.3473 71.4733 29.6512 72.8876C29.1987 73.8082 28.6711 74.6875 28.1951 75.5951C27.6613 76.4771 27.2117 77.4046 26.8508 78.367L26.8427 78.3904L27.4883 78.1399C27.7403 77.2305 28.1554 76.3744 28.7157 75.6085C29.459 74.4249 30.0932 73.1802 30.6121 71.8876C30.8035 71.3344 31.255 71.2563 31.8522 71.1143C31.7118 71.4955 31.5509 71.8686 31.3702 72.2331C31.079 72.7515 30.7179 73.2304 30.4316 73.7508C29.9844 74.5589 29.5904 75.3906 29.1482 76.2004C28.9078 76.6377 28.6023 77.0525 28.3315 77.4793C28.1342 77.791 27.947 78.1062 27.7547 78.4196C27.3735 79.0529 26.9694 79.6727 26.6114 80.3192C26.4163 80.6732 26.5054 80.7716 26.8661 80.8601C27.613 80.1867 28.3092 79.5323 29.0418 78.9167C29.9174 78.1787 30.8331 77.4545 31.7338 76.7252C32.0267 76.426 32.4113 76.2202 32.8383 76.134C32.9109 76.12 32.979 76.0909 33.0378 76.0496C33.0965 76.0078 33.1445 75.9544 33.1786 75.8926C33.5901 74.9941 34.3862 74.4057 35.2514 73.7627C35.2845 74.2322 34.803 74.3156 34.7759 74.7329C37.7488 72.7577 41.0913 71.3116 44.6491 70.4607ZM46.375 66.6342C46.3478 66.713 46.3725 66.8362 46.2963 66.8618C45.9512 67.1063 45.5887 67.3285 45.211 67.5273C43.9589 68.1804 42.7897 68.9608 41.7232 69.8549C41.4611 70.0497 41.1781 70.2185 40.878 70.3587C42.217 69.0071 43.7279 67.8178 45.379 66.8154C45.6891 66.985 45.8593 66.7678 46.055 66.6221L45.5557 66.4495L46.4889 65.9499C46.6239 65.8917 46.7542 65.8235 46.8779 65.7463C48.3587 64.6972 49.8839 63.7621 51.4104 62.8068C51.682 62.6355 52.0463 62.5844 52.3331 62.434C52.6221 62.2684 52.8996 62.0862 53.1645 61.8888C52.8826 62.3163 52.496 62.6709 52.0351 62.9242C51.5706 63.1815 51.1307 63.4749 50.7197 63.8016C50.9515 64.0689 51.1836 64.0764 51.3565 63.949C51.7726 63.6031 52.2863 63.3757 52.8414 63.2916C52.9036 63.2741 52.9573 63.238 52.9943 63.1884C53.2858 62.9256 53.5463 62.6337 53.7711 62.3172C54.2039 61.5822 54.9623 61.1679 55.5647 60.6059C56.1667 60.0441 56.8837 59.636 57.3471 58.9586C57.4584 58.7992 57.7163 58.7322 57.8874 58.6251C57.9932 58.3267 58.1346 58.0424 58.3092 57.7768C58.7924 57.2207 59.3304 56.6988 59.8537 56.1721C59.8892 56.1398 59.9323 56.1157 59.9796 56.1013C60.0272 56.0871 60.0779 56.0834 60.1281 56.0899C60.4524 56.2021 60.6065 56.0316 60.672 55.8096C61.0076 54.6457 61.933 53.8935 62.7835 53.1154C64.2196 51.7908 65.7197 50.5245 67.1979 49.2403C67.319 49.126 67.4506 49.0216 67.591 48.9286C69.0007 47.9811 70.3472 46.9542 71.6227 45.8525C72.3262 45.2655 73.1248 44.787 73.9916 44.4339C73.7776 44.7451 73.5787 45.0615 73.3567 45.3647C73.1343 45.6677 72.939 45.8288 72.7826 46.0871C72.1532 47.0301 71.4198 47.9048 70.5942 48.6974C69.8934 49.3227 69.2752 50.0256 68.7517 50.7924C68.5404 51.0968 68.2858 51.3709 67.9945 51.6079C66.9626 52.6042 65.9235 53.5876 64.8866 54.5818C63.7501 55.7364 62.528 56.8126 61.2293 57.8031C60.0631 58.6539 58.8697 59.4696 57.6649 60.2708C57.3224 60.501 56.8071 60.536 56.5351 60.8062C56.2871 61.1151 56.0117 61.4026 55.7119 61.6666C54.8348 62.279 53.9948 62.9464 53.0655 63.4835C51.8202 64.208 50.617 65.0359 49.1299 65.3282C49.0424 65.3366 48.9602 65.3675 48.8919 65.4177C48.2065 66.0507 47.3318 66.4733 46.375 66.6342ZM75.966 63.5974C74.6418 63.9513 73.3112 64.2925 71.9786 64.6382C70.4848 64.9738 68.958 65.1872 67.4144 65.2769C66.8781 65.3253 66.3451 65.4275 65.8102 65.4869C64.162 65.745 62.5359 66.097 60.9408 66.5405C59.7237 66.8261 58.4625 66.9469 57.1944 66.8995C56.4332 66.8704 55.6719 66.6957 54.9131 66.5946C53.7153 66.4456 52.5099 66.4195 51.3178 66.5168C50.3403 66.5796 49.3702 66.7021 48.4245 66.8017C48.3035 66.8118 48.1809 66.8112 47.9157 66.8181C48.0347 66.7122 48.1603 66.613 48.2922 66.5217C48.4043 66.4562 48.5534 66.4454 48.6419 66.3669C49.5354 65.5933 50.7306 65.58 51.8375 65.3381C53.1425 65.0557 54.444 64.7512 55.7454 64.447C56.5738 64.2493 57.3956 64.0392 58.3545 63.7877C58.262 63.9178 58.1549 64.038 58.0349 64.1457C57.7271 64.3254 57.4351 64.5269 57.1613 64.7491C56.6714 65.1793 56.0242 65.4183 55.3412 65.4209C54.1819 65.5404 53.0421 65.6038 51.8924 65.6956C51.823 65.7026 51.7558 65.7679 51.5974 65.8536C51.7269 65.9186 51.865 65.9664 52.007 65.9953C52.8754 65.9732 53.7471 65.9414 54.6187 65.91C55.0034 65.8973 55.3928 65.8863 55.7842 65.8861C56.8353 65.8853 57.7667 65.4061 58.7836 65.2945C59.6183 65.1771 60.4438 65.0178 61.257 64.8177C61.4051 64.7996 61.5555 64.7923 61.7061 64.7963C61.832 64.7875 61.9916 64.8271 62.0737 64.7673C62.6234 64.3742 63.3134 64.4152 63.9281 64.3678C64.6618 64.2988 65.39 64.1968 66.1237 64.1278C66.5049 64.093 66.8863 64.1053 67.2824 64.0914C67.2944 63.6842 67.2756 63.6258 66.8414 63.6527C66.1523 63.6901 65.4621 63.7947 64.7748 63.8746L63.3138 63.9939C63.3749 63.838 63.4591 63.6918 63.5646 63.5602C63.9627 63.1245 64.5269 62.855 65.1446 62.8054C66.2153 62.7805 67.283 62.7646 68.3545 62.8176C69.0411 62.8522 69.7376 63.0045 70.4329 63.0627C70.9304 63.1072 71.4292 63.118 71.9253 63.095C72.555 63.0681 73.1745 63.0067 73.8087 62.9503C74.0496 62.9499 74.2905 62.9656 74.5306 62.9967C75.0297 63.0411 75.5273 63.0884 76.0244 63.1386C76.1619 63.1621 76.2983 63.1954 76.4314 63.238L76.4456 63.3419C76.2943 63.4394 76.1337 63.525 75.966 63.5974ZM62.3822 45.3054C62.377 45.434 62.4166 45.562 62.3656 45.612C62.0774 45.9289 61.7772 46.2308 61.4869 46.5365C61.3474 46.665 61.2093 46.9191 60.9664 46.6842C60.7234 46.4492 60.8991 46.281 61.0683 46.147C61.4547 45.8383 61.7499 45.3886 62.3822 45.3054ZM39.491 58.1587C40.465 57.7803 41.3901 57.3052 42.2511 56.7402C42.6277 56.4752 42.9996 56.1925 43.3882 55.9574C44.4362 55.3358 45.4265 54.6343 46.3498 53.8591C47.9364 52.6197 49.3288 51.1757 50.4897 49.5662C50.6193 49.3841 50.708 49.1774 50.75 48.9587C50.7512 48.7852 50.7183 48.6118 50.6534 48.4467C50.4746 48.4787 50.2636 48.4576 50.1272 48.5457C49.1801 49.1342 48.2165 49.7066 47.3283 50.3674C46.905 50.7058 46.4364 50.9913 45.9333 51.2172C45.0432 51.5598 44.305 52.1267 43.3206 52.3067C43.2609 52.3171 43.2102 52.3675 43.1556 52.3953C42.4009 52.8162 41.6596 53.2621 40.8794 53.6431C39.8123 54.1587 38.7099 54.6151 37.6245 55.1195C37.1014 55.3548 36.5701 55.5823 36.0775 55.8592C35.4516 56.2475 34.779 56.5663 34.0717 56.8101C33.5612 56.973 33.0632 57.1658 32.5807 57.3875C31.7657 57.7404 30.9555 58.1107 30.1439 58.486C29.6396 58.7079 29.149 58.9551 28.6747 59.2268C27.9002 59.6875 27.1582 60.1855 26.3955 60.6607C26.3955 60.6607 26.3206 60.6348 26.2357 60.6054C26.2804 60.4947 26.3358 60.3884 26.4016 60.2881C27.1439 59.3217 27.8959 58.3589 28.6351 57.4176C29.4913 56.2465 30.7054 55.3558 32.1257 54.8571C33.0952 54.5262 34.0325 54.1111 35.0152 53.7747C35.998 53.438 37.1129 53.2042 38.1319 52.8438C39.1511 52.4831 40.2614 51.9876 41.3195 51.547C41.8476 51.3288 42.3622 51.0696 42.9057 50.8881C44.1899 50.4559 45.4271 49.9172 46.6037 49.2788C46.9524 49.0727 47.2803 48.8379 47.584 48.577C47.9754 48.27 48.3264 47.9177 48.7192 47.6059C49.7153 46.8106 50.7198 46.0237 51.7227 45.2412C52.0203 45.0109 52.3345 44.7971 52.6156 44.5506C53.269 43.97 53.911 43.375 54.551 42.7845C55.1914 42.1941 55.8121 41.628 56.4254 41.0335C56.6373 40.8258 56.8836 40.5987 56.7637 40.2501C56.1788 39.9854 56.1754 39.979 55.7353 40.2329C55.4783 40.3783 55.2398 40.5506 55.0126 40.7063C54.314 41.1099 53.6472 41.5353 52.9485 41.9232C52.3851 42.2533 51.7967 42.5451 51.1872 42.7972C49.8136 43.3267 48.406 43.7765 47.0339 44.3014C45.4224 44.9201 43.8296 45.5819 42.2351 46.2324C41.4677 46.5449 40.6967 46.8506 39.9547 47.2186C38.7949 47.7921 37.655 48.3937 36.5358 49.0231C35.6885 49.5005 34.8901 50.0152 34.067 50.5529C33.6817 50.7943 33.3047 51.0596 32.9262 51.3139L32.8141 51.2179C32.9659 50.9891 33.131 50.7705 33.2692 50.5321C34.0979 49.1061 35.1498 47.8128 36.3909 46.6936C36.5737 46.5233 36.7461 46.3431 36.9073 46.1542C37.71 45.2557 38.4927 44.35 39.2988 43.4579C40.0541 42.6315 40.8263 41.8212 41.6034 41.0128C41.8823 40.7241 42.0836 40.3357 42.5988 40.3162C42.685 40.3094 42.7635 40.1961 42.8423 40.1296C43.1847 39.7694 43.5642 39.4322 43.975 39.1005C44.2682 38.8321 44.5915 38.5953 44.9406 38.3936C46.2959 37.6908 47.8147 37.2931 49.3846 37.2299C50.1599 37.1857 50.9312 37.0568 51.7031 36.9909C52.1045 36.9084 52.5225 36.9027 52.9333 36.9737C53.6361 37.139 54.3538 37.2464 55.0709 37.3539C55.9254 37.4089 56.7695 37.604 57.5659 37.9307C57.6408 37.9751 57.7241 38.0038 57.8104 38.0152C58.8376 38.1 59.8685 38.2066 60.8885 38.2471C62.3893 38.2875 63.8962 38.2778 65.3999 38.2775C66.5969 38.2749 67.7969 38.2476 68.9921 38.2343C69.2325 38.2341 69.4731 38.2497 69.7132 38.2341C70.7574 38.1735 71.7921 38.058 72.8367 38.0599C73.4287 38.0618 74.0566 37.8937 74.6313 38.2696C74.7159 38.2988 74.8486 38.2876 74.9565 38.283C75.4965 38.2565 76.0416 38.2317 76.5834 38.1848C76.7759 38.1925 76.9647 38.1497 77.129 38.0612C77.3297 37.9117 77.5835 37.8371 77.8446 37.8507C77.989 37.8382 78.1184 37.7216 78.2587 37.6558C78.1871 37.5111 78.0947 37.3756 77.9841 37.2537C77.8695 37.19 77.7441 37.1466 77.6146 37.1259C76.781 36.8376 75.9523 36.551 75.1184 36.2626C74.7104 36.0511 74.291 35.861 73.8621 35.6928C73.0159 35.4622 72.146 35.3363 71.275 35.3185C69.3506 35.2633 67.4319 34.9503 65.5768 34.3886C65.4718 34.3522 65.3671 34.316 65.2718 34.2517C64.3745 33.9051 63.4865 33.499 62.5664 33.2173C60.256 32.5636 57.8551 32.3231 55.4895 32.5077L55.2921 32.5123C53.8314 32.5638 52.3876 32.7623 50.9848 33.1043C50.8457 33.1343 50.7101 33.155 50.4668 33.196C50.5312 33.0823 50.6043 32.9738 50.6852 32.8707C51.3894 32.1933 52.0899 31.509 52.8056 30.8458C53.5214 30.1825 54.3941 29.4853 55.0986 28.7243C55.908 27.8142 56.5522 26.7808 57.0072 25.6634C57.0969 25.4354 57.2164 25.2198 57.3631 25.0217C58.0304 24.175 58.6894 23.3206 59.4 22.5098C60.1767 21.5978 60.7968 20.5734 61.2389 19.4715C61.3177 19.2383 61.4213 19.0145 61.5483 18.8032C62.3363 17.6452 63.2401 16.5638 64.2475 15.5733C64.9085 14.9221 65.474 14.1759 66.0934 13.4688C66.1352 13.4257 66.1667 13.3746 66.1861 13.3185C66.2054 13.2628 66.2126 13.2029 66.2063 13.1432C66.2003 13.0836 66.1813 13.0251 66.1507 12.9717C66.1201 12.9182 66.0785 12.8707 66.0282 12.8324C65.8226 12.6518 65.6266 12.7974 65.447 12.8966C65.0711 13.0947 64.7004 13.2941 64.3125 13.4618C63.3968 13.8635 62.4351 14.1866 61.5649 14.6504C60.5431 15.1974 59.5936 15.8579 58.617 16.4829C57.767 16.991 56.9682 17.5698 56.2302 18.2129C55.5261 18.8903 54.9035 19.6395 54.3725 20.4482C53.2623 22.0421 52.1072 23.6044 50.9567 25.1686C50.5647 25.7044 50.1241 26.2025 49.681 26.7572C49.7123 26.4243 49.7435 26.1228 49.7734 25.8264C49.8136 24.6722 50.0189 23.535 50.3835 22.4463C50.586 21.8847 50.7307 21.3038 50.8157 20.7117C50.8287 20.6155 50.819 20.517 50.788 20.4226C50.7569 20.3285 50.7049 20.2408 50.6358 20.1657C50.44 20.0042 50.2279 20.1651 50.0722 20.3089C49.9431 20.418 49.8279 20.5402 49.7277 20.6739C49.1003 21.6641 48.4544 22.6429 47.8587 23.6705C47.5281 24.2376 47.3295 24.8769 47.0257 25.4641C46.5694 26.3471 46.078 27.1867 45.5764 28.0384C45.5522 28.1081 45.495 28.1611 45.4001 28.3054L45.2918 27.9399C45.1693 27.2429 44.9702 26.5564 44.6979 25.8923C44.6362 25.7371 44.6073 25.573 44.6131 25.4101C44.5948 25.1229 44.6349 24.8296 44.5921 24.5496C44.4744 23.4328 44.4777 22.3126 44.6022 21.2067C44.6565 20.3927 44.6935 19.5745 44.7133 18.7521C44.7748 17.2665 45.0666 15.8068 45.58 14.4199C45.7408 13.9551 45.8561 13.4279 46.3724 13.1798C46.224 12.639 46.0915 12.5047 45.8265 12.6734C45.1006 13.1084 44.4734 13.6716 43.9777 14.3342C43.4035 15.2149 42.9969 16.1883 42.7751 17.2127C42.6089 17.8503 42.2963 18.4401 41.8588 18.9409C41.1475 19.7278 40.6875 20.6939 40.5295 21.7341C40.3932 22.9359 40.2572 24.1379 40.2221 25.3541C40.1748 26.3472 40.237 27.3472 40.245 28.4065C39.655 27.6402 39.1039 26.971 38.5856 26.2713C37.5863 24.9106 36.1477 24.0593 34.6965 23.2294C33.4646 22.5921 32.2994 21.8401 31.2187 20.9857C30.5343 20.4109 29.7978 19.8905 29.0741 19.3645C28.9319 19.2581 28.6308 19.1435 28.5748 19.1918C28.4297 19.3494 28.3367 19.5448 28.3074 19.755C28.2925 19.9193 28.3169 20.0859 28.379 20.243C28.5279 20.7044 28.7912 21.1295 29.1467 21.4818C29.7942 22.1794 30.4685 22.8808 31.0916 23.6167C32.1611 24.9138 33.3639 26.1092 34.6812 27.1846C35.9168 28.1714 36.9662 29.3504 37.7809 30.6664C38.5246 31.9359 39.1231 33.2719 39.5667 34.6513C39.8507 35.3121 40.0367 36.0039 40.1194 36.7056C40.1311 37.0115 40.2438 37.3158 40.2819 37.6256C40.3075 37.807 40.2919 37.9895 40.2362 38.1616C39.5643 39.9429 38.2443 41.2872 36.866 42.7674C36.8711 42.4777 36.8691 42.3209 36.8826 42.1694C36.9655 41.251 37.0601 40.3314 37.133 39.4092C37.2148 38.3966 37.2768 37.3772 37.3423 36.3956C37.3598 36.1674 37.4087 35.9448 37.403 35.7191C37.3968 35.3007 37.21 35.1943 36.8272 35.3638C36.7017 35.4193 36.5577 35.4319 36.4305 35.4922C36.3038 35.5522 36.1005 35.6224 36.037 35.7413C35.7963 36.1784 35.5862 36.6572 35.3838 37.1286C35.1818 37.6001 35.0913 37.9745 34.8817 38.3705C33.9968 40.089 33.0951 41.7912 32.1969 43.4995C32.1405 43.6623 31.9925 43.783 31.8146 44.0387L31.8024 43.6702C31.7815 42.3568 32.1709 41.1174 32.3296 39.8348C32.4675 39.002 32.5424 38.1585 32.5542 37.3104C32.5299 36.61 32.5622 35.9115 32.651 35.2206C32.7844 34.5114 32.7664 33.7784 32.5978 33.0634C32.3965 32.4005 32.2072 31.7365 31.9978 31.0809C31.6578 29.9953 31.3162 28.9144 30.9563 27.8376C30.659 26.8483 30.0852 25.9429 29.2965 25.2184C29.1282 25.0825 28.9956 24.9118 28.9099 24.7201C28.8169 24.5052 28.6663 24.3148 28.4732 24.1685C28.2804 24.0224 28.0519 23.9252 27.8114 23.8877C27.3871 23.7409 27.0804 24.0302 27.1945 24.46C27.2892 24.7796 27.4199 25.0901 27.5842 25.3857C27.8841 25.8523 28.0864 26.366 28.1791 26.898C28.2287 27.3522 28.2786 27.8066 28.2684 28.2559C28.2943 28.7159 28.2865 29.1758 28.2451 29.632C28.0843 30.8568 27.8768 32.0706 27.7227 33.2923C27.5686 34.5141 27.4777 35.617 27.3313 36.8C27.0857 38.6587 27.1855 40.5578 27.6258 42.4132C27.7701 43.0459 27.8798 43.6824 28.0308 44.3122C28.1178 44.6755 28.2756 45.0267 28.3872 45.3826C28.67 46.0663 28.7998 46.792 28.7683 47.5131C28.7033 47.9825 28.6846 48.4588 28.7126 48.9352C28.7758 49.534 28.7382 50.1342 28.6009 50.7131C28.5176 51.2549 28.3808 51.7858 28.1919 52.2995C27.7128 53.3448 27.3019 54.4192 26.9615 55.517C26.8311 55.8128 26.6648 56.0923 26.4667 56.3501C26.3573 56.5203 26.1965 56.6627 26.0723 56.8279C25.4562 57.6556 24.8501 58.4869 24.239 59.3164C24.1828 59.3708 24.1223 59.421 24.0581 59.4671C24.0168 59.319 23.9886 59.168 23.9736 59.0165C23.9494 58.1339 23.9049 57.2439 23.9253 56.361C23.959 54.8738 24.0406 53.393 24.0943 51.9127C24.1064 51.6039 24.0902 51.2936 24.046 50.9851C23.8753 49.75 23.6181 48.5212 23.532 47.284C23.5017 46.4104 23.3336 45.5401 23.033 44.702C22.3736 43.0374 21.6511 41.3929 20.9536 39.7413C20.8156 39.4126 20.7125 39.0646 20.5415 38.7503C20.0408 37.8382 19.4955 36.9263 18.9935 36.0342C18.671 35.4803 18.3333 34.9369 17.9944 34.3982C17.8392 34.1518 17.5864 34.0905 17.4742 34.286C17.1991 34.7579 16.7107 35.1199 16.7256 35.7393C16.6951 36.0257 16.6457 36.3091 16.5772 36.5883C16.4223 37.4899 16.3323 38.4027 16.3085 39.3213C16.3845 40.3703 16.5341 41.4166 16.7566 42.4532C16.9329 43.4145 17.2166 44.3555 17.3846 45.3244C17.6313 46.971 17.8429 48.6055 18.0001 50.2682C18.049 51.3274 18.1606 52.3859 18.3344 53.4388C18.4862 54.1313 18.5435 54.8381 18.6855 55.5272C18.7908 56.2685 18.9797 57.0007 19.2495 57.7102C19.8025 58.994 20.2277 60.3192 20.5191 61.6676C20.9059 63.2033 20.6988 64.7948 19.9359 66.1497C19.8136 66.364 19.7051 66.5855 19.6114 66.8131C19.0458 68.3035 18.4932 69.8037 17.9224 71.2927C17.5371 72.3094 17.1185 73.3097 16.7234 74.3234C16.6322 74.5634 16.6354 74.8301 16.7322 75.0762C16.8295 75.3222 17.0142 75.5317 17.2537 75.6672C18.3418 76.0436 19.6742 75.6821 19.8777 74.545C19.9636 74.0542 20.0854 73.5397 20.2078 73.0407C20.3 72.5553 20.4363 72.0803 20.6152 71.6203C20.9826 70.8003 21.4336 70.0141 21.8392 69.2125C22.0161 68.8623 22.1765 68.5121 22.3484 68.1602C22.9455 66.9512 23.394 65.6544 24.6201 64.8243C25.159 64.3386 25.7461 63.9024 26.3735 63.5205C27.6846 62.9251 29.0387 62.4111 30.427 61.9822C31.8345 61.5324 33.2224 61.0322 34.5903 60.4815C35.9025 60.0217 37.1648 59.4537 38.3639 58.784C38.7216 58.5473 39.1003 58.3391 39.496 58.1605L39.491 58.1587ZM36.8066 55.997L36.8608 55.9377C37.6313 55.5848 38.4066 55.2495 39.1603 54.8803C40.597 54.1697 42.116 53.6075 43.4999 52.8058C44.2758 52.3561 45.1465 52.0535 45.968 51.682L46.064 51.8243C45.4484 52.2308 44.8412 52.6451 44.2271 53.0469C43.6131 53.4487 43.1477 53.8082 42.5876 54.1349C41.8954 54.5202 41.2145 54.8727 40.5257 55.2483C39.8367 55.6242 39.255 55.9801 38.6158 56.3418C38.3441 56.4974 38.0605 56.6702 37.7697 56.2834C37.5389 56.547 37.0448 56.5532 37.1623 57.0048C36.8884 57.1181 36.6659 57.3901 36.2315 57.2399C36.4449 57.0428 36.622 56.8545 36.8061 56.7097C36.8628 56.6694 36.9096 56.6183 36.9436 56.5589C36.9772 56.4998 36.9973 56.4339 37.0026 56.3657C37.0078 56.2977 36.998 56.2285 36.9735 56.1628C36.9494 56.0973 36.9109 56.0366 36.8611 55.9845L36.8068 56.0128C36.476 56.3718 36.1463 56.7262 35.812 57.0791C35.8008 57.1115 35.6958 57.0752 35.6345 57.0749L35.5934 57.1126C35.4564 57.3151 35.3129 57.536 35.1857 57.7263L35.0552 57.6187C35.2356 57.4521 35.413 57.2792 35.5934 57.1126C35.5934 57.1126 35.6095 57.0662 35.6159 57.0475C35.75 56.4173 36.3086 56.241 36.8116 55.9988L36.8066 55.997ZM34.4256 57.1929C34.5635 57.053 34.8133 57.0094 35.0097 56.9264L35.1105 57.055L33.7418 58.3615L33.5715 58.2402C33.8577 57.8812 34.1189 57.5135 34.4306 57.1946L34.4256 57.1929ZM33.5656 57.4159C33.2455 58.0731 32.7387 58.6281 32.0993 59.0218C32.227 58.8627 32.3511 58.6976 32.4887 58.5423C32.6263 58.387 32.8018 58.203 32.5866 57.9205L33.5656 57.4159ZM44.7017 45.7274C46.5356 45.1437 48.2964 44.3685 50.1153 43.764C51.205 43.3911 52.2588 42.9378 53.2671 42.4081C53.6694 42.1986 54.0445 41.9379 54.4636 41.7448C54.0107 42.3453 53.4017 42.8234 52.6913 43.1355C52.0313 43.4276 51.3165 43.7008 50.6364 43.986C50.2436 44.152 49.8592 44.3258 49.4782 44.5064C47.8585 45.2785 46.2406 46.0616 44.6259 46.8354C44.5233 46.8721 44.4176 46.9018 44.3099 46.9242C44.3855 46.7056 44.4338 46.5661 44.5189 46.3199C43.6155 46.6059 43.3052 47.5028 42.355 47.8093C43.0232 46.8796 43.578 46.083 44.7017 45.7274ZM40.2469 47.5536C40.5021 47.4522 40.7663 47.3693 41.0367 47.3063C41.0367 47.3063 41.0478 47.2739 41.0543 47.2552C41.4946 46.9673 41.9936 46.7651 42.5234 46.6601C42.0429 47.5665 41.2449 48.2791 40.2591 48.682C40.5158 48.3598 40.7563 48.0682 40.9934 47.7703C41.1159 47.6098 41.2667 47.4486 41.0495 47.2692L41.0113 47.2822C40.4199 47.9257 39.8348 48.5666 39.2283 49.2053C39.0205 49.4401 38.7352 49.6025 38.4142 49.6679C38.5327 49.3425 38.7398 49.0555 39.0153 48.8349C39.1648 48.6939 39.412 48.5452 39.4117 48.3837C39.4724 47.8532 39.8738 47.7264 40.2469 47.5536ZM38.7509 50.263C39.6449 49.8593 40.4703 49.364 41.3223 48.904C41.7329 48.6869 42.0685 48.2826 42.6599 48.56C42.7348 48.5859 42.9341 48.4624 43.0141 48.3597C43.2587 48.0476 43.5856 47.8027 43.965 47.6477C45.0635 47.1377 46.1623 46.6278 47.2421 46.0908C48.3223 45.5536 49.3818 44.9625 50.5138 44.4379C51.058 44.1733 51.6511 43.9933 52.3099 43.7373C52.2288 43.8755 52.2344 43.9555 52.1682 43.9693C50.8317 44.6988 49.8253 45.7977 48.6683 46.7193C47.5174 47.7163 46.2362 48.5716 44.8529 49.2665C44.2852 49.5178 43.6639 49.6981 43.0976 49.9293C41.7127 50.4912 40.3476 51.0599 38.9476 51.6166C38.0974 51.9262 37.2146 52.1828 36.331 52.4914C35.203 52.8765 34.0814 53.2747 32.9111 53.6037C33.7754 53.0283 34.6799 52.498 35.4922 51.8942C36.4652 51.117 37.6368 50.7519 38.7308 50.256L38.7509 50.263ZM31.1943 53.218C31.799 52.7143 32.4892 52.3025 33.1442 51.8473C34.2812 51.0289 35.4657 50.2694 36.6923 49.5719C37.3796 49.2006 38.0638 48.8387 38.7495 48.4722L38.8001 48.5521C38.3434 49.0812 37.8764 49.6067 37.4234 50.1576C37.3493 50.2279 37.2586 50.2802 37.1579 50.3105C36.1384 50.6084 35.3811 51.2782 34.5399 51.8354C33.5902 52.5819 32.5862 53.2658 31.5347 53.8823C30.9446 54.1986 30.4193 54.5374 29.8632 54.9017C29.0378 55.4197 28.4048 56.1643 28.0442 57.0414C27.9671 57.1918 27.8749 57.3338 27.7687 57.4665C26.9997 58.5903 26.226 59.7122 25.4841 60.8398C25.0116 61.5555 24.4376 62.204 23.7773 62.7687C23.7792 62.6508 23.7952 62.534 23.8251 62.4206C24.2351 61.5738 24.6456 60.7269 25.0758 59.8867C25.2331 59.5769 25.4525 59.2989 25.6399 58.9995C26.0765 58.3021 26.4983 57.5999 26.9253 56.8991C27.1177 56.6014 27.2279 56.218 27.7284 56.1932C27.8525 56.1894 27.9753 56.0443 28.082 55.946C29.1199 55.0298 30.1211 54.0909 31.1745 53.2112L31.1943 53.218ZM55.8798 34.2716C56.3104 33.9001 56.7557 33.5337 57.196 33.1656C57.4343 32.9618 57.6951 33.0314 58.0178 33.1169C57.2678 33.6694 56.537 34.1661 55.7967 34.6905L55.6862 34.5899C55.7358 34.4759 55.8011 34.3692 55.8798 34.2716ZM51.0256 33.9564C51.5346 33.8097 52.0657 33.7438 52.5691 33.647L52.7665 33.5124L53.883 33.4353L53.9275 33.404L53.9573 33.4143C54.8757 33.176 55.8334 33.0722 56.7974 33.1058C56.574 33.2994 56.4428 33.436 56.2883 33.5439C55.6191 33.9072 54.9889 34.3285 54.4053 34.8025C54.3592 34.8546 54.2147 34.8199 54.044 34.8285C54.3558 34.2183 55.1256 34.1098 55.3459 33.5042C54.3874 33.7869 53.7304 34.5067 52.8862 34.9436L52.7825 34.8398C53.0008 34.6448 53.2028 34.4647 53.4276 34.251C53.6523 34.0374 53.8419 33.9105 54.0354 33.7223C54.2288 33.5344 54.089 33.486 53.972 33.388L53.9322 33.3743C53.5885 33.6406 53.2398 33.9052 52.8927 34.1651C52.546 34.4251 52.2009 34.7115 51.8519 34.9606C51.7781 35.0128 51.6702 35.0173 51.4985 34.9475C51.8127 34.6867 52.108 34.4141 52.432 34.1723C52.5531 34.109 52.6504 34.0126 52.7117 33.895C52.7733 33.7776 52.7962 33.644 52.7781 33.5112C52.7604 33.5626 52.7013 33.6199 52.6534 33.6295L52.5691 33.647C52.1621 33.9176 51.7571 34.1836 51.3574 34.4668C51.1009 34.6434 50.8712 34.8553 50.6042 35.0286C50.4871 35.0728 50.3628 35.0999 50.2353 35.1091L50.1746 34.9944C50.368 34.8064 50.5698 34.6106 50.7588 34.4365C50.744 34.4014 50.7258 34.3673 50.7045 34.3348C50.5742 34.3434 50.4469 34.3694 50.3256 34.4118C50.0356 34.5716 49.7655 34.7385 49.4726 34.9391C49.2808 35.0446 49.0654 35.1089 48.8411 35.1275C48.6167 35.1461 48.3887 35.1181 48.1725 35.0461C48.2691 34.9443 48.3047 34.8576 48.3723 34.8395C49.2326 34.5333 50.1316 34.23 51.0223 33.9657L51.0256 33.9564ZM55.8621 19.2773C57.028 18.0949 58.3856 17.0959 59.8885 16.3137C60.5903 15.9008 61.3049 15.4508 61.9988 15.0609C62.8576 14.6137 63.7524 14.2413 64.6564 13.8412L64.7774 13.9764C64.5131 14.3476 64.2231 14.7011 63.9083 15.0343C62.4421 16.4245 61.1558 17.9755 60.0738 19.6566C59.8944 19.933 59.7935 20.2571 59.5975 20.5327C59.1434 21.1669 58.6858 21.7786 58.1669 22.3904C57.264 23.4453 56.4792 24.5877 55.8248 25.801C55.5014 26.3225 55.1418 26.8221 54.7484 27.2971C54.6479 27.4276 54.5377 27.5512 54.4191 27.667C53.919 28.1916 53.4009 28.7046 52.9173 29.2293C52.4339 29.7544 51.9058 30.2951 51.4626 30.8654C50.9254 31.5755 50.2757 32.2017 49.535 32.7228C49.0526 33.0502 48.6393 33.4539 48.1839 33.8168C48.0576 33.9059 47.924 33.9849 47.7836 34.0531C47.7725 33.899 47.7957 33.7463 47.8516 33.6043C47.9075 33.4622 47.9948 33.3342 48.1078 33.2282C49.0653 31.9148 50.0693 30.6279 50.9813 29.2834C51.6357 28.3127 52.1334 27.246 52.7658 26.2576C53.1294 25.6911 53.6131 25.1975 54.0368 24.6674C54.4005 24.248 54.7391 23.8091 55.0505 23.3525C55.7719 22.2432 56.6217 21.216 57.5857 20.2897C58.1286 19.7698 58.6654 19.2527 59.2272 18.7757C59.7891 18.2987 60.249 17.9063 60.7364 17.4659C60.9437 17.2876 61.142 17.0857 61.3356 16.9132C61.7512 16.5365 62.1692 16.1192 62.6029 15.7226C62.7205 15.5935 62.8294 15.4573 62.9282 15.3147C62.7767 15.271 62.6169 15.2697 62.4686 15.3109C62.3204 15.352 62.1898 15.434 62.0936 15.5465C61.2728 16.3034 60.4521 17.0604 59.6313 17.8174C58.7023 18.7088 57.8188 19.647 56.8851 20.5368C55.2308 22.0878 54.0193 23.9743 52.5771 25.6719C52.1865 26.2036 51.8469 26.769 51.5624 27.3608C51.1458 28.0652 50.7472 28.7806 50.3055 29.4763C49.7887 30.2917 49.2286 31.0866 48.6837 31.887C48.624 31.9609 48.559 32.0308 48.4884 32.0952L48.4066 32.0255C48.6212 31.6117 48.8047 31.1829 48.9562 30.7428C49.0892 30.2499 49.1761 29.7456 49.2154 29.2345C49.2691 28.7233 49.4384 28.2335 49.7121 27.7983C51.1708 25.5023 52.7551 23.2833 54.4597 21.1498C54.8757 20.5132 55.3061 19.8502 55.8621 19.2773ZM45.1398 35.3452C45.1976 35.178 45.6363 35.1059 45.9157 35.0255C46.2439 34.9372 46.5779 34.8666 46.9162 34.8149C47.1807 34.7809 47.447 34.76 47.715 34.7527C47.5432 35.0296 47.3107 35.2668 47.0319 35.4492C46.7533 35.6314 46.4346 35.755 46.0965 35.8113L45.8712 35.5253C45.4565 35.5119 45.2559 35.8019 44.9842 35.9889C44.7128 36.176 44.5748 36.4615 44.0902 36.3925C44.2131 36.2635 44.2969 36.1987 44.3592 36.1161C44.5831 35.8397 44.9917 35.7572 45.1115 35.3459L45.1398 35.3452ZM47.3888 25.7716C47.8484 24.8639 48.2461 23.924 48.6719 22.9991C48.9938 22.2017 49.4998 21.4885 50.1549 20.9098C50.1624 21.0254 50.1582 21.1407 50.1421 21.2543C49.9443 21.9873 49.7332 22.7104 49.5358 23.4436C49.4439 23.7353 49.3775 24.0344 49.3379 24.3383C49.1491 26.1344 48.774 27.9009 48.2179 29.6128C48.1784 29.6857 48.1513 29.7641 48.1374 29.8454C48.1619 31.0195 47.6189 32.0082 47.1674 33.0386C47.0417 33.3956 46.8414 33.7227 46.5776 34.0003C46.4299 34.1036 46.2674 34.1872 46.0946 34.2494L46.0171 34.1497C46.083 33.9592 46.1774 33.7837 46.2718 33.6083C46.6531 32.7471 46.8671 31.8221 46.9035 30.8757C46.9596 30.3747 47.1664 29.8895 47.2571 29.3848C47.4631 28.3193 47.7486 27.2719 48.1119 26.2507C48.1231 26.2184 48.093 26.1766 48.0571 26.0704C47.9768 26.151 47.9023 26.2365 47.8341 26.3265C47.1261 27.3721 47.0303 28.6506 46.6364 29.7895C46.431 30.4742 46.2976 31.1793 46.238 31.8949C46.2311 32.3264 46.0877 32.7408 45.8265 33.0848C45.8604 32.5343 45.9159 31.9863 45.9115 31.433C45.9187 31.006 45.8798 30.5774 45.7948 30.1541C45.6346 29.5413 45.7044 28.9042 45.9928 28.3542C46.4259 27.4893 46.9458 26.6488 47.3888 25.7716ZM44.14 26.6154C44.3966 27.9583 44.6403 29.3073 44.9116 30.6553C45.2439 31.9073 45.15 33.2092 44.6437 34.3722L43.7287 34.7219C43.7959 34.139 43.8312 33.552 43.8342 32.9629C43.8045 32.2241 43.6922 31.4825 43.6078 30.7405C43.5258 29.9003 43.4278 29.058 43.3137 28.2133C43.2873 28.0289 43.3014 27.8431 43.3543 27.6672C43.4076 27.4915 43.4989 27.3293 43.6223 27.191C43.7737 26.9806 43.9064 26.7584 44.0198 26.5268C44.0797 26.5475 44.1399 26.5683 44.14 26.6154ZM44.0428 25.2805C44.0688 25.529 44.089 25.7131 44.0916 25.7868L43.11 27.0086C42.8888 26.4845 43.2996 26.3143 43.4428 26.0463C43.5512 25.7306 43.7717 25.4635 44.0678 25.2892L44.0428 25.2805ZM43.9549 23.9022C44.0013 24.1891 44.059 24.4586 44.0971 24.7684C43.3215 24.8125 43.4086 25.644 42.7909 25.8779C43.0518 25.1853 43.3844 24.5212 43.7842 23.8954L43.9549 23.9022ZM41.264 26.3178C41.193 25.3267 41.2805 24.3377 41.5238 23.3842C41.666 22.8767 41.6867 22.332 41.7838 21.8086C41.8587 21.3008 41.9653 20.7991 42.1023 20.3055C42.2137 19.9369 42.3849 19.589 42.61 19.2736C43.4039 18.1183 43.9669 16.8291 44.2733 15.4669C44.3677 15.0122 44.6018 14.5993 44.947 14.2791L45.0636 14.3456C45.0297 14.5454 44.9752 14.7409 44.9007 14.9292C44.351 16.0661 44.3166 17.3293 44.2087 18.5462C44.101 19.7635 44.0291 21.0866 43.9532 22.356C43.9322 22.7078 43.9508 23.0579 43.9513 23.3962C43.2913 23.6884 43.1622 24.3203 42.7147 24.8055C42.5948 24.5873 42.5384 24.443 42.6837 24.2329C42.9792 23.8146 43.2249 23.3792 43.4903 22.9506C43.5302 22.8535 43.5646 22.7542 43.5933 22.6529C43.4936 22.6185 43.4037 22.5874 43.3708 22.6335C42.6933 23.2839 42.0387 23.9317 42.1847 24.9969C42.2714 25.7377 42.4269 26.4722 42.6495 27.1927C42.8284 27.8315 42.946 28.4818 43.0003 29.1357C43.1314 30.3728 43.2609 31.6146 43.3324 32.8465C43.3447 33.2537 43.3347 33.6602 43.3023 34.0645L43.175 34.109C43.0831 34.0197 42.9312 33.9414 42.9054 33.8386C42.8044 33.4314 42.7263 33.0206 42.6715 32.6075C42.5278 31.8107 42.2862 31.0283 41.9516 30.2768C41.7586 29.7415 41.6211 29.192 41.5408 28.6361C41.3979 27.8735 41.303 27.1055 41.2575 26.3365L41.264 26.3178ZM36.8924 26.3672C36.6014 25.996 36.9001 25.6985 36.9038 25.2679C37.3192 25.6667 37.3072 25.7664 36.8891 26.3765L36.8924 26.3672ZM41.1732 36.9397C41.1929 36.4498 41.2401 35.9624 41.3146 35.4796C41.2502 35.4884 41.1144 35.4934 40.8975 35.5069C40.6239 34.8918 40.3429 34.217 40.0803 33.5538C39.7852 32.7909 39.5365 32.0074 39.1999 31.2509C38.688 30.2216 37.9811 29.2835 37.1158 28.4847C35.761 27.0847 34.3672 25.7176 32.961 24.3361C32.7281 24.1046 32.4574 23.9176 32.2064 23.7056C31.0378 22.6625 29.9978 21.4976 29.1084 20.2352C29.0676 20.181 29.0396 20.1191 29.0272 20.0541C29.0148 19.9895 29.018 19.9237 29.0366 19.8615C29.4096 20.1728 29.7972 20.4735 30.1736 20.7751C31.598 21.9381 33.143 22.9591 34.7826 23.8214L35.1293 24.0142C35.7283 24.367 35.7019 24.3631 35.5528 24.9882C35.4911 25.2478 35.2889 25.5735 35.7547 25.8907C35.8898 25.5 36.0087 25.1563 36.1228 24.8263C36.4046 24.8038 36.5601 24.9357 36.4544 25.1124C36.0326 25.8307 36.4632 26.3644 36.9528 26.9036C37.7119 27.756 38.3875 28.6711 38.9703 29.6361C39.0251 29.7028 39.0755 29.7725 39.1217 29.8446C39.9311 31.5453 40.9006 33.1868 41.4354 34.9853C41.5289 35.3104 41.6019 35.6396 41.6533 35.9715C41.6906 36.1873 41.7842 36.2716 42.0415 36.1577C41.9686 34.9515 41.6161 33.7636 41.0092 32.6781C40.6265 31.942 40.2821 31.193 39.8647 30.4763C39.3768 29.6571 38.8242 28.8622 38.2966 28.0603C38.1439 27.8266 37.9725 27.6035 37.784 27.394C37.6031 27.2188 37.4922 26.9905 37.4724 26.7511C37.4522 26.512 37.5243 26.2776 37.6754 26.0918C38.0671 26.466 38.4387 26.8584 38.789 27.2678C39.2597 27.8782 39.686 28.5203 40.1059 29.165C40.2678 29.4134 40.3977 29.6787 40.4925 29.9544C40.607 30.2697 40.8857 30.4338 41.0755 30.6765C41.3923 31.1092 41.6436 31.5799 41.8218 32.0744C42.1531 32.959 42.4376 33.8487 42.7029 34.7628C42.7342 34.9883 42.7328 35.2155 42.6986 35.4379C42.4364 35.5658 42.1193 35.6589 42.241 36.0496C42.363 36.4407 42.5174 36.4628 42.8398 36.3557C42.9928 36.2856 43.1379 36.2016 43.2729 36.1046C43.6226 35.8794 44.0057 35.7017 44.4111 35.5773C44.172 35.7261 43.9648 35.9152 43.799 36.1357C43.5583 36.5979 43.1561 36.9629 42.6577 37.1722C42.4532 37.2785 42.3075 37.4258 42.5969 37.6716C43.0804 37.4536 43.5686 37.222 44.0702 37.0155C44.6272 36.7721 45.1983 36.5562 45.7811 36.3684C46.656 36.0892 47.5484 35.8558 48.4542 35.6692C49.2187 35.5425 49.9931 35.4628 50.7726 35.4302C52.0667 35.3573 53.3757 35.2897 54.673 35.1921C55.5525 35.1216 56.4232 34.98 57.3107 34.8865C57.7231 34.8415 58.1376 34.8392 58.5449 34.7929C59.5334 34.682 60.3183 35.2086 61.1385 35.617C61.4919 35.7912 61.813 36.0428 62.2397 35.8104L62.5942 36.4015C62.7069 36.3833 62.8099 36.3928 62.869 36.3508C63.0027 36.2315 63.1745 36.156 63.3598 36.1343C63.5454 36.1128 63.7359 36.1466 63.9057 36.2304C63.9427 36.2512 63.9835 36.2653 64.0254 36.2718C65.6839 36.325 67.3328 36.7133 69.001 36.6085C69.8644 36.5533 70.7434 36.5816 71.6085 36.5527C71.8966 36.5293 72.1822 36.4873 72.4626 36.4267C72.4755 36.3894 72.4899 36.3476 72.4644 36.2917C72.3597 36.2555 72.2622 36.1336 72.1627 36.1302C70.7914 36.1192 69.4269 35.9596 68.0511 36.1552C67.7253 36.1794 67.395 36.16 67.0709 36.0971C66.2206 35.9801 65.3733 35.8603 64.5286 35.7382C64.4058 35.7219 64.2938 35.657 64.0864 35.6268L64.9447 34.9713C64.9211 34.9269 64.9039 34.8791 64.8817 34.8299C64.7519 34.8196 64.6221 34.8291 64.4974 34.8584C64.1443 35.0068 63.8198 35.2017 63.4617 35.3483C63.2479 35.4176 63.0276 35.4701 62.8036 35.5059C62.9901 34.9667 63.7041 35.0836 63.7759 34.5047C63.6389 34.4852 63.5005 34.4903 63.3682 34.5198C62.9803 34.6876 62.6046 34.8853 62.2185 35.0641C61.9514 35.1902 61.6758 35.3396 61.3389 34.9889L62.2397 34.4366C62.1142 34.1694 61.944 34.2092 61.7806 34.2778C61.4831 34.3921 61.1991 34.5323 60.9311 34.6969C60.7418 34.8242 60.585 34.8738 60.3996 34.7473C59.6594 34.2365 58.8665 34.3317 58.0523 34.4559C57.6896 34.5023 57.3337 34.5612 56.9776 34.6046L56.9264 34.4778L58.6334 33.0332C59.1849 33.0538 59.7359 33.1071 60.2833 33.1925C61.6779 33.4253 63.0394 33.8404 64.3286 34.4253C65.1413 34.811 65.9858 35.1275 66.8521 35.371C66.8904 35.3891 66.9309 35.4031 66.9722 35.4125C68.3928 35.5549 69.8073 35.7321 71.2177 35.84C72.3095 35.9157 73.3426 35.9346 74.3579 36.4576C74.9547 36.7682 75.5988 36.991 76.2263 37.3589C76.0538 37.3899 75.878 37.4058 75.7012 37.406C74.4132 37.3555 73.1273 37.3907 71.8527 37.5114C70.7127 37.5752 69.5419 37.5659 68.385 37.582C68.254 37.5886 68.1212 37.5688 67.9922 37.5866C66.8869 37.7331 65.7566 37.7127 64.6425 37.5261C63.8352 37.494 63.0289 37.5055 62.2272 37.5601C60.7892 37.5156 59.3462 37.4693 57.9141 37.3278C57.2683 37.1979 56.6314 37.026 56.0069 36.8139C55.49 36.6923 54.949 36.6404 54.4539 36.5682L52.7085 36.2977C51.2253 36.1152 49.7314 36.1385 48.2746 36.367C47.2869 36.4928 46.3231 36.7291 45.4038 37.0706C44.8567 37.2408 44.3498 37.5026 43.9069 37.8437C43.6972 38.0072 43.5382 38.2213 43.4461 38.4648C43.3848 38.6789 43.2568 38.8682 43.0789 39.0092C41.7392 40.0531 40.5204 41.227 39.441 42.5129C38.9347 43.0559 38.386 43.5619 37.7995 44.0269C37.5887 44.2273 37.3933 44.4414 37.2147 44.6678C36.524 45.5726 35.73 46.4006 34.8457 47.1377C34.9337 46.3354 35.326 45.6028 35.9507 45.0739C36.1259 44.9721 36.2901 44.8546 36.4408 44.723C36.5835 44.5691 36.6745 44.3873 36.9641 44.4874C37.1738 44.5599 37.3153 44.4579 37.4105 44.2465C37.5496 43.9732 37.7144 43.7134 37.9032 43.4695C38.3942 42.7598 38.8906 42.0521 39.377 41.3408C39.414 41.2337 39.4276 41.0979 39.496 40.9968C39.5978 40.6632 39.8078 40.3723 40.097 40.1638C40.2708 40.0175 40.3954 39.8261 40.4558 39.6113C40.5334 39.3244 40.6271 39.0424 40.7367 38.7666C41.0435 38.2121 41.1924 37.5867 41.1699 36.9491L41.1732 36.9397ZM31.9379 37.9613C31.7829 39.2658 31.5963 40.5649 31.4165 41.8611C31.3763 41.9772 31.3361 42.0934 31.3473 42.2224L30.9905 46.0177C30.9881 46.0786 30.971 46.1378 30.9405 46.1904C30.9095 46.2431 30.866 46.2877 30.8131 46.3206C30.7709 45.4889 30.7403 44.656 30.6947 43.818C30.6665 43.3659 30.627 42.9151 30.5708 42.4638C30.4891 41.8265 30.391 41.1889 30.298 40.553C30.2784 40.4308 30.2888 40.3068 30.3286 40.1916C30.3686 40.0761 30.4369 39.9725 30.5279 39.8883C30.7558 39.6342 30.9431 39.3501 31.1869 39.0339C30.6877 38.8612 30.5809 39.4123 30.1229 39.363C30.1302 39.147 30.0515 38.8907 30.1491 38.7373C30.6612 37.9516 31.2132 37.1955 31.8206 36.3281C31.9766 36.8641 32.0165 37.42 31.9379 37.9613ZM31.9522 34.6875L32.1125 34.774C31.8875 35.9246 30.9123 36.6281 30.25 37.6219C30.1419 37.5057 30.0811 37.3578 30.0791 37.2065C30.0767 37.0555 30.1331 36.9108 30.2375 36.8005C30.8147 36.1015 31.3868 35.3958 31.9538 34.6829L31.9522 34.6875ZM28.7996 52.6759C28.8602 52.4595 28.9338 52.2469 29.0198 52.0393C29.2705 51.3242 29.4249 50.579 29.4796 49.8199C29.5847 49.0528 29.6066 48.274 29.546 47.4956C29.4493 46.7078 29.3246 45.9048 29.1838 45.1481C28.8747 43.6831 28.4893 42.2277 28.1931 40.7567C27.8584 39.1198 27.8406 37.4523 28.1399 35.8359C28.2966 35.0103 28.3158 34.1636 28.4444 33.3391C28.5805 32.2983 28.752 31.27 28.8931 30.2309C29.15 28.62 29.0518 26.962 28.6051 25.3589C28.5904 25.2489 28.5875 25.1381 28.5966 25.0283C29.2533 25.575 29.7726 26.2535 30.1134 27.0099C30.5026 28.0345 30.8155 29.0849 31.1254 30.1287C31.4351 31.1728 31.6997 32.1853 31.976 33.2126C32.0412 33.4342 32.0846 33.6597 32.1059 33.887C32.1125 34.0085 32.072 34.1259 31.9918 34.217C31.3605 34.8472 30.7037 35.4527 30.0623 36.0947C30.0033 36 29.9777 35.8912 29.9892 35.7843C30.0011 35.6775 30.0494 35.5789 30.1273 35.503C30.4154 35.155 30.6881 34.7865 30.9497 34.4189C31.031 34.2497 31.0925 34.0719 31.1329 33.889C30.5228 34.037 30.4542 34.6066 29.9148 34.7114L29.7982 33.1098C29.418 33.223 29.4675 33.5159 29.4743 33.6901C29.4677 34.2915 29.5007 34.891 29.5287 35.4887C29.5632 36.2292 29.6576 36.9747 29.6324 37.7102C29.6113 38.8448 29.708 39.9833 29.9212 41.1097C30.1726 42.7579 30.2083 44.3682 30.3024 46.0035C30.3338 46.639 30.2264 47.2732 30.2004 47.9147C30.1765 48.3226 30.1741 48.7331 30.1439 49.1441C30.1319 49.3477 30.0963 49.548 30.0377 49.7425C29.8561 50.1701 29.7042 50.6094 29.5827 51.0578C29.436 51.8653 29.1186 52.6294 28.6488 53.3056C28.7045 53.0959 28.7452 52.8809 28.8011 52.6716L28.7996 52.6759ZM31.8417 49.4399C32.085 48.9464 32.3716 48.4728 32.6165 47.9747C32.9946 47.2051 33.3525 46.4289 33.7253 45.6574C33.8048 45.4935 33.8969 45.3357 34.0006 45.1851C34.5665 44.2731 34.9119 43.2474 35.0125 42.1783C34.9272 42.2377 34.8546 42.3112 34.7977 42.3954C34.5405 42.9778 34.3046 43.5624 34.0625 44.15C33.9885 44.3639 33.9145 44.5778 33.8071 44.7748C33.085 46.0864 32.3304 47.4282 31.6169 48.7636C31.4285 49.1147 31.2731 49.4827 31.1032 49.8453C31.0099 50.115 30.9167 50.3846 30.7899 50.6374L30.6204 50.5787C30.6432 50.4326 30.6977 50.2935 30.7798 50.1699C30.8618 50.0463 30.9703 49.9406 31.0983 49.8594L31.1096 49.8267C31.0859 49.7665 31.027 49.6942 31.0466 49.6539C31.6841 48.2145 32.3502 46.7898 32.9627 45.3414C33.3282 44.4945 33.5941 43.6133 33.9344 42.7581C34.2479 41.9815 34.6058 41.2206 34.9459 40.4483C35.1414 39.9955 35.3293 39.5972 35.5071 39.1644C35.8059 38.4454 36.0816 37.7133 36.3792 36.9991C36.4477 36.8562 36.566 36.7416 36.7155 36.6731C36.6834 37.2344 36.663 37.7948 36.6193 38.3573C36.5109 39.7043 36.403 41.0512 36.2668 42.3988C36.2148 43.3317 35.8753 44.2182 35.2896 44.9491C34.7048 45.6214 34.4884 46.4571 34.1056 47.2251C34.0397 47.4156 33.9286 47.5909 33.8229 47.7676C33.3802 48.5302 32.9424 49.2949 32.4764 50.0446C32.1849 50.5161 31.8464 50.9613 31.5085 51.4531C31.8576 51.8499 31.5872 52.1468 31.277 52.4138C30.6556 52.933 30.0163 53.4404 29.3078 54.0177C29.4354 53.3933 29.7364 52.8187 30.1804 52.3521C30.5591 51.9404 30.8787 51.4827 31.1322 50.99C31.4085 50.4975 31.5932 49.9472 31.8433 49.4352L31.8417 49.4399ZM22.3133 44.5207C22.3427 44.6682 22.3436 44.8184 22.3164 44.9641C22.0237 45.596 21.588 46.1553 21.0393 46.6041C21.1879 45.7708 21.8767 45.2492 22.1554 44.4922L22.3133 44.5207ZM21.9331 44.1811C21.5657 44.6783 21.1895 45.1676 20.8136 45.657C20.7927 45.7175 20.6732 45.7229 20.5593 45.7772C20.5399 45.6558 20.4891 45.5602 20.5168 45.5126C20.9286 44.8069 21.3423 44.112 21.7948 43.3525C22.0452 43.6472 22.1425 43.8994 21.938 44.1671L21.9331 44.1811ZM20.2698 56.6999C19.913 55.3066 19.755 53.8726 19.5028 52.4531C19.4799 52.1447 19.435 51.8371 19.3682 51.5323C18.9276 50.1725 19.0384 48.7848 18.9226 47.4072C18.7991 46.2163 18.5586 45.0337 18.2046 43.8749C17.9416 42.8578 17.6373 41.8626 17.3761 40.8405C17.2987 40.4819 17.2563 40.1186 17.2482 39.7554C17.2115 38.9727 17.2313 38.1883 17.1663 37.4063C17.1842 36.5696 17.3655 35.75 17.7007 34.9886C19.6358 37.4743 20.5295 40.2399 21.6804 42.8758L20.2295 44.8409C20.2803 44.4039 20.4479 43.9909 20.7172 43.6407C20.8972 43.2815 21.0823 42.9241 21.282 42.5403C21.0384 42.3884 20.9215 42.4676 20.806 42.6567C20.5894 43.0394 20.3352 43.4008 20.0468 43.7368C20.044 43.3064 20.198 42.8947 20.4832 42.5712C20.6308 42.4033 20.7354 42.2471 20.4623 42.0017C20.2202 42.2979 20.0025 42.5712 19.6886 42.9625C19.4346 42.1771 19.2472 41.5553 19.0246 40.8902C18.7479 40.9301 18.7059 41.1652 18.7666 41.41C18.8635 41.7921 19.0149 42.162 19.135 42.542C19.3019 43.0783 19.4603 43.6225 19.6268 44.1587C19.7935 44.6953 19.9332 45.1964 20.1342 45.6978C20.3351 46.1992 20.6819 46.8291 20.912 47.4085C21.0274 47.7015 21.0913 48.0084 21.1011 48.3168C21.1663 49.4531 21.2036 50.5901 21.2422 51.7224C21.3049 52.527 21.2382 53.3304 21.0441 54.1051C20.9261 54.7039 20.9261 55.323 21.0438 55.9319C21.1767 57.0188 21.3549 58.1522 21.536 59.261C21.655 59.6887 21.6914 60.1301 21.6446 60.5632C21.1408 59.2076 20.5936 57.9775 20.2747 56.6858L20.2698 56.6999ZM18.7969 74.8739C18.6829 75.0164 18.5179 75.1145 18.3306 75.1515C18.1434 75.1885 17.9456 75.1616 17.7712 75.0759C17.7075 75.0329 17.6544 74.9776 17.6149 74.9141C17.5756 74.8503 17.5508 74.78 17.5428 74.7079C17.5348 74.6358 17.5434 74.5634 17.5682 74.496C17.593 74.4286 17.6335 74.368 17.6867 74.3181C17.8002 74.1956 17.9597 74.1197 18.1343 74.1051C18.309 74.0903 18.4861 74.1379 18.6306 74.2388C18.8997 74.4305 18.9619 74.6706 18.8018 74.8599L18.7969 74.8739ZM21.1672 68.8605C20.6913 69.7678 20.1936 70.6731 19.781 71.6075C19.4817 72.2953 19.2906 73.0253 19.0635 73.7795L18.0313 73.5317C18.0558 73.3871 18.0937 73.2451 18.1443 73.1075C18.4054 72.5473 18.6943 72.0021 18.9555 71.4419C19.555 70.1608 20.1546 68.8798 20.7291 67.59C20.8637 67.2981 20.868 66.9458 20.9957 66.6414C21.2332 66.0675 21.5207 65.5113 21.7746 64.9382C21.8634 64.7584 21.9172 64.564 21.9343 64.3639C21.9514 63.9585 21.9172 63.5409 21.9176 63.1349C21.8736 62.6397 21.9308 62.1453 22.0862 61.6787C22.1844 61.3665 22.2225 61.0377 22.1981 60.7079C22.2038 60.2323 22.1822 59.7557 22.1329 59.2802C22.0651 58.6687 21.9508 58.0617 21.8497 57.4491L21.5385 55.6502L22.6362 54.2863C22.1465 54.0859 22.0704 54.58 21.7697 54.658C21.6179 54.1269 21.6011 54.0792 22.1576 53.4389C22.4477 53.1178 22.6066 52.6419 23.1792 52.5224L23.093 52.0607C22.4015 52.0714 22.4113 52.8191 21.853 53.0111C21.8094 52.9086 21.7939 52.7986 21.8074 52.6914C21.8209 52.5842 21.8634 52.4831 21.9311 52.3978C22.2467 52.0179 22.5829 51.6605 22.8788 51.2737C22.9699 51.1728 23.028 51.0489 23.0473 50.9155C23.0545 50.7116 23.0449 50.5065 23.0191 50.302C22.6443 50.7555 22.2697 51.2088 21.8997 51.6636L21.7396 51.5616C21.5412 50.6965 22.3629 50.3406 22.7712 49.7586C22.741 49.571 22.6012 49.5227 22.4496 49.6212C22.1583 49.8171 21.8887 50.0466 21.5242 50.342C21.4889 49.5542 21.4847 48.8399 21.4318 48.0878C21.9714 47.7565 22.3591 47.2481 22.5253 46.6548C22.0807 46.3243 22.0805 46.9071 21.7804 46.9176C21.8955 46.4321 22.138 45.9865 22.486 45.6213C22.8342 45.9394 22.7688 46.3385 22.7876 46.6727C22.8232 47.7227 22.9482 48.7716 23.1611 49.8101C23.1695 49.9504 23.1604 50.0905 23.1343 50.2275C23.4153 50.7022 23.5428 51.2395 23.5009 51.7699C23.5008 52.2411 23.4727 52.711 23.4166 53.1772L23.3007 54.8699C23.3481 56.3489 23.3972 57.823 23.3584 59.2928C23.2935 59.8441 23.1648 60.3841 22.9746 60.9036C22.6579 61.9179 22.462 62.967 22.3901 64.0321C22.3823 64.2323 22.4874 64.4457 22.4545 64.6372C22.3494 65.1837 22.4958 65.8276 22.2569 66.2759C21.8212 67.0984 21.6041 68.0175 21.1721 68.8465L21.1672 68.8605ZM27.1097 61.8444C26.1952 62.3713 25.3112 62.9398 24.4139 63.5141C24.2063 63.6456 24.0156 63.8086 23.7147 64.0322C23.7406 63.8979 23.7855 63.7681 23.8481 63.6465C24.3714 62.8814 25.0614 62.234 25.8751 61.7454C26.3517 61.4595 26.8054 61.1416 27.2326 60.7941C28.7664 59.7985 30.3724 58.9024 32.04 58.111C32.1155 58.0744 32.1937 58.0422 32.2741 58.0153L32.386 58.0955C32.3263 58.2108 32.2565 58.3205 32.1773 58.4241C31.7361 58.8596 31.3147 59.3019 30.837 59.7143C30.6848 59.8492 30.5151 59.9651 30.3315 60.0599C29.2537 60.6551 28.1738 61.2238 27.1144 61.8307L27.1097 61.8444ZM30.4232 61.0233C29.9594 61.1519 29.4853 61.2487 29.0041 61.313L28.951 61.1751C29.1376 61.1044 29.3124 61.0191 29.5008 60.9591C29.6892 60.8995 29.8288 60.9321 29.934 60.8541C31.463 59.6655 33.353 59.0493 35.1119 58.2473C35.9599 57.864 36.8652 57.589 37.7037 57.2181C38.5418 56.8471 39.3547 56.4517 40.1764 56.0645C40.5375 55.8928 40.9087 55.7245 41.2547 55.5318C41.4099 55.4217 41.5524 55.2967 41.6803 55.1586C41.803 55.0125 41.9519 54.8883 42.1206 54.7904C42.7093 54.5172 43.2428 54.1534 43.7005 53.7132C44.1396 53.4297 44.6003 53.177 45.0801 52.9567C45.451 52.7546 45.8023 52.5226 46.1303 52.2638C46.2858 52.0903 46.3785 51.8731 46.3954 51.6423C47.5066 50.8749 48.6166 50.1119 49.7246 49.3535L49.8087 49.4503C49.3045 49.9058 48.8004 50.3609 48.2931 50.8101L44.9251 53.8087C44.1329 54.4853 43.2601 55.0733 42.3229 55.5628C40.6351 56.4832 38.9573 57.407 37.2478 58.2937C35.0517 59.3521 32.7728 60.2593 30.428 61.0093L30.4232 61.0233ZM56.3147 60.5062C56.3782 60.4243 56.4495 60.3479 56.5276 60.278C57.0328 59.9323 57.5626 59.5641 58.0641 59.1805C58.3913 58.9294 58.6799 58.6283 58.9885 58.3499L59.6013 57.8229C59.7253 57.735 59.8441 57.6405 59.9564 57.5399C61.6305 55.8343 63.4926 54.2976 64.991 52.4375C65.3442 52.0595 65.7229 51.7038 66.1251 51.3723C66.9458 50.6154 67.6888 49.8733 68.4837 49.1436C68.7862 48.8676 69.1315 48.6367 69.5091 48.4574L69.6683 48.6271C69.5718 48.7447 69.4901 48.8674 69.3868 48.9721C68.7238 49.6066 68.0599 50.2443 67.3949 50.8854C66.9844 51.2638 66.5312 51.669 66.1244 52.0853C65.6161 52.6014 65.1548 53.1603 64.6477 53.6563C63.9718 54.3334 63.276 54.9879 62.5767 55.6359C61.6378 56.5082 60.6421 57.3347 59.7417 58.2409C58.8757 59.1036 57.8809 59.8422 56.7863 60.4351C56.7174 60.475 56.6401 60.5006 56.5585 60.51C56.4774 60.5196 56.3942 60.5132 56.3145 60.4905L56.3147 60.5062ZM23.1563 54.5599L23.3154 54.8597C23.2612 54.919 23.2023 54.9767 23.0449 55.1408C23.0569 54.8637 23.0571 54.718 23.0636 54.5693L23.1563 54.5599Z" fill="#101A24"/>
</g>
</svg>
