<svg width="212" height="212" viewBox="0 0 212 212" fill="none" xmlns="http://www.w3.org/2000/svg">
<g opacity="0.1">
<path d="M141.345 97.4105L140.163 96.5813L141.563 94.5861C142.314 93.5124 142.609 92.1847 142.382 90.894C142.156 89.6034 141.427 88.4552 140.355 87.7012L111.516 67.4686C110.442 66.7173 109.114 66.4225 107.823 66.6489C106.533 66.8753 105.385 67.6044 104.631 68.6762L103.229 70.6738L102.047 69.8441C101.171 69.2314 100.088 68.991 99.0359 69.1756C97.9835 69.3602 97.0472 69.9547 96.4325 70.8288L94.9271 72.9747C94.3144 73.8501 94.0739 74.9328 94.2585 75.9853C94.4431 77.0378 95.0377 77.9741 95.9118 78.5887L96.8513 79.2478L92.2417 87.7121L80.7459 108.823L72.6862 123.627C72.5336 123.907 72.4895 124.234 72.5622 124.545C72.635 124.855 72.8196 125.129 73.0809 125.312L98.6875 143.276C98.9489 143.46 99.2686 143.54 99.5857 143.503C99.9028 143.466 100.195 143.313 100.407 143.074L133.915 105.247L135.211 106.156C136.086 106.768 137.169 107.009 138.222 106.824C139.274 106.64 140.21 106.045 140.825 105.171L142.33 103.025C142.943 102.149 143.184 101.067 142.999 100.014C142.814 98.9614 142.219 98.0251 141.345 97.4105ZM106.758 70.1684C107.115 69.6601 107.66 69.3143 108.272 69.2069C108.884 69.0995 109.514 69.2393 110.023 69.5957L138.863 89.8283C139.371 90.1859 139.717 90.7305 139.825 91.3427C139.932 91.9548 139.792 92.5846 139.436 93.0939L138.034 95.0915L105.356 72.166L106.758 70.1684ZM110.407 127.865L83.5835 109.046L93.8292 90.2306L124.613 111.827L110.407 127.865ZM99.23 140.484L75.5213 123.851L82.3332 111.343L108.674 129.822L99.23 140.484ZM126.347 109.87L95.0792 87.9345L98.9934 80.747L131.774 103.744L126.347 109.87ZM138.697 103.678C138.479 103.989 138.146 104.2 137.772 104.266C137.398 104.331 137.014 104.246 136.703 104.028L97.4057 76.4592C97.0951 76.2409 96.8839 75.9082 96.8183 75.5342C96.7527 75.1602 96.8381 74.7755 97.0558 74.4645L98.5613 72.3186C98.7797 72.008 99.1123 71.7967 99.4863 71.7311C99.8603 71.6656 100.245 71.751 100.556 71.9687L139.853 99.5376C140.164 99.756 140.375 100.089 140.44 100.463C140.506 100.837 140.421 101.221 140.203 101.532L138.697 103.678Z" fill="#101A24"/>
</g>
</svg>
