<svg width="108" height="108" viewBox="0 0 108 108" fill="none" xmlns="http://www.w3.org/2000/svg">
<g opacity="0.1">
<path d="M57.7695 43.1111C57.2818 30.4472 44.9489 16.895 33.7831 12.0002C29.1321 9.33499 21.4676 10.3976 16.9037 13.0105C11.4863 16.1111 10.5805 22.7653 10.4586 28.4789C10.1799 42.0311 18.2973 57.6911 32.6683 60.5131C44.3218 62.795 58.2573 56.1408 57.7695 43.1111ZM32.5463 14.1079C40.8554 17.7485 48.0844 25.5176 52.3173 33.426C55.0695 38.5821 56.7592 45.0795 53.8153 50.584C51.9515 54.1027 48.5373 55.9143 44.8966 56.9595C36.7966 57.7085 27.6341 48.8421 23.8366 42.275C19.6908 35.1331 13.4895 25.2214 16.5031 16.8602C20.5444 13.0105 27.8953 11.4253 32.5463 14.1079ZM14.256 38.7911C12.8973 33.9485 12.3573 28.3918 13.3328 23.3227C14.0121 31.0221 18.8373 39.3137 22.6521 45.0272C25.805 49.7653 31.6231 55.6182 37.8418 58.1614C26.5018 58.5447 17.287 49.5737 14.256 38.7911Z" fill="#101A24"/>
<path d="M23.6276 14.9963C23.5057 15.2401 23.4708 15.5014 23.6102 15.8324C24.2373 21.1976 26.0489 25.8137 29.4108 30.1163C34.9676 37.1885 41.5695 42.3795 42.4231 52.0298C42.5624 53.615 44.6702 53.5801 44.8618 52.0298C45.6805 45.515 45.3495 39.2266 40.8379 34.1053C35.2115 27.695 29.3412 23.4446 25.9618 15.1879C25.927 15.1182 25.8921 15.0834 25.8573 15.0137C25.8399 14.9963 25.8224 14.9963 25.8224 14.9788C25.7549 14.8595 25.6664 14.7533 25.5612 14.6653C25.5089 14.6305 25.4566 14.613 25.4218 14.5782C25.3521 14.5434 25.2824 14.4911 25.1953 14.4563C24.6553 14.2472 24.0108 14.3692 23.7147 14.8395C23.6799 14.8917 23.645 14.9266 23.6276 14.9963ZM33.5566 30.4472C35.9953 32.7117 38.9915 35.0111 40.7682 37.8853C41.9528 39.8014 42.5102 41.9788 42.7192 44.2085C39.9147 38.2163 35.0199 33.4608 31.2399 28.0782C31.9715 28.8795 32.7379 29.6808 33.5566 30.4472ZM50.7495 43.9124C50.5928 45.4801 53.0315 45.4627 53.1883 43.9124C53.467 41.0556 52.8747 38.2859 51.5508 35.7427C50.8192 34.3492 48.7115 35.5859 49.4431 36.9795C50.5928 39.1569 50.9934 41.4737 50.7495 43.9124ZM50.6624 46.8911H50.5928C49.025 46.8911 49.025 49.3298 50.5928 49.3298H50.6624C52.2302 49.3298 52.2302 46.8911 50.6624 46.8911ZM92.2773 50.1659C87.7134 47.5705 80.0315 46.4905 75.3979 49.1556C64.2321 54.0505 51.8992 67.6027 51.4115 80.2666C50.9237 93.2788 64.8592 99.9505 76.4953 97.6685C90.9012 94.8466 98.9663 79.204 98.705 65.6343C98.6005 59.9382 97.6773 53.2492 92.2773 50.1659ZM55.3483 87.7395C52.4392 82.2698 54.0766 75.7027 56.8463 70.5814C61.1141 62.673 68.256 54.9214 76.6173 51.2634C81.2857 48.5808 88.6192 50.1137 92.6605 53.9808C95.6915 62.3421 89.4902 72.2885 85.3444 79.4305C81.5295 85.9976 72.3844 94.8814 64.267 94.115C60.6263 93.0698 57.2295 91.2756 55.3483 87.7395ZM71.3566 95.3343C77.5579 92.7911 83.376 86.9382 86.5463 82.2001C90.3612 76.504 95.1863 68.1776 95.8483 60.4782C96.8063 65.5298 96.3012 71.1911 94.9076 75.964C91.7895 86.7117 82.7315 95.7176 71.3566 95.3343Z" fill="#101A24"/>
<path d="M64.5283 88.3161C66.9844 73.5619 83.3586 68.1619 86.1108 53.3381V53.2161C86.1283 53.1116 86.1283 52.9897 86.1108 52.8852C86.1108 52.8503 86.1108 52.7981 86.0934 52.7632C86.0608 52.6254 86.0017 52.4952 85.9192 52.38C85.9192 52.38 85.9192 52.3626 85.9018 52.3626C85.5883 51.9097 84.996 51.6832 84.4908 51.8574C84.2295 51.9271 84.0031 52.1187 83.8637 52.4148C80.1883 59.3826 73.4818 64.3645 68.0644 69.9387C63.0128 75.1471 61.7237 80.8606 62.1244 87.9852C62.2115 89.2916 64.3018 89.7445 64.5283 88.3161ZM68.2212 73.3355C69.8237 71.4019 71.8095 69.7819 73.5166 67.9355C75.7463 65.5142 78.1154 63.389 80.3276 61.1245C76.025 67.8658 69.1444 72.8477 65.1031 79.7981C65.6257 77.5161 66.5663 75.3387 68.2212 73.3355ZM76.2515 82.9666C74.3354 85.8408 71.3741 87.6002 68.3605 89.1331C66.967 89.8473 68.2037 91.955 69.5973 91.2408C73.0115 89.4989 76.1992 87.426 78.3592 84.186C79.2302 82.897 77.1224 81.6776 76.2515 82.9666ZM79.3347 79.2389C77.767 79.2389 77.767 81.6776 79.3347 81.6776C80.9025 81.6776 80.9025 79.2389 79.3347 79.2389ZM28.2786 83.0712C26.7108 83.0712 26.7108 85.5099 28.2786 85.5099C29.8463 85.5099 29.8463 83.0712 28.2786 83.0712ZM27.9302 73.109V72.8826C27.9302 71.3148 25.4915 71.3148 25.4915 72.8826V73.109C25.4915 74.6768 27.9302 74.6768 27.9302 73.109ZM40.5766 68.7524C39.0089 68.7524 39.0089 71.1912 40.5766 71.1912C42.1444 71.1912 42.1444 68.7524 40.5766 68.7524ZM37.1276 80.7195V80.946C37.1276 82.5137 39.5663 82.5137 39.5663 80.946V80.7195C39.5663 79.1518 37.1276 79.1344 37.1276 80.7195ZM32.7554 75.2499C31.1876 75.2499 31.1876 77.6886 32.7554 77.6886C34.3231 77.6886 34.3231 75.2499 32.7554 75.2499ZM34.985 64.7303H34.7586C33.1908 64.7303 33.1908 67.169 34.7586 67.169H34.985C36.5528 67.169 36.5528 64.7303 34.985 64.7303ZM45.2799 72.1144C43.7121 72.1144 43.7121 74.5531 45.2799 74.5531C46.8476 74.5531 46.8476 72.1144 45.2799 72.1144ZM44.827 84.8654C43.2592 84.8654 43.2592 87.3041 44.827 87.3041C46.3947 87.3041 46.3947 84.8654 44.827 84.8654ZM71.3218 39.3486C72.8895 39.3486 72.8895 36.9099 71.3218 36.9099C69.7541 36.9099 69.7366 39.3486 71.3218 39.3486ZM66.845 28.3761C68.4128 28.3761 68.4128 25.9374 66.845 25.9374C65.2773 25.9374 65.2773 28.3761 66.845 28.3761ZM75.3805 25.535C76.9483 25.535 76.9483 23.0963 75.3805 23.0963C73.8128 23.0963 73.8128 25.535 75.3805 25.535ZM88.3754 33.2518C89.9431 33.2518 89.9431 30.8131 88.3754 30.8131C86.8076 30.8131 86.8076 33.2518 88.3754 33.2518ZM78.2199 41.3866C79.7876 41.3866 79.7876 38.9479 78.2199 38.9479C76.6521 38.9479 76.6521 41.3866 78.2199 41.3866ZM79.0908 34.1245L79.4915 33.7239C80.6063 32.609 78.8818 30.8845 77.767 31.9993L77.3663 32.4C76.2515 33.4974 77.976 35.2219 79.0908 34.1245ZM83.4979 27.5731C85.0657 27.5731 85.0657 25.1344 83.4979 25.1344C81.9302 25.1344 81.9302 27.5731 83.4979 27.5731ZM93.2528 40.5697C94.8205 40.5697 94.8205 38.131 93.2528 38.131C91.685 38.131 91.685 40.5697 93.2528 40.5697ZM85.1354 45.4453C86.7031 45.4453 86.7031 43.0066 85.1354 43.0066C83.5502 43.0066 83.5502 45.4453 85.1354 45.4453Z" fill="#101A24"/>
</g>
</svg>
