<svg width="64" height="51" viewBox="0 0 64 51" fill="none" xmlns="http://www.w3.org/2000/svg">
<path d="M7.65191 28.8949H0.927092C0.680587 28.8967 0.444791 28.9959 0.271121 29.1708C0.0974508 29.3458 -6.56674e-06 29.5823 3.31865e-10 29.8288L3.31865e-10 49.3148C3.31865e-10 49.826 0.415828 50.2419 0.927092 50.2419H7.65191C8.16318 50.2419 8.57901 49.826 8.57901 49.3148V29.8288C8.57945 29.7066 8.55583 29.5855 8.50948 29.4725C8.46313 29.3594 8.39497 29.2566 8.30888 29.1698C8.22279 29.0831 8.12047 29.0142 8.00774 28.967C7.89502 28.9199 7.77411 28.8953 7.65191 28.8949ZM63.0695 28.8949H56.3447C56.0985 28.8967 55.863 28.996 55.6899 29.171C55.5168 29.3461 55.4201 29.5826 55.421 29.8288V49.3148C55.421 49.826 55.8334 50.2419 56.3447 50.2419H63.0695C63.1915 50.2423 63.3125 50.2187 63.4253 50.1723C63.5382 50.1259 63.6408 50.0577 63.7273 49.9715C63.8137 49.8854 63.8823 49.783 63.9291 49.6703C63.9759 49.5576 64 49.4368 64 49.3148V29.8288C64 29.5817 63.9021 29.3447 63.7277 29.1696C63.5533 28.9946 63.3166 28.8958 63.0695 28.8949ZM20.1336 17.7562H13.4087C13.162 17.7562 12.9253 17.8542 12.7508 18.0287C12.5763 18.2032 12.4782 18.4399 12.4782 18.6867V49.308C12.4782 49.8192 12.8975 50.235 13.4087 50.235H20.1336C20.2556 50.2355 20.3765 50.2118 20.4894 50.1655C20.6023 50.1191 20.7049 50.0508 20.7913 49.9647C20.8778 49.8786 20.9464 49.7762 20.9932 49.6635C21.04 49.5508 21.0641 49.43 21.0641 49.308V18.6867C21.0645 18.5643 21.0408 18.4431 20.9942 18.33C20.9476 18.2169 20.879 18.1142 20.7925 18.0277C20.706 17.9412 20.6033 17.8727 20.4902 17.8261C20.3771 17.7795 20.2559 17.7557 20.1336 17.7562ZM48.6416 17.7562H41.9168C41.7951 17.7566 41.6746 17.781 41.5623 17.828C41.45 17.875 41.348 17.9437 41.2623 18.0301C41.1765 18.1165 41.1086 18.219 41.0624 18.3316C41.0162 18.4443 40.9927 18.5649 40.9931 18.6867V49.308C40.9931 49.8192 41.4055 50.235 41.9168 50.235H48.6416C48.7637 50.2355 48.8846 50.2118 48.9975 50.1655C49.1103 50.1191 49.2129 50.0508 49.2994 49.9647C49.3858 49.8786 49.4544 49.7762 49.5012 49.6635C49.548 49.5508 49.5721 49.43 49.5721 49.308V18.6867C49.5735 18.5641 49.5504 18.4425 49.5041 18.329C49.4578 18.2154 49.3893 18.1123 49.3026 18.0256C49.216 17.939 49.1128 17.8705 48.9993 17.8242C48.8858 17.7779 48.7642 17.7548 48.6416 17.7562ZM34.1183 24.5389H27.3901C27.1445 24.5398 26.9092 24.6378 26.7355 24.8115C26.5619 24.9851 26.4639 25.2204 26.463 25.466V49.3045C26.463 49.8158 26.8788 50.2316 27.3901 50.2316H34.1183C34.2404 50.2321 34.3613 50.2084 34.4742 50.162C34.587 50.1157 34.6896 50.0474 34.7761 49.9613C34.8625 49.8752 34.9311 49.7728 34.9779 49.6601C35.0247 49.5474 35.0488 49.4266 35.0488 49.3045V25.466C35.0488 25.344 35.0247 25.2231 34.9779 25.1104C34.9311 24.9977 34.8625 24.8954 34.7761 24.8093C34.6896 24.7231 34.587 24.6549 34.4742 24.6085C34.3613 24.5621 34.2404 24.5385 34.1183 24.5389Z" fill="#5F6061"/>
<path d="M4.29122 16.7984C4.76178 16.7989 5.2278 16.7065 5.66262 16.5267C6.09745 16.3468 6.49253 16.0829 6.82526 15.7502C7.15799 15.4175 7.42184 15.0224 7.60171 14.5876C7.78158 14.1527 7.87393 13.6867 7.87348 13.2162C7.87348 12.8719 7.80872 12.5481 7.71669 12.2345L15.2527 6.81174C15.7163 7.02988 16.2275 7.1594 16.7729 7.1594C17.8261 7.1594 18.76 6.69926 19.4178 5.97667L26.5312 10.0941C26.4903 10.3054 26.463 10.5235 26.463 10.7417C26.435 11.6886 26.7843 12.6078 27.434 13.2972C28.0838 13.9866 28.9808 14.3896 29.9277 14.4176C30.8746 14.4457 31.7939 14.0964 32.4832 13.4466C33.1726 12.7969 33.5757 11.8999 33.6037 10.953L43.195 8.14784C43.846 9.04085 44.8924 9.6305 46.0853 9.6305C46.8761 9.6305 47.5953 9.36806 48.1883 8.93178L56.2493 14.3989C56.1723 14.6883 56.13 14.9857 56.1231 15.2851C56.1225 15.9945 56.3323 16.6883 56.726 17.2785C57.1198 17.8686 57.6797 18.3287 58.3351 18.6006C58.9904 18.8724 59.7116 18.9437 60.4075 18.8054C61.1034 18.6672 61.7426 18.3256 62.2442 17.8239C62.7459 17.3223 63.0875 16.6831 63.2257 15.9872C63.364 15.2913 63.2927 14.5701 63.0209 13.9147C62.7491 13.2594 62.2889 12.6994 61.6988 12.3057C61.1086 11.912 60.4149 11.7022 59.7054 11.7028C58.9481 11.704 58.2111 11.9477 57.6024 12.3981L49.5483 6.94126C49.6832 6.45482 49.7136 5.94535 49.6377 5.4463C49.5617 4.94726 49.381 4.46993 49.1075 4.04567C48.834 3.62141 48.4738 3.25981 48.0506 2.98462C47.6274 2.70944 47.1508 2.52689 46.652 2.44897C46.1533 2.37104 45.6437 2.39951 45.1567 2.5325C44.6698 2.66549 44.2165 2.89999 43.8266 3.2206C43.4366 3.54121 43.119 3.94068 42.8944 4.39277C42.6698 4.84486 42.5434 5.33934 42.5235 5.84375L32.9356 8.64547C32.6501 8.2447 32.2841 7.9079 31.861 7.65659C31.4379 7.40529 30.9671 7.245 30.4786 7.18598C29.99 7.12696 29.4945 7.1705 29.0238 7.31382C28.553 7.45714 28.1174 7.69708 27.7446 8.01832L20.3415 3.72711C20.3415 3.67599 20.3551 3.63168 20.3551 3.58396C20.3554 3.11353 20.2629 2.64766 20.0831 2.21296C19.9033 1.77825 19.6396 1.38322 19.3071 1.05042C18.9746 0.717622 18.5799 0.453567 18.1453 0.273335C17.7108 0.0931029 17.245 0.000224206 16.7746 4.05419e-07C16.3042 -0.000223395 15.8383 0.0922122 15.4036 0.272031C14.9689 0.451849 14.5738 0.715529 14.241 1.04801C13.5689 1.7195 13.1911 2.63048 13.1906 3.58055C13.1906 4.11908 13.3201 4.62353 13.5315 5.08367L6.32265 10.2713C5.86066 9.95339 5.33044 9.74852 4.77473 9.67318C4.21902 9.59783 3.65338 9.65414 3.12343 9.83755C2.59348 10.021 2.11405 10.3263 1.7238 10.7291C1.33354 11.1318 1.0434 11.6206 0.876746 12.1561C0.710097 12.6915 0.671613 13.2586 0.764398 13.8117C0.857182 14.3648 1.07864 14.8883 1.41091 15.34C1.74318 15.7918 2.17696 16.1592 2.67727 16.4125C3.17759 16.6658 3.73043 16.798 4.29122 16.7984Z" fill="#5F6061"/>
</svg>
