<svg width="51" height="76" viewBox="0 0 51 76" fill="none" xmlns="http://www.w3.org/2000/svg">
<path d="M39.7082 9.59637V0.502197L0.998047 8.64543V75.5428H51V9.59637H39.7082ZM5.34996 71.4778V13.6618H46.6483V71.4778H5.34996Z" fill="#5F6061"/>
<path d="M42.1276 40.6109H9.86955C9.44159 40.611 9.03117 40.7422 8.72853 40.9756C8.4259 41.2091 8.2558 41.5257 8.25565 41.8558C8.25565 42.5422 8.9808 43.1008 9.86955 43.1008H42.1276C43.0185 43.1008 43.7425 42.5417 43.7425 41.8558C43.7429 41.1687 43.0181 40.6109 42.1276 40.6109ZM9.10301 37.392H10.7579C10.891 37.392 10.999 37.3086 10.999 37.2058V33.9934L13.0591 35.758C13.1504 35.8357 13.3268 35.8357 13.4183 35.758L15.4798 33.9922L15.4841 37.2058C15.4841 37.3086 15.5914 37.392 15.7262 37.392H17.3785C17.4102 37.392 17.4417 37.3873 17.471 37.378C17.5003 37.3686 17.5269 37.3549 17.5494 37.3376C17.5718 37.3203 17.5895 37.2998 17.6016 37.2772C17.6137 37.2545 17.6199 37.2303 17.6198 37.2058V30.8261C17.6198 30.7229 17.5131 30.6394 17.3785 30.6394H16.8288C16.7943 30.6399 16.7602 30.6457 16.7288 30.6567C16.6973 30.6676 16.669 30.6833 16.6457 30.703L13.2389 33.691L9.83585 30.7031C9.81281 30.6832 9.7846 30.6673 9.75305 30.6563C9.72151 30.6454 9.68733 30.6397 9.65274 30.6396H9.10301C8.96976 30.6396 8.86175 30.7229 8.86175 30.8263V37.2058C8.8618 37.2552 8.88724 37.3025 8.93247 37.3374C8.9777 37.3723 9.03904 37.3919 9.10301 37.392ZM19.006 37.392H25.071C25.2058 37.392 25.313 37.3086 25.313 37.2058V36.0148C25.313 35.912 25.2058 35.8287 25.071 35.8287H20.902V34.7517H23.9729C24.1075 34.7517 24.2148 34.6682 24.2148 34.5656V33.3779C24.2148 33.2751 24.1075 33.1918 23.9729 33.1918H20.902V32.2034H25.0824C25.2155 32.2034 25.3237 32.1195 25.3237 32.0167V30.8337C25.3239 30.8093 25.3179 30.7851 25.3059 30.7625C25.294 30.7399 25.2764 30.7194 25.2541 30.702C25.2318 30.6847 25.2053 30.6709 25.1761 30.6615C25.147 30.6521 25.1156 30.6472 25.084 30.6472L19.0076 30.6431C18.8746 30.6431 18.7664 30.727 18.7664 30.8298V37.2046C18.7657 37.2292 18.7715 37.2535 18.7833 37.2763C18.7951 37.2991 18.8127 37.3198 18.835 37.3373C18.8573 37.3547 18.884 37.3686 18.9134 37.378C18.9427 37.3873 18.9742 37.3921 19.006 37.392ZM26.7466 37.392H28.4017C28.4334 37.392 28.4647 37.3871 28.4939 37.3778C28.5231 37.3684 28.5497 37.3547 28.572 37.3374C28.5944 37.3201 28.6121 37.2996 28.6241 37.277C28.6361 37.2544 28.6423 37.2303 28.6422 37.2058V33.7006L33.3564 37.3372C33.4033 37.3734 33.4656 37.392 33.529 37.392H34.1336C34.2684 37.392 34.377 37.3086 34.377 37.2058V30.8261C34.377 30.7229 34.2676 30.6394 34.1336 30.6394H32.482C32.4501 30.6392 32.4186 30.6439 32.3891 30.6532C32.3596 30.6626 32.3328 30.6763 32.3103 30.6937C32.2877 30.7111 32.2699 30.7317 32.2578 30.7544C32.2457 30.7772 32.2396 30.8016 32.2398 30.8261V34.3731L27.4696 30.6943C27.4476 30.6767 27.4211 30.6628 27.3919 30.6534C27.3626 30.644 27.3312 30.6393 27.2995 30.6396H26.748C26.6145 30.6396 26.5061 30.7229 26.5061 30.8263V37.2058C26.5058 37.2303 26.5118 37.2546 26.5237 37.2772C26.5357 37.2999 26.5534 37.3205 26.5758 37.3378C26.5981 37.3551 26.6248 37.3689 26.6541 37.3782C26.6834 37.3874 26.7149 37.3921 26.7466 37.392ZM36.585 36.6658C37.3054 37.1487 38.2233 37.392 39.3094 37.392C40.3921 37.392 41.309 37.1487 42.0318 36.667C42.7619 36.1786 43.1364 35.5725 43.1364 34.8665V30.8273C43.1358 30.7776 43.1096 30.73 43.0637 30.695C43.0178 30.66 42.9558 30.6405 42.8912 30.6406H41.2363C41.1721 30.6407 41.1105 30.6603 41.0651 30.6954C41.0197 30.7304 40.9942 30.7778 40.9941 30.8273V34.5271C40.9941 34.9523 40.8423 35.2523 40.5342 35.4448C40.2096 35.6453 39.8081 35.7434 39.3092 35.7434C38.8068 35.7434 38.4049 35.6453 38.0781 35.4448C37.77 35.251 37.6182 34.951 37.6182 34.5261V30.8263C37.6181 30.7768 37.5925 30.7293 37.5471 30.6943C37.5017 30.6593 37.4402 30.6396 37.376 30.6396H35.7211C35.6569 30.6396 35.5953 30.6593 35.5499 30.6943C35.5045 30.7293 35.4789 30.7768 35.4788 30.8263V34.8654C35.4794 35.5714 35.8514 36.1774 36.585 36.6658Z" fill="#5F6061"/>
</svg>
