<svg width="54" height="62" viewBox="0 0 54 62" fill="none" xmlns="http://www.w3.org/2000/svg">
<path d="M53.2463 52.6796L45.1305 38.7314C46.5349 38.303 48.031 37.9247 48.6526 36.8513C49.6885 35.0629 47.8445 32.1291 48.3287 30.2122C48.8275 28.2393 51.772 26.5321 51.772 24.5267C51.772 22.5729 48.7278 20.2904 48.2287 18.3291C47.7411 16.4125 49.5796 13.4755 48.5403 11.6893C47.501 9.90284 44.0393 10.0496 42.6143 8.67839C41.148 7.26729 41.1526 3.81477 39.3841 2.86912C37.6084 1.91995 34.7225 3.83822 32.751 3.38383C30.8019 2.93463 29.0605 0 27.0246 0C24.9586 0 21.6724 3.32887 21.157 3.44867C19.1865 3.90675 16.2969 1.99317 14.5231 2.94636C12.7563 3.89519 12.7672 7.34805 11.3036 8.7615C9.88096 10.1352 6.41906 9.99483 5.38293 11.7833C4.34697 13.5713 6.19102 16.5045 5.70697 18.4224C5.22158 20.3452 2.17453 22.2935 2.17453 24.5172C2.17453 26.5227 5.12641 28.2245 5.62822 30.1964C6.11596 32.113 4.27744 35.0497 5.31675 36.8366C5.88256 37.8092 7.16633 38.2085 8.44841 38.5923C8.59804 38.6371 8.88103 38.8045 8.68935 39.0838L0.752534 52.7818C0.190908 53.7509 0.646978 54.5816 1.76571 54.6287L7.24172 54.857C8.36045 54.9041 9.76385 55.7171 10.361 56.6642L13.2831 61.301C13.8802 62.2481 14.8277 62.2304 15.3892 61.2614C15.3892 61.2614 23.5651 47.1461 23.5684 47.1421C23.7324 46.9504 23.8973 46.9897 23.9762 47.0568C24.8708 47.8184 26.1178 48.5783 27.1587 48.5783C28.1794 48.5783 29.1245 47.863 30.0594 47.0653C30.1355 47.0005 30.3207 46.8676 30.456 47.1434C30.4582 47.1477 38.6251 61.1859 38.6251 61.1859C39.188 62.1536 40.1357 62.1701 40.731 61.2217L43.6449 56.5794C44.2403 55.6316 45.6422 54.8155 46.7609 54.7667L52.2365 54.5281C53.3547 54.479 53.8092 53.6472 53.2463 52.6796ZM36.0745 39.9825C30.0199 43.5049 22.7524 43.1274 17.2015 39.6261C9.06785 34.4162 6.39158 23.6387 11.2812 15.1994C16.2266 6.66277 27.0977 3.65057 35.7112 8.34178C35.7565 8.36642 35.8012 8.39188 35.8461 8.41702C35.9099 8.45237 35.9736 8.48822 36.0371 8.52441C38.6944 10.0565 40.9987 12.28 42.6488 15.1161C47.6917 23.7845 44.7426 34.9396 36.0745 39.9825Z" fill="#5F6061"/>
<path d="M34.6898 11.0756C34.6647 11.0611 34.6392 11.0475 34.6141 11.0331C30.0129 8.37005 24.1483 8.17536 19.2332 11.0349C11.9395 15.2783 9.45756 24.6642 13.7009 31.9578C14.9957 34.1836 16.7701 35.9603 18.8172 37.2353C18.9918 37.3464 19.1685 37.4541 19.3473 37.5582C26.649 41.7883 36.0299 39.2895 40.2599 31.9882C44.4896 24.6865 41.9915 15.3058 34.6898 11.0756ZM36.5165 23.012L33.9598 25.504C33.168 26.2757 32.673 27.7991 32.8602 28.889L33.4637 32.4077C33.6507 33.4976 33.003 33.9683 32.0241 33.4537L28.864 31.7923C27.8852 31.2777 26.2835 31.2777 25.3047 31.7923L22.1447 33.4537C21.1659 33.9683 20.518 33.4976 20.705 32.4077L21.3085 28.889C21.4955 27.7991 21.0005 26.2757 20.2087 25.504L17.6522 23.012C16.8602 22.2403 17.1079 21.4786 18.2021 21.3194L21.7351 20.8061C22.8293 20.6471 24.1252 19.7056 24.6146 18.7141L26.1946 15.5127C26.684 14.5211 27.4849 14.5211 27.9741 15.5127L29.5543 18.7141C30.0437 19.7056 31.3394 20.6471 32.4338 20.8061L35.9667 21.3194C37.0608 21.4786 37.3083 22.2403 36.5165 23.012Z" fill="#5F6061"/>
</svg>
